<svg version="1.1" class="logo" xmlns="http://www.w3.org/2000/svg" xmlns:xlink="http://www.w3.org/1999/xlink" x="0px" y="0px" viewBox="0 0 321.8 46" enable-background="new 0 0 321.8 46" xml:space="preserve">
<path fill="#4FC3B3" d="M319.3,26.6c-1.7-0.6-3.7,0.2-4.3,2c-2.1,5.8-6.2,9.4-11.4,10.1c-3.2,0.4-6.4-0.3-9.3-1.8 c6.6-6,9-12.8,8.9-17.9c-0.1-4.7-2.4-8.5-6.2-10.4c-5.2-2.6-11-1.2-15,3.5c-4.4,5.1-6,14.2,0.3,22.9c0.4,0.5,0.8,1.1,1.2,1.5 c-4.4,2.4-8.3,3-11.7,1.8c-3.4-1.2-5.8-4.1-7.2-6.4c4.2-1.7,7.3-5.5,7.3-11.5c0-8.9-6.3-13.2-13.2-13.2h-12.4 c-2.2,0-3.6,1.9-3.6,3.7V41c0,2.4,1.9,3.7,3.6,3.7c1.9,0,3.4-1.3,3.4-3.7v-8h7.8c1.6,3.2,5.4,9.1,11.9,11.5c5.4,2,11.4,1.2,17.7-2.5 c0.5-0.3,1-0.6,1.4-0.8c4,2.8,8.6,4.4,13.2,4.4c0.9,0,1.8-0.1,2.8-0.2c7.7-1,13.8-6.3,16.8-14.5C321.9,29.1,321.1,27.2,319.3,26.6 M249.7,13.8h8.9c3.6,0,6.4,2.7,6.4,6.5c0,3.3-2.8,5.9-6.4,5.9h-8.9V13.8z M289,32.5c-0.5-0.5-0.9-1.1-1.3-1.6 c-4.1-5.8-3.3-11.5-0.6-14.6c0.6-0.7,2.3-2.4,4.6-2.4c0.7,0,1.5,0.2,2.3,0.6c2.1,1,2.4,3.3,2.5,4.6C296.6,22.6,294.6,27.8,289,32.5"/>
<path fill="#4FC3B3" d="M55.9,7C46.1,7,36,13.4,36,26.3c0,12.9,10.1,19.4,19.9,19c9.2,0,18.9-6.5,18.9-19C74.8,13.8,65.1,7.4,55.9,7 M55.3,38.8c-5.9,0-12.3-4.2-12.3-12.5c0-8.3,6.4-12.5,12.3-12.5c6.1,0,12.6,4.2,12.6,12.5C67.9,34.6,61.4,38.8,55.3,38.8"/>
<path fill="#4FC3B3" d="M106.4,10.8v19.5c0,11.3-18.4,10.6-18.4,0V10.8c0-5.1-7.1-4.9-7.1,0v19.5c0,20.2,32.5,20.2,32.5,0V10.8 C113.5,5.6,106.4,6,106.4,10.8"/>
<path fill="#4FC3B3" d="M143.2,30.1c11.5-4.6,8.7-23.1-5.1-23.1h-14.4c-1.8,0-3.3,1.4-3.3,3.3v30.8c0,4.8,7.2,4.6,7.2-0.1v-9.8h8.5 l8.2,11.7c3.3,4.1,8.9,0.1,6.1-4.1L143.2,30.1z M138.1,25h-10.5V13.6h10.5C145.6,13.6,145.1,25,138.1,25"/>
<path fill="#4FC3B3" d="M223.1,9.2c-1.3-3-5.2-2.9-6.7,0l-15.5,30.2c-1.1,2.3,0,4.2,1.7,5.2c1.9,0.4,3.9,0,4.8-1.8l2.3-4.7h19.9 l2.4,4.7c1.9,4.2,8.5,0.9,6.3-3.3L223.1,9.2z M213.1,30.9l6.6-13.3l6.1,13.3H213.1z"/>
<path fill="#4FC3B3" d="M181.2,45.3c-12.7,0-22.2-9.7-22.2-22.6c0-12.9,9.6-22.6,22.2-22.6c5.6,0,11.2,2.3,14.6,6.1 c1.3,1.5,1.2,3.8-0.2,5.1c-1.5,1.3-3.8,1.2-5.1-0.2c-2.1-2.3-5.7-3.8-9.3-3.8c-8.7,0-15,6.5-15,15.4c0,8.9,6.3,15.4,15,15.4 c3.6,0,7.1-1.3,9.8-3.8c1.5-1.3,3.8-1.2,5.1,0.3c1.3,1.5,1.2,3.8-0.3,5.1C191.8,43.3,186.6,45.3,181.2,45.3"/>
<path fill="#4FC3B3" d="M36.7,0.6c-1.6-1.1-3.8-0.7-4.9,0.9L19.1,19.6L6.5,1.5c-1.1-1.6-3.3-2-4.9-0.9c-1.6,1.1-2,3.3-0.9,4.9 l15.1,21.6v14c0,2,1.6,3.5,3.5,3.5c2,0,3.5-1.6,3.5-3.5V26.6l14.8-21C38.7,4,38.3,1.8,36.7,0.6"/>
</svg>
