<svg xmlns="http://www.w3.org/2000/svg" viewBox="0 0 501.59 156.26"><path d="M90.47,9.51c-4,0-8.07-1.17-12.49-2.66C71.39,12,68,21.19,64.59,30.48c3.6-1,7.35-2.3,11.67-2.3C82,28.18,80.41,33,79,34.85a3.19,3.19,0,0,1-2.25,1.22c-.37,0-.64-.27-.41-.63.45-.59,4.87-5.82-2.44-5.82a34.77,34.77,0,0,0-9.6,1.81C59.08,45.77,53.81,60.06,37.35,60.06c-11.45,0-17-6.67-17-13.8,0-7.89,6.81-16.5,17.86-16.5,1.53,0,1.35,2.07-.36,1.67-1.13-.27-1.08-.63-2.71-.63C29.33,30.8,22.7,38,22.7,45.9c0,6.76,4.42,13.35,14.65,13.35,14.34,0,19.16-13.35,24.26-27.19a21.25,21.25,0,0,1-4.51.54c-6.67,0-8.21-5.5-7.66-8.43.13-.72.85-.68.81,0-.14,1.49-.09,7.62,6.9,7.62a21.42,21.42,0,0,0,4.78-.59c3.56-9.6,7.35-19.34,14.69-24.8C69.59,4,61.47,1.08,51,1.08c-25.66,0-31.52,23.54-17.72,26,.49.05.45.41.22.45-4.37,1.36-9.74-2.57-9.74-8.52,0-8.25,9.38-19,27.28-19C61.38,0,70.09,3.25,77.48,5.82A23.63,23.63,0,0,1,91.14,1.94C99.44,1.94,98.18,9.51,90.47,9.51Zm.63-6.94a20.34,20.34,0,0,0-12.31,3.7C83.12,7.76,87,8.88,90.47,8.88,96.24,8.88,96.78,2.57,91.1,2.57Zm-7,52.48c-4.5-.13-5-3.38-3.74-6.49,1.81-4.33,4.33-9.87,4.78-11.09,1.17-2.89,1-4.69-.63-4.74s-4,3.34-4.15,3.61-.72.09-.45-.27S83.3,31.34,86,31.34c1.89,0,3.56,1.31,1.62,6.4-2.21,5.77-8.57,15.69-2.52,16.1,3.33.22,7-3.84,9.33-9.07,1.08-2.34,1.94-4.64,3-7.39,1.62-4.1,3.33-5.5,5-5.59,1-.05.67.4.58.45-1.89,1.35-3.11,4.73-6,13.12-1,3-2.93,7.67,0,8,1.71.14,3.33-1.94,4.19-3.56.22-.23.45-.14.31.18-.85,2.43-3.29,5.23-6.13,5.09-3.38-.18-3.06-3.78-1.94-6.71H93.4C92.19,50.46,88.62,55.14,84.11,55.05ZM135.52,1.53c2.93,0,4.6.9,4.24,1.94-.27.77-1.22.77-1.94.45-5.28-2.3-11.68-2.48-19.25,12-2.89,5.5-8.62,22.14-11,29.54-.94,2.93-2.7,8,.36,8,1.85,0,3.21-2,4.06-3.57.14-.22.45-.18.36.18-.81,2.44-3.06,5.1-5.81,5.1-4.83,0-2.53-6.36-2.12-7.8C113.06,19.66,120.5,1.53,135.52,1.53Zm10.78,0c2.93,0,4.6.9,4.23,1.94-.27.77-1.21.77-1.93.45-5.28-2.3-11.68-2.48-19.26,12-2.88,5.5-8.61,22.14-11,29.54-1,2.93-2.7,8,.36,8,1.85,0,3.2-2,4.06-3.57.13-.22.45-.18.36.18-.81,2.44-3.07,5.1-5.82,5.1-4.82,0-2.52-6.36-2.12-7.8C123.84,19.66,131.28,1.53,146.3,1.53ZM169,21c4.33,5.5,10.91,10.46,10.91,19.11,0,7.81-6.58,14.48-15.78,15.65a32.48,32.48,0,0,1-25.57,13.12,1.17,1.17,0,1,1-.09-2.34c1.49,0,1.22,1.44,4.65,1A30,30,0,0,0,163,55.87c-.63,0-1.26.09-1.94.09-11.9,0-18.66-8.62-18.66-15.83s4.91-13.35,13-13.35c6,0,13.62,4.69,13.62,15.65a22.16,22.16,0,0,1-4.24,12.4c5.5-.95,12.54-4.28,12.54-14.52,0-8.79-7.44-13.48-11.59-19.61-3.11-.55-5.95-1.72-7.44-3.12-1.18-1.08.76-2.75,1.62-1.35a8.61,8.61,0,0,0,5.23,3.56,13.7,13.7,0,0,1-2.16-7.3c0-7,7.53-11.54,13.43-11.54,4.87,0,8,3.42,8,7.26C184.35,14,178,21,169,21Zm-5.32,34a22.43,22.43,0,0,0,4.42-12.45c0-7.21-4.51-15-12.76-15-16.28,0-13.76,27.55,5.72,27.55C161.81,55.14,162.67,55.1,163.66,55ZM183.36,8.3c0-3.57-2.52-6.32-7-6.32-5.72,0-11,4.2-11,10.33a13.17,13.17,0,0,0,3.07,8C177.5,20.61,183.36,13.57,183.36,8.3Zm8.75,18c1.49-4.15,3.11-5.14,4.83-5.23,1-.09.9.41.81.45a8.58,8.58,0,0,0-3.16,4.29c-.31.76-.94,2.52-2,5.59,0,0,0,0,.05,0h6.09c1,0,.85,1.22-.09,1.22H192.2s-.09,0-.13.09c-1.62,4.51-3.7,10.42-4.38,12.53-1,2.94-2.84,7.85.14,8,1.85.09,3.29-1.94,4.19-3.56.14-.23.45-.14.32.18-.81,2.43-3.07,5.18-5.91,5.09-4.6-.13-2.25-6.35-1.76-7.75.23-.68,2.17-5.68,3.61-10.28.36-1.13,1.35-4.37-.27-4.37-1.17,0-.95-1.18,0-1.18h2.2c.09,0,.09,0,.14-.09C191.48,28.09,191.57,27.77,192.11,26.33Zm21.69,27c1.81,0,3.2-2,4.06-3.56.14-.23.45-.18.32.18-.77,2.43-2.89,5.09-5.73,5.09-4.24,0-3.16-5-2.07-7.8h-.14c-1.13,2.75-4.87,7.76-9,7.76s-5.41-3.25-5.41-6c0-7.08,7.75-17.36,13.43-17.36,1.18,0,4.29.54,4.24,5.73h.09c1.35-4,3.07-5.23,4.69-5.23,1,0,.81.31.63.45-2,1.26-2.84,4.37-5.5,12.76C212.54,48.29,210.74,53.34,213.8,53.34Zm-11.18,0c3.34,0,7.08-5.37,8.84-10.37,2.84-8,.27-10.47-1.81-10.47C202.12,32.55,193.24,53.39,202.62,53.39Zm20.29-5.78c0,3.25,1.31,5.73,4.65,5.73,3.65,0,6.53-3.2,8.29-6.81.23-.49.63-.4.5.14-.9,2.79-4.92,8.43-9.78,8.43-3.52,0-6.36-2.25-6.36-7.21,0-6.9,6.63-16.51,13.79-16.51,3.93,0,6.14,3.79,4.11,6.27a2.1,2.1,0,0,1-3.07.27A1.92,1.92,0,0,1,235,35c1.39-1.26,1.08-3.06-1.18-3.06C228.64,32,222.91,41.21,222.91,47.61ZM275.53,3.43c-.27.81-1.21.76-1.94.45-5.23-2.26-11.54-2.44-19.11,12-2.26,4.23-5.87,14.06-9.2,24.75-.18.63.27,1,1.4,1,5.54,0,7.71-9.83,12.71-9.83,3.65,0,2.75,4.69,1.31,5.91a2.11,2.11,0,0,1-2.75,0A1.91,1.91,0,0,1,258,35c.63-.63,1.54-.67,1.63-1.62a.75.75,0,0,0-.77-.95c-2.93,0-5.41,7.13-9.56,9.07,4.19-.05,4.42,2.07,3.88,3.88-.9,3-2.75,8,.45,8,1.71,0,3.07-2,4-3.57.09-.22.4-.18.31.18-.81,2.44-3.06,5.1-5.9,5.1-4.56,0-2.44-6.22-1.54-9.33.32-1,1.45-3.48-2.12-3.48a4.7,4.7,0,0,0-4.73,3.57c-.77,2.52-1.49,5-2.16,7.39a1.36,1.36,0,0,1-.77.86c-.45.18-2,.9-2.17.94a.26.26,0,0,1-.31-.31c8.12-24.85,14.7-53.21,33.14-53.21C274.27,1.53,275.89,2.39,275.53,3.43Zm66.38,23.13c0,16.37-12.18,32-28.09,32-5.14,0-9.92-2.93-14.34-5.73-2.93,3.16-6.58,5.46-11.09,5.46-11.23,0-10.51-10.92-.23-10.92,3.83,0,7.4,1.9,10.91,4.06a33,33,0,0,0,3.38-6.4c-13.93,1.4-22.81-7.8-22.81-18.4,0-12.13,12.89-25.47,32.92-25.47C333,1.13,341.91,15.56,341.91,26.56ZM302.73,44.28c2.21-5.14,10.41-32.42,12.76-41.35.09-.45-.05-.9-.86-1-20.7-.94-32.69,12.49-32.69,24.71C281.94,35.85,288.43,45.9,302.73,44.28Zm-4.24,7.93c-3.61-2.25-7-4.23-10.33-4.23-7.89,0-8.21,9.55.18,9.55C292.13,57.53,295.47,56.23,298.49,52.21Zm40.62-25.52c0-12.4-7.57-21.87-20-24.17-.63-.13-.9.41-1.08,1C317.15,6,307.32,40,305.16,43.83c6.4-1.58,10.73-5.68,10.73-8.71a1.06,1.06,0,1,1,2.12,0c0,1.85-5.05,7.67-13.21,9.51a37.4,37.4,0,0,1-4.69,7.49c4.37,2.75,8.79,5.68,13.71,5.68C328.56,57.76,339.11,42.07,339.11,26.69ZM345,48.11c-.13,2.8,1.08,5.32,4.24,5.32,4.69,0,7.57-5.23,8.43-6.72.36-.58.68-.27.5.23-.27.81-3.79,8.07-9.92,8.07-12.72,0-2.75-23.49,8.65-23.49a4.26,4.26,0,0,1,4.38,4.19C361.26,40.17,354.81,44.41,345,48.11Zm0-.86c16.72-5.81,15.69-14.83,11.09-14.83C350.53,32.42,345.52,41.21,345,47.25ZM366.94,55c-3.42,0-4.55-2.16-4.55-4.51,0-5.55,9.92-17.72,5.68-17.72-.95,0-2.53,1.44-4,3.52-.27.36-.77,0-.45-.36,1.17-1.54,3.24-4.38,6.22-4.38,1.26,0,2,.59,2,2.08,0,3.74-6.67,12.4-6.67,16.86,0,1.76.63,3.56,3.06,3.56,6.05,0,10.87-9.42,10.87-15,0-4.29-2.52-4.2-2.7-5.95-.09-1.13.4-1.85,1.44-1.85,1.71,0,2.34,2.79,2.34,7.17C380.15,43.11,376.23,55,366.94,55Zm17-6.9c-.13,2.8,1.08,5.32,4.24,5.32,4.69,0,7.58-5.23,8.43-6.72.36-.58.68-.27.5.23-.27.81-3.79,8.07-9.92,8.07-12.72,0-2.75-23.49,8.66-23.49a4.25,4.25,0,0,1,4.37,4.19C400.22,40.17,393.77,44.41,383.94,48.11Zm.05-.86c16.73-5.81,15.69-14.83,11.09-14.83C389.49,32.42,384.48,41.21,384,47.25ZM432.82,1.53c2.93,0,4.6.9,4.24,1.94-.27.77-1.22.77-1.94.45-5.27-2.3-11.68-2.48-19.25,12-2.89,5.5-8.61,22.14-11,29.54-.95,2.93-2.71,8,.36,8,1.84,0,3.2-2,4-3.57.14-.22.46-.18.37.18-.82,2.44-3.07,5.1-5.82,5.1-4.83,0-2.53-6.36-2.12-7.8C410.37,19.66,417.81,1.53,432.82,1.53ZM416.14,37.06c.09-.09.27-.13.27,0a3.66,3.66,0,0,0,1,1.71.57.57,0,0,1,0,.81c-3.56,5.68-4.82,14.84.86,14.84,3.83,0,6.9-4.92,8.88-10.19C429.62,38,430,32.15,425,32.15c-1.76,0-4,1-4,2.66,0,.68.36,1,.36,1.71a2.09,2.09,0,0,1-2,2.08,2,2,0,0,1-2-2.08c0-2,3.29-5,7.67-5,11.72,0,4.42,23.45-6.72,23.45C408.43,55,412.85,40.08,416.14,37.06ZM453.79,44c-2.84,7-8.39,11.86-14.16,11-2.75-.45-3.15-3.33-3-4.37-2,5.73-3.79,10.87-4.19,12.08-3.74,10.78-9.83,13.53-12.94,13.67-3.34.09-8.66-1.81-6.54-4.06a1.31,1.31,0,0,1,1.89,0c1.13,1,1.18,3.34,4.69,3.39,4,.09,7.85-5.42,10-11.23,1.85-4.92,5.68-16.19,9.2-26.79.95-2.79,1-4.73-.68-4.73s-3.92,3.34-4.14,3.61-.68.09-.46-.27,3.39-4.74,6.14-4.74c3.47,0,2.21,4.2,1.53,6.22h.18C449.24,25.93,458.21,32.92,453.79,44Zm-14-1.81c-3.42,8.35-2.79,11.77.81,12.09s8.3-4.65,10.56-10.55C456.63,29.22,445,29.71,439.81,42.2Zm18.67,5.91c-.13,2.8,1.08,5.32,4.24,5.32,4.69,0,7.58-5.23,8.43-6.72.36-.58.68-.27.5.23-.27.81-3.79,8.07-9.92,8.07C449,55,459,31.52,470.39,31.52a4.25,4.25,0,0,1,4.37,4.19C474.76,40.17,468.31,44.41,458.48,48.11Zm0-.86c16.73-5.81,15.69-14.83,11.09-14.83C464,32.42,459,41.21,458.53,47.25ZM479,53.34a1.64,1.64,0,0,1-1,1.08c-.54.23-1.4.54-1.53.59s-.54,0-.41-.45,4.74-14.21,5.68-17,.82-4.73-.85-4.73-3.88,3.34-4.06,3.61-.72.09-.45-.27,3.2-4.74,5.91-4.74c3.6,0,2.3,5.1,1.75,6.54h.14c1.53-2.52,4.55-6.54,8.7-6.54a3.39,3.39,0,0,1,3.47,3.34c0,3.43-3.06,4.51-4.37,2.75a2,2,0,0,1,1.22-3.16c1.71-.45.94-2.3-.9-2.3-3.25,0-8.17,5.14-10.56,13.08C481.61,45.81,479.22,52.89,479,53.34Z"/><path d="M33.14,150.34q-4.8,5.92-14.24,5.92a18.7,18.7,0,0,1-8.51-1.76,15.32,15.32,0,0,1-5.67-4.92,22.18,22.18,0,0,1-3.27-7.43A55,55,0,0,1,0,132.82l13.48-2.77a63.12,63.12,0,0,0,.69,6.43,19.23,19.23,0,0,0,1.08,4,4.58,4.58,0,0,0,1.57,2.14,4.12,4.12,0,0,0,2.33.63A3.56,3.56,0,0,0,22.68,141q1-2.32,1-8.25v-66H37.93v64.89Q37.93,144.42,33.14,150.34Zm56.32-39.82a175.52,175.52,0,0,1-1,20.16A51,51,0,0,1,85,144.92a19.47,19.47,0,0,1-6.48,8.5,16.83,16.83,0,0,1-10,2.84,16.32,16.32,0,0,1-9.7-2.77,18.83,18.83,0,0,1-6.24-8.38A54.12,54.12,0,0,1,49.26,131a172.83,172.83,0,0,1-1-20,176.09,176.09,0,0,1,1-20.1,53.14,53.14,0,0,1,3.41-14.3A19.51,19.51,0,0,1,59,68.12a16.26,16.26,0,0,1,9.82-2.83q11.73,0,16.19,11.34T89.46,110.52ZM75,111q0-10.08-.32-16.51a66.58,66.58,0,0,0-1.08-10,10.88,10.88,0,0,0-2-4.91,3.75,3.75,0,0,0-2.86-1.32,3.79,3.79,0,0,0-2.93,1.26C65,80.37,64.42,82,64,84.38a68.36,68.36,0,0,0-1,9.89q-.26,6.3-.25,16.25T63.06,127a67.69,67.69,0,0,0,1.09,10A11.34,11.34,0,0,0,66.06,142a3.56,3.56,0,0,0,2.8,1.32A3.84,3.84,0,0,0,71.72,142c.81-.84,1.44-2.45,1.91-4.85a72.58,72.58,0,0,0,1-9.83Q75,121.1,75,111Zm50.77,43.84V114.43H114.15v40.44H100V66.67h14.11v34.65h11.59V66.67h14.12v88.2Zm55.7,0-8.57-27.09q-1-3.27-2.14-7c-.76-2.52-1.47-5-2.15-7.56s-1.32-4.89-2-7.12-1.15-4.18-1.57-5.86q0,2.4.06,5.67c0,2.19.08,4.47.13,6.87l.12,7.18c0,2.39.06,4.56.06,6.49v28.47h-13.1V66.67h12.73L172,88.22q.87,2.64,1.95,6c.71,2.27,1.4,4.53,2.08,6.8s1.3,4.5,1.89,6.68,1.09,4.12,1.51,5.8c0-1.52,0-3.34-.06-5.48s-.09-4.37-.13-6.68-.08-4.56-.13-6.74-.06-4.12-.06-5.8V66.67h13.11v88.2Zm72.95,0-7.31-38.8h-3.53v38.8h-14V66.67H248a24.3,24.3,0,0,1,7.75,1.2,15.31,15.31,0,0,1,6.3,4,20,20,0,0,1,4.29,7.5A36.93,36.93,0,0,1,267.87,91a35,35,0,0,1-2.08,12.92,19.08,19.08,0,0,1-5.73,8.12l8.69,42.84Zm-.76-63.25q0-7.31-1.57-10.14a5.52,5.52,0,0,0-5.23-2.84h-3.28v25.83h2.9a5.91,5.91,0,0,0,5.42-2.89C253,99.64,253.63,96.33,253.63,91.62Zm64.64,18.9a175.52,175.52,0,0,1-1,20.16,51.36,51.36,0,0,1-3.46,14.24,19.48,19.48,0,0,1-6.49,8.5,16.83,16.83,0,0,1-10,2.84,16.32,16.32,0,0,1-9.7-2.77,18.83,18.83,0,0,1-6.24-8.38A53.74,53.74,0,0,1,278.08,131a170.41,170.41,0,0,1-1-20,173.63,173.63,0,0,1,1-20.1,52.8,52.8,0,0,1,3.4-14.3,19.51,19.51,0,0,1,6.3-8.51,16.28,16.28,0,0,1,9.82-2.83q11.73,0,16.2,11.34T318.27,110.52Zm-14.49.51q0-10.08-.32-16.51a66.58,66.58,0,0,0-1.08-10,11,11,0,0,0-2-4.91,3.9,3.9,0,0,0-5.8-.06c-.76.84-1.38,2.45-1.84,4.85a68.36,68.36,0,0,0-1,9.89q-.26,6.3-.25,16.25t.31,16.51a67.69,67.69,0,0,0,1.09,10,11.34,11.34,0,0,0,1.91,4.91,3.56,3.56,0,0,0,2.8,1.32,3.83,3.83,0,0,0,2.86-1.26c.81-.84,1.44-2.45,1.91-4.85a72.58,72.58,0,0,0,1-9.83Q303.78,121.1,303.78,111Zm64.38-.89q0,22.81-5.54,33.77t-17.64,11H328.85V66.67h17.52a18,18,0,0,1,10.64,3,19.85,19.85,0,0,1,6.68,8.5,49,49,0,0,1,3.47,13.67A150.63,150.63,0,0,1,368.16,110.14Zm-14.49.2q0-9.69-.5-15.79a49.76,49.76,0,0,0-1.51-9.49,9.21,9.21,0,0,0-2.59-4.65,6,6,0,0,0-3.84-1.26h-2.39v63.5H345a5.84,5.84,0,0,0,3.78-1.32,9.84,9.84,0,0,0,2.71-4.84,51.34,51.34,0,0,0,1.64-9.81Q353.67,120.39,353.67,110.34Zm25.08,44.53V66.67h14.11v75.1h16.76v13.1Zm40.06,0V66.67h33V79.78H432.92v22h14.5v13.1h-14.5v26.84h20v13.1Zm68.42,0-7.31-38.8H476.4v38.8h-14V66.67h18.4a24.24,24.24,0,0,1,7.74,1.2,15.25,15.25,0,0,1,6.3,4,19.83,19.83,0,0,1,4.29,7.5A36.64,36.64,0,0,1,500.71,91a35,35,0,0,1-2.08,12.92A19,19,0,0,1,492.9,112l8.69,42.84Zm-.75-63.25q0-7.31-1.58-10.14a5.51,5.51,0,0,0-5.23-2.84H476.4v25.83h2.89a5.91,5.91,0,0,0,5.42-2.89C485.89,99.64,486.48,96.33,486.48,91.62Z"/></svg>
