<svg class="logo" xmlns="http://www.w3.org/2000/svg" viewBox="-157 159.2 283.9 283.8" enable-background="new -157 159.2 283.9 283.8"><g fill="#1E9CD8"><path d="M-15.1 159.2c-78.3 0-141.9 63.7-141.9 141.9S-93.3 443-15.1 443s141.9-63.7 141.9-141.9c.1-78.3-63.6-141.9-141.9-141.9zm0 269.3c-70.3 0-127.4-57.2-127.4-127.4 0-70.3 57.2-127.4 127.4-127.4 70.3 0 127.4 57.2 127.4 127.4.1 70.2-57.1 127.4-127.4 127.4zM54.9 284c-1.6 0-3 .6-4.2 1.8-1.2 1.2-1.8 2.6-1.8 4.2 0 1.7.6 3.2 1.8 4.4 1.2 1.2 2.6 1.8 4.3 1.8 1.6 0 3-.6 4.2-1.8 1.2-1.2 1.8-2.6 1.8-4.3 0-1.7-.6-3.1-1.8-4.3-1.3-1.2-2.7-1.8-4.3-1.8zM-68.1 299c-2-2.1-4.4-3.8-7-5-2.6-1.3-5.4-2-8.3-2.3l20.6-25.7v-.7h-54.1V278h29.2l-18.9 23.2 1.2 2.2c1.4-.5 3-.9 4.9-1.2 1.9-.3 4.2-.5 7-.5 4.3 0 8.1 1.2 11.4 3.5 3.2 2.3 4.9 5.9 4.9 10.6 0 4.8-1.3 8.5-4 11s-6.3 3.7-11 3.7c-4.5 0-8.2-1.2-11.1-3.5-3-2.3-5.3-5.3-6.9-9l-12.8 6.5c1 2.2 2.3 4.4 4.1 6.7 1.7 2.2 3.9 4.2 6.5 6.1 2.6 1.8 5.5 3.3 8.9 4.5 3.4 1.2 7.2 1.7 11.3 1.7 5.1 0 9.6-.7 13.4-2.2 3.8-1.5 7-3.4 9.5-5.9 2.5-2.5 4.4-5.4 5.7-8.7 1.3-3.3 1.9-6.9 1.9-10.7 0-3.6-.6-6.8-1.7-9.7-1-2.7-2.6-5.2-4.7-7.3zM-1.9 297.3c-2.4-2.3-5.1-4-8.3-5.3-3.2-1.3-6.6-1.9-10.3-1.9-2.1 0-3.9.2-5.4.7l20-25.8h-16.5l-20 26.1c-3.6 4.7-6.2 9-8 13.1-1.7 4.1-2.6 8.2-2.6 12.2 0 4.3.8 8.1 2.3 11.4 1.5 3.3 3.6 6.2 6.3 8.4 2.7 2.3 5.8 4 9.3 5.2 3.6 1.2 7.3 1.8 11.3 1.8 4.1 0 7.8-.6 11.4-1.9s6.6-3.1 9.4-5.4c2.7-2.3 4.8-5.2 6.4-8.5C5 324 5.7 320.2 5.7 316c0-3.9-.7-7.4-2-10.6-1.3-3.1-3.2-5.8-5.6-8.1zm-11.6 28.8c-2.4 2.6-5.8 3.9-10.1 3.9s-7.8-1.3-10.3-3.9c-2.5-2.6-3.8-6-3.8-10.1 0-4.2 1.2-7.6 3.5-10.3 2.3-2.7 5.8-4 10.4-4 4.1 0 7.5 1.4 10.1 4.1 2.6 2.7 3.8 6.1 3.8 10.2.1 4.1-1.2 7.5-3.6 10.1zM91.8 288.1c-2.2-4.8-5.1-9-8.8-12.6-3.7-3.6-7.9-6.4-12.7-8.3-4.8-2-9.9-3-15.4-3s-10.5 1-15.4 3c-4.8 2-9.1 4.8-12.7 8.3-3.7 3.6-6.6 7.8-8.8 12.6-2.2 4.8-3.2 10.1-3.2 15.7s1.1 10.8 3.2 15.7c2.2 4.8 5.1 9 8.8 12.6 3.7 3.6 7.9 6.4 12.7 8.4 4.8 2 9.9 3 15.4 3s10.5-1 15.4-3c4.8-2 9.1-4.8 12.7-8.4 3.7-3.6 6.6-7.8 8.8-12.6 2.2-4.8 3.3-10.1 3.3-15.7 0-5.7-1.1-10.9-3.3-15.7zm-14.1 26.5c-1.2 3.2-2.9 6-5.1 8.3-2.2 2.3-4.8 4.1-7.8 5.4-1.4.6-2.8 1-4.3 1.3v-30.3H49.2v30.2c-1.4-.3-2.8-.7-4.1-1.3-3-1.3-5.6-3-7.8-5.4-2.2-2.3-3.9-5.1-5.1-8.3-1.2-3.2-1.8-6.9-1.8-10.8 0-3.9.6-7.4 1.8-10.7 1.2-3.2 2.9-6 5.1-8.4 2.2-2.3 4.8-4.1 7.8-5.4 3-1.3 6.3-1.9 9.9-1.9 3.6 0 6.9.6 9.9 1.9 3 1.3 5.6 3 7.8 5.4 2.2 2.3 3.9 5.1 5.1 8.4 1.2 3.2 1.8 6.8 1.8 10.7-.1 4-.7 7.6-1.9 10.9z"/></g></svg>