<svg class="logo" xmlns="http://www.w3.org/2000/svg" viewBox="197 90 661.2 122" enable-background="new 197 90 661.2 122"><path fill="#221E1F" d="M255.04 136.763c.1-6.3 1.9-10 8-10 4.9 0 6.9 2.9 6.9 7.3 0 5.6-1.2 6.6-7.8 8.4-6.1 1.6-14.2 3-19.6 5.9-5.4 3-8.9 10.1-8.9 18.6 0 15.7 7.2 22.2 19.4 22.2 7.3 0 14.2-3.8 17.1-10.3h.3c.1 2.8.4 5.8 1.2 8.4h21c-2.5-3.2-2.5-10.3-2.5-15.8v-37.5c0-15.4-8-21.6-25.9-21.6-9 0-15.2 1.2-20.3 4.7-5.1 3.5-8.1 9.6-8.2 19.6l19.3.1zm-.4 28.1c0-4.1 1.1-6.4 3.4-8.1 2-1.6 5-1.8 11.9-5.4 0 3-.1 6.8-.1 12.8 0 7.3-4.2 10-8.8 10-4.1 0-6.4-3.5-6.4-9.3m81.6 22.5h21.1v-96.3h-21.9v31.3h-.3c-3.6-7.8-10.3-9.8-16.3-9.8-18 0-21.2 16.3-21.2 39 0 27.2 7.8 37.8 22.5 37.8 9.7 0 14.2-5.8 15.8-10.8h.3v8.8zm-.4-36c0 14.2-1.4 22-7.8 22-8.2 0-8.5-11.2-8.5-22.9 0-13.2.4-22 8.4-22 7.4 0 7.9 10 7.9 22.9m89 36h-21v-8.6h-.3c-3.1 6.5-9.4 10.5-17.5 10.5-12.4 0-19.1-6.2-19.1-20.3v-54.6h21.9v49.8c0 5.3 2.3 8.3 6.3 8.3 4.2 0 7.8-3.2 7.8-10.3v-47.8h21.8v73zm10.3-96.3h21.9v96.3h-21.9v-96.3zm37.4 38.5h-9v-15.1h9v-21.4h21.9v21.4h10.1v15.1h-10.1v36.8c0 5.1 1.9 6.7 7 6.7.9 0 2.2-.1 3.1-.2v14.6c-4.2.5-8.4.8-12.5.8-15.1 0-19.4-2.7-19.4-19.7v-39zm77.4 34.6c.2 3.2.4 6.1 1.5 8.2 1.2 2 3.2 3.4 6.8 3.4 5.1 0 7.8-3.3 7.8-7.4 0-3.4-1.6-6.6-8.4-8.9-18-6.1-26.6-9.6-26.6-25 0-14.6 10.3-22 27.8-22 20.5 0 26.4 10 26.4 20.5v2.5h-19.4v-1.4c0-6.3-2.6-8.1-7.2-8.1-5.8 0-7.4 2.8-7.4 6.7 0 12.9 34.9 4.3 34.9 32.7 0 14.7-9.9 23.9-27.9 23.9-19.6 0-27.8-7.3-27.8-21.8v-3.2l19.5-.1zm38.8-49.7h21.8l7.1 53.8h.2l8.2-53.8h23.5l7.7 53.8h.2l7.7-53.8h21l-15.8 73h-24.7l-7.9-53.8h-.3l-8.3 53.7h-25.1l-15.3-72.9zm104-24.5h21.9v16.7h-21.9v-16.7zm0 24.5h21.9v73h-21.9v-73zm31.9 0h21v8.6h.3c3.1-6.5 9.4-10.5 17.5-10.5 6.3 0 14.7 1.2 17.9 11.2 5.2-8.5 10-11.2 18.1-11.2 12.4 0 19 6.2 19 20.2v54.6h-21.9v-49.8c0-5.3-2.3-8.4-6.3-8.4-4.2 0-7.8 3.3-7.8 10.4v47.7h-21.8v-49.8c0-5.3-2.3-8.4-6.3-8.4-4.2 0-7.8 3.3-7.8 10.4v47.7h-21.8v-72.7zm-527.6-23.6h34.1v15.1h-13.9v90.9h13.9v15.1h-34.1v-121.1zm626.4 106h13.9v-90.9h-13.9v-15.1h34.1v121.1h-34.1v-15.1z"/></svg>