<svg class="logo" width="350" height="350" viewBox="0 0 350 350" xmlns="http://www.w3.org/2000/svg"><g fill="#3a73b8"><path d="M160.51 10.68c32.65-2.49 65.97 5.14 94.31 21.53 22.67 13.07 42.27 31.51 56.46 53.52 17.62 26.91 26.94 59.12 26.67 91.28-.21 33.61-10.91 67.1-30.46 94.47-19.83 28.07-48.66 49.69-81.2 60.75-28.9 10-60.57 11.57-90.39 4.89-31.27-6.97-60.32-23.42-82.54-46.49C29.81 266.24 13.87 234.49 9 200.9c-4.79-29.92-.83-61.13 10.86-89.05C30.71 85.88 48.38 62.86 70.5 45.49c25.64-20.22 57.42-32.55 90.01-34.81m-.04 7.94c-19.4 1.39-38.48 6.58-56.02 14.97-28.22 13.6-52.35 35.7-68 62.86-23.31 39.18-27.81 88.76-12.53 131.65 9.8 27.89 27.7 52.77 50.84 71.13 26.89 21.33 60.9 33.62 95.25 33.91 25.08.55 50.28-5.15 72.67-16.44 28.53-14.12 52.5-37.21 67.82-65.09 15.31-27.68 22.03-60.11 18.62-91.58-4.53-51.07-36.43-98.39-81.45-122.65-26.4-14.55-57.14-21.21-87.2-18.76zM132.62 33.59c27.5-7.68 57.26-7.35 84.46 1.43 1.18.37 2.09 1.24 3.02 2.02-4.49-.33-8.61-2.36-13.02-3.12-11.12-2.22-22.64-3.32-33.91-1.64-7.06 1.27-14.47 4-18.95 9.9-3.37 4.38-3.73 11.26.18 15.42 4.34 4.59 12.04 4.34 16.85.63 5.68-4.17 11.19-9.14 18.28-10.69 14.41-3.57 29.52-.7 43.48 3.45 16.76 4.57 32.61 12.84 45.47 24.57 21.43 18.93 34.31 46.11 39.2 73.98 4.26 23.78 2.98 48.63-4.4 71.67-.26 1.08-.95 1.71-2.07 1.88 4.28-15.69 7.46-32.34 4.26-48.54-1.68-7.82-5.53-16.64-13.76-19.31-6.3-2.23-13.97 2.1-14.48 8.95-1.2 7.33 4.79 12.61 8.52 18.1 8.01 11.5 7.02 26.41 5.06 39.6-3.68 17.86-9.64 35.64-20.46 50.52-16.7 23.97-43.3 39.79-71.41 46.55-24.43 5.84-50.32 5.8-74.71-.21-3.21-.96-6.86-1.39-9.35-3.85 4.65-.01 8.96 2.01 13.51 2.73 12.43 2.26 25.42 3.66 37.84.55 5.63-1.55 11.33-4.23 14.87-9.05 3.28-4.5 3.21-11.39-.82-15.41-3.49-3.68-9.3-4.44-13.76-2.12-5.3 2.87-9.35 7.59-14.76 10.3-10.91 5.3-23.57 4.52-35.21 2.56-19.3-3.79-38.37-10.79-53.93-23.1-20.66-15.88-34.97-39.04-41.98-63.98-7.42-26.11-7.47-54.17-.7-80.42 1.17-2.72.72-7.01 3.82-8.3-3.96 15-7.09 30.72-4.68 46.26 1.22 6.9 3.64 14.21 9.35 18.69 3.96 3.27 10.15 4.47 14.53 1.33 4.67-2.73 6.21-9.21 4.04-14-2.28-5.4-6.91-9.33-9.56-14.53-5.73-10.47-5.1-22.97-3.58-34.43 3.2-18.36 9.43-36.5 20.26-51.82 16.08-23.3 41.39-39.25 68.5-46.57m3.72 55.75c-8.96 4.83-15.12 13.46-19.63 22.36-4.79 9.15-6.77 19.37-7.71 29.55-4.42-.59-7.98-4.02-9-8.32-2.06-6.29.12-12.74 1.24-18.95.5-1.8-.87-3.27-1.6-4.75-3.76-.23-7.6 1.62-9.31 5.07-5.12 9.57-4.67 22.48 2.41 30.97 4.06 5.14 10.47 7.68 16.84 8.36 2.15 6.62 6.35 13.08 13.1 15.68 8.26 3.33 17.33-.16 24.51-4.5-.26 2.66-.4 5.39-1.33 7.93-2.52 2.03-5.59 3.22-8.41 4.79-13.85 7.3-27.96 14.65-39.6 25.28-8.48 7.96-15.15 18.55-16.43 30.28-.62 9.22 3.05 19.34 11.13 24.41 8.44 5.59 19.57 5.28 28.77 1.81 11.6-4.42 20.25-14.26 25.97-25 8.46-15.2 9.91-32.93 11.14-49.94.34-1.99-.08-4.81 2.26-5.67 13.82-7.77 27.25-16.23 40.09-25.54 1.52 1.87 3.02 3.75 4.45 5.68-6.61 3.94-13.2 8.19-18.19 14.16-18.66 20.41-18.97 55.44.59 75.36 10 10.55 25.37 15.06 39.6 12.95 13.08-1.86 24.98-10.09 31.58-21.49 8.8-14.52 7.36-34.83-4.08-47.5-10.7-11.82-31.53-11.59-41.99.41-8.23 8.66-8.5 23.97.09 32.45 3.48 3.47 9.54 5.57 13.91 2.58 2.82-2.03 2.55-6.37.28-8.72-2.94-3.55-6.42-7.66-5.54-12.62.88-6.45 8.09-10.4 14.16-9.03 5.2.81 9.35 4.87 11.28 9.63 4.55 10.83 1.97 24.25-6.2 32.68-8.66 9.03-23.72 10.45-34.17 3.76-9.28-5.71-14.56-16.3-16.19-26.81-1.71-12.67.72-26.34 8.58-36.67 5.06-6.54 12.12-11.91 20.24-13.85 6.82.52 13.89 1.75 20.57-.43 3.14-1.07 6.2-4.59 4.6-8.03-1.73-3.53-5.98-4.59-9.52-5.33-5.29-1.05-10.55.36-15.72 1.35-3.61-1.24-5.52-5.03-6.86-8.37 10.04-7.5 19.96-15.65 26.78-26.32 3.96-6.41 6.54-14.28 4.68-21.81-1.47-4.99-5.56-9.23-10.78-10.18-8.7-2.19-17.6 2.2-23.51 8.43-9.5 10.31-14.32 24.6-13.88 38.54-.13 2.88.99 5.9.17 8.67-7.12 5.74-15.08 10.36-22.75 15.32-4.41 2.56-8.61 5.51-13.29 7.58.08-4.44.31-8.94 1.58-13.22 3.37-4.61 7.61-8.62 10.29-13.74 1.96-3.53 3.81-8 1.77-11.9-1.87-2.89-6.01-2.61-8.72-1.17-5.78 2.9-8.95 9.02-11.28 14.76-1.6 3.67-1.78 8.22-5.2 10.82-4.76 4.16-10.5 8.34-17.12 8.1-3.78.02-6.3-3.54-7.1-6.88 10.46-4.06 19.19-11.64 26.27-20.2 6.55-8.42 11.76-18.36 12.64-29.14.49-5.43-1.45-11.58-6.41-14.42-6.2-3.38-13.97-2.42-20.05.78zM142.33 99.3c2.43-1.84 6.44-1.06 7.59 1.91.89 3.66-.46 7.37-2.02 10.64-4.43 9.04-11.04 16.88-18.6 23.46-1.87 1.71-4.05 3.04-6.36 4.06.31-8.04 3.07-15.79 6.49-23 3.18-6.39 6.86-12.96 12.9-17.07zM220.5 102.44c2.15-2.48 5.85-4.96 9.13-3.27 3.6 2.13 1.72 6.9.3 9.82-4.95 9.13-12.29 16.83-20.25 23.4-.12-10.83 3.76-21.73 10.82-29.95zM113.45 207.49c9.33-7.85 19.68-14.59 30.76-19.71-1.17 12.25-4.04 24.39-8.67 35.79-3.97 9.18-9.86 18.63-19.62 22.39-5.06 1.9-11.66 3.09-16.04-.91-4.15-3.68-3.87-9.92-2.66-14.86 2.52-9.21 9.29-16.47 16.23-22.7z"/></g></svg>
