<svg class="logo" xmlns="http://www.w3.org/2000/svg" viewBox="0 0 895.3 145.3"><style>.st0{fill:#555555;} .st1{fill:#65BD6B;} .st2{fill:#FEFEFE;}</style><g id="Label"><path class="st0" d="M627.3 53.3c-.7.6-1.2 1.7-2.4 1.3-1.2-1.3.1-3.4-1.5-4.7-2.7-.1-5.5-.4-8.5.2-1.1 12.6-.6 78.1.7 81.8 3-.2 6.1.4 9.7-.5v-27.2c1.6 1.1 2.7 1.9 3.8 2.6 11.9 7.2 27 2.8 32.4-9.9 4.9-11.5 4.9-23.5.1-35-5.7-13.8-22.4-17.7-34.3-8.6zm24.6 39.5c-4.7 11.2-18.9 11.7-26.7.9V65.5c2.9-5.7 7.9-8.3 14.2-8 6.5.3 10.9 4 13 10 3.1 8.4 3 17.1-.5 25.3zM224.6 78h17.2c.5 6.1.3 11.9.1 17.3-10.8 9.9-28.2 7.2-35.7-4.4-5.5-8.4-5.2-37.1-.1-44.7 4.9-7.2 11.5-9.9 19.7-9.1 7.7.7 12.9 4.8 15.2 12.4.4 1.1.4 2.4 1.7 3.3 2.9.1 6.2.6 9.4-.3-.7-8.5-4.5-15.3-10.9-19.5-18.1-12.1-42.8-2.7-48.2 18.3-2.8 11-2.7 22.2-.5 33.2 1.1 5.7 3.8 11 7.8 15.4 8.6 9.4 19.5 11.4 31.5 9.7 8.1-1.1 15.5-3.8 20.5-10.7V69.6h-28.4c-.3 2.9-.9 5.5.7 8.4zM895.2 49.1c-6.9-.9-13.3-.2-17.9 5.9-1.6-1.8-.2-3.9-2-5.1-2.7 0-5.7-.4-8.7.2V109c3.4-.1 6.5.4 9.4-.3.8-1.9.5-3.6.5-5.2V71c0-6.6 4.2-11.2 10.8-12.1 2.7-.4 5.3-.2 8 .1 0-3.3 0-6.7-.1-9.9zM296.8 49.1c-7.2-1.5-14.3-1-20.4 3.9-.9.7-1.5 1.9-3.4 1.2V25c-3.7-.5-6.9-.4-10.2-.1v83.9c3.6-.3 6.8.5 10.3-.6V71.6c0-8.1 5.1-13.7 13.2-14.4 6.9-.6 11 2.6 12.4 9.4.4 2 .5 4 .5 6v31c0 1.6-.5 3.3.6 5.1h9.3c0-14.8.4-29.2 0-43.9-.3-8.6-5.1-14.1-12.3-15.7zM716.1 60.4c-3.1-6.1-8.1-10.1-14.9-11.3-13.7-2.4-23.7 3.7-28.9 15.1-2.9 6.3-3.3 12.9-2.9 19.6 1.1 17.1 13.4 27.8 30.5 26.1 8-.8 14.5-4.1 18.9-11.3-2.1-2-3.8-3.6-6-4.7-8.4 7.7-16.3 9.5-23.6 5.6-6.1-3.3-9.8-10.3-8.7-17.3H719c1.2-7.8.1-15.8-2.9-21.8zm-35.5 13.1c.2-9.3 6.3-16.1 14.3-16.4 8.2-.3 13.5 5.6 14.2 16.4h-28.5zM369.9 75.7c-1.2-16.4-11.7-26.9-24.3-26.9-13-.3-21.1 4.2-25.8 13.4-5.6 11.2-5.6 22.9-.1 34.1 4.8 9.7 13.3 14 24.1 13.7 10.6-.3 18.4-5.2 23-14.8 3-6.2 3.6-12.8 3.1-19.5zM357.2 92c-2.7 5.7-6.9 9.1-13.5 9.4-6.7.3-11.7-2.6-14.5-8.6-4.4-9.3-4.2-18.8.5-27.8 5.1-9.8 18.1-10.7 25-2 4 4.8 4.8 10.4 4.9 15.9-.1 4.8-.5 9.1-2.4 13.1zM857.2 65.9c-3.9-9.8-10.7-16-21.5-16.9-11.9-1-21.3 3-26.7 14.2-4.8 10.1-4.9 20.7-.7 31 4.3 10.4 12.5 15.8 23.8 15.9 11.4.1 19.8-4.9 24.6-15.5 2.2-4.8 3-9.9 2.7-15.2.3-4.7-.4-9.3-2.2-13.5zm-7.9 13.2c-.3 5.8-1 11-4.1 15.7-5.8 8.8-18.3 9.2-24.7.8-6-7.8-6-24.5-.1-32.2 6.8-8.9 19.4-8.2 25.2 1.3 2.8 4.5 3.5 9.6 3.7 14.4zM553 108.8h-9.1c-1.4-1.4-.9-3-.9-4.4V69.9c-.2-4.6-.8-9.3-5.7-11.3-5.3-2.2-10.4-1.7-15.1 1.9-3.6 2.8-5.5 6.2-5.3 11.1.4 10.6.1 21.3.1 32 0 1.6.4 3.3-.7 5.1-2.8.6-5.7.2-8.6.2-1.2-3.5-1.6-52.5-.4-58.8 2.9-.5 5.8-.4 8.5-.1 1.6 1.8.3 3.9 1.3 5.5 1.5.3 2-1.1 2.8-1.8 6.3-5.3 13.6-5.9 21.2-4.2 5.5 1.2 8.9 4.9 10.7 10.2 1 3 1.6 6.1 1.6 9.3v37.5c-.1.5-.2 1.2-.4 2.3zm53.8-41.9c-3.3.6-6.4.3-9.5.2-4.3-8.8-10.3-11.8-18.2-9.2-3.9 1.3-6.3 4-6.5 7.4-.2 3.2 1.7 5.7 5.9 7.2 3.5 1.2 7.1 2 10.6 2.9 4.3 1.2 8.7 2.5 12.4 5.2 7.6 5.7 8.2 17.1 1.1 23.5-9.9 8.9-29.5 7.7-38.2-2.3-2.7-3.2-3.8-6-3.7-10.7 3-.9 6.1-.4 9.3-.4 1.4 2.4 1.8 5.1 3.8 7.1 4.6 4.2 15.1 5 20.1 1.2 4.5-3.4 4.3-9.4-.7-12.5-3-1.9-6.4-2.7-9.9-3.4-4.6-1-9.1-2.2-13.2-4.5-9.3-5.2-10.8-16.6-3-23.9 8.5-8 25.5-8.1 34.1-.3 3.7 3.2 5.5 7.3 5.6 12.5zM374.4 91c3.4-.7 6.3-.3 9-.4 1.5.8 1.5 2.1 1.9 3.1.8 2.5 2.4 4.4 4.7 5.6 5.4 2.8 11 2.9 16.4.5 6.1-2.7 6.3-9.9.6-13.5-2.9-1.8-6.1-2.5-9.4-3.2-4.4-1-8.8-2.1-12.8-4.2-10.2-5.3-11.5-17-3.1-24.8 7.7-7.2 25.6-7.3 33.4 0 3.5 3.3 5 6.3 5.6 12.3-1.4 1.3-3.2.7-4.7.7-1.6 0-3.3.3-4.9-.3-3.6-8.3-9.9-11.5-17.8-9.1-4.1 1.3-6.8 4.3-6.7 7.8.1 3.9 2.8 5.9 6.1 7 3 1 6.1 1.7 9.1 2.5 4 1.1 8 2.1 11.7 4.3 10.3 6.1 10.6 19.8.7 26.5-8.6 5.8-23.7 5.7-32.2-.5-4.4-3.3-7.5-7.7-7.6-14.3zm389.1-.9c3.3.3 6.3-.6 9.1.6-1 10.4-9.7 18.3-20.9 19.3-13.5 1.2-24.3-6.1-27.5-19.3-2.1-8.5-2.1-17.1.8-25.6 6.3-18.2 27.1-19.6 38-12.7 6.2 3.9 9.3 9.7 9.8 17.2-2.9 1.4-5.9.2-8.5.7-1.6-1-1.5-2.5-2-3.7-1.8-5.2-5.4-8.3-10.8-9.2-5.5-.9-10.2.7-13.8 5-.8 1-1.7 2.1-2.1 3.4-3.4 9.2-3.9 18.6.3 27.7s17.2 10.9 24.1 3.7c1.7-2 2.5-4.3 3.5-7.1zM421.9 57.3c-.5-2.6-.5-4.8.1-7.5h10.2V35.9c3.5-1.2 6.8-.7 10.1-.4 1.5 4.6-.2 9.3 1 13.9 3.4.9 6.7-.1 10.1.7.8 2.3.5 4.6.2 7.1-3.3 1.4-6.9-.2-10.7 1.2v34.8c0 7 1.3 8.2 8.2 8 .8 0 1.6-.3 2.7.4.6 2.2.3 4.7.2 7.2-3.9 1.8-7.9 1.9-11.8 1.1-6.3-1.4-9.7-6.4-9.8-14.4-.1-10.6 0-21.3 0-31.9v-5.1c-3.5-1.4-6.9-.3-10.5-1.2zM803.2 101c.7 2.7.3 5 .4 7.2-11.3 5.5-21.2-.3-21.4-12.4-.2-10.8 0-21.6-.1-32.5 0-1.6.3-3.3-.4-5.2-3.1-.9-6.5.1-9.9-.7-1-2.3-.3-4.6-.6-6.9 3.5-1.5 7.1 0 10.8-1.2V35.9c3.4-1.1 6.5-.6 9.8-.5 1.4 4.6-.1 9.3 1 13.9 3.3 1.1 6.7 0 10.1.8.9 2.2.4 4.5.3 6.8-3.3 1.8-7-.1-10.7 1.5v34.2c0 7.3 1.5 8.7 8.8 8.4h1.9zm-308.4 7.4c-1.6.9-2.9.6-4.2.6-2 0-4 .4-6.2-.4V29.7c3.4-.7 6.8-.6 10.4 0v78.7z"/></g><g id="Logo"><path class="st1" d="M125.5 142.1c-.8.5-1.4 1.3-2.1 1.9-1.2.9-2.6 1.2-4 1.3-4 .3-7.8-.4-11.7-1.3-4.9-1.1-9.7-2.8-14.3-4.7-2.8-1.2-5.6-2.4-8.3-3.9-4.7-2.5-9.2-5.4-13.5-8.5-4.8-3.6-9.1-7.6-13.3-11.9-5.1-5.2-9.5-11-12.9-17.5-.6-1.1-.8-2.4-1.9-3.1-1.4-2.6-3.2-4.7-6.3-5.5-1.2-.3-2.3.3-3.4.5-2 .4-4 .4-6 .3-2.5-.1-4.1-1.9-5.6-3.6-.1-.1-.1-.1-.1-.2-1.1-2.5-3.1-3.1-5.6-3-1.6 0-2.9-.9-3.9-1.9-1.6-1.4-3.4-1.9-5.4-2-.5 0-1-.1-1.4-.5-3.1-2.5-5.8-5.2-6-9.7-.2-3.9-.3-7.7.1-11.5.1-1.1.6-2.1 1.1-3.1 1.8-3 4.1-5.4 7.6-6.5 1-.3 2.2-.4 3.3-.4 4.4-.2 8.7.2 12.9 1.3 1.2.3 2.4.4 3.6.8 1.2.4 1.9-.4 2.5-1.2.5-.8.8-1.8.7-2.8-.4-4.2-.2-8.3-.1-12.5.1-4.9 1.8-9.2 4-13.4 1.1-2.1 2.6-4 4.2-5.7 3.9-4.3 8.3-7.9 13.8-10 5.3-2 10.7-2.6 16.3-2.3 6.4.3 12.3 2.1 17.4 6 4.2 3.1 7.7 6.9 10.3 11.4 1.7 2.9 3 6.1 4.2 9.2 1.5 4.2 1.8 8.6 3.4 12.8 1.2 3.1 2.9 5.5 6.2 6.5 1.8.6 3.4-.1 5.1-.5 3.3-.7 6.6-1.4 9.9-2 3-.5 6.1-.3 9.1-.2 2.6.1 4.9 1.2 6.9 2.9 2.3 2.1 4.5 4.3 5 7.5.6 4.1 1 8.3.4 12.5-.3 2.7-.6 5.4-2 7.9-1.2 2.1-2.9 3.6-4.8 4.9-1 .7-2.2.5-3.4.4-1.9-.2-3.4.5-4.7 1.9-2 2.2-4.4 3.4-7.5 2.9-2.2-.4-3.6.5-4.3 2.6-.8 2.3-2.9 3.7-4.5 5.3-.5.5-1.2.5-1.9.5h-6.9c-.3.5-.2 1.1-.1 1.7 1.3 3.8 2.3 7.8 3.7 11.6 2 5.3 4.6 10.3 7.5 15.2 1.7 2.8 3.6 5.5 5.7 8 2.4 2.9 2 6.3 1.9 9.6.3.7-.4 1.3-.9 2z"/><path class="st2" d="M59.6 103.1c-1.4-2.2-3.2-4.2-4.5-6.5-1.5-2.6-2.8-5.2-4.3-7.8-2.4-4.3-5.6-7.8-10.6-8.9-3-.7-6.1-.6-9.1.4-1.9.6-2.3.3-2.9-1.6s-1.5-3.6-3.5-4.4c-1.5-.6-3.2-.6-4.7-.3-1.3.2-2.2-.3-3-1.2-.2-.2-.4-.4-.5-.7-1.5-2.1-3.5-2.8-5.9-2.4-1.4.2-2-.4-2.4-1.7-1-3.2-1-6.4 0-9.5.7-2.3 2.6-3.2 4.7-3.6 2.3-.5 4.4.3 6.5.7 3.7.7 7.3 2.2 11.2 2 3-.1 5.2-1.3 7-3.5 1.2-1.7 1.8-3.4 1.8-5.5 0-3.7-.4-7.4-.3-11.1.3-8.6 3.5-15.9 10-21.6 4.3-3.7 9.3-5.8 15-6.6 6.3-.8 12 .8 17.2 4.4 5.3 3.7 8.6 9 11 14.8 1.7 4.1 2.4 8.5 3.5 12.8.9 3.8 2.5 7.2 5.3 10.1 2.1 2.1 4.7 3.2 7.6 3.7 2.9.6 5.8.1 8.6-.3.2 0 .3-.1.5-.2 3.2-.5 6.2-1.4 9.4-1.9 2.6-.5 5.2-1.1 7.8.1.9.4 1.8.9 2.4 1.6 1.1 1.7 1.6 3.6 1.6 5.7 0 2.7.2 5.4-.5 8.1-.2.7-.4 1.5-.7 2.2-.6 1.3-.7 1.4-2 .8-.5-.2-1.1-.3-1.7-.4-3.5-.5-5.3 1.8-7 4.3-.9 1.3-1.6 1.6-3.1 1.3-2.2-.4-4.5-.5-6.7.3-1.8.7-2.9 2-3.6 3.6-.4.9-.6 2-.8 3-.3 1.6-.8 1.9-2.2 1.2-1.5-.8-3.1-1.3-4.7-1.6-1.7-.3-3.5-.2-5.1.4-2.2.8-3 2.6-3.1 4.9-.1 2.9.6 5.6 1.2 8.4.9 3.8 1.8 7.6 3.1 11.2 2.7 7.6 6.1 14.9 10.9 21.5 1.3 1.8 2.7 3.6 4 5.4.3.4.7.8.8 1.5-.9.7-1.9.3-2.8.1-3.3-.7-6.5-1.5-9.7-2.5s-6.3-2.1-9.3-3.5l-6.3-3c-4.5-2.3-8.7-4.9-12.7-7.9-4.5-3.4-8.9-6.9-12.7-11-1.8-1.7-3.2-3.6-4.7-5.3z"/></g></svg>
