<?xml version="1.0" encoding="utf-8"?>
<svg viewBox="0 0 400 100" width="400px" height="100px" xmlns="http://www.w3.org/2000/svg">
  <rect width="100" height="100" rx="15" ry="15" style=""/>
  <path d="M 83.424 -33.306 L 75.724 -18.746 C 75.511 -19.106 74.761 -19.659 73.474 -20.406 C 72.194 -21.159 70.591 -21.963 68.664 -22.816 C 66.737 -23.669 64.631 -24.419 62.344 -25.066 C 60.064 -25.706 57.781 -26.026 55.494 -26.026 C 52.501 -26.026 50.184 -25.509 48.544 -24.476 C 46.904 -23.443 46.084 -21.856 46.084 -19.716 C 46.084 -18.003 46.707 -16.646 47.954 -15.646 C 49.201 -14.646 51.004 -13.773 53.364 -13.026 C 55.717 -12.279 58.604 -11.406 62.024 -10.406 C 66.877 -9.119 71.087 -7.566 74.654 -5.746 C 78.221 -3.926 80.947 -1.589 82.834 1.264 C 84.727 4.111 85.674 7.891 85.674 12.604 C 85.674 16.884 84.887 20.504 83.314 23.464 C 81.747 26.424 79.627 28.814 76.954 30.634 C 74.281 32.454 71.231 33.774 67.804 34.594 C 64.377 35.414 60.847 35.824 57.214 35.824 C 53.501 35.824 49.701 35.447 45.814 34.694 C 41.927 33.947 38.201 32.877 34.634 31.484 C 31.067 30.097 27.787 28.404 24.794 26.404 L 32.494 11.104 C 32.781 11.457 33.707 12.117 35.274 13.084 C 36.847 14.044 38.791 15.041 41.104 16.074 C 43.424 17.114 46.011 18.024 48.864 18.804 C 51.717 19.591 54.607 19.984 57.534 19.984 C 60.674 19.984 63.011 19.484 64.544 18.484 C 66.077 17.484 66.844 16.094 66.844 14.314 C 66.844 12.387 66.041 10.891 64.434 9.824 C 62.827 8.751 60.651 7.787 57.904 6.934 C 55.157 6.074 52.001 5.111 48.434 4.044 C 43.801 2.617 39.967 1.011 36.934 -0.776 C 33.901 -2.556 31.654 -4.733 30.194 -7.306 C 28.734 -9.873 28.004 -13.079 28.004 -16.926 C 28.004 -22.279 29.267 -26.793 31.794 -30.466 C 34.327 -34.139 37.734 -36.923 42.014 -38.816 C 46.294 -40.703 50.967 -41.646 56.034 -41.646 C 59.601 -41.646 63.044 -41.219 66.364 -40.366 C 69.677 -39.506 72.777 -38.436 75.664 -37.156 C 78.557 -35.869 81.144 -34.586 83.424 -33.306 Z" transform="matrix(1, 0, 0, 1, -6.895676136016846, 52.527347564697266)" style="fill: rgb(255, 255, 255); white-space: pre;"/>
  <path d="M 173.281 25.314 L 167.971 35.054 C 167.564 34.647 166.824 34.097 165.751 33.404 C 164.678 32.704 163.374 32.037 161.841 31.404 C 160.301 30.764 158.631 30.197 156.831 29.704 C 155.038 29.211 153.211 28.964 151.351 28.964 C 148.104 28.964 145.654 29.574 144.001 30.794 C 142.348 32.014 141.521 33.724 141.521 35.924 C 141.521 37.604 142.044 38.937 143.091 39.924 C 144.131 40.911 145.698 41.754 147.791 42.454 C 149.878 43.147 152.488 43.901 155.621 44.714 C 159.681 45.701 163.204 46.904 166.191 48.324 C 169.178 49.744 171.468 51.601 173.061 53.894 C 174.654 56.181 175.451 59.211 175.451 62.984 C 175.451 66.291 174.841 69.117 173.621 71.464 C 172.408 73.811 170.728 75.711 168.581 77.164 C 166.434 78.611 163.998 79.671 161.271 80.344 C 158.544 81.011 155.644 81.344 152.571 81.344 C 149.498 81.344 146.424 81.024 143.351 80.384 C 140.278 79.744 137.318 78.831 134.471 77.644 C 131.631 76.451 129.021 75.014 126.641 73.334 L 131.951 62.984 C 132.471 63.504 133.401 64.184 134.741 65.024 C 136.074 65.864 137.698 66.707 139.611 67.554 C 141.524 68.394 143.611 69.104 145.871 69.684 C 148.131 70.264 150.421 70.554 152.741 70.554 C 155.994 70.554 158.461 70.001 160.141 68.894 C 161.821 67.794 162.661 66.231 162.661 64.204 C 162.661 62.344 161.994 60.894 160.661 59.854 C 159.328 58.807 157.471 57.894 155.091 57.114 C 152.718 56.327 149.904 55.471 146.651 54.544 C 142.771 53.444 139.524 52.211 136.911 50.844 C 134.304 49.484 132.361 47.761 131.081 45.674 C 129.808 43.581 129.171 40.971 129.171 37.844 C 129.171 33.604 130.171 30.051 132.171 27.184 C 134.171 24.311 136.881 22.134 140.301 20.654 C 143.728 19.174 147.528 18.434 151.701 18.434 C 154.601 18.434 157.341 18.754 159.921 19.394 C 162.501 20.034 164.924 20.874 167.191 21.914 C 169.451 22.961 171.481 24.094 173.281 25.314 ZM 204.506 81.514 C 200.853 81.514 197.546 80.891 194.586 79.644 C 191.626 78.397 189.103 76.687 187.016 74.514 C 184.929 72.334 183.319 69.837 182.186 67.024 C 181.059 64.211 180.496 61.241 180.496 58.114 C 180.496 53.761 181.466 49.787 183.406 46.194 C 185.353 42.594 188.136 39.707 191.756 37.534 C 195.383 35.361 199.663 34.274 204.596 34.274 C 209.583 34.274 213.843 35.361 217.376 37.534 C 220.916 39.707 223.629 42.577 225.516 46.144 C 227.403 49.711 228.346 53.554 228.346 57.674 C 228.346 58.374 228.316 59.084 228.256 59.804 C 228.196 60.531 228.139 61.127 228.086 61.594 L 192.846 61.594 C 193.079 63.914 193.759 65.944 194.886 67.684 C 196.019 69.424 197.469 70.744 199.236 71.644 C 201.009 72.537 202.909 72.984 204.936 72.984 C 207.256 72.984 209.446 72.421 211.506 71.294 C 213.566 70.161 214.973 68.667 215.726 66.814 L 225.736 69.594 C 224.629 71.914 223.046 73.974 220.986 75.774 C 218.933 77.567 216.513 78.974 213.726 79.994 C 210.939 81.007 207.866 81.514 204.506 81.514 Z M 192.586 54.194 L 216.426 54.194 C 216.193 51.874 215.539 49.861 214.466 48.154 C 213.393 46.441 211.986 45.104 210.246 44.144 C 208.506 43.191 206.563 42.714 204.416 42.714 C 202.329 42.714 200.429 43.191 198.716 44.144 C 197.009 45.104 195.619 46.441 194.546 48.154 C 193.473 49.861 192.819 51.874 192.586 54.194 ZM 277.843 52.194 L 277.843 80.644 L 266.183 80.644 L 266.183 55.064 C 266.183 51.411 265.543 48.744 264.263 47.064 C 262.99 45.377 261.223 44.534 258.963 44.534 C 257.396 44.534 255.816 44.941 254.223 45.754 C 252.623 46.567 251.186 47.684 249.913 49.104 C 248.64 50.524 247.71 52.164 247.123 54.024 L 247.123 80.644 L 235.473 80.644 L 235.473 35.054 L 245.993 35.054 L 245.993 43.494 C 247.153 41.521 248.633 39.854 250.433 38.494 C 252.233 37.127 254.306 36.084 256.653 35.364 C 259.006 34.637 261.486 34.274 264.093 34.274 C 266.933 34.274 269.266 34.781 271.093 35.794 C 272.92 36.807 274.313 38.171 275.273 39.884 C 276.233 41.597 276.9 43.527 277.273 45.674 C 277.653 47.814 277.843 49.987 277.843 52.194 ZM 304.805 81.514 C 300.918 81.514 297.205 80.877 293.665 79.604 C 290.132 78.324 287.088 76.437 284.535 73.944 L 288.705 66.374 C 291.432 68.581 294.115 70.204 296.755 71.244 C 299.395 72.291 301.932 72.814 304.365 72.814 C 306.632 72.814 308.445 72.407 309.805 71.594 C 311.172 70.781 311.855 69.564 311.855 67.944 C 311.855 66.837 311.475 65.981 310.715 65.374 C 309.962 64.767 308.875 64.231 307.455 63.764 C 306.035 63.304 304.312 62.784 302.285 62.204 C 298.918 61.097 296.105 60.024 293.845 58.984 C 291.578 57.937 289.882 56.617 288.755 55.024 C 287.622 53.431 287.055 51.384 287.055 48.884 C 287.055 45.871 287.825 43.277 289.365 41.104 C 290.898 38.931 293.042 37.234 295.795 36.014 C 298.555 34.794 301.788 34.184 305.495 34.184 C 308.748 34.184 311.825 34.691 314.725 35.704 C 317.625 36.724 320.262 38.364 322.635 40.624 L 317.945 48.014 C 315.625 46.221 313.418 44.904 311.325 44.064 C 309.238 43.217 307.122 42.794 304.975 42.794 C 303.762 42.794 302.618 42.941 301.545 43.234 C 300.472 43.521 299.602 44.001 298.935 44.674 C 298.268 45.341 297.935 46.281 297.935 47.494 C 297.935 48.601 298.238 49.457 298.845 50.064 C 299.452 50.671 300.378 51.207 301.625 51.674 C 302.872 52.134 304.395 52.654 306.195 53.234 C 309.848 54.281 312.938 55.354 315.465 56.454 C 317.985 57.561 319.882 58.911 321.155 60.504 C 322.435 62.097 323.075 64.287 323.075 67.074 C 323.075 71.594 321.422 75.131 318.115 77.684 C 314.808 80.237 310.372 81.514 304.805 81.514 ZM 352.128 81.514 C 348.475 81.514 345.168 80.891 342.208 79.644 C 339.248 78.397 336.725 76.687 334.638 74.514 C 332.551 72.334 330.941 69.837 329.808 67.024 C 328.681 64.211 328.118 61.241 328.118 58.114 C 328.118 53.761 329.088 49.787 331.028 46.194 C 332.975 42.594 335.758 39.707 339.378 37.534 C 343.005 35.361 347.285 34.274 352.218 34.274 C 357.205 34.274 361.465 35.361 364.998 37.534 C 368.538 39.707 371.251 42.577 373.138 46.144 C 375.025 49.711 375.968 53.554 375.968 57.674 C 375.968 58.374 375.938 59.084 375.878 59.804 C 375.818 60.531 375.761 61.127 375.708 61.594 L 340.468 61.594 C 340.701 63.914 341.381 65.944 342.508 67.684 C 343.641 69.424 345.091 70.744 346.858 71.644 C 348.631 72.537 350.531 72.984 352.558 72.984 C 354.878 72.984 357.068 72.421 359.128 71.294 C 361.188 70.161 362.595 68.667 363.348 66.814 L 373.358 69.594 C 372.251 71.914 370.668 73.974 368.608 75.774 C 366.555 77.567 364.135 78.974 361.348 79.994 C 358.561 81.007 355.488 81.514 352.128 81.514 Z M 340.208 54.194 L 364.048 54.194 C 363.815 51.874 363.161 49.861 362.088 48.154 C 361.015 46.441 359.608 45.104 357.868 44.144 C 356.128 43.191 354.185 42.714 352.038 42.714 C 349.951 42.714 348.051 43.191 346.338 44.144 C 344.631 45.104 343.241 46.441 342.168 48.154 C 341.095 49.861 340.441 51.874 340.208 54.194 ZM 394.745 80.644 L 383.095 80.644 L 383.095 35.054 L 394.745 35.054 L 394.745 80.644 Z M 394.745 28.704 L 383.095 28.704 L 383.095 17.134 L 394.745 17.134 L 394.745 28.704 Z" transform="matrix(1, 0, 0, 1, 0, 0)" style="white-space: pre;"/>
</svg>
