<svg class="logo" xmlns="http://www.w3.org/2000/svg" width="432" height="574" viewBox="0 0 432 574"><g fill="#c00"><path d="M217.074 360.93c-71.24 0-129.052-57.72-129.052-128.972 0-71.38 57.813-129.06 129.052-129.06 71.3 0 129.042 57.68 129.042 129.06 0 71.25-57.74 128.972-129.042 128.972m0-322.47c-106.796 0-193.4 86.624-193.4 193.498 0 106.792 86.604 193.39 193.4 193.39 106.842 0 193.58-86.598 193.58-193.39 0-106.874-86.738-193.5-193.58-193.5zM217.074 165.65c-36.607 0-66.268 29.59-66.268 66.308 0 36.597 29.66 66.274 66.268 66.274 36.642 0 66.367-29.678 66.367-66.274 0-36.717-29.724-66.307-66.366-66.307M42.153 475.816h-21.33v-13.164h58.313v13.164h-21.33v58.016H42.152v-58.016"/><path d="M72.358 533.832H88.2l5.588-15.855h26.617l5.385 15.855h16.246l-26.617-71.18H99.372l-27.015 71.18m34.79-53.64h.195l8.968 26.122H97.883l9.265-26.123zM148.21 533.832h15.658V506.02h15.64c7.884 0 10.77 3.287 11.863 10.76.808 5.684.605 12.564 2.5 17.053h15.643c-2.788-3.986-2.685-12.37-2.988-16.855-.5-7.188-2.685-14.656-10.367-16.648v-.197c7.885-3.188 11.27-9.46 11.27-17.846 0-10.758-8.08-19.63-20.836-19.63H148.21v71.175m15.658-59.018h17.15c6.966 0 10.757 2.992 10.757 9.863 0 7.174-3.79 10.17-10.758 10.17h-17.15v-20.033zM269.624 525.752c-5.488 7.088-12.653 9.79-19.535 9.79-22.027 0-34.99-16.476-34.99-37.013 0-21.124 12.962-37.565 34.99-37.565 14.55 0 28.31 8.97 30.01 25.107h-14.96c-1.8-7.883-7.68-11.955-15.05-11.955-14.058 0-19.35 11.955-19.35 24.412 0 11.868 5.292 23.825 19.35 23.825 10.17 0 16.04-5.48 16.94-15.354H251.29v-11.65h29.9v38.48h-9.977l-1.586-8.078M291.857 462.652h53.214v13.164h-37.564v15.245h34.484v12.174h-34.484v17.434h38.372v13.164h-54.02v-71.18M374.188 475.816h-21.332v-13.164h58.322v13.164h-21.343v58.016h-15.647v-58.016"/></g></svg>