<svg class="logo" xmlns="http://www.w3.org/2000/svg" viewBox="0 0 321.8 46" enable-background="new 0 0 321.8 46"><path fill="#4FC3B3" d="M319.3 26.6c-1.7-.6-3.7.2-4.3 2-2.1 5.8-6.2 9.4-11.4 10.1-3.2.4-6.4-.3-9.3-1.8 6.6-6 9-12.8 8.9-17.9-.1-4.7-2.4-8.5-6.2-10.4-5.2-2.6-11-1.2-15 3.5-4.4 5.1-6 14.2.3 22.9.4.5.8 1.1 1.2 1.5-4.4 2.4-8.3 3-11.7 1.8-3.4-1.2-5.8-4.1-7.2-6.4 4.2-1.7 7.3-5.5 7.3-11.5 0-8.9-6.3-13.2-13.2-13.2h-12.4c-2.2 0-3.6 1.9-3.6 3.7V41c0 2.4 1.9 3.7 3.6 3.7 1.9 0 3.4-1.3 3.4-3.7v-8h7.8c1.6 3.2 5.4 9.1 11.9 11.5 5.4 2 11.4 1.2 17.7-2.5.5-.3 1-.6 1.4-.8 4 2.8 8.6 4.4 13.2 4.4.9 0 1.8-.1 2.8-.2 7.7-1 13.8-6.3 16.8-14.5.6-1.8-.2-3.7-2-4.3m-69.6-12.8h8.9c3.6 0 6.4 2.7 6.4 6.5 0 3.3-2.8 5.9-6.4 5.9h-8.9V13.8zM289 32.5c-.5-.5-.9-1.1-1.3-1.6-4.1-5.8-3.3-11.5-.6-14.6.6-.7 2.3-2.4 4.6-2.4.7 0 1.5.2 2.3.6 2.1 1 2.4 3.3 2.5 4.6.1 3.5-1.9 8.7-7.5 13.4M55.9 7C46.1 7 36 13.4 36 26.3s10.1 19.4 19.9 19c9.2 0 18.9-6.5 18.9-19S65.1 7.4 55.9 7m-.6 31.8c-5.9 0-12.3-4.2-12.3-12.5s6.4-12.5 12.3-12.5c6.1 0 12.6 4.2 12.6 12.5s-6.5 12.5-12.6 12.5M106.4 10.8v19.5c0 11.3-18.4 10.6-18.4 0V10.8c0-5.1-7.1-4.9-7.1 0v19.5c0 20.2 32.5 20.2 32.5 0V10.8c.1-5.2-7-4.8-7 0M143.2 30.1c11.5-4.6 8.7-23.1-5.1-23.1h-14.4c-1.8 0-3.3 1.4-3.3 3.3v30.8c0 4.8 7.2 4.6 7.2-.1v-9.8h8.5l8.2 11.7c3.3 4.1 8.9.1 6.1-4.1l-7.2-8.7zm-5.1-5.1h-10.5V13.6h10.5c7.5 0 7 11.4 0 11.4"/><path fill="#4FC3B3" d="M223.1 9.2c-1.3-3-5.2-2.9-6.7 0l-15.5 30.2c-1.1 2.3 0 4.2 1.7 5.2 1.9.4 3.9 0 4.8-1.8l2.3-4.7h19.9l2.4 4.7c1.9 4.2 8.5.9 6.3-3.3L223.1 9.2zm-10 21.7l6.6-13.3 6.1 13.3h-12.7zM181.2 45.3c-12.7 0-22.2-9.7-22.2-22.6C159 9.8 168.6.1 181.2.1c5.6 0 11.2 2.3 14.6 6.1 1.3 1.5 1.2 3.8-.2 5.1-1.5 1.3-3.8 1.2-5.1-.2-2.1-2.3-5.7-3.8-9.3-3.8-8.7 0-15 6.5-15 15.4s6.3 15.4 15 15.4c3.6 0 7.1-1.3 9.8-3.8 1.5-1.3 3.8-1.2 5.1.3 1.3 1.5 1.2 3.8-.3 5.1-4 3.6-9.2 5.6-14.6 5.6M36.7.6c-1.6-1.1-3.8-.7-4.9.9L19.1 19.6 6.5 1.5C5.4-.1 3.2-.5 1.6.6 0 1.7-.4 3.9.7 5.5l15.1 21.6v14c0 2 1.6 3.5 3.5 3.5 2 0 3.5-1.6 3.5-3.5V26.6l14.8-21c1.1-1.6.7-3.8-.9-5"/></svg>