<svg class="email-icon" xmlns="http://www.w3.org/2000/svg" viewBox="0 0 26.2 27.8" enable-background="new 0 0 26.2 27.8"><path d="M20 7.7c0-.2-.1-.5-.3-.6-1.2-.5-2.8-.9-4.3-.9-5.3 0-9.6 4.3-9.6 9.6 0 3.5 2.4 5.4 4.7 5.4 2.1 0 3.8-.8 5.1-2.6.1.6.4 1.2.8 1.6.6.6 1.5 1 2.4 1 3.7 0 7.4-3.3 7.4-9.7C26.2 4.8 21.4 0 14.5 0 6.2 0 0 6.6 0 15.3c0 7.2 5.1 12.5 12.2 12.5 2.8 0 5-.5 7.1-1.6.2-.1.3-.4.3-.7l-.6-1.6c-.1-.1-.2-.3-.3-.3-.1-.1-.3 0-.4 0-1.5.8-3.4 1.3-5.5 1.3-5.6 0-9.3-3.9-9.3-9.8 0-7.1 4.6-12.2 11-12.2 5.4 0 8.7 3.5 8.7 9 0 4-1.9 6.5-3.6 6.5-.3 0-.5-.1-.6-.3-.2-.3-.5-1.1-.1-3.4l1.1-7zm-5 1.7c.5 0 .9 0 1.3.1l-.7 3.8c-.4 2.2-2.3 4.8-4.2 4.8-1.8 0-2-1.7-2-2.4 0-3.4 2.5-6.3 5.6-6.3z"/></svg>