<svg class="twitter-icon" xmlns="http://www.w3.org/2000/svg" viewBox="0 0 28 22.7" enable-background="new 0 0 28 22.7"><path d="M27.9 2.7c-1 .5-2.1.8-3.3.9 1.2-.7 2.1-1.8 2.5-3.2-1.1.7-2.3 1.1-3.6 1.4C22.4.7 21 0 19.3 0c-3.2 0-5.7 2.6-5.7 5.7 0 .4.1.9.1 1.3C9 6.8 4.8 4.5 1.9 1c-.4.9-.7 1.9-.7 2.9 0 2 1 3.7 2.5 4.8-.9 0-1.8-.3-2.6-.7v.1c0 2.8 2 5.1 4.6 5.6-.5.1-1 .2-1.5.2-.4 0-.7 0-1.1-.1.7 2.3 2.8 3.9 5.3 4-2 1.5-4.4 2.5-7.1 2.5-.5 0-.9 0-1.4-.1 2.5 1.6 5.5 2.6 8.8 2.6C19.2 22.8 25 14.1 25 6.5v-.7c1.2-1 2.1-2 2.9-3.1z"/></svg>