<svg version="1.1" class="logo" xmlns="http://www.w3.org/2000/svg" xmlns:xlink="http://www.w3.org/1999/xlink" x="0px" y="0px" viewBox="0 0 788.9 133.5" enable-background="new 0 0 788.9 133.5" xml:space="preserve">
<g>
	<path fill="#AAAAAA" d="M726.1,124.6c-34.4-0.1-61.4-27.4-61.3-62.3c0.1-33.7,27.8-61,61.8-60.9C760.7,1.5,788,29,787.9,63.3 C787.8,97.5,760.5,124.6,726.1,124.6z M763,20.4c-2.2,2-3.5,3.2-4.8,4.4c-9.8,9.8-19.6,19.5-29.3,29.4c-2.2,2.3-3.9,2.7-6.8,1.1 c-8.5-4.9-17.2-9.4-25.9-14.1c-2-1.1-4-2-6.5-3.3c0,13.3-0.5,25.8,0.1,38.3c0.6,11.1,6.4,19.8,16.7,24.2c5.8,2.5,12.4,4.3,18.7,4.5 c26.7,0.9,38.4-16,37.7-35.1c-0.5-12.6-0.1-25.3-0.1-38C763,28.4,763,25,763,20.4z"/>
	<path fill="#AAAAAA" d="M489.7,110.9c-5.2,0-10,0.4-14.7-0.1c-5.4-0.5-9.7-3.1-12.2-8.3c-2.6-5.6-5.3-11.1-8.4-16.5 c-0.9-1.6-3.4-3.3-5.2-3.3c-10.3-0.3-20.7-0.3-31,0c-1.6,0-3.9,1.2-4.6,2.6c-11.2,20.2-29.2,27.2-51.1,26.6 c-13-0.4-25.4-2.6-36.3-10.6c-21.3-15.6-23.9-46.1-5.1-63.6c8.2-7.6,18.5-10.6,29.3-11c12.1-0.5,24.3-0.1,36.9-0.1 c0,3.1,0,6.1,0,9.8c-7.7,0-15.3,0-22.9,0c-19.5,0-29.6,9.3-31.2,28.7c-1.5,17.6,7.1,32.2,21.5,36.5c15,4.5,28.5,0.2,36.2-13.3 c9.9-17.2,18.9-34.8,27.6-52.6c3.1-6.4,6.6-9.4,13.9-8.4c4.7,0.7,9.7-0.1,14.5,0.2c1.5,0.1,3.6,1.2,4.2,2.4 c12.7,26,25.2,52.1,37.7,78.2C489.1,108.6,489.2,109.3,489.7,110.9z M434.2,39.4c-5.3,11.7-10,22.2-15,33.4c10.2,0,19.5,0,29.5,0 C443.9,61.7,439.3,51.2,434.2,39.4z"/>
	<path fill="#AAAAAA" d="M65.2,73c17.4,19.6,34.9,39.4,52.4,59.1c-0.1,0.5-0.2,0.9-0.3,1.4c-7.7-0.5-15.4-0.6-23-1.5
		c-2.3-0.3-4.7-2.5-6.4-4.4c-15.3-16.9-30.5-33.9-45.6-51C41,75,39.8,72,40.4,70.5c0.6-1.5,3.5-2.4,5.6-3.1 c5.2-1.6,10.7-2.5,15.8-4.5c5.6-2.2,7.8-6.9,7.5-12.9c-0.3-5.9-3.5-9.5-8.7-11.7c-1.2-0.5-2.5-1.1-3.8-1.1c-10.1-0.1-20.2,0-31,0 c0,24.1,0,48.3,0,72.9c-6.7,0-12.8,0.4-18.8-0.3c-1.9-0.2-3.9-3.2-5-5.3c-0.9-1.6-0.7-3.9-0.7-5.9c0-22.2,0.1-44.3-0.1-66.5 c0-4.2,1.3-5.4,5.4-5.3c17.7,0.3,35.3-0.2,53,0.6c7.5,0.4,15.3,2.2,22.1,5.4c14.6,6.8,15.4,23.6,1.7,32.2 C77.8,68.4,71.5,70.3,65.2,73z"/>
	<path fill="#AAAAAA" d="M205.4,27c13.1,0,25.8-0.2,38.4,0.1c7.5,0.1,15.1,0.1,22.3,1.6c15.3,3.1,28,10.1,32.7,26.4 c7.7,26.4-6.7,49.8-34.8,53.6c-16.9,2.3-34.2,1.3-51.3,1.4c-5.1,0-7.5-3.7-7.5-9.8c0-23,0-46,0-69C205.2,30.1,205.3,29,205.4,27z M230.6,35.3c-0.4,0.9-0.7,1.1-0.7,1.4c-0.1,19-0.2,37.9-0.1,56.9c0,4.4,2.7,6.6,7.1,6.7c5,0.1,10,0.1,15,0 c12.1-0.4,20.8-7.3,22.8-19.1c1.2-7,1.6-14.3,0.8-21.3c-1.5-14.7-10.6-23.5-24.4-24.5C244.3,34.9,237.5,35.3,230.6,35.3z"/>
	<path fill="#AAAAAA" d="M133.8,72c0,7.8-0.2,14.8,0.1,21.7c0.1,4.4,3.1,6.5,8.4,6.5c13,0.1,26,0,39,0c1.8,0,3.6,0,5.9,0 c0,3.3,0,6.4,0,9.8c-1.7,0.1-3.3,0.2-4.9,0.2c-20.7,0-41.3,0-62,0c-7.2,0-9.4-2-9.4-9c0-23.3,0-46.6,0-70c0-1.3,0.1-2.6,0.2-4.7 c1.9,0,3.7,0,5.4,0c21,0,42,0,63,0c7.3,0,7.3,0,7.1,7.4c0,0.8-0.1,1.6-0.3,3c-17.3,0-34.5,0-52.1,0c0,8.4,0,16.3,0,24.8 c17,0,34,0,51.5,0c0,3.7,0,6.7,0,10.2C168.6,72,151.5,72,133.8,72z"/>
	<path fill="#AAAAAA" d="M636.3,26.5c0,3.9,0,6.9,0,10.4c-10,0-19.8-0.2-29.5,0.1c-4.2,0.1-8.6,1-12.6,2.3c-3.8,1.2-6.9,3.7-6.9,8.2 c0,4.8,2.8,7.9,7.1,9.3c5.5,1.8,11.3,2.9,16.8,4.7c6.6,2.1,13.6,3.7,19.7,6.9c15.5,8.2,16,25.4,0.5,33.8 c-7.7,4.1-16.8,6.7-25.5,7.4c-14.2,1.2-28.6,0.3-43.2,0.3c0-3.5,0-6.9,0-10.9c2.3,0,4.4,0,6.5,0c10.6-0.2,21.3-0.1,31.9-0.7 c3.1-0.2,6.5-1.7,9.1-3.6c5.5-4.1,5.4-11.4-0.3-15.2c-3.5-2.4-7.7-3.9-11.8-5.2c-6.9-2.3-14.1-4-21-6.2c-2.5-0.8-5-1.9-7.2-3.3 c-11.4-7.2-12.1-20.5-1.3-28.6c3.9-2.9,8.6-5.2,13.3-6.5C599.6,24.4,617.8,27.3,636.3,26.5z"/>
	<path fill="#AAAAAA" d="M529.8,110.3c-4.7,0-8.5,0-12.3,0c-8.2-0.1-10.8-2.6-10.9-10.8c-0.1-18.7,0-37.3-0.1-56c0-2,0-3.9,0-6.6 c-10.4,0-20.3,0-30.4,0c0-3.6,0-6.6,0-10c28.2,0,56.4,0,85,0c0,3.1,0,6.2,0,9.8c-10.4,0-20.6,0-31.3,0 C529.8,61.5,529.8,85.6,529.8,110.3z"/>
	<path fill="#E6E6E6" d="M763,20.4c0,4.5,0,7.9,0,11.4c0,12.7-0.4,25.3,0.1,38c0.7,19.1-11,36-37.7,35.1c-6.3-0.2-12.9-2-18.7-4.5 c-10.3-4.4-16.1-13-16.7-24.2c-0.6-12.4-0.1-25-0.1-38.3c2.5,1.3,4.5,2.2,6.5,3.3c8.6,4.6,17.4,9.2,25.9,14.1 c2.9,1.6,4.5,1.2,6.8-1.1c9.6-9.9,19.5-19.6,29.3-29.4C759.5,23.6,760.8,22.5,763,20.4z M716.8,89.4c6.8,0,12.7,0,19.3,0 c-2.6,3.2-4.6,5.7-7.1,8.7c16.9,0.2,28.3-11.1,27.1-26c-6.6,5.3-13.6,8.7-22.8,5.2c6.7-6.7,14.5-8.3,23-8.1c0-11.2,0-22,0-33.8 c-9,9-17.4,17.3-25.6,25.8c-2.7,2.9-4.8,3.5-8.4,1.4c-8.4-4.9-17.1-9.3-26-14.1c0,7.3,0,14,0,20.9c8.6,0.2,16.9,0.7,23,8 c-7.9,2.5-9,2.2-23.2-5c-0.2,15.2,12.4,27.2,26.9,25.2C721.1,95,719.2,92.6,716.8,89.4z"/>
	<path fill="#E6E6E6" d="M434.2,39.4c5.1,11.8,9.7,22.4,14.4,33.4c-10,0-19.2,0-29.5,0C424.2,61.5,428.9,51.1,434.2,39.4z"/>
	<path fill="#E6E6E6" d="M230.6,35.3c6.9,0,13.8-0.4,20.5,0.1c13.8,1,22.9,9.8,24.4,24.5c0.7,7,0.4,14.3-0.8,21.3 c-2,11.8-10.7,18.7-22.8,19.1c-5,0.2-10,0.1-15,0c-4.4-0.1-7.1-2.3-7.1-6.7c-0.1-19,0-37.9,0.1-56.9 C229.9,36.5,230.2,36.2,230.6,35.3z"/>
	<path fill="#AAAAAA" d="M716.8,89.4c2.4,3.2,4.3,5.7,6.3,8.3c-14.4,2-27.1-10-26.9-25.2c14.1,7.2,15.2,7.5,23.2,5 c-6.1-7.4-14.3-7.8-23-8c0-6.8,0-13.5,0-20.9c8.9,4.8,17.6,9.2,26,14.1c3.6,2.1,5.7,1.5,8.4-1.4c8.1-8.5,16.6-16.8,25.6-25.8 c0,11.8,0,22.6,0,33.8c-8.5-0.2-16.2,1.4-23,8.1c9.2,3.5,16.2,0.2,22.8-5.2c1.2,14.9-10.2,26.1-27.1,26c2.4-3,4.5-5.6,7.1-8.7 C729.5,89.4,723.6,89.4,716.8,89.4z"/>
</g>
</svg>
