<svg class="pinterest-icon" xmlns="http://www.w3.org/2000/svg" viewBox="0 0 27.8 27.8" enable-background="new 0 0 27.8 27.8"><path d="M8.2 26.6C1.6 23.9-1.7 15.7.9 9 3.6 1.9 11.5-1.7 18.6.8c7.2 2.6 10.9 10.4 8.4 17.7-2.3 6.8-10.2 10.9-16.8 8.8.7-2.2 1.5-4.4 2.2-6.6 2.1 1.9 4.9 2 7.4.1 3-2.3 4.4-7.8 2.8-11.2C21.3 6.8 19 5.2 16 4.8c-4-.5-7.5.5-9.9 3.9-1.8 2.4-2.1 5.1-.9 7.9.4.9 1.1 1.6 1.9 2 .5.3.8.1 1-.4.2-.8.2-1.4-.3-2.2-1-1.6-.8-3.3-.1-5C9.4 7.1 15 5.7 18.2 8.4c1 .9 1.5 2 1.6 3.4.1 2-.2 3.9-1.1 5.7-.6 1.1-1.4 1.9-2.6 2.2-1.9.4-3.2-.9-2.8-2.7.3-1.2.7-2.5 1-3.7.1-.3.1-.7.1-1 0-.9-.4-1.7-1.1-2.1-.8-.3-1.8-.1-2.4.6-1.2 1.3-1.2 2.8-.9 4.4.1.5.1 1.1 0 1.6-.5 2.5-1.1 4.9-1.7 7.3 0 .8 0 1.6-.1 2.5z"/></svg>