<svg class="logo" xmlns="http://www.w3.org/2000/svg" viewBox="0 0 47.9 37" enable-background="new 0 0 47.9 37"><g fill="#968152"><path d="M23.9 9.9c-.4 0-.7.4-.7.8 0 .5.3.8.7.8.5 0 .8-.3.8-.8 0-.4-.3-.8-.8-.8zM16.1 10.8c-.5 0-.8.4-.8.8 0 .5.3.8.8.8.4 0 .7-.3.7-.8.1-.4-.3-.8-.7-.8zM12.3 12c-.4 0-.7.3-.7.8 0 .4.3.7.7.7.5 0 .8-.3.8-.7 0-.5-.3-.8-.8-.8zM19.9 10.2c-.5 0-.8.3-.8.8s.3.8.8.8c.4 0 .8-.3.8-.8s-.4-.8-.8-.8zM28 10.2c-.5 0-.8.3-.8.8s.3.8.8.8.8-.3.8-.8-.3-.8-.8-.8zM42.5 7c-1.7-1.6-3.1-2.6-4.2-3l-.6-.3-.3.6c-1.3 3.1-2.8 3-4.3 2.5-.6-.2-1-.6-1.2-1.2-.3-.9 0-2.2.9-3.4l.5-.7-.9-.3c-.1-.1-2.8-1-5.2-1h-.7l.1.7c.1 2-.2 3.3-.9 4.1-.4.4-1 .6-1.7.6s-1.3-.2-1.7-.6c-.7-.7-1-2.1-.9-4.1l.1-.7h-.7c-2.4 0-5.1 1-5.2 1l-.9.3.5.7c.8 1.1 1.2 2.5.8 3.4-.2.6-.6 1-1.2 1.2-1.5.5-3.1.6-4.3-2.5l-.3-.6-.6.2C8.5 4.4 7.1 5.4 5.4 7l-.6.5.7.5c2 1.3 4.2 3.6 4.2 9.5 0 .3.1.7.3 1 .1.2.2.3.3.5 1.8 1.8 7.5 3.2 13.6 3.2 6.2 0 11.8-1.3 13.7-3.2.1-.2.3-.3.3-.5.2-.3.3-.7.3-1 0-5.9 2.2-8.2 4.1-9.5l.7-.5-.5-.5zM23.9 20.7c-5.5 0-9.9-1-11.9-2.2-.3-.2-.6-.3-.7-.6-.2-.2-.3-.3-.3-.4.4-1.1 7.6-2.8 12.9-2.8 5.3 0 12.6 1.7 13 2.8-.1.1-.1.2-.3.4-.2.2-.5.4-.7.6-2 1.2-6.4 2.2-12 2.2zM37 15.9c-.9-.5-2.2-1-4.4-1.4-2.8-.6-6.3-1-8.7-1-2.4 0-5.9.4-8.7 1-2.1.5-3.4 1-4.3 1.4-.3-4.7-2.2-7.1-4-8.4 1-.9 1.8-1.5 2.5-2 1.3 2.6 3.2 3.5 5.7 2.6C16.3 7.8 17 7 17.3 6c.4-1.1.2-2.6-.6-3.9.8-.2 2-.5 3.2-.6 0 2 .4 3.4 1.3 4.4.7.7 1.6 1 2.7 1s2.1-.3 2.8-1c.9-1 1.3-2.4 1.3-4.4 1.2.1 2.4.4 3.2.6-.7 1.3-.9 2.8-.6 3.9.3 1 1.1 1.7 2.1 2.1 2.5.9 4.5 0 5.7-2.6.7.5 1.5 1.1 2.5 2-1.7 1.3-3.6 3.6-3.9 8.4zM35.6 12c-.5 0-.8.3-.8.8 0 .4.3.7.8.7.4 0 .7-.3.7-.7 0-.5-.3-.8-.7-.8zM31.8 10.8c-.4 0-.8.4-.8.8 0 .5.4.8.8.8.5 0 .8-.3.8-.8 0-.4-.3-.8-.8-.8z"/></g><path fill="#0D7454" d="M6.5 30.5c-.1-.4-.2-.8-.5-1-.3-.2-.7-.3-1.2-.3-.3 0-.6.1-.9.2-.3.1-.5.3-.6.6-.2.2-.3.5-.4.8-.1.3-.1.6-.1.9s0 .6.1.9.2.6.4.8l.6.6c.3.1.6.2.9.2.5 0 .9-.1 1.2-.4.3-.3.5-.7.5-1.2h2.2c0 .5-.1 1-.4 1.5-.2.4-.5.8-.8 1.1s-.8.5-1.2.7c-.5.2-1 .2-1.5.2-.6 0-1.2-.1-1.7-.3-.5-.2-1-.5-1.4-1S1 34 .8 33.4s-.3-1.1-.3-1.7.1-1.2.3-1.7c.2-.5.5-1 .9-1.4s.8-.7 1.4-1c.5-.2 1.1-.3 1.7-.3.5 0 .9.1 1.4.2.5.1.9.4 1.2.6s.7.6.9 1c.2.4.4.9.4 1.4H6.5zm3.6-3.1h4.4c.4 0 .8 0 1.1.1.4.1.7.2 1 .4s.5.4.7.8c.2.3.2.7.2 1.1 0 .5-.1.9-.3 1.3-.2.4-.6.7-1 .8.2 0 .4.1.6.3.2.1.3.3.4.5s.2.4.2.6.1.4.1.7v.7c0 .1 0 .3.1.4s.1.3.1.5c0 .1.1.2.2.3h-2.2c-.1-.1-.1-.3-.2-.5 0-.2-.1-.5-.1-.7v-.1c0-.3 0-.5-.1-.7 0-.2-.1-.4-.2-.5s-.2-.3-.4-.4c-.2-.1-.4-.1-.6-.1h-1.7V36h-2.2v-8.6zm2.2 3.7h1.9c.7 0 1-.3 1-1 0-.3-.1-.5-.3-.7s-.5-.2-.8-.2h-1.8v1.9zm6.6-1.2c.2-.5.5-1 .8-1.4s.8-.7 1.3-1c.5-.2 1.1-.3 1.8-.3s1.2.1 1.8.3c.5.2 1 .5 1.3 1 .4.4.6.9.8 1.4.2.5.3 1.1.3 1.7s-.1 1.2-.3 1.7c-.2.5-.5 1-.8 1.4-.4.4-.8.7-1.3 1-.5.2-1.1.3-1.8.3s-1.2-.1-1.8-.3c-.5-.2-1-.5-1.3-1s-.7-.7-.8-1.3c-.2-.5-.3-1.1-.3-1.7s.1-1.2.3-1.8zm2 2.7c.1.3.2.6.4.8l.6.6c.3.1.6.2.9.2.3 0 .6-.1.9-.2.3-.1.5-.3.6-.6.2-.2.3-.5.4-.8s.1-.6.1-.9 0-.6-.1-.9c-.1-.3-.2-.6-.4-.8l-.6-.6c-.3-.1-.6-.2-.9-.2-.3 0-.6.1-.9.2-.3.1-.5.3-.6.6s-.3.5-.4.8c-.1.3-.1.6-.1.9s0 .6.1.9zM36.8 36h-2.2l-1.2-5.9-1.2 5.9H30l-2.3-8.6h2.2l1.2 6.3 1.3-6.3h2.1l1.3 6.3 1.2-6.3h2.2L36.8 36zm3.3-8.6h2.3l3 5.3v-5.3h2.1V36h-2.3l-3-5.3V36h-2.1v-8.6z"/></svg>