<svg version="1.1" class="logo" xmlns="http://www.w3.org/2000/svg" xmlns:xlink="http://www.w3.org/1999/xlink" x="0px" y="0px" viewBox="0 0 47.9 37" enable-background="new 0 0 47.9 37" xml:space="preserve">
<g>
	<path fill="#AAAAAA" d="M23.9,9.9c-0.4,0-0.7,0.4-0.7,0.8c0,0.5,0.3,0.8,0.7,0.8c0.5,0,0.8-0.3,0.8-0.8 C24.7,10.3,24.4,9.9,23.9,9.9z"/>
	<path fill="#AAAAAA" d="M16.1,10.8c-0.5,0-0.8,0.4-0.8,0.8c0,0.5,0.3,0.8,0.8,0.8c0.4,0,0.7-0.3,0.7-0.8 C16.9,11.2,16.5,10.8,16.1,10.8z"/>
	<path fill="#AAAAAA" d="M12.3,12c-0.4,0-0.7,0.3-0.7,0.8c0,0.4,0.3,0.7,0.7,0.7c0.5,0,0.8-0.3,0.8-0.7C13.1,12.3,12.8,12,12.3,12z"/>
	<path fill="#AAAAAA" d="M19.9,10.2c-0.5,0-0.8,0.3-0.8,0.8s0.3,0.8,0.8,0.8c0.4,0,0.8-0.3,0.8-0.8S20.3,10.2,19.9,10.2z"/>
	<path fill="#AAAAAA" d="M28,10.2c-0.5,0-0.8,0.3-0.8,0.8s0.3,0.8,0.8,0.8c0.5,0,0.8-0.3,0.8-0.8S28.5,10.2,28,10.2z"/>
	<path fill="#AAAAAA" d="M42.5,7c-1.7-1.6-3.1-2.6-4.2-3l-0.6-0.3l-0.3,0.6c-1.3,3.1-2.8,3-4.3,2.5c-0.6-0.2-1-0.6-1.2-1.2 c-0.3-0.9,0-2.2,0.9-3.4l0.5-0.7l-0.9-0.3c-0.1-0.1-2.8-1-5.2-1h-0.7l0.1,0.7c0.1,2-0.2,3.3-0.9,4.1c-0.4,0.4-1,0.6-1.7,0.6 c-0.7,0-1.3-0.2-1.7-0.6c-0.7-0.7-1-2.1-0.9-4.1l0.1-0.7h-0.7c-2.4,0-5.1,1-5.2,1l-0.9,0.3l0.5,0.7C16,3.3,16.4,4.7,16,5.6 c-0.2,0.6-0.6,1-1.2,1.2c-1.5,0.5-3.1,0.6-4.3-2.5l-0.3-0.6L9.6,3.9C8.5,4.4,7.1,5.4,5.4,7L4.8,7.5L5.5,8c2,1.3,4.2,3.6,4.2,9.5 c0,0.3,0.1,0.7,0.3,1c0.1,0.2,0.2,0.3,0.3,0.5c1.8,1.8,7.5,3.2,13.6,3.2c6.2,0,11.8-1.3,13.7-3.2c0.1-0.2,0.3-0.3,0.3-0.5 c0.2-0.3,0.3-0.7,0.3-1c0-5.9,2.2-8.2,4.1-9.5l0.7-0.5L42.5,7z M23.9,20.7c-5.5,0-9.9-1-11.9-2.2c-0.3-0.2-0.6-0.3-0.7-0.6 c-0.2-0.2-0.3-0.3-0.3-0.4c0.4-1.1,7.6-2.8,12.9-2.8c5.3,0,12.6,1.7,13,2.8c-0.1,0.1-0.1,0.2-0.3,0.4c-0.2,0.2-0.5,0.4-0.7,0.6 C33.9,19.7,29.5,20.7,23.9,20.7z M37,15.9c-0.9-0.5-2.2-1-4.4-1.4c-2.8-0.6-6.3-1-8.7-1c-2.4,0-5.9,0.4-8.7,1 c-2.1,0.5-3.4,1-4.3,1.4c-0.3-4.7-2.2-7.1-4-8.4c1-0.9,1.8-1.5,2.5-2c1.3,2.6,3.2,3.5,5.7,2.6C16.3,7.8,17,7,17.3,6 c0.4-1.1,0.2-2.6-0.6-3.9c0.8-0.2,2-0.5,3.2-0.6c0,2,0.4,3.4,1.3,4.4c0.7,0.7,1.6,1,2.7,1c1.1,0,2.1-0.3,2.8-1 C27.6,4.9,28,3.5,28,1.5c1.2,0.1,2.4,0.4,3.2,0.6c-0.7,1.3-0.9,2.8-0.6,3.9c0.3,1,1.1,1.7,2.1,2.1c2.5,0.9,4.5,0,5.7-2.6 c0.7,0.5,1.5,1.1,2.5,2C39.2,8.8,37.3,11.1,37,15.9z"/>
	<path fill="#AAAAAA" d="M35.6,12c-0.5,0-0.8,0.3-0.8,0.8c0,0.4,0.3,0.7,0.8,0.7c0.4,0,0.7-0.3,0.7-0.7C36.3,12.3,36,12,35.6,12z"/>
	<path fill="#AAAAAA" d="M31.8,10.8c-0.4,0-0.8,0.4-0.8,0.8c0,0.5,0.4,0.8,0.8,0.8c0.5,0,0.8-0.3,0.8-0.8 C32.6,11.2,32.3,10.8,31.8,10.8z"/>
</g>
<path fill="#AAAAAA" d="M6.5,30.5c-0.1-0.4-0.2-0.8-0.5-1c-0.3-0.2-0.7-0.3-1.2-0.3c-0.3,0-0.6,0.1-0.9,0.2 c-0.3,0.1-0.5,0.3-0.6,0.6c-0.2,0.2-0.3,0.5-0.4,0.8c-0.1,0.3-0.1,0.6-0.1,0.9s0,0.6,0.1,0.9s0.2,0.6,0.4,0.8 c0.2,0.2,0.4,0.4,0.6,0.6c0.3,0.1,0.6,0.2,0.9,0.2c0.5,0,0.9-0.1,1.2-0.4c0.3-0.3,0.5-0.7,0.5-1.2h2.2c0,0.5-0.1,1-0.4,1.5 c-0.2,0.4-0.5,0.8-0.8,1.1s-0.8,0.5-1.2,0.7c-0.5,0.2-1,0.2-1.5,0.2c-0.6,0-1.2-0.1-1.7-0.3c-0.5-0.2-1-0.5-1.4-1S1,34,0.8,33.4 s-0.3-1.1-0.3-1.7s0.1-1.2,0.3-1.7c0.2-0.5,0.5-1,0.9-1.4s0.8-0.7,1.4-1c0.5-0.2,1.1-0.3,1.7-0.3c0.5,0,0.9,0.1,1.4,0.2 c0.5,0.1,0.9,0.4,1.2,0.6s0.7,0.6,0.9,1c0.2,0.4,0.4,0.9,0.4,1.4H6.5z M10.1,27.4h4.4c0.4,0,0.8,0,1.1,0.1c0.4,0.1,0.7,0.2,1,0.4 s0.5,0.4,0.7,0.8c0.2,0.3,0.2,0.7,0.2,1.1c0,0.5-0.1,0.9-0.3,1.3c-0.2,0.4-0.6,0.7-1,0.8v0c0.2,0,0.4,0.1,0.6,0.3 c0.2,0.1,0.3,0.3,0.4,0.5s0.2,0.4,0.2,0.6s0.1,0.4,0.1,0.7l0,0.1c0,0.3,0,0.4,0,0.6c0,0.1,0,0.3,0.1,0.4s0.1,0.3,0.1,0.5 c0,0.1,0.1,0.2,0.2,0.3h-2.2c-0.1-0.1-0.1-0.3-0.2-0.5c0-0.2-0.1-0.5-0.1-0.7c0-0.1,0-0.1,0-0.1c0-0.3,0-0.5-0.1-0.7 c0-0.2-0.1-0.4-0.2-0.5s-0.2-0.3-0.4-0.4c-0.2-0.1-0.4-0.1-0.6-0.1h-1.7V36h-2.2V27.4z M12.3,31.1h1.9c0.7,0,1-0.3,1-1 c0-0.3-0.1-0.5-0.3-0.7s-0.5-0.2-0.8-0.2h-1.8V31.1z M18.9,29.9c0.2-0.5,0.5-1,0.8-1.4s0.8-0.7,1.3-1c0.5-0.2,1.1-0.3,1.8-0.3 c0.7,0,1.2,0.1,1.8,0.3c0.5,0.2,1,0.5,1.3,1c0.4,0.4,0.6,0.9,0.8,1.4c0.2,0.5,0.3,1.1,0.3,1.7s-0.1,1.2-0.3,1.7 c-0.2,0.5-0.5,1-0.8,1.4c-0.4,0.4-0.8,0.7-1.3,1c-0.5,0.2-1.1,0.3-1.8,0.3c-0.7,0-1.2-0.1-1.8-0.3c-0.5-0.2-1-0.5-1.3-1 S19,34,18.9,33.4c-0.2-0.5-0.3-1.1-0.3-1.7S18.7,30.5,18.9,29.9z M20.9,32.6c0.1,0.3,0.2,0.6,0.4,0.8c0.2,0.2,0.4,0.4,0.6,0.6 c0.3,0.1,0.6,0.2,0.9,0.2c0.3,0,0.6-0.1,0.9-0.2c0.3-0.1,0.5-0.3,0.6-0.6c0.2-0.2,0.3-0.5,0.4-0.8s0.1-0.6,0.1-0.9s0-0.6-0.1-0.9 c-0.1-0.3-0.2-0.6-0.4-0.8s-0.4-0.4-0.6-0.6c-0.3-0.1-0.6-0.2-0.9-0.2c-0.3,0-0.6,0.1-0.9,0.2c-0.3,0.1-0.5,0.3-0.6,0.6 s-0.3,0.5-0.4,0.8c-0.1,0.3-0.1,0.6-0.1,0.9S20.8,32.3,20.9,32.6z M36.8,36h-2.2l-1.2-5.9h0L32.2,36H30l-2.3-8.6h2.2l1.2,6.3h0 l1.3-6.3h2.1l1.3,6.3h0l1.2-6.3h2.2L36.8,36z M40.1,27.4h2.3l3,5.3h0v-5.3h2.1V36h-2.3l-3-5.3h0V36h-2.1V27.4z"/>
</svg>
