<svg version="1.1" class="logo" sodipodi:docname="AJAX1.svg" inkscape:version="0.48.4 r9939" xmlns:rdf="http://www.w3.org/1999/02/22-rdf-syntax-ns#" xmlns:sodipodi="http://sodipodi.sourceforge.net/DTD/sodipodi-0.dtd" xmlns:dc="http://purl.org/dc/elements/1.1/" xmlns:svg="http://www.w3.org/2000/svg" xmlns:inkscape="http://www.inkscape.org/namespaces/inkscape" xmlns:cc="http://creativecommons.org/ns#"
	 xmlns="http://www.w3.org/2000/svg" xmlns:xlink="http://www.w3.org/1999/xlink" x="0px" y="0px" viewBox="-155 166.4 288.8 268.6"
	 enable-background="new -155 166.4 288.8 268.6" xml:space="preserve">
<sodipodi:namedview  id="namedview29" inkscape:pageopacity="0" inkscape:window-y="-8" inkscape:window-x="-8" inkscape:current-layer="Layer_1" fit-margin-right="0.3" fit-margin-bottom="0.3" inkscape:window-maximized="1" inkscape:window-height="1004" inkscape:window-width="1280" inkscape:pageshadow="2" showgrid="false" inkscape:cy="28.65834" fit-margin-left="0.3" objecttolerance="10" gridtolerance="10" fit-margin-top="0.3" inkscape:cx="148.05483" pagecolor="#ffffff" borderopacity="1" guidetolerance="10" inkscape:zoom="1.3284877" bordercolor="#666666">
	</sodipodi:namedview>
<path id="path3" inkscape:connector-curvature="0" fill="#CCCCCC" d="M-92.4,432.8c-15,4.2-30.6,1.4-42.8-7.8
	c-12.1-9.1-19.4-22.9-19.4-37V266.5c0.1-22.1,16.6-43.1,38.6-48.9l188.3-49c15.2-4.1,30.2-1.5,42.3,7.8c11.8,9,19,23.3,19,37.3
	c0,0,0,118.3,0,118.3c0,24.5-16.4,46-39.9,52.4L-92.4,432.8"/>
<path id="path5" inkscape:connector-curvature="0" fill="#E6E6E6" d="M-97.2,416c-9.8,2.8-19.6,1-27.6-5
	c-7.8-5.8-12.4-14.5-12.5-23.2c0,0,0-121.2,0-121.3c0-14.2,11.3-28.3,25.7-32.2l188.3-49c10.1-2.7,19.5-1.1,27.2,4.8
	c7.4,5.7,12.2,14.9,12.2,23.5v118.4c0,16.6-11.1,31.3-27,35.6L-97.2,416"/>
<path id="path9" inkscape:connector-curvature="0" fill="#AAAAAA" d="M-97.2,416c-9.8,2.8-19.6,1-27.6-5
	c-7.8-5.8-12.4-14.5-12.5-23.2c0,0,0-121.2,0-121.3c0-14.2,11.3-28.3,25.7-32.2l188.3-49c10.1-2.7,19.5-1.1,27.2,4.8
	c7.4,5.7,12.2,14.9,12.2,23.5v118.4c0,16.6-11.1,31.3-27,35.6l-62.3,16.2l6-11.2l-6-8.3l57.4-14.9c7.7-2.1,13.1-9.2,13.1-17.4
	c0,0,0-118.4,0-118.4c0-2.3-1.8-6.1-4.8-8.4c-1.8-1.4-4.9-3.1-10.8-1.5c0,0-188.4,49.1-188.4,49.1c-6.1,1.6-11.6,8.3-11.6,13.9
	c0,0,0,121.2,0,121.2c0,2.2,1.5,5.6,4.9,8.1c3.2,2.4,7,3.1,11.1,1.9L5.6,369.8c5.2-1.1,4.6-9.6,4.6-9.6l0-18.1l0-1.3
	c0-0.2-0.2,0.1-0.2,0.1l0,0c0,0-3,5.9-8.1,5.9c-8.4,0.1-8.9-8.8-8.9-8.8v-30.1l11.5-2.9v26.4c0,0-0.5,4,3.1,3.7
	c2.5-0.2,2.6-3.9,2.6-4.8c0-0.9,0-26.9,0-26.9l12.2-3.2l-0.2,68.7c0,0,0.3,15.3-14.9,19.9L-97.2,416"/>
<path id="path11" inkscape:connector-curvature="0" fill="#AAAAAA" d="M9.1,258.4c0,0-8.7,2.4-8.7,2.4c-1.6,0.6-2.1,1.6-2.1,3.6
	l0,13.6c0,1.6,1.4,1.5,3,1.1c0,0,7.8-2,7.8-2s0,7.7,0,10.9c-4.4,1.2-14.2,3.6-14.3,3.7c-4.5,1.2-7.8-2.1-7.8-7.1l0-24.6
	c0-4.1,2.7-7.5,6.2-8.7l15.8-4L9.1,258.4"/>
<path id="path13" inkscape:connector-curvature="0" fill="#AAAAAA" d="M42,303.6c-2.6,1.2-2.4,4.4-2.4,5.9l0,3.7
	c2-0.2,6.4-2.2,7.2-5.9C47.4,303.8,44.7,302.4,42,303.6 M44.7,293.7c3.8-0.3,7.7,1.4,9.7,4.4c2.5,3.8,2,9.5-0.1,13.3
	c-3,5.8-11,8.1-14.7,8.9l0,3.2c0,1.7,0.9,1.7,1.9,1.5c0,0,12.7-3.3,12.7-3.3l0,10.8L36.2,337c-4.1,1-7.8-1.5-7.8-7.8l0-19.6
	C28.4,300,37,294.3,44.7,293.7L44.7,293.7z"/>
<path id="path15" inkscape:connector-curvature="0" fill="#AAAAAA" d="M-71.2,294.3c0,1,0.1,2.5,2,2.3c3.1-0.8,6.2-1.7,9.4-2.4
	c0.8-0.2,1.3-1.1,1.3-1.8l0-23.8c0.2-2.6-1.2-2.6-2.1-2.5l-9.2,2.4c-0.8,0.2-1.3,1.1-1.3,1.8L-71.2,294.3 M-57.3,253
	c9.2-2,11.6,5.2,11.6,9.2l0,32.7c-0.1,3.9-3.8,8.8-8.8,10.1l-16.5,4.3c-6.4,1.5-13.2-0.6-13.2-9.7l0-30.2c-0.1-4.4,2.5-10,8.8-11.7
	C-75.4,257.7-57.3,253-57.3,253z"/>
<path id="path17" inkscape:connector-curvature="0" fill="#AAAAAA" d="M57.9,241c2.1-6.5,6.6-8.9,10.6-8.9l0,11.9
	c0,0-6.7,1.2-8.3,2.3c-1.7,1.2-1.4,3.4-1.5,4.9v23.7l-11.5,3l0-40.3l9.7-2.5l0.6,6.8c0.1,0.2,0.2-0.1,0.2-0.1L57.9,241"/>
<path id="path19" inkscape:connector-curvature="0" fill="#AAAAAA" d="M-81.2,340.5c0.1-0.2,0.2,0.1,0.2,0.1l6.5,25.3l0,0
	c0.1,0,10.6-2.7,10.7-2.8l5.8-28.8c0,0,0.1-0.3,0.2-0.1l0,27.2c4.2-1.1,8.4-2.2,12.5-3.4l0.1-50.2c-5.8,1.4-11.9,3-17.7,4.5
	l-6.4,33.9c0,0-0.1,0.3-0.2,0.1l-7.3-30.4c-5.6,1.4-11.3,3-16.8,4.5v50.3l12.5-3.2L-81.2,340.5"/>
<path id="path21" inkscape:connector-curvature="0" fill="#AAAAAA" d="M-17.3,282.9c-1.2-2-9.4-13-9.4-13.1c0,0-1.3-1.4,0.5-2
	c0,0,8.6-2.3,8.6-2.3l0-11c0,0-16.8,4.3-16.8,4.3c-6.7,1.7-8.8,8.4-5.2,13.5c0,0,9.6,12.5,9.9,13.2c0.9,1.3-0.5,1.8-0.5,1.8
	l-9.7,2.7v10.7l16.8-4.3C-16.6,294.8-13.6,288.4-17.3,282.9"/>
<path id="path23" inkscape:connector-curvature="0" fill="#AAAAAA" d="M26.3,274.1c3.2-1.9,2.5-6,2.4-9.2c-2.8,0.3-6,1.9-6.8,4.8
	C21,273,23.4,275.8,26.3,274.1 M28.9,277.8c0-0.2-0.2,0.1-0.2,0.1l0,0c-2.1,3.9-3.2,4.9-4.5,5.8c-2.5,1.6-8.8,3.5-12.5-3.4
	c-2.5-4.7-1-10.7,2.2-14.5c5.1-5.9,14.9-7.2,14.9-7.2s0-2.1,0-2.1c0-1.3,0.3-3.7-2.7-2.7c0,0-10.2,2.5-10.2,2.5l0-10.7
	c0,0,15.8-4.2,15.9-4.2c4-1.1,8.2,1.8,8.2,7.2v31.1l-11.2,2.9L28.9,277.8L28.9,277.8z"/>
<path id="path25" inkscape:connector-curvature="0" fill="#AAAAAA" d="M-26.8,344.1c3-1.9,3-5.8,2.7-9.4c-3,0.3-6,2.1-6.9,4.9
	C-31.9,342.4-30.1,346-26.8,344.1 M-23.9,347.4c0-0.2-0.2,0.1-0.2,0.1l0,0c0,0-2.9,6.9-8,7.8c-3.1,0.6-6.2-0.6-8-3.1
	c-3-3.9-2.7-10.2-0.3-14.3c3.7-7.2,16.4-9.4,16.4-9.4s0-3.7,0-3.7c0-1.9-1.5-1.6-2.2-1.4c-0.1,0-10.6,2.7-10.7,2.7v-10.7
	c0.1,0,14.5-3.7,14.8-3.7c3.4-0.6,9.3-0.8,9.2,8.3l0,30l-11.1,2.9L-23.9,347.4z"/>
<path id="path27" inkscape:connector-curvature="0" fill="#AAAAAA" d="M71.1,294.4c1.8-7.2,6.7-9.9,10.9-9.9v11.7
	c0,0-7.3,1.5-8.8,2.6c-1.7,1.2-1.2,3.8-1.2,5.4v23.5l-11.5,3.1l0-40.4l9.9-2.5l0.6,6.5C70.9,294.6,71.1,294.4,71.1,294.4L71.1,294.4
	"/>
</svg>
