<svg class="logo" xmlns="http://www.w3.org/2000/svg" viewBox="-155 166.4 288.8 268.6" enable-background="new -155 166.4 288.8 268.6"><path fill="#FEBE11" d="M-92.4 432.8c-15 4.2-30.6 1.4-42.8-7.8-12.1-9.1-19.4-22.9-19.4-37V266.5c.1-22.1 16.6-43.1 38.6-48.9l188.3-49c15.2-4.1 30.2-1.5 42.3 7.8 11.8 9 19 23.3 19 37.3V332c0 24.5-16.4 46-39.9 52.4l-186.1 48.4"/><path fill="#fff" d="M-97.2 416c-9.8 2.8-19.6 1-27.6-5-7.8-5.8-12.4-14.5-12.5-23.2V266.5c0-14.2 11.3-28.3 25.7-32.2l188.3-49c10.1-2.7 19.5-1.1 27.2 4.8 7.4 5.7 12.2 14.9 12.2 23.5V332c0 16.6-11.1 31.3-27 35.6L-97.2 416"/><path fill="#ED1C24" d="M-97.2 416c-9.8 2.8-19.6 1-27.6-5-7.8-5.8-12.4-14.5-12.5-23.2V266.5c0-14.2 11.3-28.3 25.7-32.2l188.3-49c10.1-2.7 19.5-1.1 27.2 4.8 7.4 5.7 12.2 14.9 12.2 23.5V332c0 16.6-11.1 31.3-27 35.6l-62.3 16.2 6-11.2-6-8.3 57.4-14.9c7.7-2.1 13.1-9.2 13.1-17.4V213.6c0-2.3-1.8-6.1-4.8-8.4-1.8-1.4-4.9-3.1-10.8-1.5l-188.4 49.1c-6.1 1.6-11.6 8.3-11.6 13.9v121.2c0 2.2 1.5 5.6 4.9 8.1 3.2 2.4 7 3.1 11.1 1.9L5.6 369.8c5.2-1.1 4.6-9.6 4.6-9.6V340.8c0-.2-.2.1-.2.1s-3 5.9-8.1 5.9c-8.4.1-8.9-8.8-8.9-8.8v-30.1L4.5 305v26.4s-.5 4 3.1 3.7c2.5-.2 2.6-3.9 2.6-4.8v-26.9l12.2-3.2-.2 68.7s.3 15.3-14.9 19.9L-97.2 416"/><path fill="#ED1C24" d="M9.1 258.4l-8.7 2.4c-1.6.6-2.1 1.6-2.1 3.6V278c0 1.6 1.4 1.5 3 1.1l7.8-2V288c-4.4 1.2-14.2 3.6-14.3 3.7-4.5 1.2-7.8-2.1-7.8-7.1V260c0-4.1 2.7-7.5 6.2-8.7l15.8-4 .1 11.1"/><path fill="#ED1C24" d="M42 303.6c-2.6 1.2-2.4 4.4-2.4 5.9v3.7c2-.2 6.4-2.2 7.2-5.9.6-3.5-2.1-4.9-4.8-3.7m2.7-9.9c3.8-.3 7.7 1.4 9.7 4.4 2.5 3.8 2 9.5-.1 13.3-3 5.8-11 8.1-14.7 8.9v3.2c0 1.7.9 1.7 1.9 1.5l12.7-3.3v10.8l-18 4.5c-4.1 1-7.8-1.5-7.8-7.8v-19.6c0-9.6 8.6-15.3 16.3-15.9z"/><path fill="#ED1C24" d="M-71.2 294.3c0 1 .1 2.5 2 2.3 3.1-.8 6.2-1.7 9.4-2.4.8-.2 1.3-1.1 1.3-1.8v-23.8c.2-2.6-1.2-2.6-2.1-2.5l-9.2 2.4c-.8.2-1.3 1.1-1.3 1.8l-.1 24m13.9-41.3c9.2-2 11.6 5.2 11.6 9.2v32.7c-.1 3.9-3.8 8.8-8.8 10.1l-16.5 4.3c-6.4 1.5-13.2-.6-13.2-9.7v-30.2c-.1-4.4 2.5-10 8.8-11.7l18.1-4.7z"/><path fill="#ED1C24" d="M57.9 241c2.1-6.5 6.6-8.9 10.6-8.9V244s-6.7 1.2-8.3 2.3c-1.7 1.2-1.4 3.4-1.5 4.9v23.7l-11.5 3v-40.3l9.7-2.5.6 6.8c.1.2.2-.1.2-.1l.2-.8"/><path fill="#ED1C24" d="M-81.2 340.5c.1-.2.2.1.2.1l6.5 25.3c.1 0 10.6-2.7 10.7-2.8l5.8-28.8s.1-.3.2-.1v27.2c4.2-1.1 8.4-2.2 12.5-3.4l.1-50.2c-5.8 1.4-11.9 3-17.7 4.5l-6.4 33.9s-.1.3-.2.1l-7.3-30.4c-5.6 1.4-11.3 3-16.8 4.5v50.3l12.5-3.2-.1-27"/><path fill="#ED1C24" d="M-17.3 282.9c-1.2-2-9.4-13-9.4-13.1 0 0-1.3-1.4.5-2l8.6-2.3v-11l-16.8 4.3c-6.7 1.7-8.8 8.4-5.2 13.5 0 0 9.6 12.5 9.9 13.2.9 1.3-.5 1.8-.5 1.8l-9.7 2.7v10.7l16.8-4.3c6.5-1.6 9.5-8 5.8-13.5"/><path fill="#ED1C24" d="M26.3 274.1c3.2-1.9 2.5-6 2.4-9.2-2.8.3-6 1.9-6.8 4.8-.9 3.3 1.5 6.1 4.4 4.4m2.6 3.7c0-.2-.2.1-.2.1-2.1 3.9-3.2 4.9-4.5 5.8-2.5 1.6-8.8 3.5-12.5-3.4-2.5-4.7-1-10.7 2.2-14.5 5.1-5.9 14.9-7.2 14.9-7.2v-2.1c0-1.3.3-3.7-2.7-2.7l-10.2 2.5v-10.7s15.8-4.2 15.9-4.2c4-1.1 8.2 1.8 8.2 7.2v31.1l-11.2 2.9.1-4.8z"/><path fill="#ED1C24" d="M-26.8 344.1c3-1.9 3-5.8 2.7-9.4-3 .3-6 2.1-6.9 4.9-.9 2.8.9 6.4 4.2 4.5m2.9 3.3c0-.2-.2.1-.2.1s-2.9 6.9-8 7.8c-3.1.6-6.2-.6-8-3.1-3-3.9-2.7-10.2-.3-14.3 3.7-7.2 16.4-9.4 16.4-9.4v-3.7c0-1.9-1.5-1.6-2.2-1.4-.1 0-10.6 2.7-10.7 2.7v-10.7c.1 0 14.5-3.7 14.8-3.7 3.4-.6 9.3-.8 9.2 8.3v30l-11.1 2.9.1-5.5z"/><path fill="#ED1C24" d="M71.1 294.4c1.8-7.2 6.7-9.9 10.9-9.9v11.7s-7.3 1.5-8.8 2.6c-1.7 1.2-1.2 3.8-1.2 5.4v23.5l-11.5 3.1v-40.4l9.9-2.5.6 6.5c-.1.2.1 0 .1 0"/></svg>