<svg version="1.1" class="logo" inkscape:version="0.47 r22583" xmlns:dc="http://purl.org/dc/elements/1.1/" xmlns:rdf="http://www.w3.org/1999/02/22-rdf-syntax-ns#" xmlns:svg="http://www.w3.org/2000/svg" xmlns:inkscape="http://www.inkscape.org/namespaces/inkscape" xmlns:sodipodi="http://sodipodi.sourceforge.net/DTD/sodipodi-0.dtd" xmlns:cc="http://creativecommons.org/ns#" xmlns="http://www.w3.org/2000/svg" xmlns:xlink="http://www.w3.org/1999/xlink" x="0px" y="0px" viewBox="197 90 661.2 122" enable-background="new 197 90 661.2 122" xml:space="preserve">
	<path id="layer1" transform="translate(98.1395,283.56298)" inkscape:groupmode="layer" inkscape:label="Layer 1" fill="#221E1F" d="M156.9-146.8c0.1-6.3,1.9-10,8-10c4.9,0,6.9,2.9,6.9,7.3c0,5.6-1.2,6.6-7.8,8.4c-6.1,1.6-14.2,3-19.6,5.9c-5.4,3-8.9,10.1-8.9,18.6 c0,15.7,7.2,22.2,19.4,22.2c7.3,0,14.2-3.8,17.1-10.3h0.3c0.1,2.8,0.4,5.8,1.2,8.4h21c-2.5-3.2-2.5-10.3-2.5-15.8v-37.5 c0-15.4-8-21.6-25.9-21.6c-9,0-15.2,1.2-20.3,4.7c-5.1,3.5-8.1,9.6-8.2,19.6L156.9-146.8z M156.5-118.7c0-4.1,1.1-6.4,3.4-8.1 c2-1.6,5-1.8,11.9-5.4c0,3-0.1,6.8-0.1,12.8c0,7.3-4.2,10-8.8,10C158.8-109.4,156.5-112.9,156.5-118.7 M238.1-96.2h21.1v-96.3h-21.9 v31.3H237c-3.6-7.8-10.3-9.8-16.3-9.8c-18,0-21.2,16.3-21.2,39c0,27.2,7.8,37.8,22.5,37.8c9.7,0,14.2-5.8,15.8-10.8h0.3V-96.2z M237.7-132.2c0,14.2-1.4,22-7.8,22c-8.2,0-8.5-11.2-8.5-22.9c0-13.2,0.4-22,8.4-22C237.2-155.1,237.7-145.1,237.7-132.2 M326.7-96.2h-21v-8.6h-0.3c-3.1,6.5-9.4,10.5-17.5,10.5c-12.4,0-19.1-6.2-19.1-20.3v-54.6h21.9v49.8c0,5.3,2.3,8.3,6.3,8.3 c4.2,0,7.8-3.2,7.8-10.3v-47.8h21.8V-96.2z M337-192.5h21.9v96.3H337V-192.5z M374.4-154h-9v-15.1h9v-21.4h21.9v21.4h10.1v15.1 h-10.1v36.8c0,5.1,1.9,6.7,7,6.7c0.9,0,2.2-0.1,3.1-0.2v14.6c-4.2,0.5-8.4,0.8-12.5,0.8c-15.1,0-19.4-2.7-19.4-19.7V-154z M451.8-119.4c0.2,3.2,0.4,6.1,1.5,8.2c1.2,2,3.2,3.4,6.8,3.4c5.1,0,7.8-3.3,7.8-7.4c0-3.4-1.6-6.6-8.4-8.9 c-18-6.1-26.6-9.6-26.6-25c0-14.6,10.3-22,27.8-22c20.5,0,26.4,10,26.4,20.5v2.5h-19.4v-1.4c0-6.3-2.6-8.1-7.2-8.1 c-5.8,0-7.4,2.8-7.4,6.7c0,12.9,34.9,4.3,34.9,32.7c0,14.7-9.9,23.9-27.9,23.9c-19.6,0-27.8-7.3-27.8-21.8v-3.2L451.8-119.4z M490.6-169.1h21.8l7.1,53.8h0.2l8.2-53.8h23.5l7.7,53.8h0.2l7.7-53.8h21l-15.8,73h-24.7l-7.9-53.8h-0.3L531-96.2h-25.1L490.6-169.1 z M594.6-193.6h21.9v16.7h-21.9V-193.6z M594.6-169.1h21.9v73h-21.9V-169.1z M626.5-169.1h21v8.6h0.3c3.1-6.5,9.4-10.5,17.5-10.5 c6.3,0,14.7,1.2,17.9,11.2c5.2-8.5,10-11.2,18.1-11.2c12.4,0,19,6.2,19,20.2v54.6h-21.9v-49.8c0-5.3-2.3-8.4-6.3-8.4 c-4.2,0-7.8,3.3-7.8,10.4v47.7h-21.8v-49.8c0-5.3-2.3-8.4-6.3-8.4c-4.2,0-7.8,3.3-7.8,10.4v47.7h-21.8V-169.1z M98.9-192.7H133v15.1 h-13.9v90.9H133v15.1H98.9V-192.7z M725.3-86.7h13.9v-90.9h-13.9v-15.1h34.1v121.1h-34.1V-86.7z"/>
</svg>
