<svg version="1.1" class="logo" xmlns="http://www.w3.org/2000/svg" xmlns:xlink="http://www.w3.org/1999/xlink" x="0px" y="0px" viewBox="-157 159.2 283.9 283.8" enable-background="new -157 159.2 283.9 283.8" xml:space="preserve">
<g>
	<path fill="#1E9CD8" d="M-15.1,159.2c-78.3,0-141.9,63.7-141.9,141.9C-157,379.3-93.3,443-15.1,443s141.9-63.7,141.9-141.9 C126.9,222.8,63.2,159.2-15.1,159.2z M-15.1,428.5c-70.3,0-127.4-57.2-127.4-127.4c0-70.3,57.2-127.4,127.4-127.4 c70.3,0,127.4,57.2,127.4,127.4C112.4,371.3,55.2,428.5-15.1,428.5z"/>
	<path fill="#1E9CD8" d="M54.9,284c-1.6,0-3,0.6-4.2,1.8c-1.2,1.2-1.8,2.6-1.8,4.2c0,1.7,0.6,3.2,1.8,4.4c1.2,1.2,2.6,1.8,4.3,1.8 c1.6,0,3-0.6,4.2-1.8c1.2-1.2,1.8-2.6,1.8-4.3c0-1.7-0.6-3.1-1.8-4.3C57.9,284.6,56.5,284,54.9,284z"/>
	<path fill="#1E9CD8" d="M-68.1,299c-2-2.1-4.4-3.8-7-5c-2.6-1.3-5.4-2-8.3-2.3l20.6-25.7v-0.7h-54.1V278h29.2l-18.9,23.2l1.2,2.2 c1.4-0.5,3-0.9,4.9-1.2c1.9-0.3,4.2-0.5,7-0.5c4.3,0,8.1,1.2,11.4,3.5c3.2,2.3,4.9,5.9,4.9,10.6c0,4.8-1.3,8.5-4,11 c-2.7,2.5-6.3,3.7-11,3.7c-4.5,0-8.2-1.2-11.1-3.5c-3-2.3-5.3-5.3-6.9-9l-12.8,6.5c1,2.2,2.3,4.4,4.1,6.7c1.7,2.2,3.9,4.2,6.5,6.1 c2.6,1.8,5.5,3.3,8.9,4.5c3.4,1.2,7.2,1.7,11.3,1.7c5.1,0,9.6-0.7,13.4-2.2c3.8-1.5,7-3.4,9.5-5.9c2.5-2.5,4.4-5.4,5.7-8.7 c1.3-3.3,1.9-6.9,1.9-10.7c0-3.6-0.6-6.8-1.7-9.7C-64.4,303.6-66,301.1-68.1,299z"/>
	<path fill="#1E9CD8" d="M-1.9,297.3c-2.4-2.3-5.1-4-8.3-5.3c-3.2-1.3-6.6-1.9-10.3-1.9c-2.1,0-3.9,0.2-5.4,0.7l20-25.8h-16.5 l-20,26.1c-3.6,4.7-6.2,9-8,13.1c-1.7,4.1-2.6,8.2-2.6,12.2c0,4.3,0.8,8.1,2.3,11.4c1.5,3.3,3.6,6.2,6.3,8.4c2.7,2.3,5.8,4,9.3,5.2 c3.6,1.2,7.3,1.8,11.3,1.8c4.1,0,7.8-0.6,11.4-1.9s6.6-3.1,9.4-5.4c2.7-2.3,4.8-5.2,6.4-8.5c1.6-3.4,2.3-7.2,2.3-11.4 c0-3.9-0.7-7.4-2-10.6C2.4,302.3,0.5,299.6-1.9,297.3z M-13.5,326.1c-2.4,2.6-5.8,3.9-10.1,3.9c-4.3,0-7.8-1.3-10.3-3.9 c-2.5-2.6-3.8-6-3.8-10.1c0-4.2,1.2-7.6,3.5-10.3c2.3-2.7,5.8-4,10.4-4c4.1,0,7.5,1.4,10.1,4.1c2.6,2.7,3.8,6.1,3.8,10.2 C-9.8,320.1-11.1,323.5-13.5,326.1z"/>
	<path fill="#1E9CD8" d="M91.8,288.1c-2.2-4.8-5.1-9-8.8-12.6c-3.7-3.6-7.9-6.4-12.7-8.3c-4.8-2-9.9-3-15.4-3s-10.5,1-15.4,3 c-4.8,2-9.1,4.8-12.7,8.3c-3.7,3.6-6.6,7.8-8.8,12.6c-2.2,4.8-3.2,10.1-3.2,15.7c0,5.6,1.1,10.8,3.2,15.7c2.2,4.8,5.1,9,8.8,12.6 c3.7,3.6,7.9,6.4,12.7,8.4c4.8,2,9.9,3,15.4,3s10.5-1,15.4-3c4.8-2,9.1-4.8,12.7-8.4c3.7-3.6,6.6-7.8,8.8-12.6 c2.2-4.8,3.3-10.1,3.3-15.7C95.1,298.1,94,292.9,91.8,288.1z M77.7,314.6c-1.2,3.2-2.9,6-5.1,8.3c-2.2,2.3-4.8,4.1-7.8,5.4 c-1.4,0.6-2.8,1-4.3,1.3v-30.3H49.2v30.2c-1.4-0.3-2.8-0.7-4.1-1.3c-3-1.3-5.6-3-7.8-5.4c-2.2-2.3-3.9-5.1-5.1-8.3 c-1.2-3.2-1.8-6.9-1.8-10.8c0-3.9,0.6-7.4,1.8-10.7c1.2-3.2,2.9-6,5.1-8.4c2.2-2.3,4.8-4.1,7.8-5.4c3-1.3,6.3-1.9,9.9-1.9 c3.6,0,6.9,0.6,9.9,1.9c3,1.3,5.6,3,7.8,5.4c2.2,2.3,3.9,5.1,5.1,8.4c1.2,3.2,1.8,6.8,1.8,10.7C79.5,307.7,78.9,311.3,77.7,314.6z"/>
</g>
</svg>
