<svg class="logo" xmlns="http://www.w3.org/2000/svg" viewBox="-149 241 300 120" enable-background="new -149 241 300 120"><path fill="#EC1C2E" d="M-68.2 268.4c-13 1.8-15.6 3-22.7 11.7l-9.3 13.1c-1.7 2.4-3.1 5.7-3.1 9.1 0 3.4 1.4 6.7 3.1 9.1l9.3 13.1c7.1 8.7 9.7 9.9 22.7 11.7 15.8 2.1 43.5 4.1 69 4.1 25.6 0 53.3-1.9 69-4.1 13-1.8 15.6-3 22.7-11.7l9.3-13.1c1.7-2.4 3.1-5.7 3.1-9.1 0-3.4-1.4-6.7-3.1-9.1l-9.3-13.1c-7.1-8.7-9.7-9.9-22.7-11.7-16.1-2.2-42.6-4.1-69-4.1-25.5.1-53.2 2-69 4.1m135.9-11.8c10.6 1 20.4 2.4 30.6 4.1 12.3 2 15.3 3.6 22.5 12.3l14.6 20.5c1.7 2.4 3.1 4.9 3.1 8.8 0 3.9-1.4 6.5-3.1 8.8l-14.6 20.5c-7.1 8.7-10.2 10.3-22.5 12.3-10.2 1.7-20 3-30.6 4.1-17.5 1.7-35.4 2.7-66.9 2.7-31.5 0-49.3-1-66.9-2.7-10.6-1-20.4-2.4-30.6-4.1-12.3-2-15.3-3.6-22.5-12.3l-14.6-20.5c-1.7-2.4-3.1-4.9-3.1-8.8 0-3.9 1.4-6.4 3.1-8.8L-119 273c7.1-8.7 10.2-10.3 22.5-12.3 10.2-1.7 20-3 30.6-4.1 17.5-1.7 35.4-2.7 66.9-2.7 32.6 0 49.2 1 66.7 2.7z"/><path fill="#0056A2" d="M-64.4 318.2c.5.9.7 1.5.8 2.4h14.1c-.8-.9-1.3-1.5-1.8-2.4l-10.3-18.8 10.7-14.4c.7-.9 1.4-1.8 2.1-2.4h-12.4c-.3.9-.6 1.5-1.3 2.4l-9.5 12.5V285c0-.9.1-1.5.5-2.4h-12.7c.4.9.5 1.5.5 2.4v33.2c0 .9-.1 1.5-.5 2.4h12.7c-.4-.9-.5-1.5-.5-2.4v-13.7l7.6 13.7"/><path fill="#0056A2" d="M-34.1 299.9h4.1c2.7 0 4.5-1.4 4.5-4.4 0-3-1.8-4.4-4.5-4.4h-4.1v8.8M-45.7 285c0-.9-.1-1.5-.5-2.4h19c5.5 0 13.1 1.4 13.1 10.3 0 6.8-4.3 9.8-8.1 10.4l8.9 14.9c.5.9.9 1.5 1.8 2.4h-14.3c-.1-.9-.3-1.5-.8-2.4l-7.4-12v12c0 .9.1 1.5.5 2.4h-12.7c.4-.9.5-1.5.5-2.4V285zM54.3 282.6V293c-.9-.4-1.5-.5-2.4-.5H40v6.6h14v8.6c-.9-.4-1.5-.5-2.4-.5H40v11c0 .9.1 1.5.5 2.4H27.8c.4-.9.5-1.5.5-2.4V285c0-.9-.1-1.5-.5-2.4h26.5M57 282.6V293c.9-.4 1.5-.5 2.4-.5h7.9v25.7c0 .9-.1 1.5-.5 2.4h12.5c-.4-.9-.5-1.5-.5-2.4v-25.7h7.5c.9 0 1.5.1 2.4.5v-10.4H57"/><path fill="#0056A2" d="M11 313l1.2 5.2c.2 1 .3 1.5.1 2.4h13.3c-.6-.9-.9-1.5-1.1-2.4L15 284.9c-.3-.9-.3-1.5-.2-2.4H-1.5c.1.9.1 1.4-.2 2.4l-10.2 33.2c-.2 1-.5 1.5-1.1 2.4H-.4c-.1-.9-.1-1.5.1-2.4l1.2-5.2H11m-5.8-8H2.8L6 291.8l3.1 13.1H5.2z"/></svg>
