<svg version="1.1" class="logo" xmlns="http://www.w3.org/2000/svg" xmlns:xlink="http://www.w3.org/1999/xlink" x="0px" y="0px" viewBox="-149 241 300 120" enable-background="new -149 241 300 120" xml:space="preserve">
<g>
	<g>
		<g>
			<path fill="#FFFFFF" d="M142.7,288.4c0,0-14.6-20.6-14.6-20.6l-0.2-0.3l-0.2-0.2c-8.4-10.3-13.4-13.1-27.9-15.5 c-11.4-1.9-21.3-3.2-31.2-4.1c-18.3-1.7-35.3-2.8-67.7-2.8c-32.2,0-50.4,1.1-67.7,2.8c-9.9,0.9-19.8,2.3-31.2,4.1 c-14.5,2.4-19.5,5.1-27.9,15.5l-0.2,0.2l-0.2,0.3l-14.6,20.5c-2.4,3.4-4.8,7.6-4.8,14c0,6.4,2.4,10.6,4.7,14 c0,0,14.6,20.6,14.6,20.6l0.2,0.2l0.2,0.2c8.4,10.3,13.4,13.1,27.9,15.5c11.4,1.9,21.3,3.2,31.2,4.1c17.4,1.7,35.5,2.8,67.7,2.8 c32.2,0,50.4-1.1,67.7-2.8c9.9-0.9,19.8-2.3,31.2-4.1c14.5-2.4,19.5-5.1,27.9-15.5l0.2-0.2l0.2-0.2l14.6-20.5 c2.4-3.4,4.8-7.7,4.8-14C147.4,296,145,291.7,142.7,288.4"/>
			<path fill="#EC1C2E" d="M-68.2,268.4c-13,1.8-15.6,3-22.7,11.7l-9.3,13.1c-1.7,2.4-3.1,5.7-3.1,9.1c0,3.4,1.4,6.7,3.1,9.1 l9.3,13.1c7.1,8.7,9.7,9.9,22.7,11.7c15.8,2.1,43.5,4.1,69,4.1c25.6,0,53.3-1.9,69-4.1c13-1.8,15.6-3,22.7-11.7l9.3-13.1 c1.7-2.4,3.1-5.7,3.1-9.1c0-3.4-1.4-6.7-3.1-9.1l-9.3-13.1c-7.1-8.7-9.7-9.9-22.7-11.7c-16.1-2.2-42.6-4.1-69-4.1 C-24.7,264.4-52.4,266.3-68.2,268.4 M67.7,256.6c10.6,1,20.4,2.4,30.6,4.1c12.3,2,15.3,3.6,22.5,12.3l14.6,20.5 c1.7,2.4,3.1,4.9,3.1,8.8c0,3.9-1.4,6.5-3.1,8.8l-14.6,20.5c-7.1,8.7-10.2,10.3-22.5,12.3c-10.2,1.7-20,3-30.6,4.1 c-17.5,1.7-35.4,2.7-66.9,2.7c-31.5,0-49.3-1-66.9-2.7c-10.6-1-20.4-2.4-30.6-4.1c-12.3-2-15.3-3.6-22.5-12.3l-14.6-20.5 c-1.7-2.4-3.1-4.9-3.1-8.8c0-3.9,1.4-6.4,3.1-8.8L-119,273c7.1-8.7,10.2-10.3,22.5-12.3c10.2-1.7,20-3,30.6-4.1 c17.5-1.7,35.4-2.7,66.9-2.7C33.6,253.9,50.2,254.9,67.7,256.6z"/>
			<path fill="#0056A2" d="M-64.4,318.2c0.5,0.9,0.7,1.5,0.8,2.4h14.1c-0.8-0.9-1.3-1.5-1.8-2.4l-10.3-18.8l10.7-14.4 c0.7-0.9,1.4-1.8,2.1-2.4h-12.4c-0.3,0.9-0.6,1.5-1.3,2.4l-9.5,12.5l0-12.5c0-0.9,0.1-1.5,0.5-2.4h-12.7c0.4,0.9,0.5,1.5,0.5,2.4 v33.2c0,0.9-0.1,1.5-0.5,2.4h12.7c-0.4-0.9-0.5-1.5-0.5-2.4v-13.7L-64.4,318.2"/>
			<path fill="#0056A2" d="M-34.1,299.9h4.1c2.7,0,4.5-1.4,4.5-4.4c0-3-1.8-4.4-4.5-4.4h-4.1V299.9 M-45.7,285 c0-0.9-0.1-1.5-0.5-2.4h19c5.5,0,13.1,1.4,13.1,10.3c0,6.8-4.3,9.8-8.1,10.4l8.9,14.9c0.5,0.9,0.9,1.5,1.8,2.4h-14.3 c-0.1-0.9-0.3-1.5-0.8-2.4l-7.4-12v12c0,0.9,0.1,1.5,0.5,2.4h-12.7c0.4-0.9,0.5-1.5,0.5-2.4L-45.7,285L-45.7,285z"/>
			<path fill="#0056A2" d="M54.3,282.6V293c-0.9-0.4-1.5-0.5-2.4-0.5H40v6.6h14v8.6c-0.9-0.4-1.5-0.5-2.4-0.5H40v11 c0,0.9,0.1,1.5,0.5,2.4H27.8c0.4-0.9,0.5-1.5,0.5-2.4V285c0-0.9-0.1-1.5-0.5-2.4L54.3,282.6"/>
			<path fill="#0056A2" d="M57,282.6V293c0.9-0.4,1.5-0.5,2.4-0.5h7.9v25.7c0,0.9-0.1,1.5-0.5,2.4h12.5c-0.4-0.9-0.5-1.5-0.5-2.4 v-25.7h7.5c0.9,0,1.5,0.1,2.4,0.5v-10.4H57"/>
			<path fill="#0056A2" d="M11,313l1.2,5.2c0.2,1,0.3,1.5,0.1,2.4h13.3c-0.6-0.9-0.9-1.5-1.1-2.4L15,284.9c-0.3-0.9-0.3-1.5-0.2-2.4 H-1.5c0.1,0.9,0.1,1.4-0.2,2.4l-10.2,33.2c-0.2,1-0.5,1.5-1.1,2.4h12.6c-0.1-0.9-0.1-1.5,0.1-2.4l1.2-5.2H11 M5.2,304.9H2.8 L6,291.8l3.1,13.1H5.2z"/>
		</g>
	</g>
</g>
</svg>
