<?xml version="1.0" encoding="utf-8"?>
<!-- Generator: Adobe Illustrator 18.1.0, SVG Export Plug-In . SVG Version: 6.00 Build 0)  -->
<svg version="1.1" id="Layer_1" xmlns="http://www.w3.org/2000/svg" xmlns:xlink="http://www.w3.org/1999/xlink" x="0px" y="0px"
	 viewBox="0 0 365.4 83.2" enable-background="new 0 0 365.4 83.2" xml:space="preserve">
<g>
	<path fill="#040600" d="M115.8,24.1h9.8l15.5,20v-20h10.4v37.7h-9.1l-16.2-20.7v20.7h-10.4V24.1z"/>
	<path fill="#040600" d="M168.6,47.8l-14.4-23.6h11.9l7.8,13.8l7.8-13.8h11.7L179,47.6v14.3h-10.5V47.8z"/>
	<path fill="#040600" d="M196.1,24.2h10.5v28.6h18.3v9.2h-28.7V24.2z"/>
	<path fill="#040600" d="M226,47.5v-0.1c0-8.5,6.1-15.3,14.7-15.3c10,0,14.7,7.4,14.7,16c0,0.6,0,1.4-0.1,2.1h-19.5
		c0.8,3.2,3.1,4.8,6.3,4.8c2.5,0,4.4-0.9,6.5-3l5.7,4.7c-2.8,3.6-6.8,5.9-12.6,5.9C232.5,62.6,226,56.5,226,47.5z M245.9,44.9
		c-0.4-3.2-2.3-5.3-5.1-5.3c-2.7,0-4.5,2-5.1,5.3H245.9z"/>
	<path fill="#040600" d="M256.8,53.6v-0.1c0-6.1,4.6-9.2,11.4-9.2c2.7,0,5.3,0.5,7,1.1v-0.5c0-3.1-1.9-4.8-5.8-4.8
		c-3.1,0-5.4,0.6-8.1,1.6l-2.1-7.2c3.3-1.3,6.8-2.3,11.8-2.3c5.2,0,8.8,1.2,11.1,3.6c2.2,2.2,3.1,5.2,3.1,9.3v16.8h-10.1v-3.1
		c-2,2.2-4.8,3.7-8.6,3.7C261,62.6,256.8,59.3,256.8,53.6z M275.4,51.3V50c-1.1-0.4-2.5-0.8-4-0.8c-3,0-4.7,1.4-4.7,3.6V53
		c0,2,1.5,3.2,3.6,3.2C273.2,56.1,275.4,54.3,275.4,51.3z"/>
	<path fill="#040600" d="M287.8,32.7h10.2v5.9c1.7-4,4.4-6.6,9.2-6.4V43h-0.9c-5.3,0-8.4,3.1-8.4,9.8v9.1h-10.2V32.7z"/>
	<path fill="#040600" d="M309.3,32.7h10.2v4.1c1.9-2.4,4.6-4.7,8.7-4.7c6.2,0,9.9,4.1,9.9,10.7v19.1H328V46.1c0-3.2-1.7-5-4.2-5
		s-4.3,1.7-4.3,5v15.8h-10.2V32.7z"/>
	<path fill="#040600" d="M338.6,58.2l3.8-6.1c3.3,2.2,7,3.3,10,3.3c1.8,0,2.6-0.5,2.6-1.6v-0.1c0-1.2-1.7-1.7-4.7-2.5
		c-5.8-1.5-10.4-3.5-10.4-9.3v-0.1c0-6.2,5-9.7,11.7-9.7c4.3,0,8.7,1.2,12,3.4l-3.5,6.5c-3-1.7-6.3-2.8-8.6-2.8
		c-1.6,0-2.4,0.6-2.4,1.5v0.1c0,1.1,1.7,1.7,4.7,2.6c5.8,1.6,10.4,3.6,10.4,9.3v0.1c0,6.4-4.8,9.8-11.9,9.8
		C347.4,62.6,342.6,61.1,338.6,58.2z"/>
</g>
<g>
	
		<polygon opacity="0.5" fill="#FFFFFF" stroke="#040600" stroke-width="2.6213" stroke-linecap="round" stroke-linejoin="round" points="
		94.3,28.3 47.8,1.4 1.3,28.3 1.3,55 47.8,81.8 94.3,55 	"/>
	<g>
		<polygon fill="#B0CFED" points="47.8,1.4 24.5,14.8 47.8,28.3 71,14.8 		"/>
		<polygon fill="#99B7DE" points="24.5,14.8 24.5,41.5 47.8,55 47.8,28.3 		"/>
		<polygon fill="#7EA0D1" points="47.8,28.3 47.8,55 71,41.5 71,14.8 		"/>
	</g>
	<g>
		<polygon fill="#C7D688" points="71.3,14.8 48,28.3 71.3,41.7 94.6,28.3 		"/>
		<polygon fill="#B2C96F" points="48,28.3 48,55 71.3,68.4 71.3,41.7 		"/>
		<polygon fill="#9DBB44" points="71.3,41.7 71.3,68.4 94.6,55 94.6,28.3 		"/>
	</g>
	<g>
		<polygon fill="#D6A487" points="24.5,14.8 1.3,28.3 24.5,41.7 47.8,28.3 		"/>
		<polygon fill="#B86943" points="1.3,28.3 1.3,55 24.5,68.4 24.5,41.7 		"/>
		<polygon fill="#A64A1A" points="24.5,41.7 24.5,68.4 47.8,55 47.8,28.3 		"/>
	</g>
	<g>
		<polygon fill="#EFD761" points="47.8,28.3 24.5,41.7 47.8,55.1 71,41.7 		"/>
		<polygon fill="#DCAB11" points="24.5,41.7 24.5,68.4 47.8,81.8 47.8,55.1 		"/>
		<polygon fill="#D09A0B" points="47.8,55.1 47.8,81.8 71,68.4 71,41.7 		"/>
	</g>
	
		<radialGradient id="SVGID_1_" cx="47.7691" cy="6.9165" r="20.0953" gradientTransform="matrix(1 0 0 0.8606 0 22.3486)" gradientUnits="userSpaceOnUse">
		<stop  offset="0" style="stop-color:#040600"/>
		<stop  offset="1" style="stop-color:#040600;stop-opacity:0"/>
	</radialGradient>
	<polygon opacity="0.5" fill="url(#SVGID_1_)" points="70.6,14.6 47.8,27.7 25,14.6 24.3,15 47.2,28.3 24.2,41.5 25,42 47.8,28.8 
		70.5,42 71.3,41.5 48.3,28.3 71.3,15 	"/>
</g>
</svg>
