<svg class="logo" xmlns="http://www.w3.org/2000/svg" viewBox="0 0 365.4 83.2" enable-background="new 0 0 365.4 83.2"><path fill="#fff" stroke="#aaa" stroke-width="2.621" stroke-linecap="round" stroke-linejoin="round" d="M94.4 28.3L47.9 1.4 1.4 28.3V55l46.5 26.8L94.4 55z"/><path fill="#D8D9DD" d="M47.9 1.4L24.6 14.8l23.3 13.5 23.2-13.5z"/><path fill="#99B7DE" d="M24.6 14.8v26.7L47.9 55V28.3z"/><path fill="#D8D9DD" d="M47.9 28.3V55l23.2-13.5V14.8zM71.1 14.8L47.8 28.2l23.3 13.5 23.2-13.5z"/><path fill="#9A999E" d="M71.1 41.7v26.7l23.2-13.5V28.2z"/><path fill="#D8D9DD" d="M24.6 14.8L1.4 28.3l23.2 13.4 23.3-13.4z"/><path fill="#AEADB3" d="M1.4 28.3V55l23.2 13.4V41.7zM24.6 41.7v26.7L47.9 55V28.3z"/><path fill="#D8D9DD" d="M47.9 28.3L24.6 41.7l23.3 13.4 23.2-13.4z"/><path fill="#AEADB3" d="M24.6 41.7v26.7l23.3 13.4V55.1z"/><path fill="#9A999E" d="M47.9 55.1v26.7l23.2-13.4V41.7z"/><radialGradient id="a" cx="47.902" cy="6.917" r="20.095" gradientTransform="matrix(1 0 0 .861 0 22.349)" gradientUnits="userSpaceOnUse"><stop offset="0" stop-color="#040600"/><stop offset="1" stop-color="#040600" stop-opacity="0"/></radialGradient><path opacity=".3" fill="url(#a)" d="M70.7 14.6L47.9 27.7 25.1 14.6l-.7.4 23 13.3-23 13.2.7.5 22.8-13.2L70.6 42l.8-.5-23-13.2 23-13.3z"/><g fill="#aaa"><path d="M115.8 24.1h9.8l15.5 20v-20h10.4v37.7h-9.1l-16.2-20.7v20.7h-10.4V24.1zM168.6 47.7l-14.4-23.6h11.9l7.8 13.8 7.8-13.8h11.7L179 47.6v14.3h-10.5V47.7zM196.1 24.1h10.5v28.6h18.3v9.2h-28.7V24.1zM226 47.4v-.1c0-8.5 6.1-15.3 14.7-15.3 10 0 14.7 7.4 14.7 16 0 .6 0 1.4-.1 2.1h-19.5c.8 3.2 3.1 4.8 6.3 4.8 2.5 0 4.4-.9 6.5-3l5.7 4.7c-2.8 3.6-6.8 5.9-12.6 5.9-9.2.1-15.7-6.1-15.7-15.1zm19.9-2.5c-.4-3.2-2.3-5.3-5.1-5.3-2.7 0-4.5 2-5.1 5.3h10.2zM256.8 53.5v-.1c0-6.1 4.6-9.2 11.4-9.2 2.7 0 5.3.5 7 1.1v-.5c0-3.1-1.9-4.8-5.8-4.8-3.1 0-5.4.6-8.1 1.6l-2.1-7.2c3.3-1.3 6.8-2.3 11.8-2.3 5.2 0 8.8 1.2 11.1 3.6 2.2 2.2 3.1 5.2 3.1 9.3v16.8h-10.1v-3.1c-2 2.2-4.8 3.7-8.6 3.7-5.5.1-9.7-3.1-9.7-8.9zm18.6-2.2V50c-1.1-.4-2.5-.8-4-.8-3 0-4.7 1.4-4.7 3.6v.1c0 2 1.5 3.2 3.6 3.2 2.9 0 5.1-1.9 5.1-4.8zM287.8 32.7H298v5.9c1.7-4 4.4-6.6 9.2-6.4V43h-.9c-5.3 0-8.4 3.1-8.4 9.8v9.1h-10.2V32.7zM309.3 32.7h10.2v4.1c1.9-2.4 4.6-4.7 8.7-4.7 6.2 0 9.9 4.1 9.9 10.7v19.1H328V46.1c0-3.2-1.7-5-4.2-5s-4.3 1.7-4.3 5v15.8h-10.2V32.7zM338.6 58.2l3.8-6.1c3.3 2.2 7 3.3 10 3.3 1.8 0 2.6-.5 2.6-1.6v-.1c0-1.2-1.7-1.7-4.7-2.5-5.8-1.5-10.4-3.5-10.4-9.3v-.1c0-6.2 5-9.7 11.7-9.7 4.3 0 8.7 1.2 12 3.4l-3.5 6.5c-3-1.7-6.3-2.8-8.6-2.8-1.6 0-2.4.6-2.4 1.5v.1c0 1.1 1.7 1.7 4.7 2.6 5.8 1.6 10.4 3.6 10.4 9.3v.1c0 6.4-4.8 9.8-11.9 9.8-4.9-.1-9.7-1.5-13.7-4.4z"/></g></svg>