<?xml version="1.0" encoding="utf-8"?>
<!-- Generator: Adobe Illustrator 15.0.0, SVG Export Plug-In . SVG Version: 6.00 Build 0)  -->
<!DOCTYPE svg PUBLIC "-//W3C//DTD SVG 1.1//EN" "http://www.w3.org/Graphics/SVG/1.1/DTD/svg11.dtd">
<svg version="1.1" id="Layer_1" xmlns="http://www.w3.org/2000/svg" xmlns:xlink="http://www.w3.org/1999/xlink" x="0px" y="0px" width="110px" height="105px" viewBox="0 0 110 105" enable-background="new 0 0 110 105" xml:space="preserve">
<ellipse class="basejumper-head" fill="#000" cx="95.375" cy="30.081" rx="11.875" ry="12"/>
<path class="basejumper-body" fill="#000" d="M68,35.581c0,0,5.25,5.25,17.75,9.75s9.75,11,7.25,18.75s-11.25,19-17.5,24s-21.75,14.5-29,14.25
s-7.75,1.5-20-5.75S-0.25,81.081,3,77.331s14.5,7,21.25,9.5s13,7.25,21,5s9.75-3.75,9.75-3.75s-11.75-1.25-11.75-1.5
s-5.75-3-14.75-12.25s-16.75-13.517-14-16.758s5.5,0.008,5.5,0.008l25.5,17.75l18.75,0.25c0,0,4.25-5.25,6.75-10.25
s4.25-11.75,4.25-11.75s-14.75-9-15.25-14s2.667-24.333,2.667-24.333s1.999-12.167,4.166-12.5s2.668-1.5,3.334,0
	S68,35.581,68,35.581z"/>
</svg>