<svg version="1.1" class="exposure-graph" xmlns="http://www.w3.org/2000/svg" xmlns:xlink="http://www.w3.org/1999/xlink" x="0px"
	 y="0px" viewBox="0 0 445 445" enable-background="new 0 0 445 445" xml:space="preserve">
	<g class="inner-circle-path">
		<path fill="#E6E6E6" stroke="#E6E6E6" stroke-width="6" stroke-linejoin="round" stroke-miterlimit="10" d="M108,221.5
			c0-57.4,42.3-104.9,97.4-113.2l-3-35.7C129,82.4,72.3,145.3,72.3,221.5c0,28.2,7.8,54.5,21.2,77l29.7-20
			C113.6,261.7,108,242.2,108,221.5z"/>
		<path fill="#E6E6E6" stroke="#E6E6E6" stroke-width="6" stroke-linejoin="round" stroke-miterlimit="10" d="M222.5,335.9
			c-36.4,0-68.8-17-89.8-43.5l-29.7,20c27.4,36,70.7,59.2,119.5,59.2c57.5,0,107.4-32.3,132.6-79.7L322.5,277
			C303,312.1,265.5,335.9,222.5,335.9z"/>
		<path fill="#E6E6E6" stroke="#E6E6E6" stroke-width="6" stroke-linejoin="round" stroke-miterlimit="10" d="M372.6,221.5
			c0-82.9-67.2-150.2-150.2-150.2c-1.1,0-2.1,0-3.2,0l3,35.7c0.1,0,0.2,0,0.2,0c63.2,0,114.4,51.2,114.4,114.4
			c0,14.2-2.6,27.7-7.3,40.3l32.6,14.9C368.9,259.6,372.6,241,372.6,221.5z"/>
	</g>
	<g opacity="0.8">
		<path fill="#B3B3B3" d="M94.6,195.9c0.6,0.1,1.2,0.1,1.6-0.1c0.9-0.3,1.4-1.1,1.7-2.3c0.1-0.5,0.2-1.1,0.1-1.6
			c-0.1-0.9-0.6-1.5-1.4-1.7c-0.6-0.1-1.1-0.1-1.4,0.3c-0.3,0.3-0.7,0.9-1.1,1.6l-0.7,1.4c-0.4,0.9-0.8,1.5-1.2,1.9
			c-0.6,0.6-1.4,0.8-2.3,0.6c-1-0.2-1.8-0.8-2.2-1.6s-0.6-1.9-0.3-3.1c0.3-1.1,0.8-2,1.5-2.7s1.7-0.9,3-0.6l-0.3,1.4
			c-0.6-0.1-1.1,0-1.5,0.2c-0.7,0.3-1.1,1-1.4,2.1c-0.2,0.9-0.1,1.5,0.1,2c0.3,0.5,0.7,0.7,1.2,0.9c0.5,0.1,1,0,1.4-0.4
			c0.2-0.3,0.6-0.9,1.1-1.8l0.7-1.4c0.3-0.7,0.7-1.2,1.1-1.5c0.7-0.6,1.5-0.7,2.5-0.5c1.2,0.3,2,0.9,2.4,1.9c0.3,1,0.4,2.1,0.1,3.2
			c-0.3,1.4-0.9,2.3-1.8,2.9c-0.9,0.6-1.9,0.8-3.1,0.5L94.6,195.9z"/>
		<path fill="#B3B3B3" d="M90.6,183l0.4-1.4l2.2,0.7l0.4-1.3l1.1,0.3l-0.4,1.3l5.2,1.6c0.3,0.1,0.5,0,0.6-0.1
			c0.1-0.1,0.2-0.3,0.2-0.5c0-0.1,0-0.1,0.1-0.2c0-0.1,0-0.2,0.1-0.3l1.1,0.3c0,0.2,0,0.3,0,0.5c0,0.2-0.1,0.4-0.1,0.6
			c-0.2,0.6-0.5,1-0.9,1.1c-0.4,0.1-0.8,0.1-1.4,0L94,184l-0.3,1.1l-1.1-0.3l0.3-1.1L90.6,183z"/>
		<path fill="#B3B3B3" d="M99.3,175c0.1-0.3,0-0.6-0.2-0.7c-0.1-0.1-0.3-0.2-0.5-0.3c-0.5-0.2-0.8-0.1-1.2,0.1s-0.6,0.7-0.8,1.3
			c-0.3,0.7-0.3,1.2,0,1.7c0.1,0.2,0.4,0.5,0.8,0.7l-0.5,1.2c-1-0.4-1.5-1-1.7-1.7s-0.1-1.5,0.2-2.3c0.3-0.9,0.8-1.6,1.4-2
			c0.6-0.4,1.2-0.5,2-0.2l4.5,1.7c0.1,0.1,0.3,0.1,0.4,0c0.1,0,0.2-0.1,0.3-0.3c0-0.1,0-0.1,0.1-0.2c0-0.1,0-0.2,0.1-0.2l1,0.4
			c0,0.2,0,0.4-0.1,0.5c0,0.1-0.1,0.3-0.1,0.4c-0.2,0.5-0.5,0.7-0.9,0.8c-0.2,0-0.5,0-0.8,0c0.3,0.4,0.4,0.9,0.5,1.5
			c0.1,0.6,0,1.2-0.2,1.8c-0.3,0.7-0.7,1.2-1.3,1.5c-0.6,0.3-1.3,0.3-1.9,0.1c-0.7-0.3-1.2-0.7-1.4-1.3s-0.3-1.3-0.1-2.1L99.3,175z
			 M101.8,179.1c0.3-0.2,0.6-0.5,0.7-0.9c0.2-0.5,0.2-1,0.2-1.5c-0.1-0.9-0.5-1.4-1.3-1.7l-1.1-0.4c0,0.2,0.1,0.4,0,0.7
			c0,0.3-0.1,0.5-0.1,0.8L100,177c-0.1,0.5-0.1,0.9-0.1,1.2c0.1,0.5,0.4,0.8,0.9,1C101.1,179.3,101.5,179.3,101.8,179.1z"/>
		<path fill="#B3B3B3" d="M98.5,168l0.5-1.2l1.3,0.6c-0.2-0.2-0.4-0.6-0.6-1.2c-0.2-0.6-0.2-1.1,0.1-1.6c0,0,0-0.1,0.1-0.1
			s0.1-0.1,0.2-0.3l1.4,0.6c0,0.1-0.1,0.1-0.1,0.2c0,0.1-0.1,0.1-0.1,0.2c-0.3,0.6-0.3,1.2,0,1.8c0.3,0.5,0.7,0.9,1.2,1.2l4.4,2
			l-0.6,1.3L98.5,168z"/>
		<path fill="#B3B3B3" d="M99.6,160.4l0.6-1.3l2.1,1.1l0.6-1.2l1,0.5l-0.6,1.2l4.9,2.5c0.3,0.1,0.5,0.1,0.7,0
			c0.1-0.1,0.2-0.2,0.3-0.4c0-0.1,0.1-0.1,0.1-0.2c0-0.1,0.1-0.2,0.1-0.3l1,0.5c0,0.2-0.1,0.3-0.1,0.5c-0.1,0.2-0.1,0.3-0.2,0.5
			c-0.3,0.6-0.7,0.9-1.1,1c-0.4,0.1-0.8,0-1.3-0.3l-4.9-2.5l-0.5,1l-1-0.5l0.5-1L99.6,160.4z"/>
		<path fill="#B3B3B3" d="M105.1,155l4.8,2.8c0.4,0.2,0.7,0.3,1,0.4c0.6,0,1-0.2,1.3-0.8c0.5-0.8,0.4-1.6-0.1-2.3
			c-0.3-0.4-0.8-0.8-1.5-1.2l-3.5-2.1l0.7-1.2l7.2,4.3l-0.7,1.1l-1.1-0.6c0.2,0.3,0.3,0.6,0.4,1c0.1,0.7,0,1.3-0.4,2
			c-0.6,1-1.3,1.5-2.2,1.4c-0.5,0-1-0.2-1.6-0.6l-4.9-2.9L105.1,155z"/>
		<path fill="#B3B3B3" d="M109.9,147.2l0.8-1.1l0.9,0.6c-0.1-0.4-0.2-0.9-0.2-1.3c0-0.6,0.2-1.1,0.6-1.6c0.5-0.8,1.3-1.2,2.3-1.4
			c1-0.1,2,0.2,3.1,1c1.5,1.1,2.3,2.2,2.4,3.4c0.1,0.8-0.1,1.5-0.6,2.2c-0.4,0.5-0.8,0.9-1.3,1.1c-0.3,0.1-0.7,0.2-1.1,0.2l3.5,2.5
			l-0.8,1.1L109.9,147.2z M118.3,146.6c-0.2-0.7-0.7-1.3-1.6-2c-0.5-0.4-1.1-0.6-1.6-0.8c-1-0.2-1.7,0-2.3,0.8
			c-0.6,0.8-0.6,1.6,0,2.5c0.3,0.5,0.8,0.9,1.5,1.4c0.5,0.4,1,0.6,1.5,0.7c0.9,0.2,1.7-0.1,2.2-0.9
			C118.5,147.9,118.5,147.3,118.3,146.6z"/>
		<path fill="#B3B3B3" d="M121.2,141.4c0.4,0.3,0.7,0.4,1.1,0.4c0.6,0,1.2-0.3,1.7-1c0.3-0.4,0.5-0.8,0.6-1.3
			c0.1-0.5-0.1-0.8-0.4-1.1c-0.3-0.2-0.6-0.3-0.9-0.1c-0.2,0.1-0.6,0.3-1.1,0.7l-0.9,0.7c-0.6,0.4-1.1,0.7-1.5,0.9
			c-0.7,0.2-1.3,0.1-1.8-0.3c-0.6-0.5-0.9-1.1-0.9-1.9c0-0.8,0.3-1.5,0.9-2.3c0.8-1,1.7-1.5,2.6-1.4c0.6,0,1.1,0.2,1.5,0.6l-0.8,1
			c-0.3-0.2-0.6-0.3-0.9-0.3c-0.5,0-1,0.3-1.5,1c-0.3,0.4-0.5,0.8-0.6,1.1c0,0.3,0.1,0.6,0.4,0.8c0.3,0.2,0.6,0.3,1,0.1
			c0.2-0.1,0.5-0.2,0.9-0.5l0.8-0.6c0.8-0.6,1.5-1,1.9-1.1c0.6-0.2,1.2,0,1.8,0.4c0.6,0.5,0.9,1.1,0.9,1.9c0.1,0.8-0.3,1.6-1,2.5
			c-0.8,1-1.6,1.5-2.4,1.5c-0.8,0-1.5-0.2-2.2-0.7L121.2,141.4z"/>
	</g>
	<g opacity="0.8">
		<path fill="#B3B3B3" d="M302.5,113.4c0.3,0.5,0.4,1.1,0.4,1.6c0,0.5-0.2,1-0.4,1.5c-0.2,0.4-0.5,0.9-1,1.6l-4.9-3.6
			c-0.5,0.7-0.7,1.4-0.7,2s0.3,1.2,1,1.6c0.6,0.4,1.2,0.6,1.8,0.4c0.4-0.1,0.7-0.3,1-0.5l1.1,0.8c-0.2,0.2-0.5,0.4-0.9,0.6
			s-0.8,0.3-1.1,0.4c-0.6,0.1-1.2,0-1.8-0.2c-0.3-0.1-0.7-0.3-1-0.6c-0.8-0.6-1.3-1.4-1.5-2.5c-0.1-1,0.2-2.1,1-3.2
			c0.8-1.1,1.7-1.8,2.8-2c1.1-0.3,2.1,0,3,0.6C301.9,112.4,302.3,112.9,302.5,113.4z M301,116.4c0.3-0.5,0.5-1,0.5-1.4
			c0.1-0.8-0.2-1.4-1-1.9c-0.5-0.4-1.1-0.5-1.7-0.4c-0.6,0.1-1.2,0.5-1.6,1L301,116.4z"/>
		<path fill="#B3B3B3" d="M314.9,120.3c0.1,1.1-0.1,2-0.7,2.8l-1.1-1c0.4-0.7,0.5-1.3,0.4-2c-0.1-0.7-0.5-1.3-1.2-1.9
			c-0.8-0.7-1.8-1-2.8-0.9c-1,0.2-2.1,0.9-3.2,2.1c-0.9,1-1.4,2-1.4,3.1s0.3,2,1.3,2.8c0.9,0.7,1.8,1,2.8,0.7
			c0.5-0.1,1.1-0.5,1.7-0.9l1.1,1c-0.9,0.8-1.9,1.3-3,1.4c-1.3,0.2-2.6-0.3-3.7-1.3c-1-0.9-1.6-1.9-1.7-3.1c-0.2-1.6,0.4-3.2,1.9-4.9
			c1.1-1.3,2.3-2,3.7-2.3c1.5-0.3,2.9,0.2,4.2,1.3C314.2,118.1,314.8,119.2,314.9,120.3z"/>
		<path fill="#B3B3B3" d="M320.7,130.4c0,1-0.5,2-1.5,3c-1,0.9-2,1.5-3.1,1.6c-1.1,0.1-2.1-0.3-3.1-1.3c-0.8-0.8-1.1-1.7-1.1-2.8
			c0.1-1,0.6-2,1.5-2.9c1-1,2.1-1.5,3.1-1.6c1.1-0.1,2.1,0.3,2.9,1.2C320.4,128.5,320.7,129.4,320.7,130.4z M316.1,133.7
			c0.7-0.2,1.4-0.7,2-1.3c0.6-0.5,0.9-1.1,1.1-1.6c0.3-0.8,0.1-1.6-0.6-2.3c-0.6-0.6-1.3-0.8-2-0.6c-0.7,0.2-1.4,0.6-2.1,1.2
			c-0.6,0.6-1,1.3-1.2,2c-0.2,0.7,0.1,1.3,0.6,1.9C314.7,133.7,315.4,133.9,316.1,133.7z"/>
		<path fill="#B3B3B3" d="M324.5,133.3l0.9,1.1l-0.9,0.7c0.5,0,1,0.1,1.3,0.1c0.5,0.2,1,0.5,1.4,0.9c0.4,0.5,0.6,1,0.6,1.6
			c0,0.3-0.1,0.6-0.3,1c0.5,0,1,0,1.5,0.2c0.4,0.2,0.8,0.5,1.1,0.9c0.7,0.9,0.9,1.7,0.5,2.6c-0.2,0.4-0.6,0.9-1.2,1.4l-4.3,3.5
			l-0.9-1.1l4.5-3.6c0.4-0.3,0.6-0.7,0.6-1s-0.1-0.7-0.4-1c-0.3-0.4-0.8-0.7-1.3-0.8c-0.5-0.1-1.1,0.1-1.8,0.7l-3.8,3l-0.9-1.1
			l4.3-3.4c0.4-0.4,0.7-0.7,0.8-0.9c0.2-0.4,0.1-0.8-0.3-1.3c-0.3-0.4-0.8-0.7-1.4-0.7c-0.6-0.1-1.3,0.2-2.2,0.9l-3.5,2.8l-0.9-1.1
			L324.5,133.3z"/>
		<path fill="#B3B3B3" d="M333.9,145.3l0.7,1.2l-1,0.6c0.5,0.1,0.9,0.2,1.2,0.3c0.5,0.2,0.9,0.6,1.2,1.1c0.4,0.6,0.5,1.1,0.4,1.6
			c0,0.3-0.2,0.6-0.4,1c0.5,0,1,0.2,1.4,0.4c0.4,0.2,0.8,0.6,1,1c0.6,1,0.7,1.8,0.2,2.6c-0.3,0.4-0.7,0.8-1.3,1.2l-4.7,3l-0.8-1.2
			l4.9-3.1c0.5-0.3,0.7-0.6,0.7-1c0-0.3-0.1-0.7-0.3-1c-0.3-0.5-0.7-0.8-1.2-0.9c-0.5-0.1-1.2,0-1.9,0.5l-4.1,2.6l-0.8-1.2l4.6-2.9
			c0.5-0.3,0.8-0.6,0.9-0.8c0.2-0.4,0.2-0.8-0.1-1.3c-0.3-0.4-0.7-0.7-1.3-0.9s-1.3,0.1-2.2,0.6l-3.8,2.4l-0.8-1.2L333.9,145.3z"/>
		<path fill="#B3B3B3" d="M343.8,163c0,0.6-0.1,1.2-0.4,1.6c-0.3,0.4-0.6,0.8-1.1,1.2c-0.3,0.2-0.8,0.6-1.6,0.9l-2.7-5.4
			c-0.7,0.4-1.3,0.9-1.6,1.5s-0.3,1.2,0.1,1.9c0.3,0.7,0.8,1.1,1.4,1.2c0.4,0.1,0.7,0.1,1.1,0l0.6,1.2c-0.3,0.1-0.7,0.2-1.1,0.1
			s-0.8-0.1-1.1-0.2c-0.6-0.2-1-0.5-1.5-1c-0.2-0.3-0.4-0.6-0.6-1c-0.5-0.9-0.5-1.9-0.2-2.9s1.1-1.8,2.4-2.4c1.2-0.6,2.3-0.8,3.4-0.5
			c1.1,0.3,1.9,0.9,2.4,2C343.7,161.8,343.8,162.4,343.8,163z M341.1,164.9c0.5-0.3,0.9-0.7,1.1-1c0.4-0.6,0.4-1.4,0-2.2
			c-0.3-0.6-0.7-0.9-1.3-1.1s-1.2-0.1-1.9,0.2L341.1,164.9z"/>
		<path fill="#B3B3B3" d="M346.4,167.9l0.5,1.2l-1.3,0.6c0.3,0,0.7,0.1,1.3,0.3s0.9,0.6,1.1,1.1c0,0,0,0.1,0,0.1s0.1,0.2,0.1,0.3
			l-1.4,0.6c0-0.1,0-0.2-0.1-0.2c0-0.1-0.1-0.1-0.1-0.2c-0.3-0.7-0.7-1.1-1.3-1.2c-0.6-0.2-1.1-0.1-1.7,0.1l-4.4,1.9l-0.5-1.3
			L346.4,167.9z"/>
		<path fill="#B3B3B3" d="M350.4,179.8c-0.2,0.7-0.9,1.3-1.9,1.8l-0.5-1.3c0.5-0.2,0.8-0.6,1-1c0.2-0.4,0.2-0.9,0-1.5
			c-0.3-0.8-0.9-1.3-1.9-1.4c-0.6,0-1.3,0.1-2.1,0.3c-0.8,0.3-1.4,0.7-1.8,1.2s-0.5,1.1-0.3,1.9c0.2,0.6,0.5,0.9,1,1.1
			c0.4,0.2,1,0.3,1.6,0.2l0.5,1.3c-1.1,0.2-2,0.1-2.7-0.3c-0.7-0.4-1.2-1.1-1.5-2c-0.4-1-0.3-2,0.3-2.9s1.4-1.5,2.5-1.9
			c1.4-0.5,2.6-0.5,3.6-0.1c1,0.4,1.7,1.1,2.1,2.2C350.6,178.3,350.7,179.1,350.4,179.8z"/>
		<path fill="#B3B3B3" d="M353.3,188.8c-0.1,0.6-0.4,1.1-0.7,1.5c-0.3,0.4-0.8,0.7-1.3,0.9c-0.4,0.2-0.9,0.4-1.8,0.6L348,186
			c-0.8,0.2-1.4,0.6-1.8,1.1s-0.5,1.1-0.3,1.9c0.2,0.7,0.6,1.2,1.2,1.5c0.3,0.2,0.7,0.2,1.1,0.2l0.4,1.3c-0.3,0-0.7,0-1.1-0.1
			s-0.8-0.2-1.1-0.4c-0.5-0.3-0.9-0.7-1.2-1.3c-0.2-0.3-0.3-0.7-0.4-1.1c-0.3-1-0.1-1.9,0.4-2.8c0.5-0.9,1.5-1.5,2.8-1.9
			c1.3-0.3,2.4-0.3,3.4,0.2c1,0.5,1.6,1.3,1.9,2.4C353.4,187.6,353.4,188.2,353.3,188.8z M350.2,190.2c0.6-0.2,1-0.5,1.3-0.8
			c0.6-0.5,0.7-1.2,0.5-2.1c-0.2-0.6-0.5-1.1-1.1-1.4c-0.6-0.3-1.2-0.4-1.9-0.2L350.2,190.2z"/>
	</g>
	<g opacity="0.8">
		<path fill="#B3B3B3" d="M194,345.6l7.8,1.6l-0.3,1.4l-6.3-1.3l-0.7,3.4l5.5,1.1l-0.3,1.3l-5.5-1.1l-1,5.1l-1.5-0.3L194,345.6z"/>
		<path fill="#B3B3B3" d="M204.1,350.6l1.3,0.2l-0.2,1.4c0.1-0.3,0.5-0.6,0.9-0.9s1-0.5,1.5-0.4c0,0,0.1,0,0.1,0c0.1,0,0.2,0,0.3,0.1
			l-0.2,1.5c-0.1,0-0.2,0-0.2-0.1c-0.1,0-0.1,0-0.2,0c-0.7-0.1-1.3,0.1-1.7,0.5c-0.4,0.4-0.7,0.9-0.8,1.5l-0.6,4.8l-1.4-0.2
			L204.1,350.6z"/>
		<path fill="#B3B3B3" d="M216,352c0.5,0.3,0.9,0.7,1.2,1.2c0.3,0.4,0.4,0.9,0.5,1.5c0.1,0.4,0.1,1,0,1.8l-6.1-0.4
			c0,0.9,0.1,1.5,0.5,2.1c0.3,0.5,0.9,0.8,1.7,0.9c0.7,0,1.3-0.2,1.8-0.6c0.3-0.3,0.5-0.6,0.6-0.9l1.4,0.1c-0.1,0.3-0.2,0.6-0.4,1
			s-0.5,0.7-0.7,0.9c-0.4,0.4-1,0.6-1.6,0.7c-0.3,0.1-0.7,0.1-1.1,0.1c-1-0.1-1.9-0.5-2.6-1.3c-0.7-0.8-1-1.9-0.9-3.2
			c0.1-1.3,0.5-2.4,1.3-3.2c0.8-0.8,1.7-1.2,2.9-1.1C214.9,351.5,215.4,351.6,216,352z M216.3,355.3c0-0.6-0.1-1.1-0.3-1.5
			c-0.3-0.7-1-1.1-1.8-1.1c-0.6,0-1.2,0.2-1.7,0.6c-0.5,0.4-0.7,1-0.8,1.7L216.3,355.3z"/>
		<path fill="#B3B3B3" d="M226.3,352.1c0.6,0.3,1,0.6,1.3,1.1c0.3,0.4,0.5,0.9,0.6,1.5c0.1,0.4,0.1,1,0.2,1.8l-6.1,0.1
			c0,0.9,0.2,1.5,0.6,2c0.4,0.5,1,0.8,1.7,0.7c0.7,0,1.3-0.3,1.7-0.8c0.2-0.3,0.4-0.6,0.5-1l1.4,0c0,0.3-0.1,0.7-0.3,1
			s-0.4,0.7-0.7,0.9c-0.4,0.4-0.9,0.7-1.6,0.9c-0.3,0.1-0.7,0.1-1.1,0.1c-1,0-1.9-0.3-2.6-1.1c-0.7-0.7-1.1-1.8-1.1-3.2
			c0-1.3,0.3-2.4,1-3.3c0.7-0.8,1.7-1.3,2.8-1.3C225.1,351.7,225.7,351.8,226.3,352.1z M226.8,355.3c-0.1-0.6-0.2-1.1-0.4-1.5
			c-0.4-0.7-1-1-1.9-1c-0.6,0-1.2,0.3-1.6,0.7s-0.6,1.1-0.7,1.8L226.8,355.3z"/>
		<path fill="#B3B3B3" d="M231.2,348.5l1.4-0.1l0.8,11.4l-1.4,0.1L231.2,348.5z"/>
		<path fill="#B3B3B3" d="M241.3,353.9c0.3-0.1,0.5-0.2,0.6-0.5c0-0.1,0.1-0.3,0-0.5c-0.1-0.5-0.3-0.8-0.6-1s-0.9-0.2-1.5-0.1
			c-0.7,0.1-1.2,0.4-1.5,0.8c-0.1,0.2-0.2,0.6-0.2,1l-1.3,0.2c-0.1-1,0.1-1.8,0.7-2.3c0.6-0.5,1.3-0.8,2.1-0.9c1-0.1,1.8,0,2.4,0.2
			c0.7,0.3,1,0.8,1.1,1.6l0.6,4.8c0,0.1,0.1,0.3,0.1,0.3c0.1,0.1,0.2,0.1,0.4,0.1c0.1,0,0.1,0,0.2,0c0.1,0,0.2,0,0.2-0.1l0.1,1
			c-0.2,0.1-0.4,0.2-0.5,0.2c-0.1,0-0.3,0.1-0.5,0.1c-0.5,0.1-0.9-0.1-1.1-0.4c-0.1-0.2-0.3-0.4-0.3-0.7c-0.2,0.4-0.6,0.8-1.1,1.1
			s-1.1,0.6-1.7,0.6c-0.8,0.1-1.4,0-2-0.4s-0.9-1-1-1.7c-0.1-0.8,0.1-1.4,0.5-1.9c0.4-0.5,1-0.8,1.8-1L241.3,353.9z M238.9,358
			c0.3,0.2,0.7,0.3,1.1,0.2c0.5-0.1,1-0.2,1.4-0.5c0.7-0.5,1-1.1,0.9-2l-0.1-1.1c-0.2,0.1-0.4,0.3-0.6,0.4c-0.3,0.1-0.5,0.2-0.8,0.3
			l-0.8,0.2c-0.5,0.1-0.9,0.3-1.1,0.5c-0.4,0.3-0.6,0.7-0.5,1.2C238.4,357.5,238.6,357.8,238.9,358z"/>
		<path fill="#B3B3B3" d="M246.6,349.7l1.3-0.3l0.2,1.2c0.3-0.6,0.6-1,1-1.3c0.4-0.3,0.8-0.5,1.4-0.6c1.2-0.2,2,0,2.6,0.7
			c0.3,0.4,0.6,1,0.7,1.8l1.1,5.2l-1.4,0.3l-1.1-5.2c-0.1-0.5-0.3-0.9-0.5-1.2c-0.4-0.5-0.9-0.6-1.5-0.5c-0.3,0.1-0.6,0.2-0.8,0.3
			c-0.4,0.2-0.6,0.5-0.8,0.9c-0.2,0.3-0.3,0.6-0.3,0.9c0,0.3,0,0.7,0.2,1.3l0.9,4.3l-1.4,0.3L246.6,349.7z"/>
		<path fill="#B3B3B3" d="M262.1,346.2c0.7,0.3,1.3,0.9,1.7,2l-1.3,0.4c-0.2-0.5-0.5-0.8-0.9-1.1c-0.4-0.2-0.9-0.3-1.5-0.1
			c-0.9,0.3-1.3,0.9-1.5,1.8c-0.1,0.6,0,1.3,0.2,2.1c0.2,0.8,0.6,1.4,1.1,1.9c0.5,0.4,1.1,0.6,1.8,0.3c0.6-0.2,1-0.5,1.2-0.9
			c0.2-0.4,0.3-1,0.3-1.6l1.3-0.4c0.2,1.1,0,2-0.4,2.7c-0.5,0.7-1.1,1.1-2.1,1.4c-1,0.3-2,0.2-2.9-0.4s-1.4-1.4-1.8-2.6
			c-0.4-1.4-0.4-2.6,0.1-3.6c0.5-1,1.2-1.6,2.3-2C260.6,346,261.4,346,262.1,346.2z"/>
		<path fill="#B3B3B3" d="M270.5,343c0.6,0.1,1.1,0.2,1.6,0.6c0.4,0.3,0.8,0.7,1,1.2c0.2,0.3,0.5,0.9,0.8,1.7l-5.7,2.2
			c0.3,0.8,0.8,1.4,1.3,1.7c0.5,0.3,1.2,0.4,1.9,0.1c0.7-0.3,1.1-0.7,1.4-1.3c0.1-0.3,0.2-0.7,0.1-1.1l1.3-0.5c0.1,0.3,0.1,0.7,0,1.1
			c-0.1,0.4-0.2,0.8-0.3,1.1c-0.2,0.5-0.6,1-1.2,1.3c-0.3,0.2-0.6,0.4-1,0.5c-1,0.4-1.9,0.3-2.9-0.1c-0.9-0.5-1.7-1.3-2.1-2.6
			c-0.5-1.3-0.5-2.4-0.2-3.4s1.1-1.8,2.2-2.2C269.3,343,269.9,342.9,270.5,343z M272.2,345.9c-0.3-0.5-0.6-1-0.9-1.2
			c-0.6-0.5-1.3-0.6-2.2-0.3c-0.6,0.2-1,0.6-1.3,1.2c-0.2,0.6-0.2,1.2,0,1.9L272.2,345.9z"/>
	</g>
	<g class="outer-circle-path">
		<path fill="#B3B3B3" stroke="#B3B3B3" stroke-width="6" stroke-linejoin="round" stroke-miterlimit="10" d="M200.5,48.2l-3.6-43.7
			C124.5,13.1,63,56.9,30,118.3l39.4,19.2C95.7,89.6,143.9,55.4,200.5,48.2z"/>
		<path fill="#B3B3B3" stroke="#B3B3B3" stroke-width="6" stroke-linejoin="round" stroke-miterlimit="10" d="M47.7,221.7
			c0-24.6,5.1-47.9,14.2-69.1l-39.3-19.2C10.7,160.4,4,190.3,4,221.7c0,42.2,12,81.7,32.7,115.1L73,312.3
			C57,285.9,47.7,254.9,47.7,221.7z"/>
		<path fill="#B3B3B3" stroke="#B3B3B3" stroke-width="6" stroke-linejoin="round" stroke-miterlimit="10" d="M82.4,326.3l-36.3,24.5
			c27.2,37.2,65.8,65.4,110.7,79.6l11.5-42.3C133.7,376.8,103.8,354.9,82.4,326.3z"/>
		<path fill="#B3B3B3" stroke="#B3B3B3" stroke-width="6" stroke-linejoin="round" stroke-miterlimit="10" d="M307.9,423.3
			l-18.4-39.7c-20.6,8.5-43.1,13.2-66.7,13.2c-13.1,0-25.9-1.5-38.1-4.2l-11.5,42.3c16,3.7,32.6,5.7,49.7,5.7
			C252.9,440.5,281.7,434.3,307.9,423.3z"/>
		<path fill="#B3B3B3" stroke="#B3B3B3" stroke-width="6" stroke-linejoin="round" stroke-miterlimit="10" d="M417.8,320.7L378,302.5
			c-16.4,31.5-42,57.3-73.3,73.9l18.4,39.7C363.8,395.1,397,361.6,417.8,320.7z"/>
		<path fill="#B3B3B3" stroke="#B3B3B3" stroke-width="6" stroke-linejoin="round" stroke-miterlimit="10" d="M406.7,103.4l-35.9,25
			c17,27,26.9,59,26.9,93.3c0,23.1-4.5,45.2-12.7,65.4l39.8,18.3c10.7-25.8,16.6-54,16.6-83.7C441.5,178.2,428.7,137.6,406.7,103.4z"
			/>
		<path fill="#B3B3B3" stroke="#B3B3B3" stroke-width="6" stroke-linejoin="round" stroke-miterlimit="10" d="M222.7,3
			c-3.1,0-6.1,0.1-9.1,0.2l3.6,43.6c1.8-0.1,3.7-0.1,5.5-0.1c56.3,0,106.4,26.6,138.4,67.9l35.9-25C357.2,37,293.9,3,222.7,3z"/>
	</g>
	<g opacity="0.8">
		<g>
			<path fill="#FFFFFF" d="M75.7,98.1c-1.1,0-2-0.4-2.9-1.2l1.1-1.2c0.7,0.5,1.2,0.8,1.6,0.8c0.8,0.1,1.5-0.2,2.2-1
				c0.5-0.6,0.8-1.3,0.8-1.9c0-0.7-0.3-1.2-0.8-1.7c-0.7-0.6-1.3-0.8-1.9-0.6s-1.2,0.6-1.8,1.3c-0.1,0.1-0.1,0.2-0.2,0.2
				c-0.1,0.1-0.1,0.2-0.2,0.3l-1.1-0.9c0.1-0.1,0.2-0.2,0.3-0.3c0.1-0.1,0.2-0.2,0.2-0.3c0.4-0.4,0.6-0.9,0.8-1.3
				c0.2-0.7,0-1.4-0.7-1.9c-0.5-0.4-1-0.6-1.5-0.5c-0.5,0.1-1,0.4-1.4,0.8c-0.7,0.8-0.9,1.6-0.6,2.3c0.1,0.4,0.5,0.9,1,1.4l-1,1.2
				c-0.7-0.6-1.2-1.3-1.4-2c-0.5-1.3-0.1-2.5,0.9-3.7c0.8-1,1.7-1.5,2.6-1.7c0.9-0.2,1.7,0.1,2.6,0.8c0.6,0.5,0.9,1.1,1,1.7
				c0.1,0.4,0,0.8-0.1,1.2c0.6-0.4,1.2-0.5,1.8-0.5s1.2,0.3,1.8,0.8c0.9,0.8,1.4,1.7,1.4,2.8c0,1.1-0.4,2.2-1.4,3.3
				C77.7,97.6,76.7,98.1,75.7,98.1z"/>
			<path fill="#FFFFFF" d="M76.5,84.4l1-1.1l1.2,1.1c-0.1-0.3-0.2-0.8-0.2-1.5c0-0.7,0.2-1.2,0.7-1.7c0,0,0.1-0.1,0.1-0.1
				c0.1,0,0.1-0.1,0.3-0.2l1.2,1.2c-0.1,0.1-0.1,0.1-0.2,0.2c-0.1,0.1-0.1,0.1-0.2,0.2c-0.6,0.6-0.8,1.2-0.7,1.9
				c0.1,0.7,0.4,1.2,0.8,1.7l3.9,3.7l-1.1,1.1L76.5,84.4z"/>
			<path fill="#FFFFFF" d="M85.3,76c0.3-0.1,0.8-0.1,1.3,0l-3.3-3.4l1.1-1l8.9,9.4l-1,1L91.4,81c0.1,0.7,0.1,1.3-0.1,1.8
				s-0.5,1-1,1.5c-0.8,0.7-1.7,1-2.9,0.9c-1.2-0.1-2.2-0.7-3.3-1.8c-0.9-1-1.5-2.1-1.7-3.3s0.2-2.3,1.1-3.2
				C84.2,76.5,84.7,76.2,85.3,76z M87.6,83.6c0.8,0.2,1.5,0,2.2-0.7c0.5-0.5,0.7-1.1,0.6-1.9s-0.5-1.6-1.4-2.4
				c-0.8-0.9-1.6-1.3-2.3-1.4c-0.7-0.1-1.4,0.1-1.9,0.6c-0.6,0.5-0.8,1.2-0.8,2c0.1,0.8,0.5,1.6,1.3,2.5
				C86.1,82.9,86.8,83.4,87.6,83.6z"/>
			<path fill="#FFFFFF" d="M91.9,65.1l1.4-1.1l7.1,8.9l5.1-4.1l1,1.2l-6.4,5.2L91.9,65.1z"/>
			<path fill="#FFFFFF" d="M107.5,57.9c0.7-0.1,1.3-0.1,1.9,0.2c0.5,0.2,1,0.5,1.5,1c0.3,0.3,0.8,0.8,1.3,1.6l-5.6,4
				c0.6,0.8,1.2,1.3,1.9,1.5s1.4,0.1,2.1-0.4c0.7-0.5,1-1.1,1.1-1.8c0-0.4,0-0.8-0.2-1.2l1.3-0.9c0.2,0.3,0.3,0.7,0.3,1.2
				c0.1,0.5,0.1,0.9,0,1.3c-0.1,0.7-0.4,1.3-0.9,1.8c-0.3,0.3-0.6,0.6-1,0.9c-0.9,0.7-2,0.9-3.2,0.7c-1.2-0.2-2.2-1-3.1-2.2
				c-0.9-1.2-1.3-2.5-1.2-3.7c0.1-1.2,0.7-2.2,1.8-3C106.2,58.2,106.8,58,107.5,57.9z M110.1,60.6c-0.5-0.5-0.9-0.9-1.3-1.1
				c-0.8-0.4-1.6-0.3-2.4,0.3c-0.6,0.4-0.9,1-1,1.7c-0.1,0.7,0.1,1.4,0.5,2.1L110.1,60.6z"/>
			<path fill="#FFFFFF" d="M117.9,55.1c0.3-0.2,0.4-0.5,0.4-0.8c0-0.2-0.1-0.3-0.2-0.6c-0.3-0.5-0.7-0.7-1.1-0.7
				c-0.5,0-1,0.2-1.6,0.6c-0.7,0.4-1.1,0.9-1.1,1.5c0,0.3,0.1,0.7,0.3,1.1l-1.2,0.8c-0.6-1-0.7-1.9-0.4-2.7c0.4-0.8,1-1.4,1.8-1.9
				c0.9-0.6,1.8-0.9,2.6-0.9c0.8,0,1.4,0.4,1.9,1.1l2.9,4.6c0.1,0.1,0.2,0.2,0.3,0.3c0.1,0,0.3,0,0.4-0.1c0.1,0,0.1-0.1,0.2-0.1
				s0.1-0.1,0.2-0.2l0.6,1c-0.2,0.2-0.3,0.3-0.4,0.4c-0.1,0.1-0.2,0.2-0.4,0.3c-0.5,0.3-0.9,0.3-1.3,0.1c-0.2-0.1-0.5-0.3-0.7-0.6
				c0,0.5-0.2,1.1-0.6,1.7s-0.8,1.1-1.4,1.5c-0.7,0.5-1.5,0.6-2.2,0.5c-0.8-0.1-1.3-0.6-1.8-1.2c-0.5-0.7-0.6-1.5-0.4-2.1
				s0.6-1.3,1.3-1.9L117.9,55.1z M117.4,60.5c0.4,0,0.8-0.1,1.2-0.3c0.5-0.3,0.9-0.7,1.2-1.2c0.5-0.8,0.5-1.7,0-2.5l-0.7-1.1
				c-0.1,0.2-0.3,0.4-0.5,0.7c-0.2,0.2-0.4,0.4-0.7,0.6l-0.7,0.6c-0.4,0.4-0.7,0.7-0.9,1c-0.3,0.5-0.2,1,0.1,1.5
				C116.7,60.2,117,60.5,117.4,60.5z"/>
			<path fill="#FFFFFF" d="M121.1,48.8l1.3-0.7l0.8,1.4c-0.1-0.3,0-0.8,0.2-1.5s0.6-1.1,1.1-1.4c0,0,0.1,0,0.1-0.1
				c0.1,0,0.2-0.1,0.3-0.1l0.8,1.4c-0.1,0-0.2,0.1-0.2,0.1c-0.1,0-0.1,0.1-0.2,0.1c-0.7,0.4-1.1,0.9-1.2,1.6c-0.1,0.7,0,1.3,0.3,1.9
				l2.7,4.7l-1.4,0.8L121.1,48.8z"/>
			<path fill="#FFFFFF" d="M127.2,45.4l1.3-0.7l0.6,1.2c0.1-0.7,0.4-1.3,0.7-1.7c0.3-0.4,0.8-0.8,1.3-1.1c1.2-0.6,2.2-0.6,3,0
				c0.5,0.3,0.9,0.9,1.3,1.8l2.8,5.4l-1.4,0.7l-2.7-5.3c-0.3-0.5-0.6-0.9-0.9-1.1c-0.5-0.4-1.1-0.4-1.8-0.1c-0.3,0.2-0.6,0.3-0.8,0.5
				c-0.3,0.3-0.5,0.7-0.7,1.2c-0.1,0.4-0.1,0.8,0,1.1c0.1,0.3,0.3,0.8,0.5,1.3l2.3,4.4l-1.4,0.7L127.2,45.4z"/>
			<path fill="#FFFFFF" d="M135.6,37.3l1.5-0.7l0.8,1.6l-1.5,0.7L135.6,37.3z M137.1,40.5l1.5-0.7l4,8.5L141,49L137.1,40.5z"/>
			<path fill="#FFFFFF" d="M141.6,38.3l1.4-0.6l0.5,1.2c0.2-0.7,0.5-1.2,0.8-1.6c0.4-0.4,0.8-0.7,1.4-1c1.2-0.5,2.2-0.4,3,0.2
				c0.4,0.4,0.8,1,1.2,1.9l2.3,5.6l-1.5,0.6l-2.3-5.5c-0.2-0.5-0.5-0.9-0.8-1.2c-0.5-0.4-1.1-0.5-1.8-0.2c-0.3,0.1-0.6,0.3-0.8,0.5
				c-0.4,0.3-0.6,0.7-0.8,1.2c-0.1,0.4-0.2,0.8-0.1,1.1s0.2,0.8,0.4,1.4l1.9,4.5l-1.5,0.6L141.6,38.3z"/>
			<path fill="#FFFFFF" d="M156.9,32.7c0.3,0.1,0.7,0.3,1.2,0.5l-0.4-1.1l1.4-0.5l2.9,8.1c0.4,1.1,0.5,2.1,0.4,2.8
				c-0.2,1.4-1.1,2.4-2.9,3c-1,0.3-1.8,0.4-2.6,0.2c-0.8-0.2-1.4-0.7-1.8-1.6l1.5-0.5c0.2,0.4,0.5,0.6,0.8,0.8c0.5,0.2,1,0.2,1.8-0.1
				c1.1-0.4,1.7-1.1,1.8-2c0-0.5-0.2-1.4-0.6-2.6c-0.1,0.6-0.4,1-0.7,1.4s-0.9,0.7-1.5,0.9c-1,0.3-1.9,0.3-2.9-0.1s-1.7-1.4-2.3-3
				c-0.5-1.5-0.6-2.8-0.1-3.9c0.4-1.1,1.2-1.8,2.2-2.2C155.6,32.6,156.3,32.6,156.9,32.7z M157.7,34.3c-0.6-0.4-1.3-0.4-2-0.2
				c-1,0.4-1.6,1.1-1.6,2.2c0,0.6,0.1,1.3,0.4,2.2c0.4,1,0.8,1.7,1.4,2.1c0.6,0.4,1.2,0.4,1.9,0.2c1.1-0.4,1.6-1.1,1.7-2.2
				c0-0.6-0.1-1.3-0.3-2C158.8,35.4,158.3,34.6,157.7,34.3z"/>
		</g>
	</g>
	<g opacity="0.8">
		<g>
			<path fill="#FFFFFF" d="M22.6,263.8l-0.9-5.1c-0.3-1.7,0.1-3.2,1.1-4.3c1-1.1,2.3-1.7,4.1-2.1c1.3-0.2,2.6-0.2,3.8,0.1
				c2.1,0.5,3.3,1.9,3.7,4l0.9,5.1L22.6,263.8z M33,257c-0.1-0.6-0.2-1-0.4-1.4c-0.3-0.6-0.9-1.1-1.6-1.4c-0.6-0.2-1.3-0.4-2.1-0.4
				c-0.5,0-0.9,0-1.4,0.1c-1.6,0.3-2.7,0.8-3.5,1.6c-0.8,0.8-1,1.8-0.8,3.2l0.5,3l9.8-1.8L33,257z"/>
			<path fill="#FFFFFF" d="M23.8,242.7c0.7-0.9,1.8-1.5,3.4-1.7c1.5-0.2,2.8,0,3.9,0.7c1.1,0.6,1.7,1.7,1.9,3.2
				c0.2,1.3-0.2,2.3-0.9,3.2c-0.8,0.9-1.9,1.4-3.4,1.5c-1.6,0.2-2.9-0.1-3.9-0.7c-1-0.7-1.6-1.7-1.8-3
				C22.9,244.7,23.1,243.6,23.8,242.7z M30.2,243c-0.8-0.3-1.7-0.4-2.7-0.3c-0.9,0.1-1.6,0.3-2.1,0.7c-0.8,0.5-1.1,1.3-1,2.4
				c0.1,0.9,0.6,1.6,1.3,1.9c0.8,0.3,1.7,0.5,2.7,0.3c1-0.1,1.8-0.4,2.4-0.9c0.6-0.5,0.9-1.2,0.8-2.2C31.5,243.9,31,243.2,30.2,243z"
				/>
			<path fill="#FFFFFF" d="M23,231.7c0.8-0.9,1.9-1.4,3.5-1.5c1.5-0.1,2.8,0.2,3.8,0.9s1.6,1.8,1.7,3.3c0.1,1.3-0.3,2.3-1.1,3.1
				c-0.8,0.8-2,1.3-3.4,1.4c-1.6,0.1-2.9-0.2-3.8-1c-1-0.7-1.5-1.8-1.6-3.1C21.9,233.6,22.3,232.6,23,231.7z M29.3,232.3
				c-0.8-0.3-1.7-0.5-2.7-0.4c-0.9,0.1-1.6,0.2-2.1,0.6c-0.8,0.5-1.2,1.3-1.2,2.4c0.1,1,0.5,1.6,1.2,2s1.7,0.5,2.7,0.5
				c1-0.1,1.8-0.3,2.5-0.8s0.9-1.2,0.9-2.1C30.6,233.3,30.1,232.6,29.3,232.3z"/>
			<path fill="#FFFFFF" d="M21.9,227.5l0-1.5l1.6,0c-0.3-0.1-0.7-0.4-1.2-0.9s-0.7-1-0.7-1.6c0,0,0-0.1,0-0.1c0-0.1,0-0.2,0-0.4
				l1.7,0c0,0.1,0,0.2,0,0.3s0,0.2,0,0.3c0,0.8,0.3,1.4,0.8,1.8c0.5,0.4,1.1,0.6,1.8,0.6l5.4-0.1l0,1.6L21.9,227.5z"/>
			<path fill="#FFFFFF" d="M30.5,214.7c-0.9,0.6-1.9,0.9-3,0.8l0.1-1.6c0.8,0,1.4-0.1,1.8-0.4c0.7-0.4,1.1-1.1,1.1-2.2
				c0-0.8-0.1-1.5-0.6-2c-0.4-0.5-1-0.8-1.7-0.8c-0.9,0-1.5,0.2-1.9,0.7c-0.4,0.5-0.6,1.2-0.6,2.2c0,0.1,0,0.2,0,0.3s0,0.2,0,0.3
				l-1.4-0.1c0-0.2,0-0.3,0.1-0.4c0-0.1,0-0.2,0-0.4c0-0.6,0-1.1-0.2-1.5c-0.3-0.7-0.9-1.1-1.7-1.1c-0.6,0-1.1,0.2-1.5,0.6
				c-0.4,0.4-0.6,0.9-0.6,1.5c-0.1,1.1,0.3,1.8,0.9,2.2c0.4,0.2,0.9,0.4,1.6,0.5l-0.1,1.6c-0.9-0.1-1.7-0.3-2.4-0.7
				c-1.1-0.7-1.7-1.9-1.6-3.5c0.1-1.3,0.4-2.3,1-2.9c0.6-0.7,1.5-1,2.5-0.9c0.8,0,1.4,0.3,1.8,0.7c0.3,0.3,0.5,0.6,0.6,1
				c0.2-0.7,0.6-1.1,1.1-1.5s1.2-0.5,1.9-0.5c1.2,0.1,2.2,0.5,2.9,1.3c0.7,0.8,1,2,0.9,3.4C31.8,213.1,31.3,214.1,30.5,214.7z"/>
		</g>
	</g>
	<g opacity="0.8">
		<g>
			<path fill="#FFFFFF" d="M82.8,352.6L89,359l-1.1,1.1l-5-5.2l-2.8,2.7l4.4,4.5l-1.1,1.1l-4.4-4.5l-4.2,4.1l-1.2-1.3L82.8,352.6z"/>
			<path fill="#FFFFFF" d="M92.6,368.4c0.1,1.2-0.4,2.3-1.5,3.5c-1,1.1-2.1,1.8-3.3,2c-1.2,0.2-2.4-0.2-3.5-1.2
				c-0.9-0.9-1.4-1.9-1.4-3s0.5-2.3,1.5-3.4c1.1-1.2,2.2-1.8,3.4-2c1.2-0.2,2.3,0.2,3.3,1.1C92.1,366.3,92.6,367.2,92.6,368.4z
				 M87.7,372.4c0.8-0.3,1.6-0.8,2.2-1.6c0.6-0.6,1-1.3,1.1-1.9c0.3-0.9,0-1.8-0.8-2.5c-0.7-0.6-1.5-0.8-2.3-0.6s-1.6,0.8-2.3,1.5
				c-0.7,0.7-1.1,1.5-1.2,2.3s0.2,1.5,0.9,2.1C86.1,372.5,86.9,372.7,87.7,372.4z"/>
			<path fill="#FFFFFF" d="M87.5,378.3c0.6,0.4,0.9,0.7,1.1,0.7c0.2,0,0.4-0.2,0.8-0.6l6.8-8.1l1.2,1l-6.9,8.2
				c-0.4,0.5-0.9,0.8-1.2,1c-0.7,0.2-1.4,0-2.2-0.7c-0.1,0-0.1-0.1-0.2-0.2s-0.2-0.2-0.3-0.3L87.5,378.3z M98.6,370l-1.2-1l1.2-1.4
				l1.2,1L98.6,370z"/>
			<path fill="#FFFFFF" d="M104.7,378.3c0.2,1.1-0.2,2.3-1.2,3.6c-0.9,1.2-2,2-3.2,2.3c-1.2,0.3-2.4,0-3.6-0.9
				c-1-0.8-1.6-1.8-1.6-2.9c-0.1-1.2,0.4-2.3,1.3-3.5c1-1.2,2.1-2,3.3-2.2c1.2-0.2,2.3,0,3.4,0.9C104,376.2,104.6,377.2,104.7,378.3z
				 M100.1,382.6c0.8-0.4,1.5-1,2.1-1.7c0.5-0.7,0.9-1.3,1-1.9c0.2-1-0.1-1.8-1-2.4c-0.8-0.6-1.5-0.7-2.3-0.4
				c-0.8,0.3-1.5,0.9-2.2,1.7c-0.6,0.8-1,1.6-1,2.4c-0.1,0.8,0.3,1.5,1,2.1C98.5,382.9,99.3,383,100.1,382.6z"/>
			<path fill="#FFFFFF" d="M109,380.3l-2.7,7.1l5.7-5.1l1.5,1l-2.6,7.1l5.7-5l1.3,0.9l-7.6,6.2l-1.4-0.9l2.5-7.1l-5.6,5l-1.4-0.9
				l3.1-9.3L109,380.3z"/>
			<path fill="#FFFFFF" d="M122.3,393.3c0.3,0.1,0.6,0.1,0.9,0c0.1-0.1,0.3-0.2,0.4-0.5c0.3-0.5,0.3-0.9,0.1-1.3s-0.6-0.8-1.2-1.2
				c-0.7-0.4-1.3-0.5-1.9-0.3c-0.3,0.1-0.6,0.4-0.9,0.8l-1.3-0.8c0.6-1,1.4-1.5,2.2-1.5s1.7,0.2,2.5,0.7c1,0.6,1.6,1.2,2,1.9
				c0.4,0.7,0.3,1.5-0.1,2.2l-2.8,4.7c-0.1,0.1-0.1,0.3-0.1,0.4c0,0.1,0.1,0.2,0.3,0.3c0.1,0,0.1,0.1,0.2,0.1c0.1,0,0.2,0.1,0.3,0.1
				l-0.6,1c-0.2-0.1-0.4-0.1-0.6-0.2s-0.3-0.1-0.5-0.2c-0.5-0.3-0.7-0.6-0.7-1.1c0-0.2,0.1-0.5,0.2-0.9c-0.5,0.2-1.1,0.3-1.8,0.2
				s-1.3-0.2-2-0.6c-0.8-0.4-1.2-1-1.4-1.8c-0.2-0.7-0.1-1.4,0.3-2.1c0.4-0.8,1-1.2,1.7-1.3c0.7-0.1,1.5,0,2.3,0.3L122.3,393.3z
				 M117.2,395.3c0.2,0.4,0.4,0.7,0.8,0.9c0.5,0.3,1,0.4,1.6,0.5c1,0.1,1.7-0.3,2.2-1.1l0.6-1.1c-0.2,0-0.5,0-0.8-0.1
				c-0.3-0.1-0.6-0.2-0.9-0.3l-0.9-0.4c-0.5-0.2-1-0.3-1.3-0.4c-0.6,0-1,0.2-1.3,0.8C117.1,394.5,117.1,394.9,117.2,395.3z"/>
			<path fill="#FFFFFF" d="M129.2,393l1.3,0.7l-0.8,1.4c0.3-0.2,0.7-0.4,1.3-0.6s1.2-0.1,1.8,0.2c0,0,0.1,0,0.1,0.1
				c0.1,0,0.2,0.1,0.3,0.2l-0.8,1.5c-0.1-0.1-0.1-0.1-0.2-0.2c-0.1,0-0.1-0.1-0.2-0.1c-0.7-0.4-1.4-0.4-2-0.2
				c-0.6,0.2-1.1,0.7-1.4,1.3l-2.6,4.8l-1.4-0.7L129.2,393z"/>
			<path fill="#FFFFFF" d="M140.3,398.9c0.4,0.6,0.7,1.1,0.8,1.7c0.1,0.6,0,1.2-0.1,1.8c-0.1,0.4-0.4,1.1-0.8,1.9l-6.2-3
				c-0.4,0.9-0.5,1.7-0.4,2.4c0.1,0.7,0.6,1.2,1.4,1.6c0.7,0.4,1.4,0.4,2.1,0.1c0.4-0.2,0.7-0.4,1-0.7l1.4,0.7
				c-0.2,0.3-0.5,0.6-0.9,0.9c-0.4,0.3-0.8,0.5-1.1,0.6c-0.6,0.2-1.3,0.2-2,0.1c-0.4-0.1-0.8-0.2-1.2-0.4c-1.1-0.5-1.8-1.3-2.1-2.4
				c-0.4-1.1-0.2-2.4,0.4-3.8c0.7-1.4,1.5-2.3,2.7-2.8c1.1-0.5,2.3-0.5,3.5,0.1C139.3,397.9,139.9,398.3,140.3,398.9z M139.2,402.4
				c0.2-0.6,0.3-1.2,0.3-1.7c-0.1-0.9-0.5-1.5-1.4-2c-0.6-0.3-1.3-0.3-2-0.1s-1.2,0.8-1.6,1.5L139.2,402.4z"/>
		</g>
	</g>
	<g opacity="0.8">
		<g>
			<path fill="#FFFFFF" d="M222.4,425.3c-0.7-0.8-1-1.8-1.1-3l1.7,0c0.1,0.8,0.2,1.4,0.5,1.8c0.4,0.7,1.2,1,2.2,1
				c0.8,0,1.5-0.2,2-0.7c0.5-0.5,0.7-1,0.7-1.7c0-0.9-0.3-1.5-0.8-1.8s-1.3-0.5-2.2-0.5c-0.1,0-0.2,0-0.3,0c-0.1,0-0.2,0-0.3,0l0-1.4
				c0.2,0,0.3,0,0.4,0c0.1,0,0.2,0,0.4,0c0.6,0,1.1-0.1,1.5-0.3c0.7-0.3,1-0.9,1-1.8c0-0.6-0.2-1.1-0.7-1.4s-1-0.5-1.6-0.5
				c-1.1,0-1.8,0.4-2.2,1.1c-0.2,0.4-0.3,0.9-0.3,1.7l-1.6,0c0-0.9,0.2-1.7,0.5-2.4c0.6-1.2,1.7-1.8,3.4-1.8c1.3,0,2.3,0.2,3,0.8
				c0.7,0.6,1.1,1.4,1.1,2.5c0,0.8-0.2,1.4-0.6,1.9c-0.3,0.3-0.6,0.5-1,0.7c0.7,0.2,1.2,0.5,1.6,1c0.4,0.5,0.6,1.1,0.6,1.9
				c0,1.2-0.4,2.2-1.1,3c-0.8,0.8-1.9,1.2-3.3,1.2C224.2,426.5,223.1,426.1,222.4,425.3z"/>
			<path fill="#FFFFFF" d="M239.6,413.9c0.6,0.7,0.9,1.4,1,2.2l-1.6,0.1c-0.1-0.5-0.3-0.9-0.5-1.1c-0.4-0.5-1-0.7-1.8-0.7
				c-0.9,0.1-1.6,0.5-2,1.4s-0.7,2-0.6,3.6c0.3-0.6,0.8-1,1.3-1.3c0.5-0.3,1-0.4,1.7-0.5c1.1-0.1,2,0.2,2.8,0.8s1.3,1.6,1.4,2.9
				c0.1,1.1-0.2,2.2-0.9,3.1c-0.7,0.9-1.7,1.4-3.1,1.5c-1.2,0.1-2.2-0.3-3.1-1.1c-0.9-0.8-1.5-2.3-1.6-4.4c-0.1-1.6,0-2.9,0.3-4
				c0.6-2.1,1.8-3.3,3.8-3.4C238,412.9,239,413.2,239.6,413.9z M239.1,423.5c0.4-0.6,0.5-1.3,0.5-2c0-0.6-0.3-1.2-0.7-1.8
				c-0.4-0.6-1.1-0.8-2.1-0.7c-0.7,0-1.3,0.3-1.7,0.8c-0.5,0.5-0.7,1.2-0.6,2.1c0.1,0.8,0.3,1.4,0.8,2c0.5,0.5,1.2,0.7,2,0.7
				C238.1,424.5,238.7,424.1,239.1,423.5z"/>
			<path fill="#FFFFFF" d="M250.5,413.6c0.7,1,1.1,2.3,1.4,4.1c0.2,1.7,0.1,3.1-0.2,4.3c-0.5,1.7-1.6,2.6-3.3,2.8
				c-1.5,0.2-2.7-0.3-3.6-1.5c-0.7-1-1.2-2.4-1.5-4.3c-0.2-1.4-0.2-2.7,0.1-3.7c0.4-2,1.6-3.1,3.4-3.3
				C248.4,411.8,249.6,412.3,250.5,413.6z M250,422.1c0.4-0.8,0.5-2.2,0.2-4.1c-0.2-1.4-0.5-2.6-1-3.4s-1.2-1.2-2.2-1.1
				c-0.9,0.1-1.5,0.6-1.9,1.6c-0.3,0.9-0.4,2.2-0.2,3.9c0.2,1.3,0.4,2.3,0.8,3c0.6,1.1,1.4,1.6,2.4,1.5
				C249,423.3,249.6,422.9,250,422.1z"/>
			<path fill="#FFFFFF" d="M253.6,410.7l1.6-0.3l0.3,1.8l-1.6,0.3L253.6,410.7z M254.2,414.2l1.6-0.3l1.6,9.2l-1.6,0.3L254.2,414.2z"
				/>
		</g>
	</g>
	<g opacity="0.8">
		<g>
			<path fill="#FFFFFF" d="M339.8,373.1l1.4-1.1l3.4,4.1l5.1-4.2l-3.4-4.1l1.4-1.1l8.2,10l-1.4,1.1l-3.8-4.7l-5.1,4.2l3.8,4.7
				l-1.4,1.1L339.8,373.1z"/>
			<path fill="#FFFFFF" d="M351.4,363.2l5.5,5.8c0.6,0.7,1.3,1.1,2,1.3c1,0.3,2,0.1,2.9-0.8c1.1-1,1.5-2.1,1.2-3.2
				c-0.2-0.6-0.6-1.2-1.2-1.9l-5.5-5.8l1.3-1.2l5,5.3c1.1,1.2,1.8,2.2,2,3.1c0.5,1.7,0,3.3-1.6,4.8s-3.2,2-4.8,1.4
				c-0.9-0.3-1.9-1.1-3-2.2l-5-5.3L351.4,363.2z"/>
			<path fill="#FFFFFF" d="M365.8,349.1c1.4-0.5,2.7-0.3,4.2,0.7l-1.2,1.3c-0.8-0.5-1.6-0.6-2.4-0.4c-0.8,0.2-1.5,0.6-2.1,1.4
				c-0.8,0.9-1.1,1.9-1,3.1c0.1,1.2,0.8,2.4,2.1,3.6c1.1,1,2.3,1.6,3.4,1.8c1.2,0.2,2.2-0.3,3.2-1.4c0.8-0.8,1.2-1.8,1.2-2.8
				s-0.5-2-1.6-3.1l-2.7,3l-1.1-1l3.8-4.2l5.1,4.7l-0.8,0.8l-1.5-0.8c0.1,0.9,0.1,1.6,0,2.1c-0.2,0.8-0.7,1.7-1.5,2.6
				c-1,1.1-2.3,1.7-3.7,1.9c-1.7,0-3.4-0.7-5-2.1c-1.6-1.5-2.5-3-2.6-4.8c-0.2-1.6,0.4-3.1,1.5-4.4
				C364,350.1,364.9,349.5,365.8,349.1z"/>
			<path fill="#FFFFFF" d="M369.5,344.3l5.8-7.3l1.2,1l-4.8,6l3.1,2.4l4.4-5.5l1.2,0.9l-4.4,5.5l3.4,2.7l4.8-6.1l1.2,1l-5.9,7.4
				L369.5,344.3z"/>
		</g>
	</g>
	<g opacity="0.8">
		<g>
			<path fill="#FFFFFF" d="M419.1,166.9l1.4,5.7c0.2,0.9,0.3,1.7,0.2,2.4c-0.2,1.3-1.1,2.1-2.5,2.5c-0.7,0.2-1.4,0.2-2,0
				s-1-0.5-1.5-1c-0.1,0.5-0.2,1-0.5,1.3c-0.3,0.3-0.8,0.6-1.5,0.8l-1.7,0.5c-0.5,0.1-0.8,0.3-1,0.4c-0.4,0.2-0.6,0.4-0.6,0.7
				l-0.3,0.1l-0.5-2.1c0.1-0.1,0.2-0.2,0.4-0.2c0.2-0.1,0.5-0.2,1-0.3l2.1-0.6c0.8-0.2,1.3-0.7,1.4-1.3c0.1-0.4,0-0.9-0.1-1.5l-1-3.7
				l-5.4,1.4l-0.4-1.7L419.1,166.9z M414.8,173.9c0.2,0.8,0.5,1.3,0.9,1.7c0.4,0.4,1.1,0.4,1.9,0.2c0.9-0.2,1.4-0.7,1.6-1.4
				c0.1-0.4,0.1-0.9-0.1-1.4l-1-4l-4.3,1.1L414.8,173.9z"/>
			<path fill="#FFFFFF" d="M419.8,186.8c-0.2,0.7-0.5,1.2-0.9,1.6c-0.4,0.4-0.9,0.7-1.5,0.9c-0.4,0.2-1.1,0.3-2,0.5l-1.3-6.7
				c-0.9,0.2-1.6,0.6-2.1,1.1c-0.5,0.5-0.7,1.2-0.5,2.1c0.2,0.8,0.5,1.4,1.2,1.8c0.4,0.2,0.8,0.3,1.2,0.4l0.3,1.5
				c-0.3,0-0.8,0-1.2-0.2c-0.5-0.1-0.8-0.3-1.2-0.6c-0.5-0.4-1-0.9-1.3-1.6c-0.2-0.4-0.3-0.8-0.4-1.2c-0.2-1.1,0-2.2,0.7-3.1
				c0.7-1,1.8-1.6,3.3-1.9c1.5-0.3,2.8-0.1,3.8,0.5c1.1,0.6,1.7,1.6,2,2.9C420,185.5,420,186.1,419.8,186.8z M416.2,188.1
				c0.7-0.2,1.2-0.4,1.5-0.7c0.7-0.6,0.9-1.3,0.7-2.3c-0.1-0.7-0.5-1.3-1.1-1.6c-0.6-0.4-1.3-0.5-2.1-0.4L416.2,188.1z"/>
			<path fill="#FFFFFF" d="M421.3,197.1c-0.1,0.3-0.4,0.7-0.8,1.1l4.7-0.6l0.2,1.5l-12.8,1.7l-0.2-1.4l1.3-0.2
				c-0.6-0.3-1.1-0.7-1.4-1.1c-0.3-0.5-0.5-1-0.6-1.7c-0.1-1,0.2-2,1-2.9c0.8-0.9,1.9-1.4,3.3-1.6c1.4-0.2,2.6,0,3.7,0.6
				c1.1,0.6,1.7,1.5,1.9,2.8C421.6,196,421.5,196.6,421.3,197.1z M413.8,194.5c-0.6,0.5-0.9,1.2-0.7,2.2c0.1,0.7,0.5,1.3,1.2,1.7
				c0.7,0.4,1.6,0.5,2.8,0.3c1.2-0.2,2-0.5,2.5-1.1c0.5-0.6,0.7-1.2,0.6-1.9c-0.1-0.8-0.5-1.4-1.2-1.8c-0.7-0.4-1.6-0.5-2.8-0.4
				C415.3,193.7,414.4,194,413.8,194.5z"/>
			<path fill="#FFFFFF" d="M425.5,212.1c-0.8,0.9-1.7,1.5-2.8,1.7l-0.1-1.7c0.8-0.2,1.4-0.7,1.9-1.3c0.4-0.6,0.6-1.4,0.6-2.4
				c-0.1-1.2-0.6-2.2-1.5-2.9s-2.3-1-4.2-0.9c-1.5,0.1-2.7,0.5-3.6,1.3c-0.9,0.8-1.3,1.8-1.2,3.2c0.1,1.3,0.6,2.2,1.7,2.8
				c0.5,0.3,1.2,0.5,2.1,0.6l0.1,1.7c-1.4-0.1-2.5-0.5-3.5-1.3c-1.2-0.9-1.8-2.3-1.9-4c-0.1-1.5,0.3-2.8,1.1-3.8
				c1.1-1.4,2.9-2.2,5.4-2.4c1.9-0.1,3.5,0.3,4.8,1.2c1.4,1,2.2,2.4,2.3,4.3C426.6,209.9,426.3,211.2,425.5,212.1z"/>
			<path fill="#FFFFFF" d="M419.4,222.1c0,0.4,0.2,0.6,0.5,0.7c0.1,0.1,0.3,0.1,0.6,0.1c0.5,0,0.9-0.2,1.2-0.6
				c0.2-0.4,0.4-0.9,0.4-1.6c0-0.8-0.2-1.4-0.7-1.8c-0.2-0.2-0.6-0.3-1.1-0.4l0-1.5c1.2,0,2,0.4,2.4,1.1c0.5,0.7,0.7,1.6,0.7,2.5
				c0,1.1-0.2,2-0.6,2.7c-0.4,0.7-1.1,1-2,1l-5.4,0c-0.2,0-0.3,0-0.4,0.1c-0.1,0.1-0.1,0.2-0.1,0.4c0,0.1,0,0.1,0,0.2
				c0,0.1,0,0.2,0,0.3l-1.2,0c-0.1-0.2-0.1-0.4-0.1-0.6c0-0.1,0-0.3,0-0.5c0-0.5,0.2-0.9,0.6-1.2c0.2-0.1,0.5-0.2,0.9-0.3
				c-0.4-0.3-0.8-0.8-1.1-1.4c-0.3-0.6-0.5-1.3-0.5-2c0-0.9,0.3-1.6,0.8-2.1c0.5-0.6,1.2-0.8,2-0.8c0.9,0,1.5,0.3,2,0.8
				c0.5,0.5,0.8,1.3,0.9,2.1L419.4,222.1z M415.1,218.8c-0.3,0.3-0.4,0.7-0.4,1.2c0,0.6,0.1,1.1,0.4,1.6c0.4,0.9,1.1,1.3,2.1,1.3
				l1.3,0c-0.1-0.2-0.2-0.4-0.3-0.7s-0.1-0.6-0.2-0.9l-0.1-1c-0.1-0.6-0.2-1-0.4-1.3c-0.3-0.5-0.7-0.7-1.3-0.7
				C415.7,218.3,415.4,218.4,415.1,218.8z"/>
			<path fill="#FFFFFF" d="M425.6,228.5l-0.1,1.6l-2.6-0.1l-0.1,1.5l-1.3,0l0.1-1.5l-6.1-0.2c-0.3,0-0.6,0.1-0.7,0.3
				c-0.1,0.1-0.1,0.3-0.1,0.6c0,0.1,0,0.2,0,0.2c0,0.1,0,0.2,0,0.3l-1.3,0c0-0.2-0.1-0.4-0.1-0.6c0-0.2,0-0.4,0-0.6
				c0-0.7,0.2-1.2,0.6-1.5c0.4-0.2,0.9-0.4,1.5-0.3l6.2,0.2l0-1.3l1.3,0l0,1.3L425.6,228.5z"/>
			<path fill="#FFFFFF" d="M416.3,234.5c-0.5,0-0.9,0.1-1.2,0.3c-0.5,0.4-0.8,1.1-0.9,2.1c0,0.6,0,1.1,0.3,1.6s0.6,0.7,1.1,0.8
				c0.4,0,0.7-0.1,1-0.5c0.1-0.2,0.3-0.7,0.6-1.3l0.4-1.2c0.3-0.8,0.5-1.4,0.8-1.7c0.5-0.7,1.1-1,1.8-0.9c0.9,0.1,1.6,0.4,2.1,1.1
				s0.7,1.6,0.6,2.7c-0.1,1.4-0.6,2.4-1.5,3c-0.6,0.4-1.1,0.5-1.7,0.4l0.1-1.5c0.4,0,0.7-0.1,1-0.3c0.4-0.3,0.7-1,0.8-1.9
				c0-0.6,0-1.1-0.2-1.4s-0.5-0.5-0.9-0.5c-0.4,0-0.8,0.2-1,0.5c-0.2,0.2-0.3,0.6-0.5,1l-0.3,1c-0.4,1.1-0.7,1.9-1,2.3
				c-0.5,0.6-1.1,0.8-2,0.8c-0.8-0.1-1.5-0.4-2.1-1.1c-0.6-0.7-0.8-1.7-0.7-3c0.1-1.4,0.5-2.4,1.2-2.9s1.5-0.8,2.4-0.8L416.3,234.5z"
				/>
		</g>
	</g>
	<g opacity="0.8">
		<g>
			<path fill="#FFFFFF" d="M264,22l2.4,0.6l1.1,11.5l6.1-9.8l2.4,0.6l-3,12.6l-1.6-0.4l1.8-7.4c0.1-0.3,0.2-0.7,0.3-1.3
				c0.2-0.6,0.3-1.2,0.5-1.9l-6.1,9.7l-1.7-0.4l-1.1-11.5l-0.1,0.4c-0.1,0.3-0.2,0.8-0.3,1.4c-0.1,0.6-0.2,1.1-0.3,1.4l-1.8,7.4
				l-1.6-0.4L264,22z"/>
			<path fill="#FFFFFF" d="M284.1,31.3c0.5,0.5,0.8,1,1,1.6c0.2,0.5,0.2,1.1,0.1,1.8c0,0.4-0.2,1.1-0.5,2l-6.5-2
				c-0.3,0.9-0.3,1.7,0,2.4c0.2,0.7,0.8,1.1,1.6,1.4c0.8,0.2,1.5,0.2,2.1-0.2c0.4-0.2,0.6-0.5,0.9-0.9l1.5,0.5
				c-0.1,0.3-0.4,0.6-0.7,1c-0.3,0.3-0.7,0.6-1,0.8c-0.6,0.3-1.3,0.4-2,0.4c-0.4,0-0.8-0.1-1.3-0.2c-1.1-0.3-1.9-1-2.4-2.1
				s-0.5-2.3-0.1-3.8c0.5-1.4,1.2-2.5,2.3-3.2c1.1-0.7,2.2-0.8,3.5-0.4C283,30.5,283.6,30.8,284.1,31.3z M283.6,35
				c0.1-0.7,0.2-1.2,0.1-1.7c-0.2-0.9-0.8-1.4-1.7-1.7c-0.7-0.2-1.3-0.1-2,0.2c-0.6,0.4-1.1,0.9-1.3,1.7L283.6,35z"/>
			<path fill="#FFFFFF" d="M293.9,34.8c0.2,0.3,0.4,0.7,0.6,1.2l1.7-4.5l1.4,0.5l-4.5,12.1l-1.3-0.5l0.5-1.2
				c-0.5,0.4-1.1,0.7-1.7,0.7s-1.1,0-1.8-0.2c-1-0.4-1.7-1.1-2.1-2.2c-0.4-1.1-0.4-2.3,0.2-3.7c0.5-1.3,1.2-2.3,2.2-3
				c1-0.7,2.1-0.8,3.3-0.4C293.1,34,293.6,34.3,293.9,34.8z M288.2,40.2c0.2,0.8,0.7,1.3,1.6,1.7c0.7,0.3,1.4,0.2,2-0.3
				c0.7-0.4,1.2-1.2,1.6-2.3c0.4-1.1,0.5-2,0.2-2.7s-0.7-1.2-1.4-1.4c-0.7-0.3-1.5-0.2-2.1,0.2c-0.7,0.4-1.2,1.2-1.6,2.3
				C288.1,38.5,288,39.4,288.2,40.2z"/>
			<path fill="#FFFFFF" d="M299.5,36.7l1.5,0.6l-3.6,8.6l-1.5-0.6L299.5,36.7z M300.8,33.5l1.5,0.6l-0.7,1.7l-1.5-0.6L300.8,33.5z"/>
			<path fill="#FFFFFF" d="M307.1,44.1c0.3,0.1,0.6,0.1,0.9-0.1c0.1-0.1,0.2-0.3,0.4-0.5c0.2-0.5,0.2-0.9,0-1.3
				c-0.2-0.4-0.7-0.7-1.3-1c-0.7-0.4-1.4-0.4-1.9-0.1c-0.3,0.1-0.5,0.4-0.8,0.8l-1.3-0.6c0.5-1,1.2-1.6,2.1-1.7
				c0.8-0.1,1.7,0,2.6,0.5c1,0.5,1.7,1,2.2,1.7c0.4,0.7,0.5,1.4,0.1,2.2l-2.3,4.9c-0.1,0.1-0.1,0.3-0.1,0.4c0,0.1,0.1,0.2,0.3,0.3
				c0.1,0,0.1,0.1,0.2,0.1c0.1,0,0.2,0.1,0.3,0.1l-0.5,1.1c-0.3,0-0.4-0.1-0.6-0.1s-0.3-0.1-0.5-0.2c-0.5-0.2-0.8-0.6-0.8-1
				c0-0.2,0-0.5,0.1-0.9c-0.5,0.2-1,0.4-1.7,0.4c-0.7,0-1.3-0.1-2-0.4c-0.8-0.4-1.3-0.9-1.6-1.6c-0.3-0.7-0.2-1.4,0.1-2.2
				c0.4-0.8,0.9-1.3,1.6-1.5c0.7-0.2,1.5-0.2,2.3,0.1L307.1,44.1z M302.3,46.6c0.2,0.4,0.5,0.7,0.9,0.9c0.5,0.2,1,0.3,1.6,0.3
				c1,0,1.7-0.5,2.1-1.3l0.5-1.2c-0.2,0-0.5,0-0.8,0c-0.3-0.1-0.6-0.1-0.9-0.2l-0.9-0.3c-0.6-0.2-1-0.2-1.3-0.2c-0.6,0-1,0.3-1.2,0.9
				C302.1,45.8,302.1,46.2,302.3,46.6z"/>
			<path fill="#FFFFFF" d="M316.8,40.8l-3,10.3l7.7-7.7l1.6,0.9L320.5,55l7.3-8l1.7,0.9l-9.3,9.6l-1.6-0.9l2.6-10.8l-7.9,7.9
				l-1.6-0.9l3.4-12.9L316.8,40.8z"/>
			<path fill="#FFFFFF" d="M331.8,49.5l1.3,0.9l-2.7,4c0.6-0.2,1-0.3,1.4-0.3c0.6,0,1.2,0.2,1.9,0.6c1.1,0.8,1.6,1.7,1.5,2.7
				c-0.1,0.6-0.4,1.3-0.9,2l-3.3,5l-1.4-0.9l3.3-4.9c0.4-0.6,0.6-1,0.6-1.4c0-0.6-0.3-1.1-0.9-1.5c-0.5-0.4-1.2-0.5-1.9-0.4
				c-0.7,0.1-1.4,0.6-2.1,1.7l-2.8,4.2l-1.3-0.9L331.8,49.5z"/>
			<path fill="#FFFFFF" d="M338.9,58.7l1.3,0.9l-5.5,7.6l-1.3-0.9L338.9,58.7z M341,55.8l1.3,0.9l-1,1.5l-1.3-0.9L341,55.8z"/>
			<path fill="#FFFFFF" d="M337.5,67.6l8.6-1.9l-4.1-3.2l0.9-1.1l5.8,4.5l-0.8,1l-8.5,1.9l4.5,3.5l-0.9,1.1l-6.2-4.8L337.5,67.6z"/>
		</g>
	</g>
	<g>
		<path fill="#CCCCCC" d="M193.4,274.3v-13h4.7c0.8,0,1.5,0.1,2.1,0.3c0.5,0.2,1,0.5,1.3,0.8c0.3,0.3,0.5,0.7,0.7,1.2
			c0.1,0.4,0.2,0.9,0.2,1.4c0,0.7-0.1,1.3-0.4,1.8s-0.7,0.8-1.1,1.1c-0.5,0.3-1,0.5-1.6,0.6c-0.6,0.1-1.2,0.2-1.8,0.2h-2.8v5.7H193.4
			z M197.4,267.6c0.6,0,1.1,0,1.5-0.1s0.8-0.2,1.2-0.4c0.3-0.2,0.6-0.5,0.7-0.8s0.3-0.8,0.3-1.3c0-0.8-0.3-1.4-0.8-1.9
			c-0.5-0.4-1.4-0.6-2.5-0.6h-3.2v5.1H197.4z"/>
		<path fill="#CCCCCC" d="M205.4,274.3h-1.1V265h1.1v1.7h0c0.3-0.7,0.7-1.3,1.2-1.6s1.1-0.4,1.9-0.4v1.2c-0.6,0-1.1,0.1-1.5,0.3
			c-0.4,0.2-0.7,0.5-0.9,0.8c-0.2,0.3-0.4,0.8-0.5,1.2s-0.1,1-0.1,1.5V274.3z"/>
		<path fill="#CCCCCC" d="M211,269.9c0,0.5,0.1,1,0.2,1.4c0.1,0.5,0.3,0.8,0.6,1.2c0.3,0.3,0.6,0.6,1,0.8s0.9,0.3,1.4,0.3
			c0.7,0,1.3-0.2,1.8-0.6s0.8-0.9,1-1.6h1.2c-0.1,0.4-0.3,0.9-0.5,1.2s-0.5,0.7-0.8,1c-0.3,0.3-0.7,0.5-1.2,0.7
			c-0.4,0.2-1,0.2-1.5,0.2c-0.7,0-1.4-0.1-1.9-0.4s-1-0.6-1.3-1c-0.3-0.4-0.6-1-0.8-1.5s-0.3-1.2-0.3-1.9c0-0.7,0.1-1.3,0.3-1.9
			c0.2-0.6,0.5-1.1,0.8-1.6c0.4-0.5,0.8-0.8,1.3-1.1c0.5-0.3,1.1-0.4,1.8-0.4c1.3,0,2.3,0.4,3,1.3c0.7,0.9,1.1,2.2,1.1,3.8H211z
			 M217,269c0-0.5-0.1-0.9-0.2-1.3s-0.3-0.8-0.6-1s-0.6-0.5-0.9-0.7c-0.4-0.2-0.8-0.3-1.3-0.3c-0.5,0-0.9,0.1-1.3,0.3
			c-0.4,0.2-0.7,0.4-0.9,0.7c-0.3,0.3-0.5,0.6-0.6,1c-0.2,0.4-0.3,0.8-0.3,1.3H217z"/>
		<path fill="#CCCCCC" d="M220.9,271.4c0.2,0.8,0.5,1.4,0.9,1.7c0.4,0.3,1.1,0.5,1.9,0.5c0.4,0,0.7,0,1-0.1c0.3-0.1,0.5-0.2,0.7-0.4
			c0.2-0.2,0.3-0.3,0.4-0.5s0.1-0.4,0.1-0.6c0-0.5-0.1-0.8-0.4-1c-0.3-0.2-0.7-0.4-1.1-0.5s-0.9-0.2-1.4-0.3s-1-0.2-1.4-0.4
			c-0.4-0.2-0.8-0.4-1.1-0.8c-0.3-0.3-0.4-0.8-0.4-1.4c0-0.8,0.3-1.4,0.9-1.9c0.6-0.5,1.4-0.7,2.4-0.7c1,0,1.8,0.2,2.5,0.7
			c0.6,0.4,1,1.2,1.1,2.3h-1.1c-0.1-0.7-0.4-1.2-0.8-1.5c-0.4-0.3-1-0.4-1.7-0.4c-0.7,0-1.2,0.1-1.6,0.4c-0.4,0.3-0.5,0.7-0.5,1.2
			c0,0.4,0.1,0.7,0.4,1c0.3,0.2,0.7,0.4,1.1,0.5c0.4,0.1,0.9,0.3,1.4,0.4c0.5,0.1,1,0.3,1.4,0.5c0.4,0.2,0.8,0.5,1.1,0.8
			c0.3,0.3,0.4,0.8,0.4,1.4c0,0.4-0.1,0.8-0.3,1.2c-0.2,0.3-0.5,0.6-0.8,0.9s-0.7,0.4-1.2,0.5c-0.5,0.1-1,0.2-1.5,0.2
			c-0.6,0-1-0.1-1.5-0.2c-0.4-0.2-0.8-0.4-1.1-0.7s-0.5-0.6-0.7-1c-0.2-0.4-0.3-0.8-0.3-1.2H220.9z"/>
		<path fill="#CCCCCC" d="M230,269.9c0,0.5,0.1,1,0.2,1.4c0.1,0.5,0.3,0.8,0.6,1.2s0.6,0.6,1,0.8s0.9,0.3,1.4,0.3
			c0.7,0,1.3-0.2,1.8-0.6s0.8-0.9,1-1.6h1.2c-0.1,0.4-0.3,0.9-0.5,1.2s-0.5,0.7-0.8,1c-0.3,0.3-0.7,0.5-1.2,0.7
			c-0.4,0.2-1,0.2-1.5,0.2c-0.7,0-1.4-0.1-1.9-0.4c-0.5-0.3-1-0.6-1.3-1c-0.3-0.4-0.6-1-0.8-1.5s-0.3-1.2-0.3-1.9
			c0-0.7,0.1-1.3,0.3-1.9c0.2-0.6,0.5-1.1,0.8-1.6c0.4-0.5,0.8-0.8,1.3-1.1c0.5-0.3,1.1-0.4,1.8-0.4c1.3,0,2.3,0.4,3,1.3
			s1.1,2.2,1.1,3.8H230z M236,269c0-0.5-0.1-0.9-0.2-1.3s-0.3-0.8-0.6-1s-0.6-0.5-0.9-0.7c-0.4-0.2-0.8-0.3-1.3-0.3
			c-0.5,0-0.9,0.1-1.3,0.3c-0.4,0.2-0.7,0.4-0.9,0.7s-0.5,0.6-0.6,1c-0.2,0.4-0.3,0.8-0.3,1.3H236z"/>
		<path fill="#CCCCCC" d="M240.4,274.3h-1.1V265h1.1v1.3c0.4-0.5,0.9-0.8,1.3-1.1s1-0.4,1.7-0.4c0.6,0,1.1,0.1,1.6,0.3
			c0.5,0.2,0.9,0.5,1.2,1c0.2,0.3,0.4,0.7,0.4,1c0,0.4,0.1,0.7,0.1,1.1v6.1h-1.1v-6.1c0-0.8-0.2-1.5-0.6-1.9c-0.4-0.4-1-0.6-1.9-0.6
			c-0.3,0-0.6,0.1-0.9,0.2c-0.3,0.1-0.5,0.2-0.7,0.4c-0.2,0.2-0.4,0.4-0.6,0.6c-0.2,0.2-0.3,0.4-0.4,0.7c-0.1,0.3-0.2,0.6-0.2,0.9
			c0,0.3,0,0.6,0,0.9V274.3z"/>
		<path fill="#CCCCCC" d="M252.6,274.4c-0.1,0-0.3,0.1-0.5,0.1s-0.5,0.1-0.7,0.1c-0.5,0-1-0.1-1.2-0.4c-0.3-0.3-0.4-0.8-0.4-1.4v-6.8
			h-1.3V265h1.3v-2.6h1.1v2.6h1.7v0.9h-1.7v6.4c0,0.2,0,0.4,0,0.6s0,0.3,0.1,0.4c0.1,0.1,0.2,0.2,0.3,0.2s0.3,0.1,0.5,0.1
			c0.1,0,0.3,0,0.4,0c0.2,0,0.3-0.1,0.4-0.1V274.4z"/>
	</g>
	<g>
		<path fill="#CCCCCC" d="M203.2,169.8c0-0.6,0.1-1.2,0.3-1.7c0.2-0.5,0.5-0.9,0.8-1.3s0.8-0.6,1.3-0.8c0.5-0.2,1.1-0.3,1.7-0.3
			c0.6,0,1.2,0.1,1.7,0.3c0.5,0.2,0.9,0.4,1.2,0.7s0.6,0.7,0.7,1.1c0.2,0.4,0.3,0.9,0.3,1.4c0,0.6-0.1,1.1-0.3,1.5
			c-0.2,0.4-0.4,0.8-0.7,1.2c-0.3,0.3-0.7,0.6-1,0.9c-0.4,0.3-0.8,0.5-1.2,0.7c-0.4,0.2-0.8,0.5-1.2,0.7c-0.4,0.2-0.8,0.4-1.1,0.7
			c-0.2,0.2-0.4,0.3-0.6,0.5c-0.2,0.2-0.4,0.4-0.5,0.6c-0.2,0.2-0.3,0.4-0.4,0.7c-0.1,0.2-0.2,0.5-0.2,0.8h7.1v1h-8.3
			c0-0.6,0.1-1.2,0.2-1.7c0.1-0.5,0.4-1,0.8-1.4c0.4-0.5,0.9-0.9,1.4-1.3s0.9-0.7,1.4-1c0.5-0.3,0.9-0.5,1.3-0.8
			c0.4-0.2,0.8-0.5,1.1-0.8c0.3-0.3,0.6-0.6,0.7-0.9c0.2-0.3,0.3-0.8,0.3-1.3c0-0.4-0.1-0.8-0.2-1.1c-0.1-0.3-0.3-0.6-0.6-0.8
			c-0.3-0.2-0.5-0.4-0.9-0.5s-0.7-0.2-1.1-0.2c-0.4,0-0.8,0.1-1.1,0.3c-0.3,0.2-0.6,0.4-0.9,0.7c-0.2,0.3-0.4,0.6-0.6,1
			c-0.1,0.4-0.2,0.8-0.2,1.2H203.2z"/>
		<path fill="#CCCCCC" d="M217,165.6c0.6,0,1.2,0.1,1.6,0.3c0.5,0.2,0.8,0.4,1.2,0.8c0.3,0.3,0.6,0.7,0.8,1.1
			c0.2,0.4,0.4,0.9,0.5,1.4c0.1,0.5,0.2,1,0.2,1.5s0.1,1,0.1,1.5c0,0.8-0.1,1.6-0.2,2.4c-0.1,0.8-0.3,1.4-0.7,2s-0.8,1.1-1.3,1.4
			c-0.6,0.3-1.3,0.5-2.1,0.5s-1.6-0.2-2.2-0.5c-0.6-0.3-1-0.8-1.3-1.4c-0.3-0.6-0.5-1.3-0.7-2.1c-0.1-0.8-0.2-1.6-0.2-2.5
			c0-0.8,0.1-1.6,0.2-2.4c0.1-0.8,0.3-1.5,0.6-2.1c0.3-0.6,0.7-1.1,1.3-1.5C215.4,165.8,216.1,165.6,217,165.6z M220.1,172.1
			c0-0.7,0-1.4-0.1-2c-0.1-0.7-0.2-1.2-0.5-1.8c-0.2-0.5-0.5-0.9-1-1.2s-1-0.5-1.6-0.5c-0.6,0-1.2,0.2-1.6,0.5
			c-0.4,0.3-0.7,0.7-0.9,1.3c-0.2,0.5-0.4,1.1-0.5,1.8c-0.1,0.7-0.1,1.4-0.1,2.1c0,0.8,0.1,1.6,0.2,2.2s0.3,1.2,0.5,1.7
			c0.2,0.5,0.6,0.8,1,1.1c0.4,0.3,0.9,0.4,1.5,0.4c0.7,0,1.2-0.2,1.6-0.5c0.4-0.3,0.7-0.8,0.9-1.3c0.2-0.5,0.4-1.1,0.4-1.8
			C220.1,173.4,220.1,172.7,220.1,172.1z"/>
		<path fill="#CCCCCC" d="M227,165.6c0.6,0,1.2,0.1,1.6,0.3c0.5,0.2,0.8,0.4,1.2,0.8c0.3,0.3,0.6,0.7,0.8,1.1
			c0.2,0.4,0.4,0.9,0.5,1.4c0.1,0.5,0.2,1,0.2,1.5c0,0.5,0.1,1,0.1,1.5c0,0.8-0.1,1.6-0.2,2.4c-0.1,0.8-0.3,1.4-0.7,2
			c-0.3,0.6-0.8,1.1-1.3,1.4c-0.6,0.3-1.3,0.5-2.1,0.5s-1.6-0.2-2.2-0.5c-0.6-0.3-1-0.8-1.3-1.4c-0.3-0.6-0.5-1.3-0.7-2.1
			c-0.1-0.8-0.2-1.6-0.2-2.5c0-0.8,0.1-1.6,0.2-2.4c0.1-0.8,0.3-1.5,0.6-2.1c0.3-0.6,0.7-1.1,1.3-1.5
			C225.4,165.8,226.1,165.6,227,165.6z M230.2,172.1c0-0.7,0-1.4-0.1-2c-0.1-0.7-0.2-1.2-0.5-1.8s-0.5-0.9-1-1.2s-1-0.5-1.6-0.5
			c-0.6,0-1.2,0.2-1.6,0.5c-0.4,0.3-0.7,0.7-0.9,1.3c-0.2,0.5-0.4,1.1-0.5,1.8c-0.1,0.7-0.1,1.4-0.1,2.1c0,0.8,0.1,1.6,0.2,2.2
			c0.1,0.7,0.3,1.2,0.5,1.7c0.2,0.5,0.6,0.8,1,1.1c0.4,0.3,0.9,0.4,1.5,0.4c0.7,0,1.2-0.2,1.6-0.5c0.4-0.3,0.7-0.8,0.9-1.3
			c0.2-0.5,0.4-1.1,0.4-1.8C230.1,173.4,230.2,172.7,230.2,172.1z"/>
		<path fill="#CCCCCC" d="M236,171.3c0.5,0,1,0,1.5-0.1c0.4-0.1,0.8-0.2,1.1-0.4c0.3-0.2,0.6-0.4,0.7-0.7s0.3-0.7,0.3-1.2
			c0-0.4-0.1-0.7-0.2-1c-0.1-0.3-0.3-0.5-0.6-0.7c-0.2-0.2-0.5-0.3-0.9-0.4c-0.3-0.1-0.7-0.1-1-0.1c-0.4,0-0.8,0.1-1.1,0.2
			c-0.3,0.1-0.6,0.3-0.9,0.6c-0.2,0.2-0.4,0.5-0.6,0.9s-0.2,0.7-0.2,1.1h-1.2c0-0.6,0.1-1.1,0.3-1.6c0.2-0.5,0.5-0.9,0.9-1.3
			c0.4-0.4,0.8-0.6,1.3-0.7c0.5-0.1,1-0.2,1.5-0.2c0.5,0,1,0.1,1.4,0.2c0.4,0.1,0.8,0.3,1.1,0.6c0.3,0.3,0.6,0.6,0.8,1
			c0.2,0.4,0.3,0.9,0.3,1.4c0,0.7-0.1,1.2-0.4,1.7c-0.3,0.5-0.7,0.9-1.4,1.1c0.5,0.1,0.8,0.3,1.1,0.6s0.5,0.5,0.7,0.8
			c0.2,0.3,0.3,0.6,0.3,0.9c0.1,0.3,0.1,0.6,0.1,0.9c0,0.5-0.1,1-0.3,1.5c-0.2,0.5-0.4,0.9-0.8,1.2c-0.3,0.3-0.8,0.6-1.3,0.8
			c-0.5,0.2-1.1,0.3-1.7,0.3c-0.7,0-1.4-0.1-1.9-0.2c-0.5-0.1-1-0.4-1.3-0.7c-0.4-0.3-0.6-0.7-0.8-1.2c-0.2-0.5-0.3-1.1-0.4-1.9h1.2
			c0,1,0.3,1.7,0.9,2.2s1.3,0.7,2.3,0.7c0.5,0,0.9-0.1,1.3-0.2c0.4-0.2,0.7-0.4,1-0.6c0.3-0.3,0.5-0.6,0.6-0.9
			c0.2-0.3,0.2-0.7,0.2-1.1c0-0.5-0.1-0.9-0.4-1.3c-0.2-0.3-0.5-0.6-0.9-0.8c-0.4-0.2-0.8-0.3-1.3-0.4c-0.5-0.1-1-0.1-1.6,0V171.3z"
			/>
	</g>
	<rect x="221.8" y="196.5" opacity="0.4" fill="#B3B3B3" width="0.8" height="50"/>
</svg>
