<svg version="1.1" class="exposure-graph" xmlns="http://www.w3.org/2000/svg" xmlns:xlink="http://www.w3.org/1999/xlink" x="0px" y="0px"
	 viewBox="0 0 445 445" enable-background="new 0 0 445 445" xml:space="preserve">
	<g>
		<path fill="#CCCCCC" d="M193.8,273.8v-13h4.7c0.8,0,1.5,0.1,2.1,0.3s1,0.5,1.3,0.8c0.3,0.3,0.5,0.7,0.7,1.2
			c0.1,0.4,0.2,0.9,0.2,1.4c0,0.7-0.1,1.3-0.4,1.8c-0.3,0.5-0.7,0.8-1.1,1.1c-0.5,0.3-1,0.5-1.6,0.6c-0.6,0.1-1.2,0.2-1.8,0.2h-2.8
			v5.7H193.8z M197.9,267c0.6,0,1.1,0,1.5-0.1s0.8-0.2,1.2-0.4c0.3-0.2,0.6-0.5,0.7-0.8s0.3-0.8,0.3-1.3c0-0.8-0.3-1.4-0.8-1.9
			c-0.5-0.4-1.4-0.6-2.5-0.6h-3.2v5.1H197.9z"/>
		<path fill="#CCCCCC" d="M205.9,273.8h-1.1v-9.3h1.1v1.7h0c0.3-0.7,0.7-1.3,1.2-1.6s1.1-0.4,1.9-0.4v1.2c-0.6,0-1.1,0.1-1.5,0.3
			c-0.4,0.2-0.7,0.5-0.9,0.8c-0.2,0.3-0.4,0.8-0.5,1.2c-0.1,0.5-0.1,1-0.1,1.5V273.8z"/>
		<path fill="#CCCCCC" d="M211.4,269.3c0,0.5,0.1,1,0.2,1.4c0.1,0.5,0.3,0.8,0.6,1.2c0.3,0.3,0.6,0.6,1,0.8c0.4,0.2,0.9,0.3,1.4,0.3
			c0.7,0,1.3-0.2,1.8-0.6c0.5-0.4,0.8-0.9,1-1.6h1.2c-0.1,0.4-0.3,0.9-0.5,1.2s-0.5,0.7-0.8,1c-0.3,0.3-0.7,0.5-1.2,0.7
			c-0.4,0.2-1,0.2-1.5,0.2c-0.7,0-1.4-0.1-1.9-0.4s-1-0.6-1.3-1c-0.3-0.4-0.6-1-0.8-1.5c-0.2-0.6-0.3-1.2-0.3-1.9s0.1-1.3,0.3-1.9
			c0.2-0.6,0.5-1.1,0.8-1.6c0.4-0.5,0.8-0.8,1.3-1.1c0.5-0.3,1.1-0.4,1.8-0.4c1.3,0,2.3,0.4,3,1.3c0.7,0.9,1.1,2.2,1.1,3.8H211.4z
			 M217.5,268.4c0-0.5-0.1-0.9-0.2-1.3s-0.3-0.8-0.6-1c-0.2-0.3-0.6-0.5-0.9-0.7c-0.4-0.2-0.8-0.3-1.3-0.3c-0.5,0-0.9,0.1-1.3,0.3
			c-0.4,0.2-0.7,0.4-0.9,0.7c-0.3,0.3-0.5,0.6-0.6,1c-0.2,0.4-0.3,0.8-0.3,1.3H217.5z"/>
		<path fill="#CCCCCC" d="M221.4,270.8c0.2,0.8,0.5,1.4,0.9,1.7c0.4,0.3,1.1,0.5,1.9,0.5c0.4,0,0.7,0,1-0.1c0.3-0.1,0.5-0.2,0.7-0.4
			c0.2-0.2,0.3-0.3,0.4-0.5s0.1-0.4,0.1-0.6c0-0.5-0.1-0.8-0.4-1c-0.3-0.2-0.7-0.4-1.1-0.5c-0.4-0.1-0.9-0.2-1.4-0.3s-1-0.2-1.4-0.4
			c-0.4-0.2-0.8-0.4-1.1-0.8c-0.3-0.3-0.4-0.8-0.4-1.4c0-0.8,0.3-1.4,0.9-1.9s1.4-0.7,2.4-0.7c1,0,1.8,0.2,2.5,0.7
			c0.6,0.5,1,1.2,1.1,2.3h-1.1c-0.1-0.7-0.4-1.2-0.8-1.5c-0.4-0.3-1-0.4-1.7-0.4c-0.7,0-1.2,0.1-1.6,0.4c-0.4,0.3-0.5,0.7-0.5,1.2
			c0,0.4,0.1,0.7,0.4,1c0.3,0.2,0.7,0.4,1.1,0.5c0.4,0.1,0.9,0.3,1.4,0.4s1,0.3,1.4,0.5c0.4,0.2,0.8,0.5,1.1,0.8s0.4,0.8,0.4,1.4
			c0,0.4-0.1,0.8-0.3,1.2c-0.2,0.3-0.5,0.6-0.8,0.9c-0.3,0.2-0.7,0.4-1.2,0.5s-1,0.2-1.5,0.2c-0.6,0-1-0.1-1.5-0.2s-0.8-0.4-1.1-0.7
			s-0.5-0.6-0.7-1s-0.3-0.8-0.3-1.2H221.4z"/>
		<path fill="#CCCCCC" d="M230.4,269.3c0,0.5,0.1,1,0.2,1.4c0.1,0.5,0.3,0.8,0.6,1.2c0.3,0.3,0.6,0.6,1,0.8c0.4,0.2,0.9,0.3,1.4,0.3
			c0.7,0,1.3-0.2,1.8-0.6c0.5-0.4,0.8-0.9,1-1.6h1.2c-0.1,0.4-0.3,0.9-0.5,1.2s-0.5,0.7-0.8,1c-0.3,0.3-0.7,0.5-1.2,0.7
			c-0.4,0.2-1,0.2-1.5,0.2c-0.7,0-1.4-0.1-1.9-0.4c-0.5-0.3-1-0.6-1.3-1c-0.3-0.4-0.6-1-0.8-1.5c-0.2-0.6-0.3-1.2-0.3-1.9
			s0.1-1.3,0.3-1.9s0.5-1.1,0.8-1.6c0.4-0.5,0.8-0.8,1.3-1.1c0.5-0.3,1.1-0.4,1.8-0.4c1.3,0,2.3,0.4,3,1.3s1.1,2.2,1.1,3.8H230.4z
			 M236.5,268.4c0-0.5-0.1-0.9-0.2-1.3s-0.3-0.8-0.6-1c-0.2-0.3-0.6-0.5-0.9-0.7c-0.4-0.2-0.8-0.3-1.3-0.3c-0.5,0-0.9,0.1-1.3,0.3
			c-0.4,0.2-0.7,0.4-0.9,0.7c-0.3,0.3-0.5,0.6-0.6,1c-0.2,0.4-0.3,0.8-0.3,1.3H236.5z"/>
		<path fill="#CCCCCC" d="M240.8,273.8h-1.1v-9.3h1.1v1.3c0.4-0.5,0.9-0.8,1.3-1.1c0.5-0.3,1-0.4,1.7-0.4c0.6,0,1.1,0.1,1.6,0.3
			c0.5,0.2,0.9,0.5,1.2,1c0.2,0.3,0.4,0.7,0.4,1s0.1,0.7,0.1,1.1v6.1H246v-6.1c0-0.8-0.2-1.5-0.6-1.9c-0.4-0.4-1-0.6-1.9-0.6
			c-0.3,0-0.6,0.1-0.9,0.2c-0.3,0.1-0.5,0.2-0.7,0.4c-0.2,0.2-0.4,0.4-0.6,0.6c-0.2,0.2-0.3,0.4-0.4,0.7c-0.1,0.3-0.2,0.6-0.2,0.9
			c0,0.3,0,0.6,0,0.9V273.8z"/>
		<path fill="#CCCCCC" d="M253,273.8c-0.1,0-0.3,0.1-0.5,0.1s-0.5,0.1-0.7,0.1c-0.5,0-1-0.1-1.2-0.4c-0.3-0.3-0.4-0.8-0.4-1.4v-6.8
			h-1.3v-0.9h1.3v-2.6h1.1v2.6h1.7v0.9h-1.7v6.4c0,0.2,0,0.4,0,0.6s0,0.3,0.1,0.4c0.1,0.1,0.2,0.2,0.3,0.2s0.3,0.1,0.5,0.1
			c0.1,0,0.3,0,0.4,0s0.3-0.1,0.4-0.1V273.8z"/>
	</g>
	<g>
		<path fill="#CCCCCC" d="M203.7,169.2c0-0.6,0.1-1.2,0.3-1.7c0.2-0.5,0.5-0.9,0.8-1.3s0.8-0.6,1.3-0.8c0.5-0.2,1.1-0.3,1.7-0.3
			c0.6,0,1.2,0.1,1.7,0.3c0.5,0.2,0.9,0.4,1.2,0.7s0.6,0.7,0.7,1.1c0.2,0.4,0.3,0.9,0.3,1.4c0,0.6-0.1,1.1-0.3,1.5
			c-0.2,0.4-0.4,0.8-0.7,1.2c-0.3,0.3-0.7,0.6-1,0.9c-0.4,0.3-0.8,0.5-1.2,0.7c-0.4,0.2-0.8,0.5-1.2,0.7c-0.4,0.2-0.8,0.4-1.1,0.7
			c-0.2,0.2-0.4,0.3-0.6,0.5c-0.2,0.2-0.4,0.4-0.5,0.6c-0.2,0.2-0.3,0.4-0.4,0.7c-0.1,0.2-0.2,0.5-0.2,0.8h7.1v1h-8.3
			c0-0.6,0.1-1.2,0.2-1.7c0.1-0.5,0.4-1,0.8-1.4c0.4-0.5,0.9-0.9,1.4-1.3s0.9-0.7,1.4-1c0.5-0.3,0.9-0.5,1.3-0.8
			c0.4-0.2,0.8-0.5,1.1-0.8c0.3-0.3,0.6-0.6,0.7-0.9c0.2-0.3,0.3-0.8,0.3-1.3c0-0.4-0.1-0.8-0.2-1.1c-0.1-0.3-0.3-0.6-0.6-0.8
			c-0.3-0.2-0.5-0.4-0.9-0.5s-0.7-0.2-1.1-0.2c-0.4,0-0.8,0.1-1.1,0.3c-0.3,0.2-0.6,0.4-0.9,0.7c-0.2,0.3-0.4,0.6-0.6,1
			c-0.1,0.4-0.2,0.8-0.2,1.2H203.7z"/>
		<path fill="#CCCCCC" d="M217.4,165.1c0.6,0,1.2,0.1,1.6,0.3c0.5,0.2,0.8,0.4,1.2,0.8s0.6,0.7,0.8,1.1c0.2,0.4,0.4,0.9,0.5,1.4
			c0.1,0.5,0.2,1,0.2,1.5s0.1,1,0.1,1.5c0,0.8-0.1,1.6-0.2,2.4c-0.1,0.8-0.3,1.4-0.7,2s-0.8,1.1-1.3,1.4c-0.6,0.3-1.3,0.5-2.1,0.5
			s-1.6-0.2-2.2-0.5c-0.6-0.3-1-0.8-1.3-1.4c-0.3-0.6-0.5-1.3-0.7-2.1c-0.1-0.8-0.2-1.6-0.2-2.5c0-0.8,0.1-1.6,0.2-2.4
			c0.1-0.8,0.3-1.5,0.6-2.1c0.3-0.6,0.7-1.1,1.3-1.5C215.8,165.2,216.5,165.1,217.4,165.1z M220.6,171.5c0-0.7,0-1.4-0.1-2
			c-0.1-0.7-0.2-1.2-0.5-1.8c-0.2-0.5-0.5-0.9-1-1.2s-1-0.5-1.6-0.5c-0.6,0-1.2,0.2-1.6,0.5c-0.4,0.3-0.7,0.7-0.9,1.3
			c-0.2,0.5-0.4,1.1-0.5,1.8c-0.1,0.7-0.1,1.4-0.1,2.1c0,0.8,0.1,1.6,0.2,2.2s0.3,1.2,0.5,1.7c0.2,0.5,0.6,0.8,1,1.1
			c0.4,0.3,0.9,0.4,1.5,0.4c0.7,0,1.2-0.2,1.6-0.5c0.4-0.3,0.7-0.8,0.9-1.3c0.2-0.5,0.4-1.1,0.4-1.8
			C220.5,172.8,220.6,172.1,220.6,171.5z"/>
		<path fill="#CCCCCC" d="M227.4,165.1c0.6,0,1.2,0.1,1.6,0.3c0.5,0.2,0.8,0.4,1.2,0.8c0.3,0.3,0.6,0.7,0.8,1.1
			c0.2,0.4,0.4,0.9,0.5,1.4c0.1,0.5,0.2,1,0.2,1.5c0,0.5,0.1,1,0.1,1.5c0,0.8-0.1,1.6-0.2,2.4c-0.1,0.8-0.3,1.4-0.7,2
			c-0.3,0.6-0.8,1.1-1.3,1.4c-0.6,0.3-1.3,0.5-2.1,0.5s-1.6-0.2-2.2-0.5c-0.6-0.3-1-0.8-1.3-1.4c-0.3-0.6-0.5-1.3-0.7-2.1
			c-0.1-0.8-0.2-1.6-0.2-2.5c0-0.8,0.1-1.6,0.2-2.4c0.1-0.8,0.3-1.5,0.6-2.1c0.3-0.6,0.7-1.1,1.3-1.5
			C225.8,165.2,226.5,165.1,227.4,165.1z M230.6,171.5c0-0.7,0-1.4-0.1-2c-0.1-0.7-0.2-1.2-0.5-1.8s-0.5-0.9-1-1.2s-1-0.5-1.6-0.5
			c-0.6,0-1.2,0.2-1.6,0.5c-0.4,0.3-0.7,0.7-0.9,1.3c-0.2,0.5-0.4,1.1-0.5,1.8c-0.1,0.7-0.1,1.4-0.1,2.1c0,0.8,0.1,1.6,0.2,2.2
			c0.1,0.7,0.3,1.2,0.5,1.7c0.2,0.5,0.6,0.8,1,1.1c0.4,0.3,0.9,0.4,1.5,0.4c0.7,0,1.2-0.2,1.6-0.5c0.4-0.3,0.7-0.8,0.9-1.3
			c0.2-0.5,0.4-1.1,0.4-1.8C230.5,172.8,230.6,172.1,230.6,171.5z"/>
		<path fill="#CCCCCC" d="M236.4,170.7c0.5,0,1,0,1.5-0.1c0.4-0.1,0.8-0.2,1.1-0.4c0.3-0.2,0.6-0.4,0.7-0.7s0.3-0.7,0.3-1.2
			c0-0.4-0.1-0.7-0.2-1c-0.1-0.3-0.3-0.5-0.6-0.7c-0.2-0.2-0.5-0.3-0.9-0.4c-0.3-0.1-0.7-0.1-1-0.1c-0.4,0-0.8,0.1-1.1,0.2
			c-0.3,0.1-0.6,0.3-0.9,0.6c-0.2,0.2-0.4,0.5-0.6,0.9s-0.2,0.7-0.2,1.1h-1.2c0-0.6,0.1-1.1,0.3-1.6c0.2-0.5,0.5-0.9,0.9-1.3
			c0.4-0.4,0.8-0.6,1.3-0.7c0.5-0.1,1-0.2,1.5-0.2c0.5,0,1,0.1,1.4,0.2c0.4,0.1,0.8,0.3,1.1,0.6c0.3,0.3,0.6,0.6,0.8,1
			c0.2,0.4,0.3,0.9,0.3,1.4c0,0.7-0.1,1.2-0.4,1.7c-0.3,0.5-0.7,0.9-1.4,1.1c0.5,0.1,0.8,0.3,1.1,0.6s0.5,0.5,0.7,0.8
			c0.2,0.3,0.3,0.6,0.3,0.9c0.1,0.3,0.1,0.6,0.1,0.9c0,0.5-0.1,1-0.3,1.5c-0.2,0.5-0.4,0.9-0.8,1.2c-0.3,0.3-0.8,0.6-1.3,0.8
			c-0.5,0.2-1.1,0.3-1.7,0.3c-0.7,0-1.4-0.1-1.9-0.2c-0.5-0.1-1-0.4-1.3-0.7c-0.4-0.3-0.6-0.7-0.8-1.2c-0.2-0.5-0.3-1.1-0.4-1.9h1.2
			c0,1,0.3,1.7,0.9,2.2s1.3,0.7,2.3,0.7c0.5,0,0.9-0.1,1.3-0.2c0.4-0.2,0.7-0.4,1-0.6c0.3-0.3,0.5-0.6,0.6-0.9
			c0.2-0.3,0.2-0.7,0.2-1.1c0-0.5-0.1-0.9-0.4-1.3c-0.2-0.3-0.5-0.6-0.9-0.8c-0.4-0.2-0.8-0.3-1.3-0.4c-0.5-0.1-1-0.1-1.6,0V170.7z"
			/>
	</g>
	<line id="border_3_" fill="#B3B3B3" x1="222.4" y1="195.4" x2="222.4" y2="245.4"/>
	<g id="Inner">
		<path fill="#E6E6E6" stroke="#E6E6E6" stroke-width="6" stroke-linejoin="round" stroke-miterlimit="10" d="M108,221.9
			c0-57.4,42.3-104.9,97.4-113.2l-3-35.7c-73.5,9.8-130.2,72.7-130.2,148.8c0,28.2,7.8,54.5,21.2,77l29.7-20
			C113.5,262.1,108,242.6,108,221.9z"/>
		<path fill="#E6E6E6" stroke="#E6E6E6" stroke-width="6" stroke-linejoin="round" stroke-miterlimit="10" d="M222.4,336.3
			c-36.4,0-68.8-17-89.8-43.5l-29.7,20c27.4,36,70.7,59.2,119.5,59.2c57.5,0,107.4-32.3,132.6-79.7l-32.6-14.9
			C302.9,312.5,265.4,336.3,222.4,336.3z"/>
		<path fill="#E6E6E6" stroke="#E6E6E6" stroke-width="6" stroke-linejoin="round" stroke-miterlimit="10" d="M372.6,221.9
			c0-82.9-67.2-150.2-150.2-150.2c-1.1,0-2.1,0-3.2,0l3,35.7c0.1,0,0.2,0,0.2,0c63.2,0,114.4,51.2,114.4,114.4
			c0,14.2-2.6,27.7-7.3,40.3l32.6,14.9C368.9,260,372.6,241.4,372.6,221.9z"/>
	</g>
	<g opacity="0.8">
		<path fill="#B3B3B3" d="M95.6,191.7c0.6,0.1,1.2,0.1,1.6,0c0.9-0.3,1.5-1,1.8-2.2c0.1-0.5,0.2-1.1,0.2-1.5
			c-0.1-0.9-0.5-1.5-1.3-1.7c-0.6-0.2-1.1-0.1-1.4,0.2c-0.4,0.3-0.7,0.8-1.1,1.6l-0.7,1.4c-0.5,0.9-0.9,1.5-1.3,1.8
			c-0.6,0.6-1.4,0.7-2.3,0.5c-1-0.3-1.7-0.8-2.2-1.7c-0.5-0.8-0.5-1.9-0.2-3.1c0.3-1.1,0.8-2,1.6-2.7s1.8-0.8,3-0.5l-0.4,1.4
			c-0.6-0.1-1.1-0.1-1.5,0.1c-0.7,0.3-1.2,1-1.5,2c-0.2,0.8-0.2,1.5,0.1,2c0.3,0.5,0.7,0.8,1.1,0.9c0.5,0.1,1,0,1.4-0.3
			c0.2-0.2,0.6-0.8,1.1-1.8l0.8-1.4c0.4-0.7,0.7-1.2,1.2-1.5c0.7-0.5,1.5-0.7,2.5-0.4c1.2,0.3,2,1,2.3,2c0.3,1,0.3,2.1,0,3.2
			c-0.4,1.3-1,2.3-1.9,2.9c-0.9,0.6-2,0.7-3.1,0.4L95.6,191.7z"/>
		<path fill="#B3B3B3" d="M92.1,178.7l0.5-1.3l2.2,0.8l0.4-1.3l1.1,0.4l-0.4,1.3l5.2,1.8c0.3,0.1,0.5,0.1,0.7-0.1
			c0.1-0.1,0.2-0.2,0.3-0.5c0-0.1,0-0.1,0.1-0.2c0-0.1,0-0.2,0.1-0.3l1.1,0.4c0,0.2,0,0.3-0.1,0.5c0,0.2-0.1,0.4-0.2,0.5
			c-0.2,0.6-0.5,1-0.9,1.1c-0.4,0.1-0.8,0.1-1.4-0.1l-5.2-1.8l-0.4,1.1l-1.1-0.4l0.4-1.1L92.1,178.7z"/>
		<path fill="#B3B3B3" d="M101,171c0.1-0.3,0-0.6-0.1-0.8c-0.1-0.1-0.2-0.2-0.5-0.3c-0.4-0.2-0.8-0.2-1.2,0.1
			c-0.3,0.2-0.6,0.6-0.9,1.2c-0.3,0.7-0.3,1.2,0,1.7c0.1,0.2,0.4,0.5,0.8,0.7l-0.5,1.2c-0.9-0.4-1.5-1-1.6-1.8
			c-0.1-0.7,0-1.5,0.3-2.3c0.4-0.9,0.9-1.6,1.4-2c0.6-0.4,1.2-0.5,2-0.2l4.5,1.8c0.1,0.1,0.3,0.1,0.4,0.1s0.2-0.1,0.3-0.3
			c0-0.1,0-0.1,0.1-0.2c0-0.1,0-0.2,0.1-0.2l1,0.4c0,0.2-0.1,0.4-0.1,0.5c0,0.1-0.1,0.3-0.2,0.4c-0.2,0.4-0.5,0.7-0.9,0.8
			c-0.2,0-0.5,0-0.8-0.1c0.2,0.4,0.4,0.9,0.4,1.5s0,1.2-0.3,1.8c-0.3,0.7-0.8,1.2-1.4,1.5c-0.6,0.3-1.3,0.3-1.9,0
			c-0.7-0.3-1.2-0.8-1.4-1.4c-0.2-0.6-0.2-1.3,0-2.1L101,171z M103.4,175.1c0.3-0.2,0.6-0.5,0.7-0.8c0.2-0.5,0.3-0.9,0.2-1.5
			c-0.1-0.9-0.5-1.5-1.3-1.8l-1-0.4c0,0.2,0,0.4,0,0.7c0,0.3-0.1,0.5-0.2,0.8l-0.2,0.8c-0.1,0.5-0.2,0.9-0.1,1.2
			c0.1,0.5,0.3,0.8,0.8,1C102.7,175.3,103.1,175.3,103.4,175.1z"/>
		<path fill="#B3B3B3" d="M100.5,164l0.6-1.2l1.3,0.6c-0.2-0.2-0.4-0.6-0.6-1.2c-0.2-0.6-0.1-1.1,0.1-1.6c0,0,0-0.1,0.1-0.1
			s0.1-0.1,0.2-0.3l1.3,0.7c-0.1,0.1-0.1,0.1-0.1,0.2c0,0.1-0.1,0.1-0.1,0.2c-0.3,0.6-0.4,1.2-0.1,1.8c0.2,0.5,0.6,0.9,1.2,1.2
			l4.3,2.1l-0.6,1.3L100.5,164z"/>
		<path fill="#B3B3B3" d="M101.8,156.4l0.7-1.2l2,1.1l0.7-1.2l1,0.6l-0.7,1.2l4.8,2.7c0.3,0.1,0.5,0.2,0.7,0c0.1-0.1,0.2-0.2,0.3-0.4
			c0-0.1,0.1-0.1,0.1-0.2c0-0.1,0.1-0.2,0.1-0.3l1,0.5c0,0.2-0.1,0.3-0.2,0.5c-0.1,0.2-0.1,0.3-0.2,0.5c-0.3,0.6-0.7,0.9-1.1,0.9
			c-0.4,0-0.8-0.1-1.3-0.3l-4.8-2.7l-0.6,1l-1-0.6l0.6-1L101.8,156.4z"/>
		<path fill="#B3B3B3" d="M107.6,151.2l4.7,3c0.4,0.2,0.7,0.4,1,0.4c0.6,0.1,1-0.2,1.4-0.7c0.5-0.8,0.5-1.6-0.1-2.3
			c-0.3-0.4-0.8-0.8-1.5-1.3l-3.5-2.2l0.8-1.2l7,4.5l-0.7,1.1l-1-0.7c0.2,0.3,0.3,0.7,0.3,1c0.1,0.7-0.1,1.3-0.5,2
			c-0.6,1-1.4,1.4-2.3,1.4c-0.5,0-1-0.2-1.6-0.6l-4.8-3.1L107.6,151.2z"/>
		<path fill="#B3B3B3" d="M112.7,143.6l0.8-1.1l0.9,0.7c-0.1-0.5-0.2-0.9-0.1-1.3c0-0.6,0.3-1.1,0.6-1.6c0.6-0.8,1.4-1.2,2.3-1.3
			c1-0.1,2,0.3,3.1,1.1c1.5,1.1,2.2,2.3,2.2,3.5c0,0.8-0.2,1.5-0.7,2.1c-0.4,0.5-0.8,0.8-1.3,1c-0.3,0.1-0.7,0.2-1.1,0.2l3.4,2.6
			l-0.9,1.1L112.7,143.6z M121.1,143.3c-0.2-0.7-0.7-1.4-1.6-2c-0.5-0.4-1-0.7-1.5-0.8c-1-0.3-1.7,0-2.3,0.8
			c-0.6,0.8-0.6,1.6-0.1,2.5c0.3,0.5,0.8,0.9,1.4,1.4c0.5,0.4,1,0.6,1.5,0.8c0.9,0.2,1.7,0,2.2-0.8
			C121.2,144.6,121.3,144,121.1,143.3z"/>
	</g>
	<g opacity="0.8">
		<path fill="#B3B3B3" d="M302.5,113.8c0.3,0.5,0.4,1.1,0.4,1.6c0,0.5-0.2,1-0.4,1.5c-0.2,0.4-0.5,0.9-1,1.6l-4.9-3.6
			c-0.5,0.7-0.7,1.4-0.7,2s0.3,1.2,1,1.6c0.6,0.4,1.2,0.6,1.8,0.4c0.4-0.1,0.7-0.3,1-0.5l1.1,0.8c-0.2,0.2-0.5,0.4-0.9,0.6
			c-0.4,0.2-0.8,0.3-1.1,0.4c-0.6,0.1-1.2,0-1.8-0.2c-0.3-0.1-0.7-0.3-1-0.6c-0.8-0.6-1.3-1.4-1.5-2.5c-0.1-1,0.2-2.1,1-3.2
			c0.8-1.1,1.7-1.8,2.8-2s2.1,0,3,0.6C301.8,112.8,302.2,113.3,302.5,113.8z M301,116.8c0.3-0.5,0.5-1,0.5-1.4c0.1-0.8-0.2-1.4-1-1.9
			c-0.5-0.4-1.1-0.5-1.7-0.4c-0.6,0.1-1.2,0.5-1.6,1L301,116.8z"/>
		<path fill="#B3B3B3" d="M314.8,120.7c0.1,1.1-0.1,2-0.7,2.8l-1.1-1c0.4-0.7,0.5-1.3,0.4-2c-0.1-0.7-0.5-1.3-1.2-1.9
			c-0.8-0.7-1.8-1-2.8-0.9c-1,0.2-2.1,0.9-3.2,2.1c-0.9,1-1.4,2-1.4,3.1s0.3,2,1.3,2.8c0.9,0.7,1.8,1,2.8,0.7
			c0.5-0.1,1.1-0.5,1.7-0.9l1.1,1c-0.9,0.8-1.9,1.3-3,1.4c-1.3,0.2-2.6-0.3-3.7-1.3c-1-0.9-1.6-1.9-1.7-3.1c-0.2-1.6,0.4-3.2,1.9-4.9
			c1.1-1.3,2.3-2,3.7-2.3c1.5-0.3,2.9,0.2,4.2,1.3C314.1,118.6,314.7,119.6,314.8,120.7z"/>
		<path fill="#B3B3B3" d="M320.7,130.9c0,1-0.5,2-1.5,3c-1,0.9-2,1.5-3.1,1.6c-1.1,0.1-2.1-0.3-3.1-1.3c-0.8-0.8-1.1-1.7-1.1-2.8
			s0.6-2,1.5-2.9c1-1,2.1-1.5,3.1-1.6c1.1-0.1,2.1,0.3,2.9,1.2C320.3,128.9,320.7,129.8,320.7,130.9z M316.1,134.1
			c0.7-0.2,1.4-0.7,2-1.3c0.6-0.5,0.9-1.1,1.1-1.6c0.3-0.8,0.1-1.6-0.6-2.3c-0.6-0.6-1.3-0.8-2-0.6c-0.7,0.2-1.4,0.6-2.1,1.2
			c-0.6,0.6-1,1.3-1.2,2c-0.2,0.7,0.1,1.3,0.6,1.9C314.6,134.1,315.3,134.3,316.1,134.1z"/>
		<path fill="#B3B3B3" d="M324.5,133.7l0.9,1.1l-0.9,0.7c0.5,0,1,0.1,1.3,0.1c0.5,0.2,1,0.5,1.4,0.9c0.4,0.5,0.6,1,0.6,1.6
			c0,0.3-0.1,0.6-0.3,1c0.5,0,1,0,1.5,0.2s0.8,0.5,1.1,0.9c0.7,0.9,0.9,1.7,0.5,2.6c-0.2,0.4-0.6,0.9-1.2,1.4l-4.3,3.5l-0.9-1.1
			l4.5-3.6c0.4-0.3,0.6-0.7,0.6-1s-0.1-0.7-0.4-1c-0.3-0.4-0.8-0.7-1.3-0.8c-0.5-0.1-1.1,0.1-1.8,0.7l-3.8,3l-0.9-1.1l4.3-3.4
			c0.4-0.4,0.7-0.7,0.8-0.9c0.2-0.4,0.1-0.8-0.3-1.3c-0.3-0.4-0.8-0.7-1.4-0.7c-0.6-0.1-1.3,0.2-2.2,0.9l-3.5,2.8l-0.9-1.1
			L324.5,133.7z"/>
		<path fill="#B3B3B3" d="M333.8,145.7l0.7,1.2l-1,0.6c0.5,0.1,0.9,0.2,1.2,0.3c0.5,0.2,0.9,0.6,1.2,1.1c0.4,0.6,0.5,1.1,0.4,1.6
			c0,0.3-0.2,0.6-0.4,1c0.5,0,1,0.2,1.4,0.4c0.4,0.2,0.8,0.6,1,1c0.6,1,0.7,1.8,0.2,2.6c-0.3,0.4-0.7,0.8-1.3,1.2l-4.7,3l-0.8-1.2
			l4.9-3.1c0.5-0.3,0.7-0.6,0.7-1c0-0.3-0.1-0.7-0.3-1c-0.3-0.5-0.7-0.8-1.2-0.9c-0.5-0.1-1.2,0-1.9,0.5l-4.1,2.6l-0.8-1.2l4.6-2.9
			c0.5-0.3,0.8-0.6,0.9-0.8c0.2-0.4,0.2-0.8-0.1-1.3c-0.3-0.4-0.7-0.7-1.3-0.9s-1.3,0.1-2.2,0.6l-3.8,2.4l-0.7-1.2L333.8,145.7z"/>
		<path fill="#B3B3B3" d="M343.8,163.4c0,0.6-0.1,1.2-0.4,1.6c-0.3,0.4-0.6,0.8-1.1,1.2c-0.3,0.2-0.8,0.6-1.6,0.9l-2.7-5.4
			c-0.7,0.4-1.3,0.9-1.6,1.5c-0.3,0.6-0.3,1.2,0.1,1.9c0.3,0.7,0.8,1.1,1.4,1.2c0.4,0.1,0.7,0.1,1.1,0l0.6,1.2
			c-0.3,0.1-0.7,0.2-1.1,0.1s-0.8-0.1-1.1-0.2c-0.6-0.2-1.1-0.5-1.5-1c-0.2-0.3-0.4-0.6-0.6-1c-0.5-0.9-0.5-1.9-0.2-2.9
			s1.1-1.8,2.4-2.4c1.2-0.6,2.3-0.8,3.4-0.5c1.1,0.3,1.9,0.9,2.4,2C343.7,162.2,343.8,162.8,343.8,163.4z M341.1,165.4
			c0.5-0.3,0.9-0.7,1.1-1c0.4-0.6,0.4-1.4,0-2.2c-0.3-0.6-0.7-0.9-1.3-1.1s-1.2-0.1-1.9,0.2L341.1,165.4z"/>
		<path fill="#B3B3B3" d="M346.3,168.4l0.5,1.2l-1.3,0.6c0.3,0,0.7,0.1,1.3,0.3c0.5,0.2,0.9,0.6,1.1,1.1c0,0,0,0.1,0,0.1
			s0.1,0.2,0.1,0.3l-1.4,0.6c0-0.1,0-0.2-0.1-0.2c0-0.1,0-0.1-0.1-0.2c-0.3-0.7-0.7-1.1-1.3-1.2s-1.1-0.1-1.7,0.1l-4.4,1.9l-0.5-1.3
			L346.3,168.4z"/>
		<path fill="#B3B3B3" d="M350.4,180.3c-0.2,0.7-0.9,1.3-1.9,1.8l-0.5-1.3c0.5-0.2,0.8-0.6,1-1c0.2-0.4,0.2-0.9,0-1.5
			c-0.3-0.8-0.9-1.3-1.9-1.4c-0.6,0-1.3,0.1-2.1,0.3c-0.8,0.3-1.4,0.7-1.8,1.2c-0.4,0.5-0.5,1.1-0.3,1.9c0.2,0.6,0.5,0.9,1,1.1
			s1,0.3,1.6,0.2l0.5,1.3c-1.1,0.2-2,0.1-2.7-0.3s-1.2-1.1-1.5-2c-0.4-1-0.3-2,0.3-2.9s1.4-1.5,2.5-1.9c1.4-0.5,2.6-0.5,3.6-0.1
			c1,0.4,1.7,1.1,2.1,2.2C350.6,178.7,350.6,179.5,350.4,180.3z"/>
		<path fill="#B3B3B3" d="M353.2,189.2c-0.1,0.6-0.4,1.1-0.7,1.5c-0.3,0.4-0.8,0.7-1.3,0.9c-0.4,0.2-0.9,0.4-1.7,0.6l-1.6-5.9
			c-0.8,0.2-1.4,0.6-1.8,1.1c-0.4,0.5-0.5,1.1-0.3,1.9c0.2,0.7,0.6,1.2,1.2,1.5c0.3,0.2,0.7,0.2,1.1,0.2l0.4,1.3
			c-0.3,0-0.7,0-1.1-0.1s-0.8-0.2-1.1-0.4c-0.5-0.3-0.9-0.7-1.2-1.3c-0.2-0.3-0.3-0.7-0.4-1.1c-0.3-1-0.1-1.9,0.4-2.8
			s1.5-1.5,2.8-1.9c1.3-0.3,2.4-0.3,3.4,0.2c1,0.5,1.6,1.3,1.9,2.4C353.3,188.1,353.3,188.6,353.2,189.2z M350.2,190.6
			c0.6-0.2,1-0.5,1.3-0.8c0.6-0.5,0.7-1.2,0.5-2.1c-0.2-0.6-0.5-1.1-1.1-1.4c-0.6-0.3-1.2-0.4-1.9-0.2L350.2,190.6z"/>
	</g>
	<g opacity="0.8">
		<path fill="#B3B3B3" d="M194,346l7.8,1.6l-0.3,1.4l-6.3-1.3l-0.7,3.4l5.5,1.1l-0.3,1.3l-5.5-1.1l-1,5.1l-1.5-0.3L194,346z"/>
		<path fill="#B3B3B3" d="M204.1,351l1.3,0.2l-0.2,1.4c0.1-0.3,0.5-0.6,0.9-0.9s1-0.5,1.5-0.4c0,0,0.1,0,0.1,0c0.1,0,0.2,0,0.3,0.1
			l-0.2,1.5c-0.1,0-0.2,0-0.2-0.1c-0.1,0-0.1,0-0.2,0c-0.7-0.1-1.3,0.1-1.7,0.5c-0.4,0.4-0.7,0.9-0.8,1.5l-0.6,4.8l-1.4-0.2
			L204.1,351z"/>
		<path fill="#B3B3B3" d="M215.9,352.4c0.5,0.3,0.9,0.7,1.2,1.2c0.3,0.4,0.4,0.9,0.5,1.5c0.1,0.4,0.1,1,0,1.8l-6.1-0.4
			c0,0.9,0.1,1.5,0.5,2.1c0.3,0.5,0.9,0.8,1.7,0.9c0.7,0,1.3-0.2,1.8-0.6c0.3-0.3,0.5-0.6,0.6-0.9l1.4,0.1c-0.1,0.3-0.2,0.6-0.4,1
			s-0.5,0.7-0.7,0.9c-0.4,0.4-1,0.6-1.6,0.7c-0.3,0.1-0.7,0.1-1.1,0.1c-1-0.1-1.9-0.5-2.6-1.3c-0.7-0.8-1-1.9-0.9-3.2
			c0.1-1.3,0.5-2.4,1.3-3.2c0.8-0.8,1.7-1.2,2.9-1.1C214.8,351.9,215.4,352.1,215.9,352.4z M216.2,355.7c0-0.6-0.1-1.1-0.3-1.5
			c-0.3-0.7-1-1.1-1.8-1.1c-0.6,0-1.2,0.2-1.7,0.6c-0.5,0.4-0.7,1-0.8,1.7L216.2,355.7z"/>
		<path fill="#B3B3B3" d="M226.2,352.5c0.6,0.3,1,0.6,1.3,1.1c0.3,0.4,0.5,0.9,0.6,1.5c0.1,0.4,0.1,1,0.2,1.8l-6.1,0.1
			c0,0.9,0.2,1.5,0.6,2c0.4,0.5,1,0.8,1.7,0.7c0.7,0,1.3-0.3,1.7-0.8c0.2-0.3,0.4-0.6,0.5-1l1.4,0c0,0.3-0.1,0.7-0.3,1
			s-0.4,0.7-0.7,0.9c-0.4,0.4-0.9,0.7-1.6,0.9c-0.3,0.1-0.7,0.1-1.1,0.1c-1,0-1.9-0.3-2.7-1.1c-0.7-0.7-1.1-1.8-1.1-3.2
			c0-1.3,0.3-2.4,1-3.3c0.7-0.8,1.7-1.3,2.8-1.3C225.1,352.1,225.6,352.2,226.2,352.5z M226.8,355.8c-0.1-0.6-0.2-1.1-0.4-1.5
			c-0.4-0.7-1-1-1.9-1c-0.6,0-1.2,0.3-1.6,0.7s-0.6,1.1-0.7,1.8L226.8,355.8z"/>
		<path fill="#B3B3B3" d="M231.2,348.9l1.4-0.1l0.8,11.4l-1.4,0.1L231.2,348.9z"/>
		<path fill="#B3B3B3" d="M241.3,354.3c0.3-0.1,0.5-0.2,0.6-0.5c0-0.1,0.1-0.3,0-0.5c-0.1-0.5-0.3-0.8-0.6-1s-0.9-0.2-1.5-0.1
			c-0.7,0.1-1.2,0.4-1.5,0.8c-0.1,0.2-0.2,0.6-0.2,1l-1.3,0.2c-0.1-1,0.1-1.8,0.7-2.3c0.6-0.5,1.3-0.8,2.1-0.9c1-0.1,1.8,0,2.4,0.2
			c0.7,0.3,1,0.8,1.1,1.6l0.6,4.8c0,0.1,0.1,0.3,0.1,0.3c0.1,0.1,0.2,0.1,0.4,0.1c0.1,0,0.1,0,0.2,0c0.1,0,0.2,0,0.2-0.1l0.1,1
			c-0.2,0.1-0.4,0.2-0.5,0.2s-0.3,0.1-0.5,0.1c-0.5,0.1-0.9-0.1-1.1-0.4c-0.1-0.2-0.3-0.4-0.3-0.7c-0.2,0.4-0.6,0.8-1.1,1.1
			c-0.5,0.3-1.1,0.6-1.7,0.6c-0.8,0.1-1.4,0-2-0.4s-0.9-1-1-1.7c-0.1-0.8,0.1-1.4,0.5-1.9c0.4-0.5,1-0.8,1.8-1L241.3,354.3z
			 M238.8,358.4c0.3,0.2,0.7,0.3,1.1,0.2c0.5-0.1,1-0.2,1.4-0.5c0.7-0.5,1-1.1,0.9-2l-0.1-1.1c-0.2,0.1-0.4,0.3-0.6,0.4
			s-0.5,0.2-0.8,0.3l-0.8,0.2c-0.5,0.1-0.9,0.3-1.1,0.5c-0.4,0.3-0.6,0.7-0.5,1.2C238.3,358,238.5,358.3,238.8,358.4z"/>
		<path fill="#B3B3B3" d="M246.6,350.1l1.3-0.3l0.2,1.2c0.3-0.6,0.6-1,1-1.3c0.4-0.3,0.8-0.5,1.4-0.6c1.2-0.2,2,0,2.6,0.7
			c0.3,0.4,0.6,1,0.7,1.8l1.1,5.2l-1.4,0.3l-1.1-5.2c-0.1-0.5-0.3-0.9-0.5-1.2c-0.4-0.5-0.9-0.6-1.5-0.5c-0.3,0.1-0.6,0.2-0.8,0.3
			c-0.4,0.2-0.6,0.5-0.8,0.9c-0.2,0.3-0.3,0.6-0.3,0.9c0,0.3,0,0.7,0.2,1.3l0.9,4.3l-1.4,0.3L246.6,350.1z"/>
		<path fill="#B3B3B3" d="M262,346.7c0.7,0.3,1.3,0.9,1.7,2l-1.3,0.4c-0.2-0.5-0.5-0.8-0.9-1.1s-0.9-0.3-1.5-0.1
			c-0.9,0.3-1.3,0.9-1.5,1.8c-0.1,0.6,0,1.3,0.2,2.1c0.2,0.8,0.6,1.4,1.1,1.9c0.5,0.4,1.1,0.6,1.8,0.3c0.6-0.2,1-0.5,1.2-0.9
			c0.2-0.4,0.3-1,0.3-1.6l1.3-0.4c0.2,1.1,0,2-0.4,2.7c-0.5,0.7-1.1,1.1-2.1,1.4c-1,0.3-2,0.2-2.8-0.4s-1.4-1.4-1.8-2.6
			c-0.4-1.4-0.4-2.6,0.1-3.6c0.5-1,1.2-1.6,2.3-2C260.5,346.4,261.3,346.4,262,346.7z"/>
		<path fill="#B3B3B3" d="M270.5,343.4c0.6,0.1,1.1,0.2,1.6,0.6c0.4,0.3,0.8,0.7,1,1.2c0.2,0.3,0.5,0.9,0.8,1.7l-5.7,2.2
			c0.3,0.8,0.8,1.4,1.3,1.7s1.2,0.4,1.9,0.1c0.7-0.3,1.1-0.7,1.4-1.3c0.1-0.3,0.2-0.7,0.1-1.1l1.3-0.5c0.1,0.3,0.1,0.7,0,1.1
			c-0.1,0.4-0.2,0.8-0.3,1.1c-0.2,0.5-0.6,1-1.2,1.3c-0.3,0.2-0.6,0.4-1,0.5c-1,0.4-1.9,0.3-2.9-0.1c-0.9-0.5-1.7-1.3-2.1-2.6
			c-0.5-1.3-0.5-2.4-0.2-3.4c0.4-1,1.1-1.8,2.2-2.2C269.3,343.4,269.8,343.3,270.5,343.4z M272.1,346.3c-0.3-0.5-0.6-1-0.9-1.2
			c-0.6-0.5-1.3-0.6-2.2-0.3c-0.6,0.2-1,0.6-1.3,1.2c-0.2,0.6-0.2,1.2,0,1.9L272.1,346.3z"/>
	</g>
	<g id="Outer_1_">
		<path fill="#B3B3B3" stroke="#B3B3B3" stroke-width="6" stroke-linejoin="round" stroke-miterlimit="10" d="M200.4,48.6l-3.6-43.7
			C124.5,13.5,63,57.3,29.9,118.7l39.4,19.2C95.7,90,143.8,55.8,200.4,48.6z"/>
		<path fill="#B3B3B3" stroke="#B3B3B3" stroke-width="6" stroke-linejoin="round" stroke-miterlimit="10" d="M47.7,222.2
			c0-24.6,5.1-47.9,14.2-69.1l-39.3-19.2c-11.9,27-18.6,56.9-18.6,88.4c0,42.2,12,81.7,32.7,115.1L73,312.8
			C56.9,286.3,47.7,255.3,47.7,222.2z"/>
		<path fill="#B3B3B3" stroke="#B3B3B3" stroke-width="6" stroke-linejoin="round" stroke-miterlimit="10" d="M82.4,326.7l-36.3,24.5
			c27.2,37.2,65.8,65.4,110.7,79.6l11.5-42.3C133.6,377.2,103.7,355.3,82.4,326.7z"/>
		<path fill="#B3B3B3" stroke="#B3B3B3" stroke-width="6" stroke-linejoin="round" stroke-miterlimit="10" d="M307.8,423.7L289.4,384
			c-20.6,8.5-43.1,13.2-66.7,13.2c-13.1,0-25.9-1.5-38.1-4.2L173,435.2c16,3.7,32.6,5.7,49.7,5.7
			C252.9,440.9,281.6,434.8,307.8,423.7z"/>
		<path fill="#B3B3B3" stroke="#B3B3B3" stroke-width="6" stroke-linejoin="round" stroke-miterlimit="10" d="M417.8,321.1L378,302.9
			c-16.4,31.5-42,57.3-73.3,73.9l18.4,39.7C363.8,395.5,397,362,417.8,321.1z"/>
		<path fill="#B3B3B3" stroke="#B3B3B3" stroke-width="6" stroke-linejoin="round" stroke-miterlimit="10" d="M406.7,103.9l-35.9,25
			c17,27,26.9,59,26.9,93.3c0,23.1-4.5,45.2-12.7,65.4l39.8,18.3c10.7-25.8,16.6-54,16.6-83.7C441.4,178.6,428.7,138,406.7,103.9z"/>
		<path fill="#B3B3B3" stroke="#B3B3B3" stroke-width="6" stroke-linejoin="round" stroke-miterlimit="10" d="M222.7,3.4
			c-3.1,0-6.1,0.1-9.1,0.2l3.6,43.6c1.8-0.1,3.7-0.1,5.5-0.1c56.3,0,106.4,26.6,138.4,67.9l35.9-25C357.1,37.4,293.9,3.4,222.7,3.4z"
			/>
	</g>
	<g opacity="0.8">
		<g>
			<path fill="#FFFFFF" d="M75.6,98.5c-1.1,0-2-0.4-2.9-1.2l1.1-1.2c0.7,0.5,1.2,0.8,1.6,0.8c0.8,0.1,1.5-0.2,2.2-1
				c0.5-0.6,0.8-1.3,0.8-1.9c0-0.7-0.3-1.2-0.8-1.7c-0.7-0.6-1.3-0.8-1.9-0.6s-1.2,0.6-1.8,1.3c-0.1,0.1-0.1,0.2-0.2,0.2
				c-0.1,0.1-0.1,0.2-0.2,0.3l-1.1-0.9c0.1-0.1,0.2-0.2,0.3-0.3c0.1-0.1,0.2-0.2,0.2-0.3c0.4-0.4,0.6-0.9,0.8-1.3
				c0.2-0.7,0-1.4-0.7-1.9c-0.5-0.4-1-0.6-1.5-0.5c-0.5,0.1-1,0.4-1.4,0.8c-0.7,0.8-0.9,1.6-0.6,2.3c0.1,0.4,0.5,0.9,1,1.4l-1,1.2
				c-0.7-0.6-1.2-1.3-1.4-2c-0.5-1.3-0.1-2.5,0.9-3.7c0.8-1,1.7-1.5,2.6-1.7c0.9-0.2,1.7,0.1,2.6,0.8c0.6,0.5,0.9,1.1,1,1.7
				c0.1,0.4,0,0.8-0.1,1.2c0.6-0.4,1.2-0.5,1.8-0.5s1.2,0.3,1.8,0.8c0.9,0.8,1.4,1.7,1.4,2.8c0,1.1-0.4,2.2-1.4,3.3
				C77.7,98,76.7,98.5,75.6,98.5z"/>
			<path fill="#FFFFFF" d="M76.4,84.8l1-1.1l1.2,1.1c-0.1-0.3-0.2-0.8-0.2-1.5c0-0.7,0.2-1.2,0.7-1.7c0,0,0.1-0.1,0.1-0.1
				c0.1,0,0.1-0.1,0.3-0.2l1.2,1.2c-0.1,0.1-0.1,0.1-0.2,0.2c-0.1,0.1-0.1,0.1-0.2,0.2c-0.6,0.6-0.8,1.2-0.7,1.9
				c0.1,0.7,0.4,1.2,0.8,1.7l3.9,3.7l-1.1,1.1L76.4,84.8z"/>
			<path fill="#FFFFFF" d="M85.2,76.5c0.3-0.1,0.8-0.1,1.3,0L83.3,73l1.1-1l8.9,9.4l-1,1l-0.9-0.9c0.1,0.7,0.1,1.3-0.1,1.8
				s-0.5,1-1,1.5c-0.8,0.7-1.7,1-2.9,0.9c-1.2-0.1-2.2-0.7-3.3-1.8c-0.9-1-1.5-2.1-1.7-3.3s0.2-2.3,1.1-3.2
				C84.1,76.9,84.6,76.6,85.2,76.5z M87.5,84c0.8,0.2,1.5,0,2.2-0.7c0.5-0.5,0.7-1.1,0.6-1.9S89.8,79.8,89,79
				c-0.8-0.9-1.6-1.3-2.3-1.4c-0.7-0.1-1.4,0.1-1.9,0.6c-0.6,0.5-0.8,1.2-0.8,2c0.1,0.8,0.5,1.6,1.3,2.5C86,83.3,86.7,83.8,87.5,84z"
				/>
			<path fill="#FFFFFF" d="M91.9,65.5l1.4-1.1l7.1,8.9l5.1-4.1l1,1.2l-6.4,5.2L91.9,65.5z"/>
			<path fill="#FFFFFF" d="M107.4,58.3c0.7-0.1,1.3-0.1,1.9,0.2c0.5,0.2,1,0.5,1.5,1c0.3,0.3,0.8,0.8,1.3,1.6l-5.6,4
				c0.6,0.8,1.2,1.3,1.9,1.5s1.4,0.1,2.1-0.4c0.7-0.5,1-1.1,1.1-1.8c0-0.4,0-0.8-0.2-1.2l1.3-0.9c0.2,0.3,0.3,0.7,0.3,1.2
				c0.1,0.5,0.1,0.9,0,1.3c-0.1,0.7-0.4,1.3-0.9,1.8c-0.3,0.3-0.6,0.6-1,0.9c-0.9,0.7-2,0.9-3.2,0.7c-1.2-0.2-2.2-1-3.1-2.2
				c-0.9-1.2-1.3-2.5-1.2-3.7c0.1-1.2,0.7-2.2,1.8-3C106.1,58.7,106.8,58.4,107.4,58.3z M110.1,61c-0.5-0.5-0.9-0.9-1.3-1.1
				c-0.8-0.4-1.6-0.3-2.4,0.3c-0.6,0.4-0.9,1-1,1.7c-0.1,0.7,0.1,1.4,0.5,2.1L110.1,61z"/>
			<path fill="#FFFFFF" d="M117.9,55.5c0.3-0.2,0.4-0.5,0.4-0.8c0-0.2-0.1-0.3-0.2-0.6c-0.3-0.5-0.7-0.7-1.1-0.7
				c-0.5,0-1,0.2-1.6,0.6c-0.7,0.4-1.1,0.9-1.1,1.5c0,0.3,0.1,0.7,0.3,1.1l-1.2,0.8c-0.6-1-0.7-1.9-0.4-2.7c0.4-0.8,1-1.4,1.8-1.9
				c0.9-0.6,1.8-0.9,2.6-0.9c0.8,0,1.4,0.4,1.9,1.1l2.9,4.6c0.1,0.1,0.2,0.2,0.3,0.3c0.1,0,0.3,0,0.4-0.1c0.1,0,0.1-0.1,0.2-0.1
				s0.1-0.1,0.2-0.2l0.6,1c-0.2,0.2-0.3,0.3-0.4,0.4c-0.1,0.1-0.2,0.2-0.4,0.3c-0.5,0.3-0.9,0.3-1.3,0.1c-0.2-0.1-0.5-0.3-0.7-0.6
				c0,0.5-0.2,1.1-0.6,1.7s-0.8,1.1-1.4,1.5c-0.7,0.5-1.5,0.6-2.2,0.5c-0.8-0.1-1.3-0.6-1.8-1.2c-0.5-0.7-0.6-1.5-0.4-2.1
				s0.6-1.3,1.3-1.9L117.9,55.5z M117.4,60.9c0.4,0,0.8-0.1,1.2-0.3c0.5-0.3,0.9-0.7,1.2-1.2c0.5-0.8,0.5-1.7,0-2.5l-0.7-1.1
				c-0.1,0.2-0.3,0.4-0.5,0.7c-0.2,0.2-0.4,0.4-0.7,0.6l-0.7,0.6c-0.4,0.4-0.7,0.7-0.9,1c-0.3,0.5-0.2,1,0.1,1.5
				C116.6,60.7,117,60.9,117.4,60.9z"/>
			<path fill="#FFFFFF" d="M121.1,49.2l1.3-0.7l0.8,1.4c-0.1-0.3,0-0.8,0.2-1.5s0.6-1.1,1.1-1.4c0,0,0.1,0,0.1-0.1
				c0.1,0,0.2-0.1,0.3-0.1l0.8,1.4c-0.1,0-0.2,0.1-0.2,0.1c-0.1,0-0.1,0.1-0.2,0.1c-0.7,0.4-1.1,0.9-1.2,1.6c-0.1,0.7,0,1.3,0.3,1.9
				l2.7,4.7l-1.4,0.8L121.1,49.2z"/>
			<path fill="#FFFFFF" d="M127.1,45.8l1.3-0.7l0.6,1.2c0.1-0.7,0.4-1.3,0.7-1.7c0.3-0.4,0.8-0.8,1.3-1.1c1.2-0.6,2.2-0.6,3,0
				c0.5,0.3,0.9,0.9,1.3,1.8l2.8,5.4l-1.4,0.7l-2.7-5.3c-0.3-0.5-0.6-0.9-0.9-1.1c-0.5-0.4-1.1-0.4-1.8-0.1c-0.3,0.2-0.6,0.3-0.8,0.5
				c-0.3,0.3-0.5,0.7-0.7,1.2c-0.1,0.4-0.1,0.8,0,1.1c0.1,0.3,0.3,0.8,0.5,1.3l2.3,4.4l-1.4,0.7L127.1,45.8z"/>
			<path fill="#FFFFFF" d="M135.5,37.7L137,37l0.8,1.6l-1.5,0.7L135.5,37.7z M137,40.9l1.5-0.7l4,8.5l-1.5,0.7L137,40.9z"/>
			<path fill="#FFFFFF" d="M141.5,38.7l1.4-0.6l0.5,1.2c0.2-0.7,0.5-1.2,0.8-1.6c0.4-0.4,0.8-0.7,1.4-1c1.2-0.5,2.2-0.4,3,0.2
				c0.4,0.4,0.8,1,1.2,1.9l2.3,5.6l-1.5,0.6l-2.3-5.5c-0.2-0.5-0.5-0.9-0.8-1.2c-0.5-0.4-1.1-0.5-1.8-0.2c-0.3,0.1-0.6,0.3-0.8,0.5
				c-0.4,0.3-0.6,0.7-0.8,1.2c-0.1,0.4-0.2,0.8-0.1,1.1s0.2,0.8,0.4,1.4l1.9,4.5l-1.5,0.6L141.5,38.7z"/>
			<path fill="#FFFFFF" d="M156.9,33.2c0.3,0.1,0.7,0.3,1.2,0.5l-0.4-1.1l1.4-0.5l2.9,8.1c0.4,1.1,0.5,2.1,0.4,2.8
				c-0.2,1.4-1.1,2.4-2.9,3c-1,0.3-1.8,0.4-2.6,0.2c-0.8-0.2-1.4-0.7-1.8-1.6l1.5-0.5c0.2,0.4,0.5,0.6,0.8,0.8c0.5,0.2,1,0.2,1.8-0.1
				c1.1-0.4,1.7-1.1,1.8-2c0-0.5-0.2-1.4-0.6-2.6c-0.1,0.6-0.4,1-0.7,1.4s-0.9,0.7-1.5,0.9c-1,0.3-1.9,0.3-2.9-0.1s-1.7-1.4-2.3-3
				c-0.5-1.5-0.6-2.8-0.1-3.9c0.4-1.1,1.2-1.8,2.2-2.2C155.6,33,156.2,33,156.9,33.2z M157.6,34.7c-0.6-0.4-1.3-0.4-2-0.2
				c-1,0.4-1.6,1.1-1.6,2.2c0,0.6,0.1,1.3,0.4,2.2c0.4,1,0.8,1.7,1.4,2.1c0.6,0.4,1.2,0.4,1.9,0.2c1.1-0.4,1.6-1.1,1.7-2.2
				c0-0.6-0.1-1.3-0.3-2C158.8,35.8,158.2,35.1,157.6,34.7z"/>
		</g>
	</g>
	<g opacity="0.8">
		<g>
			<path fill="#FFFFFF" d="M22.5,264.2l-0.9-5.1c-0.3-1.7,0.1-3.2,1.1-4.3c1-1.1,2.3-1.7,4.1-2.1c1.3-0.2,2.6-0.2,3.8,0.1
				c2.1,0.5,3.3,1.9,3.7,4l0.9,5.1L22.5,264.2z M32.9,257.5c-0.1-0.6-0.2-1-0.4-1.4c-0.3-0.6-0.9-1.1-1.6-1.4
				c-0.6-0.2-1.3-0.4-2.1-0.4c-0.5,0-0.9,0-1.4,0.1c-1.6,0.3-2.7,0.8-3.5,1.6c-0.8,0.8-1,1.8-0.8,3.2l0.5,3l9.8-1.8L32.9,257.5z"/>
			<path fill="#FFFFFF" d="M23.8,243.1c0.7-0.9,1.8-1.5,3.4-1.7c1.5-0.2,2.8,0,3.9,0.7c1.1,0.6,1.7,1.7,1.9,3.2
				c0.2,1.3-0.2,2.3-0.9,3.2c-0.8,0.9-1.9,1.4-3.4,1.5c-1.6,0.2-2.9-0.1-3.9-0.7c-1-0.7-1.6-1.7-1.8-3
				C22.8,245.1,23.1,244.1,23.8,243.1z M30.1,243.4c-0.8-0.3-1.7-0.4-2.7-0.3c-0.9,0.1-1.6,0.3-2.1,0.7c-0.8,0.5-1.1,1.3-1,2.4
				c0.1,0.9,0.6,1.6,1.3,1.9c0.8,0.3,1.7,0.5,2.7,0.3c1-0.1,1.8-0.4,2.4-0.9c0.6-0.5,0.9-1.2,0.8-2.2
				C31.4,244.3,30.9,243.7,30.1,243.4z"/>
			<path fill="#FFFFFF" d="M23,232.1c0.8-0.9,1.9-1.4,3.5-1.5c1.5-0.1,2.8,0.2,3.8,0.9s1.6,1.8,1.7,3.3c0.1,1.3-0.3,2.3-1.1,3.1
				c-0.8,0.8-2,1.3-3.4,1.4c-1.6,0.1-2.9-0.2-3.8-1c-1-0.7-1.5-1.8-1.6-3.1C21.9,234.1,22.2,233,23,232.1z M29.3,232.7
				c-0.8-0.3-1.7-0.5-2.7-0.4c-0.9,0.1-1.6,0.2-2.1,0.6c-0.8,0.5-1.2,1.3-1.2,2.4c0.1,1,0.5,1.6,1.2,2s1.7,0.5,2.7,0.5
				c1-0.1,1.8-0.3,2.5-0.8s0.9-1.2,0.9-2.1C30.5,233.8,30.1,233.1,29.3,232.7z"/>
			<path fill="#FFFFFF" d="M21.9,228l0-1.5l1.6,0c-0.3-0.1-0.7-0.4-1.2-0.9s-0.7-1-0.7-1.6c0,0,0-0.1,0-0.1c0-0.1,0-0.2,0-0.4l1.7,0
				c0,0.1,0,0.2,0,0.3s0,0.2,0,0.3c0,0.8,0.3,1.4,0.8,1.8c0.5,0.4,1.1,0.6,1.8,0.6l5.4-0.1l0,1.6L21.9,228z"/>
			<path fill="#FFFFFF" d="M30.4,215.2c-0.9,0.6-1.9,0.9-3,0.8l0.1-1.6c0.8,0,1.4-0.1,1.8-0.4c0.7-0.4,1.1-1.1,1.1-2.2
				c0-0.8-0.1-1.5-0.6-2c-0.4-0.5-1-0.8-1.7-0.8c-0.9,0-1.5,0.2-1.9,0.7c-0.4,0.5-0.6,1.2-0.6,2.2c0,0.1,0,0.2,0,0.3s0,0.2,0,0.3
				l-1.4-0.1c0-0.2,0-0.3,0.1-0.4c0-0.1,0-0.2,0-0.4c0-0.6,0-1.1-0.2-1.5c-0.3-0.7-0.9-1.1-1.7-1.1c-0.6,0-1.1,0.2-1.5,0.6
				c-0.4,0.4-0.6,0.9-0.6,1.5c-0.1,1.1,0.3,1.8,0.9,2.2c0.4,0.2,0.9,0.4,1.6,0.5l-0.1,1.6c-0.9-0.1-1.7-0.3-2.4-0.7
				c-1.1-0.7-1.7-1.9-1.6-3.5c0.1-1.3,0.4-2.3,1-2.9c0.6-0.7,1.5-1,2.5-0.9c0.8,0,1.4,0.3,1.8,0.7c0.3,0.3,0.5,0.6,0.6,1
				c0.2-0.7,0.6-1.1,1.1-1.5s1.2-0.5,1.9-0.5c1.2,0.1,2.2,0.5,2.9,1.3c0.7,0.8,1,2,0.9,3.4C31.8,213.5,31.3,214.5,30.4,215.2z"/>
		</g>
	</g>
	<g opacity="0.8">
		<g>
			<path fill="#FFFFFF" d="M82.7,353l6.3,6.4l-1.1,1.1l-5-5.2l-2.8,2.7l4.4,4.5l-1.1,1.1l-4.4-4.5l-4.2,4.1l-1.2-1.3L82.7,353z"/>
			<path fill="#FFFFFF" d="M92.6,368.8c0.1,1.2-0.4,2.3-1.5,3.5c-1,1.1-2.1,1.8-3.3,2c-1.2,0.2-2.4-0.2-3.5-1.2
				c-0.9-0.9-1.4-1.9-1.4-3s0.5-2.3,1.5-3.4c1.1-1.2,2.2-1.8,3.4-2c1.2-0.2,2.3,0.2,3.3,1.1C92,366.7,92.5,367.7,92.6,368.8z
				 M87.6,372.8c0.8-0.3,1.6-0.8,2.2-1.6c0.6-0.6,1-1.3,1.1-1.9c0.3-0.9,0-1.8-0.8-2.5c-0.7-0.6-1.5-0.8-2.3-0.6s-1.6,0.8-2.3,1.5
				c-0.7,0.7-1.1,1.5-1.2,2.3s0.2,1.5,0.9,2.1C86,372.9,86.8,373.1,87.6,372.8z"/>
			<path fill="#FFFFFF" d="M87.5,378.8c0.6,0.4,0.9,0.7,1.1,0.7c0.2,0,0.4-0.2,0.8-0.6l6.8-8.1l1.2,1l-6.9,8.2
				c-0.4,0.5-0.9,0.8-1.2,1c-0.7,0.2-1.4,0-2.2-0.7c-0.1,0-0.1-0.1-0.2-0.2s-0.2-0.2-0.3-0.3L87.5,378.8z M98.5,370.5l-1.2-1l1.2-1.4
				l1.2,1L98.5,370.5z"/>
			<path fill="#FFFFFF" d="M104.7,378.7c0.2,1.1-0.2,2.3-1.2,3.6c-0.9,1.2-2,2-3.2,2.3c-1.2,0.3-2.4,0-3.6-0.9
				c-1-0.8-1.6-1.8-1.6-2.9c-0.1-1.2,0.4-2.3,1.3-3.5c1-1.2,2.1-2,3.3-2.2c1.2-0.2,2.3,0,3.4,0.9C104,376.6,104.5,377.6,104.7,378.7z
				 M100.1,383.1c0.8-0.4,1.5-1,2.1-1.7c0.5-0.7,0.9-1.3,1-1.9c0.2-1-0.1-1.8-1-2.4c-0.8-0.6-1.5-0.7-2.3-0.4
				c-0.8,0.3-1.5,0.9-2.2,1.7c-0.6,0.8-1,1.6-1,2.4c-0.1,0.8,0.3,1.5,1,2.1C98.5,383.3,99.3,383.5,100.1,383.1z"/>
			<path fill="#FFFFFF" d="M109,380.8l-2.7,7.1l5.7-5.1l1.5,1l-2.6,7.1l5.7-5l1.3,0.9l-7.6,6.2l-1.4-0.9l2.5-7.1l-5.6,5l-1.4-0.9
				l3.1-9.3L109,380.8z"/>
			<path fill="#FFFFFF" d="M122.2,393.7c0.3,0.1,0.6,0.1,0.9,0c0.1-0.1,0.3-0.2,0.4-0.5c0.3-0.5,0.3-0.9,0.1-1.3s-0.6-0.8-1.2-1.2
				c-0.7-0.4-1.3-0.5-1.9-0.3c-0.3,0.1-0.6,0.4-0.9,0.8l-1.3-0.8c0.6-1,1.4-1.5,2.2-1.5s1.7,0.2,2.5,0.7c1,0.6,1.6,1.2,2,1.9
				c0.4,0.7,0.3,1.5-0.1,2.2l-2.8,4.7c-0.1,0.1-0.1,0.3-0.1,0.4c0,0.1,0.1,0.2,0.3,0.3c0.1,0,0.1,0.1,0.2,0.1c0.1,0,0.2,0.1,0.3,0.1
				l-0.6,1c-0.2-0.1-0.4-0.1-0.6-0.2s-0.3-0.1-0.5-0.2c-0.5-0.3-0.7-0.6-0.7-1.1c0-0.2,0.1-0.5,0.2-0.9c-0.5,0.2-1.1,0.3-1.8,0.2
				s-1.3-0.2-2-0.6c-0.8-0.4-1.2-1-1.4-1.8c-0.2-0.7-0.1-1.4,0.3-2.1c0.4-0.8,1-1.2,1.7-1.3c0.7-0.1,1.5,0,2.3,0.3L122.2,393.7z
				 M117.2,395.7c0.2,0.4,0.4,0.7,0.8,0.9c0.5,0.3,1,0.4,1.6,0.5c1,0.1,1.7-0.3,2.2-1.1l0.6-1.1c-0.2,0-0.5,0-0.8-0.1
				c-0.3-0.1-0.6-0.2-0.9-0.3l-0.9-0.4c-0.5-0.2-1-0.3-1.3-0.4c-0.6,0-1,0.2-1.3,0.8C117.1,394.9,117,395.3,117.2,395.7z"/>
			<path fill="#FFFFFF" d="M129.1,393.4l1.3,0.7l-0.8,1.4c0.3-0.2,0.7-0.4,1.3-0.6s1.2-0.1,1.8,0.2c0,0,0.1,0,0.1,0.1
				c0.1,0,0.2,0.1,0.3,0.2l-0.8,1.5c-0.1-0.1-0.1-0.1-0.2-0.2c-0.1,0-0.1-0.1-0.2-0.1c-0.7-0.4-1.4-0.4-2-0.2
				c-0.6,0.2-1.1,0.7-1.4,1.3l-2.6,4.8l-1.4-0.7L129.1,393.4z"/>
			<path fill="#FFFFFF" d="M140.2,399.3c0.4,0.6,0.7,1.1,0.8,1.7c0.1,0.6,0,1.2-0.1,1.8c-0.1,0.4-0.4,1.1-0.8,1.9l-6.2-3
				c-0.4,0.9-0.5,1.7-0.4,2.4c0.1,0.7,0.6,1.2,1.4,1.6c0.7,0.4,1.4,0.4,2.1,0.1c0.4-0.2,0.7-0.4,1-0.7l1.4,0.7
				c-0.2,0.3-0.5,0.6-0.9,0.9c-0.4,0.3-0.8,0.5-1.1,0.6c-0.6,0.2-1.3,0.2-2,0.1c-0.4-0.1-0.8-0.2-1.2-0.4c-1.1-0.5-1.8-1.3-2.1-2.4
				c-0.4-1.1-0.2-2.4,0.4-3.8c0.7-1.4,1.5-2.3,2.7-2.8c1.1-0.5,2.3-0.5,3.5,0.1C139.3,398.3,139.8,398.7,140.2,399.3z M139.1,402.9
				c0.2-0.6,0.3-1.2,0.3-1.7c-0.1-0.9-0.5-1.5-1.4-2c-0.6-0.3-1.3-0.3-2-0.1s-1.2,0.8-1.6,1.5L139.1,402.9z"/>
		</g>
	</g>
	<g opacity="0.8">
		<g>
			<path fill="#FFFFFF" d="M222.4,425.7c-0.7-0.8-1-1.8-1.1-3l1.7,0c0.1,0.8,0.2,1.4,0.5,1.8c0.4,0.7,1.2,1,2.2,1
				c0.8,0,1.5-0.2,2-0.7c0.5-0.5,0.7-1,0.7-1.7c0-0.9-0.3-1.5-0.8-1.8c-0.5-0.3-1.3-0.5-2.2-0.5c-0.1,0-0.2,0-0.3,0
				c-0.1,0-0.2,0-0.3,0l0-1.4c0.2,0,0.3,0,0.4,0s0.2,0,0.4,0c0.6,0,1.1-0.1,1.5-0.3c0.7-0.3,1-0.9,1-1.8c0-0.6-0.2-1.1-0.7-1.4
				s-1-0.5-1.6-0.5c-1.1,0-1.8,0.4-2.2,1.1c-0.2,0.4-0.3,0.9-0.3,1.7l-1.6,0c0-0.9,0.2-1.7,0.5-2.4c0.6-1.2,1.7-1.8,3.4-1.8
				c1.3,0,2.3,0.2,3,0.8c0.7,0.6,1.1,1.4,1.1,2.5c0,0.8-0.2,1.4-0.6,1.9c-0.3,0.3-0.6,0.5-1,0.7c0.7,0.2,1.2,0.5,1.6,1
				c0.4,0.5,0.6,1.1,0.6,1.9c0,1.2-0.4,2.2-1.1,3c-0.8,0.8-1.9,1.2-3.3,1.2C224.1,426.9,223.1,426.5,222.4,425.7z"/>
			<path fill="#FFFFFF" d="M239.6,414.3c0.6,0.7,0.9,1.4,1,2.2l-1.6,0.1c-0.1-0.5-0.3-0.9-0.5-1.1c-0.4-0.5-1-0.7-1.8-0.7
				c-0.9,0.1-1.6,0.5-2,1.4c-0.5,0.9-0.7,2-0.6,3.6c0.3-0.6,0.8-1,1.3-1.3c0.5-0.3,1-0.4,1.7-0.5c1.1-0.1,2,0.2,2.8,0.8
				s1.3,1.6,1.4,2.9c0.1,1.1-0.2,2.2-0.9,3.1c-0.7,0.9-1.7,1.4-3.1,1.5c-1.2,0.1-2.2-0.3-3.1-1.1s-1.5-2.3-1.6-4.4
				c-0.1-1.6,0-2.9,0.3-4c0.6-2.1,1.8-3.3,3.8-3.4C238,413.3,239,413.6,239.6,414.3z M239.1,424c0.4-0.6,0.5-1.3,0.5-2
				c0-0.6-0.3-1.2-0.7-1.8c-0.4-0.6-1.1-0.8-2.1-0.7c-0.7,0-1.3,0.3-1.7,0.8s-0.7,1.2-0.6,2.1c0.1,0.8,0.3,1.4,0.8,2
				c0.5,0.5,1.2,0.7,2,0.7C238.1,424.9,238.7,424.6,239.1,424z"/>
			<path fill="#FFFFFF" d="M250.4,414c0.7,1,1.1,2.3,1.4,4.1c0.2,1.7,0.1,3.1-0.2,4.3c-0.5,1.7-1.6,2.6-3.3,2.8
				c-1.5,0.2-2.7-0.3-3.6-1.5c-0.7-1-1.2-2.4-1.5-4.3c-0.2-1.4-0.2-2.7,0.1-3.7c0.4-2,1.6-3.1,3.4-3.3
				C248.3,412.2,249.6,412.8,250.4,414z M249.9,422.5c0.4-0.8,0.5-2.2,0.2-4.1c-0.2-1.4-0.5-2.6-1-3.4s-1.2-1.2-2.2-1.1
				c-0.9,0.1-1.5,0.6-1.9,1.6c-0.3,0.9-0.4,2.2-0.2,3.9c0.2,1.3,0.4,2.3,0.8,3c0.6,1.1,1.4,1.6,2.4,1.5
				C248.9,423.7,249.5,423.3,249.9,422.5z"/>
			<path fill="#FFFFFF" d="M253.5,411.1l1.6-0.3l0.3,1.8l-1.6,0.3L253.5,411.1z M254.1,414.6l1.6-0.3l1.6,9.2l-1.6,0.3L254.1,414.6z"
				/>
		</g>
	</g>
	<g opacity="0.8">
		<g>
			<path fill="#FFFFFF" d="M339.7,373.6l1.4-1.1l3.4,4.1l5.1-4.2l-3.4-4.1l1.4-1.1l8.2,10l-1.4,1.1l-3.8-4.7l-5.1,4.2l3.8,4.7
				l-1.4,1.1L339.7,373.6z"/>
			<path fill="#FFFFFF" d="M351.4,363.7l5.5,5.8c0.6,0.7,1.3,1.1,2,1.3c1,0.3,2,0.1,2.9-0.8c1.1-1,1.5-2.1,1.2-3.2
				c-0.2-0.6-0.6-1.2-1.2-1.9l-5.5-5.8l1.3-1.2l5,5.3c1.1,1.2,1.8,2.2,2,3.1c0.5,1.7,0,3.3-1.6,4.8s-3.2,2-4.8,1.4
				c-0.9-0.3-1.9-1.1-3-2.2l-5-5.3L351.4,363.7z"/>
			<path fill="#FFFFFF" d="M365.8,349.6c1.4-0.5,2.7-0.3,4.2,0.7l-1.2,1.3c-0.8-0.5-1.6-0.6-2.4-0.4c-0.8,0.2-1.5,0.6-2.1,1.4
				c-0.8,0.9-1.1,1.9-1,3.1c0.1,1.2,0.8,2.4,2.1,3.6c1.1,1,2.3,1.6,3.4,1.8c1.2,0.2,2.2-0.3,3.2-1.4c0.8-0.8,1.2-1.8,1.2-2.8
				c0-1-0.5-2-1.6-3.1l-2.7,3l-1.1-1l3.8-4.2l5.1,4.7L376,357l-1.5-0.8c0.1,0.9,0.1,1.6,0,2.1c-0.2,0.8-0.7,1.7-1.5,2.6
				c-1,1.1-2.3,1.7-3.7,1.9c-1.7,0-3.4-0.7-5-2.1c-1.6-1.5-2.5-3-2.6-4.8c-0.2-1.6,0.4-3.1,1.5-4.4
				C364,350.5,364.9,349.9,365.8,349.6z"/>
			<path fill="#FFFFFF" d="M369.5,344.8l5.8-7.3l1.2,1l-4.8,6l3.1,2.4l4.4-5.5l1.2,0.9l-4.4,5.5l3.4,2.7l4.8-6.1l1.2,1l-5.9,7.4
				L369.5,344.8z"/>
		</g>
	</g>
	<g opacity="0.8">
		<g>
			<path fill="#FFFFFF" d="M419.1,167.3l1.4,5.7c0.2,0.9,0.3,1.7,0.2,2.4c-0.2,1.3-1.1,2.1-2.5,2.5c-0.7,0.2-1.4,0.2-2,0
				c-0.6-0.2-1-0.5-1.5-1c-0.1,0.5-0.2,1-0.5,1.3c-0.3,0.3-0.8,0.6-1.5,0.8l-1.7,0.5c-0.5,0.1-0.8,0.3-1,0.4
				c-0.4,0.2-0.6,0.4-0.6,0.7l-0.3,0.1l-0.5-2.1c0.1-0.1,0.2-0.2,0.4-0.2c0.2-0.1,0.5-0.2,1-0.3l2.1-0.6c0.8-0.2,1.3-0.7,1.4-1.3
				c0.1-0.4,0-0.9-0.1-1.5l-1-3.7l-5.4,1.4l-0.4-1.7L419.1,167.3z M414.7,174.3c0.2,0.8,0.5,1.3,0.9,1.7c0.4,0.4,1.1,0.4,1.9,0.2
				c0.9-0.2,1.4-0.7,1.6-1.4c0.1-0.4,0.1-0.9-0.1-1.4l-1-4l-4.3,1.1L414.7,174.3z"/>
			<path fill="#FFFFFF" d="M419.7,187.2c-0.2,0.7-0.5,1.2-0.9,1.6c-0.4,0.4-0.9,0.7-1.5,0.9c-0.4,0.2-1.1,0.3-2,0.5l-1.3-6.7
				c-0.9,0.2-1.6,0.6-2.1,1.1c-0.5,0.5-0.7,1.2-0.5,2.1c0.2,0.8,0.5,1.4,1.2,1.8c0.4,0.2,0.8,0.3,1.2,0.4l0.3,1.5
				c-0.3,0-0.8,0-1.2-0.2c-0.5-0.1-0.8-0.3-1.2-0.6c-0.5-0.4-1-0.9-1.3-1.6c-0.2-0.4-0.3-0.8-0.4-1.2c-0.2-1.1,0-2.2,0.7-3.1
				c0.7-1,1.8-1.6,3.3-1.9c1.5-0.3,2.8-0.1,3.8,0.5s1.7,1.6,2,2.9C419.9,185.9,419.9,186.6,419.7,187.2z M416.2,188.5
				c0.7-0.2,1.2-0.4,1.5-0.7c0.7-0.6,0.9-1.3,0.7-2.3c-0.1-0.7-0.5-1.3-1.1-1.6c-0.6-0.4-1.3-0.5-2.1-0.4L416.2,188.5z"/>
			<path fill="#FFFFFF" d="M421.2,197.5c-0.1,0.3-0.4,0.7-0.8,1.1l4.7-0.6l0.2,1.5l-12.8,1.7l-0.2-1.4l1.3-0.2
				c-0.6-0.3-1.1-0.7-1.4-1.1c-0.3-0.5-0.5-1-0.6-1.7c-0.1-1,0.2-2,1-2.9c0.8-0.9,1.9-1.4,3.3-1.6c1.4-0.2,2.6,0,3.7,0.6
				c1.1,0.6,1.7,1.5,1.9,2.8C421.5,196.4,421.5,197,421.2,197.5z M413.8,194.9c-0.6,0.5-0.9,1.2-0.7,2.2c0.1,0.7,0.5,1.3,1.2,1.7
				s1.6,0.5,2.8,0.3c1.2-0.2,2-0.5,2.5-1.1s0.7-1.2,0.6-1.9c-0.1-0.8-0.5-1.4-1.2-1.8c-0.7-0.4-1.6-0.5-2.8-0.4
				C415.2,194.1,414.4,194.4,413.8,194.9z"/>
			<path fill="#FFFFFF" d="M425.4,212.5c-0.8,0.9-1.7,1.5-2.8,1.7l-0.1-1.7c0.8-0.2,1.4-0.7,1.9-1.3c0.4-0.6,0.6-1.4,0.6-2.4
				c-0.1-1.2-0.6-2.2-1.5-2.9c-0.9-0.7-2.3-1-4.2-0.9c-1.5,0.1-2.7,0.5-3.6,1.3c-0.9,0.8-1.3,1.8-1.2,3.2c0.1,1.3,0.6,2.2,1.7,2.8
				c0.5,0.3,1.2,0.5,2.1,0.6l0.1,1.7c-1.4-0.1-2.5-0.5-3.5-1.3c-1.2-0.9-1.8-2.3-1.9-4c-0.1-1.5,0.3-2.8,1.1-3.8
				c1.1-1.4,2.9-2.2,5.4-2.4c1.9-0.1,3.5,0.3,4.8,1.2c1.4,1,2.2,2.4,2.3,4.3C426.5,210.3,426.2,211.6,425.4,212.5z"/>
			<path fill="#FFFFFF" d="M419.3,222.5c0,0.4,0.2,0.6,0.5,0.7c0.1,0.1,0.3,0.1,0.6,0.1c0.5,0,0.9-0.2,1.2-0.6s0.4-0.9,0.4-1.6
				c0-0.8-0.2-1.4-0.7-1.8c-0.2-0.2-0.6-0.3-1.1-0.4l0-1.5c1.2,0,2,0.4,2.4,1.1c0.5,0.7,0.7,1.6,0.7,2.5c0,1.1-0.2,2-0.6,2.7
				c-0.4,0.7-1.1,1-2,1l-5.4,0c-0.2,0-0.3,0-0.4,0.1s-0.1,0.2-0.1,0.4c0,0.1,0,0.1,0,0.2s0,0.2,0,0.3l-1.2,0
				c-0.1-0.2-0.1-0.4-0.1-0.6c0-0.1,0-0.3,0-0.5c0-0.5,0.2-0.9,0.6-1.2c0.2-0.1,0.5-0.2,0.9-0.3c-0.4-0.3-0.8-0.8-1.1-1.4
				c-0.3-0.6-0.5-1.3-0.5-2c0-0.9,0.3-1.6,0.8-2.1c0.5-0.6,1.2-0.8,2-0.8c0.9,0,1.5,0.3,2,0.8c0.5,0.5,0.8,1.3,0.9,2.1L419.3,222.5z
				 M415,219.2c-0.3,0.3-0.4,0.7-0.4,1.2c0,0.6,0.1,1.1,0.4,1.6c0.4,0.9,1.1,1.3,2.1,1.3l1.3,0c-0.1-0.2-0.2-0.4-0.3-0.7
				s-0.1-0.6-0.2-0.9l-0.1-1c-0.1-0.6-0.2-1-0.4-1.3c-0.3-0.5-0.7-0.7-1.3-0.7C415.7,218.7,415.3,218.9,415,219.2z"/>
			<path fill="#FFFFFF" d="M425.6,228.9l-0.1,1.6l-2.6-0.1l-0.1,1.5l-1.3,0l0.1-1.5l-6.1-0.2c-0.3,0-0.6,0.1-0.7,0.3
				c-0.1,0.1-0.1,0.3-0.1,0.6c0,0.1,0,0.2,0,0.2c0,0.1,0,0.2,0,0.3l-1.3,0c0-0.2-0.1-0.4-0.1-0.6c0-0.2,0-0.4,0-0.6
				c0-0.7,0.2-1.2,0.6-1.5s0.9-0.4,1.5-0.3l6.2,0.2l0-1.3l1.3,0l0,1.3L425.6,228.9z"/>
			<path fill="#FFFFFF" d="M416.2,234.9c-0.5,0-0.9,0.1-1.2,0.3c-0.5,0.4-0.8,1.1-0.9,2.1c0,0.6,0,1.1,0.3,1.6s0.6,0.7,1.1,0.8
				c0.4,0,0.7-0.1,1-0.5c0.1-0.2,0.3-0.7,0.6-1.3l0.4-1.2c0.3-0.8,0.5-1.4,0.8-1.7c0.5-0.7,1.1-1,1.8-0.9c0.9,0.1,1.6,0.4,2.1,1.1
				s0.7,1.6,0.6,2.7c-0.1,1.4-0.6,2.4-1.5,3c-0.6,0.4-1.1,0.5-1.7,0.4l0.1-1.5c0.4,0,0.7-0.1,1-0.3c0.4-0.3,0.7-1,0.8-1.9
				c0-0.6,0-1.1-0.2-1.4s-0.5-0.5-0.9-0.5c-0.4,0-0.7,0.2-1,0.5c-0.2,0.2-0.3,0.6-0.5,1l-0.3,1c-0.4,1.1-0.7,1.9-1,2.3
				c-0.5,0.6-1.1,0.8-2,0.8c-0.8-0.1-1.5-0.4-2.1-1.1c-0.6-0.7-0.8-1.7-0.7-3c0.1-1.4,0.5-2.4,1.2-2.9c0.7-0.5,1.5-0.8,2.4-0.8
				L416.2,234.9z"/>
		</g>
	</g>
	<g opacity="0.8">
		<g>
			<path fill="#FFFFFF" d="M264,22.4l2.4,0.6l1.1,11.5l6.1-9.8l2.4,0.6l-3,12.6l-1.6-0.4l1.8-7.4c0.1-0.3,0.2-0.7,0.3-1.3
				c0.2-0.6,0.3-1.2,0.5-1.9l-6.1,9.7l-1.7-0.4l-1.1-11.5l-0.1,0.4c-0.1,0.3-0.2,0.8-0.3,1.4s-0.2,1.1-0.3,1.4l-1.8,7.4L261,35
				L264,22.4z"/>
			<path fill="#FFFFFF" d="M284.1,31.7c0.5,0.5,0.8,1,1,1.6c0.2,0.5,0.2,1.1,0.1,1.8c0,0.4-0.2,1.1-0.5,2l-6.5-2
				c-0.3,0.9-0.3,1.7,0,2.4c0.2,0.7,0.8,1.1,1.6,1.4c0.8,0.2,1.5,0.2,2.1-0.2c0.4-0.2,0.7-0.5,0.9-0.9l1.5,0.5
				c-0.1,0.3-0.4,0.6-0.7,1c-0.3,0.3-0.7,0.6-1,0.8c-0.6,0.3-1.3,0.4-2,0.4c-0.4,0-0.8-0.1-1.3-0.2c-1.1-0.3-1.9-1-2.4-2.1
				c-0.5-1.1-0.5-2.3-0.1-3.8c0.4-1.4,1.2-2.5,2.3-3.2c1.1-0.7,2.2-0.8,3.5-0.4C283,30.9,283.6,31.2,284.1,31.7z M283.5,35.4
				c0.1-0.7,0.2-1.2,0.1-1.7c-0.2-0.9-0.8-1.4-1.7-1.7c-0.7-0.2-1.3-0.1-2,0.2c-0.6,0.4-1.1,0.9-1.3,1.7L283.5,35.4z"/>
			<path fill="#FFFFFF" d="M293.9,35.2c0.2,0.3,0.4,0.7,0.6,1.2l1.7-4.5l1.4,0.5L293,44.6l-1.3-0.5l0.5-1.2c-0.5,0.4-1.1,0.7-1.7,0.7
				s-1.1,0-1.8-0.2c-1-0.4-1.7-1.1-2.1-2.2c-0.4-1.1-0.4-2.3,0.2-3.7c0.5-1.3,1.2-2.3,2.2-3c1-0.7,2.1-0.8,3.3-0.4
				C293,34.4,293.5,34.8,293.9,35.2z M288.1,40.6c0.2,0.8,0.7,1.3,1.6,1.7c0.7,0.3,1.4,0.2,2-0.3c0.7-0.4,1.2-1.2,1.6-2.3
				c0.4-1.1,0.5-2,0.2-2.7s-0.7-1.2-1.4-1.4c-0.7-0.3-1.5-0.2-2.1,0.2c-0.7,0.4-1.2,1.2-1.6,2.3C288,38.9,288,39.8,288.1,40.6z"/>
			<path fill="#FFFFFF" d="M299.4,37.2l1.5,0.6l-3.6,8.6l-1.5-0.6L299.4,37.2z M300.8,33.9l1.5,0.6l-0.7,1.7l-1.5-0.6L300.8,33.9z"/>
			<path fill="#FFFFFF" d="M307,44.6c0.3,0.1,0.6,0.1,0.9-0.1c0.1-0.1,0.2-0.3,0.4-0.5c0.2-0.5,0.2-0.9,0-1.3c-0.2-0.4-0.7-0.7-1.3-1
				c-0.7-0.4-1.4-0.4-1.9-0.1c-0.3,0.1-0.5,0.4-0.8,0.8l-1.3-0.6c0.5-1,1.2-1.6,2.1-1.7s1.7,0,2.6,0.5c1,0.5,1.7,1,2.2,1.7
				c0.4,0.7,0.5,1.4,0.1,2.2l-2.3,4.9c-0.1,0.1-0.1,0.3-0.1,0.4c0,0.1,0.1,0.2,0.3,0.3c0.1,0,0.1,0.1,0.2,0.1s0.2,0.1,0.3,0.1
				l-0.5,1.1c-0.3,0-0.4-0.1-0.6-0.1c-0.1,0-0.3-0.1-0.5-0.2c-0.5-0.2-0.8-0.6-0.8-1c0-0.2,0-0.5,0.1-0.9c-0.5,0.2-1,0.4-1.7,0.4
				c-0.7,0-1.3-0.1-2-0.4c-0.8-0.4-1.3-0.9-1.6-1.6c-0.3-0.7-0.2-1.4,0.1-2.2c0.4-0.8,0.9-1.3,1.6-1.5s1.5-0.2,2.3,0.1L307,44.6z
				 M302.2,47c0.2,0.4,0.5,0.7,0.9,0.9c0.5,0.2,1,0.3,1.6,0.3c1,0,1.7-0.5,2.1-1.3l0.5-1.2c-0.2,0-0.5,0-0.8,0
				c-0.3-0.1-0.6-0.1-0.9-0.2l-0.9-0.3c-0.6-0.2-1-0.2-1.3-0.2c-0.6,0-1,0.3-1.2,0.9C302,46.3,302,46.6,302.2,47z"/>
			<path fill="#FFFFFF" d="M316.8,41.3l-3,10.3l7.7-7.7l1.6,0.9l-2.6,10.6l7.3-8l1.7,0.9l-9.3,9.6l-1.6-0.9l2.6-10.8l-7.9,7.9
				l-1.6-0.9l3.4-12.9L316.8,41.3z"/>
			<path fill="#FFFFFF" d="M331.7,49.9l1.3,0.9l-2.7,4c0.6-0.2,1-0.3,1.4-0.3c0.6,0,1.2,0.2,1.9,0.6c1.1,0.8,1.6,1.7,1.5,2.7
				c-0.1,0.6-0.4,1.3-0.9,2l-3.3,5l-1.4-0.9l3.3-4.9c0.4-0.6,0.6-1,0.6-1.4c0-0.6-0.3-1.1-0.9-1.5c-0.5-0.4-1.2-0.5-1.9-0.4
				c-0.7,0.1-1.4,0.6-2.1,1.7l-2.8,4.2l-1.3-0.9L331.7,49.9z"/>
			<path fill="#FFFFFF" d="M338.9,59.1l1.3,0.9l-5.5,7.6l-1.3-0.9L338.9,59.1z M341,56.2l1.3,0.9l-1,1.5l-1.3-0.9L341,56.2z"/>
			<path fill="#FFFFFF" d="M337.4,68l8.6-1.9l-4.1-3.2l0.9-1.1l5.8,4.5l-0.8,1l-8.5,1.9l4.5,3.5l-0.9,1.1l-6.2-4.8L337.4,68z"/>
		</g>
	</g>
</svg>
