<svg version="1.1" class="footer-logo" xmlns="http://www.w3.org/2000/svg" xmlns:xlink="http://www.w3.org/1999/xlink" x="0px" y="0px" width="320px" height="200px" viewBox="0 0 320 200" enable-background="new 0 0 320 200" xml:space="preserve">
	<filter id="logo-shadow">
		<feGaussianBlur in="SourceAlpha" stdDeviation="4" />
		<feOffset dx="2" dy="2" />
		<feComponentTransfer>
			<feFuncA type="linear" slope="0.5"/>
		</feComponentTransfer>
		<feMerge>
			<feMergeNode />
			<feMergeNode in="SourceGraphic" />
		</feMerge>
	</filter>
	<path class="logo-j-path" filter="url(#logo-shadow)" d="M159.3,55.6c0,0-14.2,3-28.1,10c-13.9,7.1-22.9,12.5-29.6,17.5c-6.7,5-12.4,10.1-13.9,11.6 c-1.5,1.5-2.3,2.6-2.3,2.6s-1.3,1.5-1.1,2.5c0.2,1,3.7,5.7,3.7,5.7l6.9,10.3c0,0,4.2,6.5,4.7,7c0.6,0.7,0.8,1.1,1.1,1.2 c0.4,0.1,0.8,0.1,1.3-0.2c0.5-0.3,1-1,1-1l2.2-2.8c0,0,4-5.4,7-8.4s8.7-9,15-14.2c6.3-5.2,17.9-14.3,17.9-14.3l1.5-1.3 c0,0-0.9,8.7-1,9.9c-0.4,3.3-1.5,9.7-1.9,11.8c-1,4.3-2.7,8.8-3.2,9.7c-0.6,1-0.9,1.5-0.9,1.5l-12.8-11.4c0,0-3.4,3.3-4.5,4.4 c-1.1,1.1-4.5,4.8-4.5,4.8s-3.2,10-3.5,11c-0.2,1-0.1,1.4,0.1,1.7s1,0.7,1.2,0.9c0.1,0.1,1.5,1.1,3.2,1.9c2,1.1,4,2.1,5.6,2.9 c1.3,0.7,3.6,1.8,6.1,2.9c2.5,1.1,5.2,2.2,7.4,3.1c4.5,1.7,8.9,2.7,8.9,2.7l6.4,1.2c0,0,7.1-30.6,7.9-43.6s1.1-18.7,0-29.4 s-0.8-7.9-0.8-7.9s-0.1-3,0.1-3.9C160.3,55.2,159.3,55.6,159.3,55.6z"/>
	<path class="logo-r-path" filter="url(#logo-shadow)" d="M164.2,59c0.1,0.7,1.6,20,0.5,33.3c-1.2,13.3-3.8,26.2-5,33.5c-1.2,7.3-3.8,19.7-2.9,19.8s2.3-0.2,5.6-1 c2.4-0.6,5-1.4,6.7-1.9c2.3-0.7,6.2-2.1,9.9-3.5c2.8-1.1,5.4-2.2,7-3c3.7-1.7,3.7-1.6,3.7-2.7c0-1-4.1-12.4-5.5-16.4 c-0.8-2.2-0.8-2.2-0.8-2.2l-8.3-6.3l-8.3-6.1l12.9-4.6c0,0-1.5-5.9-3.4-13.7c-1.4-5.7-1.4-5.7-1.4-5.7l24.1,16.6l-24.9,8.5 c0,0,15.8,11.6,19.3,14.4c2.4,1.9,8.9,7.6,8.9,7.6s2,2.1,3.1,2.2c1.1,0.2,1.7-0.2,3.6-0.8c1.8-0.7,8-3.9,10.8-5.4 c2.7-1.5,6-3.6,9.1-5.6s3.2-2,3.2-2s1.5-1,2.2-1.5c0.7-0.5,0.7-0.5,0.7-0.5s1.9-0.9,0-1.4s-8.3-2.7-8.3-2.7s-8-3-8.6-2.9 c-0.6,0.1-2.4,0.9-3.4,1.4c-1,0.5-3.1,1.4-3.9,1.6c-0.7,0.2-2.1,0.4-2.6-0.5s-0.2-1.6,0.8-1.9c1.1-0.3,5.7-2,11.1-4.5 s7.8-3.9,9.6-5.1c1.8-1.2,2.2-1.7,2.2-1.7s0.6-0.7-0.1-1.3c-0.7-0.6-0.7-0.6-0.7-0.6s-2.1-1.9-4.5-3.9c-2.5-2-11.6-9-15.7-11.6 c-3.6-2.3-5.9-3.6-10.3-5.9c-4.4-2.3-7.5-3.8-14.3-6.4c-6.8-2.6-9.5-3.4-13.8-4.5c-4.3-1.1-4.4-1.1-4.4-1.1s-1.2-0.3-2.5-0.5 C165.2,58.2,164.2,58.3,164.2,59z"/>
		</g>
	</g>
</svg>
