<svg class="footer-logo" xmlns="http://www.w3.org/2000/svg" width="320" height="200" viewBox="0 0 320 200"><filter id="a"><feGaussianBlur in="SourceAlpha" stdDeviation="4"/><feOffset dx="2" dy="2"/><feComponentTransfer><feFuncA type="linear" slope=".5"/></feComponentTransfer><feMerge><feMergeNode/><feMergeNode in="SourceGraphic"/></feMerge></filter><path class="logo-j-path" filter="url(#a)" d="M159.3 55.6s-14.2 3-28.1 10c-13.9 7.1-22.9 12.5-29.6 17.5-6.7 5-12.4 10.1-13.9 11.6s-2.3 2.6-2.3 2.6-1.3 1.5-1.1 2.5c.2 1 3.7 5.7 3.7 5.7l6.9 10.3s4.2 6.5 4.7 7c.6.7.8 1.1 1.1 1.2.4.1.8.1 1.3-.2.5-.3 1-1 1-1l2.2-2.8s4-5.4 7-8.4 8.7-9 15-14.2c6.3-5.2 17.9-14.3 17.9-14.3l1.5-1.3s-.9 8.7-1 9.9c-.4 3.3-1.5 9.7-1.9 11.8-1 4.3-2.7 8.8-3.2 9.7l-.9 1.5-12.8-11.4s-3.4 3.3-4.5 4.4c-1.1 1.1-4.5 4.8-4.5 4.8s-3.2 10-3.5 11c-.2 1-.1 1.4.1 1.7s1 .7 1.2.9c.1.1 1.5 1.1 3.2 1.9 2 1.1 4 2.1 5.6 2.9 1.3.7 3.6 1.8 6.1 2.9 2.5 1.1 5.2 2.2 7.4 3.1 4.5 1.7 8.9 2.7 8.9 2.7l6.4 1.2s7.1-30.6 7.9-43.6 1.1-18.7 0-29.4-.8-7.9-.8-7.9-.1-3 .1-3.9c-.1-.8-1.1-.4-1.1-.4z"/><path class="logo-r-path" filter="url(#a)" d="M164.2 59c.1.7 1.6 20 .5 33.3-1.2 13.3-3.8 26.2-5 33.5-1.2 7.3-3.8 19.7-2.9 19.8s2.3-.2 5.6-1c2.4-.6 5-1.4 6.7-1.9 2.3-.7 6.2-2.1 9.9-3.5 2.8-1.1 5.4-2.2 7-3 3.7-1.7 3.7-1.6 3.7-2.7 0-1-4.1-12.4-5.5-16.4l-.8-2.2-8.3-6.3-8.3-6.1 12.9-4.6s-1.5-5.9-3.4-13.7l-1.4-5.7L199 95.1l-24.9 8.5s15.8 11.6 19.3 14.4c2.4 1.9 8.9 7.6 8.9 7.6s2 2.1 3.1 2.2c1.1.2 1.7-.2 3.6-.8 1.8-.7 8-3.9 10.8-5.4 2.7-1.5 6-3.6 9.1-5.6s3.2-2 3.2-2 1.5-1 2.2-1.5l.7-.5s1.9-.9 0-1.4-8.3-2.7-8.3-2.7-8-3-8.6-2.9c-.6.1-2.4.9-3.4 1.4-1 .5-3.1 1.4-3.9 1.6-.7.2-2.1.4-2.6-.5s-.2-1.6.8-1.9c1.1-.3 5.7-2 11.1-4.5s7.8-3.9 9.6-5.1c1.8-1.2 2.2-1.7 2.2-1.7s.6-.7-.1-1.3l-.7-.6s-2.1-1.9-4.5-3.9c-2.5-2-11.6-9-15.7-11.6-3.6-2.3-5.9-3.6-10.3-5.9-4.4-2.3-7.5-3.8-14.3-6.4-6.8-2.6-9.5-3.4-13.8-4.5-4.3-1.1-4.4-1.1-4.4-1.1s-1.2-.3-2.5-.5c-.4-.3-1.4-.2-1.4.5z"/></svg>