<svg version="1.1" class="" xmlns="http://www.w3.org/2000/svg" xmlns:xlink="http://www.w3.org/1999/xlink" x="0px" y="0px"
	 viewBox="0 0 22 17" enable-background="new 0 0 22 17" xml:space="preserve">
<path fill="#FFFFFF" d="M22,1.5C22,2.3,21.5,3,20.9,3H1.1C0.5,3,0,2.3,0,1.5V1.5C0,0.7,0.5,0,1.1,0h19.7C21.5,0,22,0.7,22,1.5L22,1.5z
	 M22,8.5C22,7.7,21.5,7,20.9,7H1.1C0.5,7,0,7.7,0,8.5v0.1C0,9.3,0.5,10,1.1,10h19.7C21.5,10,22,9.3,22,8.5L22,8.5z M22,15.5
	c0-0.8-0.5-1.5-1.1-1.5H1.1C0.5,14,0,14.7,0,15.5v0.1C0,16.3,0.5,17,1.1,17h19.7C21.5,17,22,16.3,22,15.5L22,15.5z"/>
</svg>
