<svg version="1.1" class="logo-splash" xmlns="http://www.w3.org/2000/svg" xmlns:xlink="http://www.w3.org/1999/xlink" x="0px" y="0px"
	 viewBox="0 0 537 330" enable-background="new 0 0 537 330" xml:space="preserve">
	<path class="logo-outline-path" d="M523.7,191.1c-4-1.5-7.4-2.6-11.5-3.9c-3.5-1-7.5-2.4-14.3-4.9c-4.3-1.6-9.1-3.4-12.5-4.4
		c-8-2.5-8-2.5-8-2.5s39.5-18.2,45.4-24.1c6.6-6.6,5.9-9.3-2-17.5c-4.5-4.6-13-12.4-22.5-19.7c-14.2-11-29.4-22.3-29.4-22.3
		S436.5,68.3,409,55.3c-40.4-19.2-60.9-24.8-70.2-28.1c-9.3-3.4-28.1-8.5-40.9-11.6c-10.6-2.6-11.9-2.5-17.7-2.6
		c-1.4,0,1.1-8.7,1.1-8.7s1.4-4-0.4-4.2c-1.8-0.2-2.3,0.1-4.3,0.4c0,0-15.4,2.1-44.3,11.3c-12.4,3.9-27.7,9.9-43.3,16.6
		c-20.1,8.6-39.8,19-50.5,24.8C123,61.6,111,68,90,81.6C70.9,93.9,48.9,110.3,31.1,126c-37.5,33-35,32.2-24,49.3
		c11,17.2,34.2,52.8,44.7,67.1c10.3,14,17.5,32.4,32.6,8.2c5.3-8.6,8.5-13,10.9-16.4c4.5-6.2,5.4-7.4,10-13
		c7.1-8.5,9.3-10.7,9.3-10.7l-12.1,36.4c0,0-2.9,6.3,4.2,9.9c8.1,4,23.7,14.1,47.6,25.1c24,11,29.9,13.8,51,21.1
		c21.1,7.3,25.4,7,34.4,9.9c9,2.8,8.2,1.3,7.2,6.6c-1,5.3-6.8,12.8,11.4,9.9c2.2-0.4,3.3-0.5,7.6-1.5c6.9-1.6,12.5-3,15.6-3.8
		c21.6-6,40.7-12.1,66.4-24.1c31.3-14.6,31.6-17.3,31.6-17.3s2.2-2.5-6.8-24.7c-9-22.3-16.9-42.3-16.9-42.3s41.7,34.1,51.6,43.1
		c9.9,9,11.1,15.9,32.4,4.4c1.5-0.8,6.8-3.4,8.6-4.4c11.7-6.2,25.7-14,41.9-23.7c18.2-10.9,32.7-20.3,40-25.7
		C546.8,197.3,528.2,192.7,523.7,191.1z M198.5,197.3c-4.6-3.8-37-29.5-37-29.5s0,0,11.8-10.3c10.4-9.1,41.7-33.7,41.7-33.7
		s-2.6,18.9-5.7,37.2C206,180.3,198.5,197.3,198.5,197.3z M370.6,150.5c-9.2,3.2-27.3,9.5-27.3,9.5s0.3-0.1-3.4-16.6
		c-4.6-20.7-7.2-31-7.2-31l49.6,33.9C382.3,146.4,378.4,147.7,370.6,150.5z M287.4,22.6c4.4,0.8,8.5,1.7,8.5,1.7s0.2-0.1,14.8,3.8
		c14.6,3.8,23.6,6.7,46.8,15.3c23.3,8.7,33.9,13.8,48.7,21.7c14.8,7.8,22.6,12.2,34.9,20.2c13.9,9,44.7,32.8,53.2,39.5
		c8.5,6.8,15.4,13.3,15.4,13.3s0,0,2.3,2.1c2.3,2.1,0.4,4.4,0.4,4.4s-1.5,1.7-7.6,5.9c-6.1,4.2-14,8.9-32.6,17.3
		c-18.6,8.5-34.2,14.2-37.8,15.2c-3.6,1.1-4.4,3.6-2.7,6.6c1.7,3,6.1,2.3,8.7,1.7c2.5-0.6,9.7-3.8,13.1-5.5c3.4-1.7,9.3-4.2,11.4-4.7
		c2.1-0.4,29.2,9.9,29.2,9.9s22,7.6,28.3,9.3c6.3,1.7,0,4.9,0,4.9s0,0-2.3,1.7c-2.3,1.7-7.5,4.9-7.5,4.9s0,0-10.7,6.8
		c-10.7,6.8-21.7,13.8-31,18.9c-9.3,5.1-30.4,16.1-36.6,18.3c-6.2,2.3-8.5,3.4-12.1,2.8c-3.7-0.6-10.5-7.5-10.5-7.5
		s-22.3-19.3-30.3-25.8c-11.9-9.6-67.8-48.1-67.8-48.1l86.8-29.7l-81.9-56.4c0,0,0,0,4.7,19.4c6.5,26.7,11.5,51.5,11.5,51.5
		l-38.4,12.7l21.7,14.8l27.1,19.7c0,0,2.1,5.7,4.7,13.1c4.7,13.6,18.6,52.3,18.6,55.8c0,3.5,0,3.4-12.4,9
		c-5.4,2.4-14.3,6.4-23.8,10.1c-12.5,4.8-25.9,9.4-33.7,11.9c-6,1.9-14.8,4.6-22.8,6.5c-11.1,2.7-16,4.1-19.1,3.4
		c-3.1-0.6,5.8-42.6,9.8-67.4c3.9-24.8,13-68.8,16.9-113.9c3.9-45.1-1.4-110.7-1.6-113.1C281.5,22.3,285.1,22.2,287.4,22.6z
		 M271.2,14.9c-0.6,3.1-0.3,13.2-0.3,13.2s-0.8-9.3,2.8,26.8c3.7,36.1,2.8,55.8,0,99.8c-2.8,44-26.8,148-26.8,148l-21.7-4.2
		c0,0-14.9-3.1-30.2-9c-7.6-3-16.7-6.6-25.2-10.4c-8.4-3.8-16.3-7.6-20.6-9.9c-5.6-2.9-12.3-6.4-19-10c-5.5-3-10.3-6.4-10.7-6.6
		c-0.8-0.6-3.2-2.3-4.1-3.1c-0.8-0.8-1.3-2.3-0.4-5.6c0.8-3.4,12.4-45.5,12.4-45.5s8.5-8.1,12-11.7c3.6-3.6,16.1-13.8,16.1-13.8
		l45.5,41.4c0,0,1.1-1.6,3.1-4.9c2-3.4,7.7-18.6,11-33.1c1.6-7.1,5.4-28.6,6.6-39.9c0.5-4,3.4-33.5,3.4-33.5l-4.9,4.4
		c0,0-39.5,30.7-60.9,48.5c-21.4,17.8-40.9,38-51,48.2c-10.1,10.1-23.7,28.5-23.7,28.5l-7.6,9.6c0,0-1.7,2.5-3.3,3.4
		c-1.6,0.9-3.1,1-4.3,0.6c-1.2-0.5-1.9-1.8-3.8-4.1c-1.5-1.8-15.9-23.8-15.9-23.8l-23.4-34.9c0,0-11.8-16.1-12.7-19.4
		c-0.8-3.4,3.7-8.5,3.7-8.5s2.8-3.7,7.9-8.7c5.1-5.1,24.2-22.5,47.1-39.5c22.8-16.9,53.3-35.5,100.6-59.5
		c47.3-24,95.6-34.1,95.6-34.1S271.8,11.8,271.2,14.9z"/>
	<path class="logo-r-path" d="M287.4,22.6c4.4,0.8,8.5,1.7,8.5,1.7s0.2-0.1,14.8,3.8c14.6,3.8,23.6,6.7,46.8,15.3
		c23.3,8.7,33.9,13.8,48.7,21.7c14.8,7.8,22.6,12.2,34.9,20.2c13.9,9,44.7,32.8,53.2,39.5c8.5,6.8,15.4,13.3,15.4,13.3s0,0,2.3,2.1
		c2.3,2.1,0.4,4.4,0.4,4.4s-1.5,1.7-7.6,5.9c-6.1,4.2-14,8.9-32.6,17.3c-18.6,8.5-34.2,14.2-37.8,15.2c-3.6,1.1-4.4,3.6-2.7,6.6
		c1.7,3,6.1,2.3,8.7,1.7c2.5-0.6,9.7-3.8,13.1-5.5c3.4-1.7,9.3-4.2,11.4-4.7c2.1-0.4,29.2,9.9,29.2,9.9s22,7.6,28.3,9.3
		c6.3,1.7,0,4.9,0,4.9s0,0-2.3,1.7c-2.3,1.7-7.5,4.9-7.5,4.9s0,0-10.7,6.8c-10.7,6.8-21.7,13.8-31,18.9c-9.3,5.1-30.4,16.1-36.6,18.3
		c-6.2,2.3-8.5,3.4-12.1,2.8c-3.7-0.6-10.5-7.5-10.5-7.5s-22.3-19.3-30.3-25.8c-11.9-9.6-67.8-48.1-67.8-48.1l86.8-29.7l-81.9-56.4
		c0,0,0,0,4.7,19.4c6.5,26.7,11.5,51.5,11.5,51.5l-38.4,12.7l21.7,14.8l27.1,19.7c0,0,2.1,5.7,4.7,13.1c4.7,13.6,18.6,52.3,18.6,55.8
		c0,3.5,0,3.4-12.4,9c-5.4,2.4-14.3,6.4-23.8,10.1c-12.5,4.8-25.9,9.4-33.7,11.9c-6,1.9-14.8,4.6-22.8,6.5c-11.1,2.7-16,4.1-19.1,3.4
		c-3.1-0.6,5.8-42.6,9.8-67.4c3.9-24.8,13-68.8,16.9-113.9c3.9-45.1-1.4-110.7-1.6-113.1C281.5,22.3,285.1,22.2,287.4,22.6z"/>
	<path class="logo-j-path" d="M271.2,14.9c-0.6,3.1-0.3,13.2-0.3,13.2s-0.8-9.3,2.8,26.8c3.7,36.1,2.8,55.8,0,99.8
		c-2.8,44-26.8,148-26.8,148l-21.7-4.2c0,0-14.9-3.1-30.2-9c-7.6-3-16.7-6.6-25.2-10.4c-8.4-3.8-16.3-7.6-20.6-9.9
		c-5.6-2.9-12.3-6.4-19-10c-5.5-3-10.3-6.4-10.7-6.6c-0.8-0.6-3.2-2.3-4.1-3.1c-0.8-0.8-1.3-2.3-0.4-5.6c0.8-3.4,12.4-45.5,12.4-45.5
		s8.5-8.1,12-11.7c3.6-3.6,16.1-13.8,16.1-13.8l45.5,41.4c0,0,1.1-1.6,3.1-4.9c2-3.4,7.7-18.6,11-33.1c1.6-7.1,5.4-28.6,6.6-39.9
		c0.5-4,3.4-33.5,3.4-33.5l-4.9,4.4c0,0-39.5,30.7-60.9,48.5c-21.4,17.8-40.9,38-51,48.2c-10.1,10.1-23.7,28.5-23.7,28.5l-7.6,9.6
		c0,0-1.7,2.5-3.3,3.4c-1.6,0.9-3.1,1-4.3,0.6c-1.2-0.5-1.9-1.8-3.8-4.1c-1.5-1.8-15.9-23.8-15.9-23.8l-23.4-34.9
		c0,0-11.8-16.1-12.7-19.4c-0.8-3.4,3.7-8.5,3.7-8.5s2.8-3.7,7.9-8.7c5.1-5.1,24.2-22.5,47.1-39.5c22.8-16.9,53.3-35.5,100.6-59.5
		c47.3-24,95.6-34.1,95.6-34.1S271.8,11.8,271.2,14.9z"/>
</svg>
