<svg version="1.1" class="header-splash" xmlns="http://www.w3.org/2000/svg" xmlns:xlink="http://www.w3.org/1999/xlink" x="0px" y="0px"
	 viewBox="0 0 483 165" enable-background="new 0 0 483 165" xml:space="preserve">
	<title>John Rodler - User Interface Engineer</title>
	<path class="title-path" d="M45.5,45.3C45.5,45.3,45.5,45.3,45.5,45.3c-2.3,2.6-6,11.8-6,17.1
		c0,1,0.3,1.7,1.3,1.8c1.7,0,2.7-2.5,3-2.8c0.1-0.3,0.4-0.4,0.6-0.4s0.3,0.2,0.3,0.4c0,1.7-3,5.1-5.3,5.1c-2.1,0-2.8-1.9-2.8-3.6
		c0-2.4,1-5.2,1.6-6.3c0,0-0.1,0-0.1,0c-3.2,5.4-7.6,9.9-12.5,9.9c-4,0-5.3-2.3-5.3-5c0-3.9,2.5-9.1,3.8-12.4
		c1.9-4.8,5.3-13.2,5.3-20.8c0-5.6-3.3-10.2-10-10.2c-5.3,0-12.7,3.7-14.5,13.3c-0.2,1.2-0.3,2.3-0.3,3.3c0,8.8,7.3,12.5,9.9,13.2
		c0.6,0.2,1.1,0.2,1.5,0.2c2.1,0,1.9-1.5,3.1-1.5c0.6,0,1.3,0.5,1.3,1.3c0,1.4-1.8,1.5-3.2,1.5c-9.2,0-15.2-6.6-15.2-15.1
		c0-9.9,7.7-17.4,17.1-17.4c9.8,0,12.7,5.9,12.7,12.5c0,8.2-4.3,17.9-5.1,20.3c-1.4,4.1-3.4,8.5-3.4,11.4c0,1.8,0.8,3,3,3
		c3.4,0,9-2.4,14-14.6c1.3-3.3,2.6-4.1,4.4-4.3C44.8,45.1,45.5,45.1,45.5,45.3z M59.1,50.7c-0.5-0.4-0.8-1-0.7-1.6
		c0-0.8,0.4-1.5,1-1.8c0.1,0,0.1-0.1,0.2-0.1c0.3-0.2,0.6-0.5,0.3-0.9c-0.4-0.6-1.3-0.8-2.2-0.8c-0.7,0-2.8,0.3-3.8,2.3
		c-5.3,8.7,3.6,24.7-1.4,32.9c-0.9,1.5-3.4,5.1-8.2,5.1c-3.6,0-7-1.5-5.7-6.1c0.5-1.3,1.6-1.8,2.5-1.8c0.7,0,1,0.3,1.3,0.8
		c0.8,1.2-1.8,2.8-0.6,4.5c0.7,0.9,1.4,1.3,2.7,1.2c1.6,0,3.5-1.3,4.7-3.4c5.1-8.3-2.9-24.6,0.7-31.5c2.2-4.3,6-4.9,8.4-4.9
		c0.9,0,5.5,0.2,4.6,4.5C62.6,50.4,60.6,52,59.1,50.7z M79.1,50.9c-2.6,4.4-9.2,7-14,9c0.1,1.8,0.8,3.3,2.5,3.8
		c3.3,0.8,6.6-2,8.5-5.2c0,0,0.3-0.6,0.7-0.5c0.4,0.2-0.2,1.2-0.2,1.2c-1.2,2.9-7.4,8.8-12,6.7c-7.6-3.5-0.5-16.7,6.4-20.3
		c1.3-0.7,3.1-1,4.2-1C78.7,45,81,47.5,79.1,50.9z M73.3,46.2c-4.2,2-7.1,7.8-7.9,10.9c-0.1,0.5-0.2,1.1-0.3,1.7
		c2.1-0.9,4.3-1.8,6.3-3.1c4-2.5,5.1-5.2,5.1-5.2C77.9,47.5,76.7,44.8,73.3,46.2z M96.7,44.6c-1.4,0-3.3,0.4-5.1,1.5
		c-0.8,0.4-1.6,1-2.5,2H89c0.1-1-0.4-2.6-1.7-3c-2.3-0.7-4.2,1-5.9,2.7c-0.1,0.1-0.5,0.5-0.2,0.8c0,0,0.4,0.4,0.8,0.1
		c1.3-1.3,2.3-2.3,3.4-1.8c0.5,0.2,0.8,0.7,0.3,2.3c-0.4,1-1,2.5-6,16.8c-0.1,0.3,0.3,0.3,0.3,0.3s2.3-0.5,2.7-0.7
		c0.5-0.2,0.6-0.5,0.6-0.5s1-2.9,2.5-6.7l0,0l1.6-4.5c0.2-0.6,0.3-0.7,0.3-0.8c1.5-4,3.2-5.5,4.6-6.1l0.6-0.3l0.4-0.2l0.7-0.3
		l0.5-0.2l0.5-0.2l0.4-0.1l0,0c0.4-0.1,0.7-0.1,0.9-0.1c0.9,0,1.8,0.2,2.2,0.8c0.3,0.4-0.1,0.7-0.3,0.9c-0.1,0-0.1,0.1-0.2,0.1
		c-0.5,0.4-1,1.1-1,1.8c0,0.6,0.2,1.2,0.7,1.6c1.5,1.3,3.4-0.3,3.8-1.8C102.2,44.7,97.6,44.6,96.7,44.6z M166.2,21.1
		c0.5,0,0.6,0.3,0.6,0.5c0,0.3-0.1,0.5-0.4,0.6c-6.5,1.4-9.5,15.7-12.9,26.5c-3.5,11.2-11.7,19.8-22.4,19.8c-11,0-17.7-8.8-17.7-17.6
		c0-6.9,4-13.4,11.2-16.4c0.3-0.1,0.5-0.2,0.8-0.2c0.8,0,1,0.5,1,1.1c0,0.5-0.3,1.1-1.1,1.1c-0.3,0-0.7-0.1-1.1-0.1
		c-0.9,0-2,0.3-3.6,2.2c-3.3,4.3-4,8.4-4,11.5c0,0.7,0,1.4,0.1,2c0.2,3.3,3.6,14.8,15.1,14.8c15.9,0,19.2-20.8,21.6-29.3
		c2.5-8.7,6-12.7,8-14.5c-0.3,0.1-0.6,0.1-1,0.1c-3.7,0-13.2-2.7-17.8-2.7c-5.2,0-11.7,3.1-11.9,9.3c0,7.3,6.7,9.1,10.3,9.1
		c5.4,0,4.2-3.1,5.9-3.1c0.5,0,1,0.5,1,1.1c0,0.3-0.1,0.6-0.4,0.8c-3.1,1.8-6,2.5-8.5,2.5c-6.7,0-10.9-5.1-10.9-9.2
		c0-5.5,5.5-11.6,14.5-11.6c6.9,0,12.6,2.3,18.1,2.3c1.6,0,3.1-0.2,4.7-0.7C165.8,21.1,166,21.1,166.2,21.1z M169.9,63.3
		c0-2.3,1.3-5.2,1.6-6.1c1.8-4.9,3.1-6.4,3.1-8.7c0-0.9-0.3-1.8-1.6-1.8c-2.8,0-6.3,4.4-8.1,9.5c-2,5.3-3.4,8.8-3.4,8.8
		s-0.1,0.4-0.5,0.5c-0.5,0.2-2.9,0.8-2.9,0.8c0,0-0.3,0-0.3-0.3c0.1-0.3,6.1-15.8,6.1-15.8s0.5-1.2,0.5-2.3c0-0.7-0.2-1.3-1-1.3
		c-1.4,0-3.3,2.7-3.3,2.7s-0.2,0.3-0.5,0.3c-0.3,0-0.4-0.2-0.4-0.4c0-0.2,0.1-0.3,0.1-0.3s2.8-4.4,5.3-4.4c1.5,0,2.6,1.3,2.6,2.9
		c0,0.8-0.2,1.8-0.8,3.1h0.1c1.4-1.9,4.1-5.8,7.4-5.8c2.8,0,3.7,1.9,3.7,3.5c0,2.1-3.6,11.4-4.3,13c0,0-0.3,0.7-0.3,1.4
		c0,0.7,0.2,1.4,1.3,1.5c2.1,0,2.6-3.2,3.6-3.2c0.3,0,0.4,0.3,0.4,0.5c0,0.1,0,0.2,0,0.3c-0.7,1.9-2.8,4.8-5.7,4.8
		c-0.3,0-0.7,0-1-0.1C170.4,65.9,169.9,64.7,169.9,63.3z M229.4,37.2c0,1.5-0.8,3.3-2.3,4.4c-0.5,0.4-2.1,1.1-2.9,1.1
		c-0.2,0-0.3,0-0.3-0.1s0.3-0.2,0.7-0.6c1.5-1.1,2.5-2.8,2.5-4.3c0-0.6-0.2-1.2-0.5-1.7c-2-3.4-7.1-4.6-13.5-4.6
		c-6.4,0-14.5,1.3-20.3,3.8c-0.3,0.8-0.5,1.7-0.5,1.7l-6.8,20.4c-0.8,2.2-1.3,4.1-1.2,5.3c0,0.9,0.3,1.6,0.9,1.6
		c1.8,0,2.4-1.5,3.2-2.9c0,0,0.2-0.3,0.5-0.3c0.3,0,0.4,0.2,0.4,0.4c0,0.1,0,0.2,0,0.3c-0.8,2.2-3.1,4.7-5.8,4.7
		c-2.2,0-2.8-1.2-2.8-2.8c0-1.5,0.6-3.2,1-4.6c0.3-0.9,1.1-3.3,2.1-6.3h0c0.3-0.8,0.4-2,0.4-3.1c0-3.4-0.6-4.8-0.6-5.7
		c0-4.3,4.1-7.3,6.2-8.3c1.4-3.1,2.8-4.6,4.5-4.7c0,0,0.7,0,0.7,0.3c0-0.1-1.2,1.5-1.7,2.9c6.1-2.3,13.5-3.8,20.3-3.8
		c5.5,0,12.8,0.8,15.3,4.9C229.2,35.7,229.4,36.4,229.4,37.2z M189.2,36.8c-2,1.3-4.5,3.4-4.6,6.6c0,1.1,0.4,2,0.6,5
		C186.8,43.6,188.6,38.4,189.2,36.8z M208.4,50.9c-2.6,4.4-9.2,7-14,9c0.1,1.8,0.8,3.3,2.5,3.8c3.3,0.8,6.6-2,8.5-5.2
		c0,0,0.3-0.6,0.7-0.5c0.4,0.2-0.2,1.2-0.2,1.2c-1.2,2.9-7.4,8.8-12,6.7c-7.6-3.5-0.5-16.7,6.4-20.3c1.3-0.7,3.1-1,4.2-1
		C208,45,210.3,47.5,208.4,50.9z M202.6,46.2c-4.2,2-7.1,7.8-7.9,10.9c-0.1,0.5-0.2,1.1-0.2,1.7c2.1-0.9,4.3-1.8,6.3-3.1
		c4-2.5,5.1-5.2,5.1-5.2C207.2,47.5,206,44.8,202.6,46.2z M225.7,44.6c-1.4,0-3.3,0.4-5.1,1.5c-0.8,0.4-1.6,1-2.5,2H218
		c0.1-1-0.4-2.6-1.7-3c-2.3-0.7-4.2,1-5.9,2.7c-0.1,0.1-0.5,0.5-0.2,0.8c0,0,0.4,0.4,0.8,0.1c1.3-1.3,2.3-2.3,3.4-1.8
		c0.5,0.2,0.8,0.7,0.3,2.3c-0.4,1-1,2.5-6,16.8c-0.1,0.3,0.3,0.3,0.3,0.3s2.3-0.5,2.7-0.7c0.5-0.2,0.6-0.5,0.6-0.5s1-2.9,2.5-6.7l0,0
		l1.6-4.5c0.2-0.6,0.2-0.7,0.3-0.8c1.5-4,3.2-5.5,4.6-6.1l0.6-0.3l0.4-0.2l0.7-0.3l0.5-0.2l0.5-0.2l0.4-0.1l0,0
		c0.4-0.1,0.7-0.1,0.9-0.1c0.9,0,1.8,0.2,2.2,0.8c0.3,0.4-0.1,0.7-0.3,0.9c-0.1,0-0.1,0.1-0.2,0.1c-0.5,0.4-1,1.1-1,1.8
		c0,0.6,0.2,1.2,0.7,1.6c1.5,1.3,3.4-0.3,3.8-1.8C231.2,44.7,226.6,44.6,225.7,44.6z M254.6,33.2c0,0.8-0.5,1.3-0.5,1.3
		s-0.6,0.4-1.3,0.4c-0.5,0-1.1-0.2-1.4-1.2c-0.6-2-1.6-2.6-2.7-2.6c-0.4,0-0.8,0.1-1.3,0.2c0,0-3,0.8-5.1,6.6
		c-0.5,1.3-1.2,3.6-2.3,7.2h6.1c0,0,0.5,0,0.5,0.7c0,1-0.7,1-0.7,1h-6.4c0,0,0.1-0.3-1.9,5.8c-0.9,2.8-1.8,5.7-2.7,8.5
		c-4.8,15.5-14.6,33.7-30.5,39.2c-3,1-5.8,1.7-8.7,1.7c-5.1,0-13.1-2.3-13.1-9.4c0-9.6,15.1-14.7,19.1-14.7c0.5,0,1.5,0,1.5,0.8
		c0,0.8-0.6,1-0.9,1c-0.3,0-0.6-0.2-0.6-0.2c-0.6-0.2-1.3-0.3-1.9-0.3c-4.7,0-14.1,5.4-14.1,12.4c0,6.6,6.6,9,11.9,9
		c2.1,0,4.1-0.3,5.9-0.9c18.4-6.3,25.8-30.1,31.5-49c0.2-0.6,0.2-1.2,0.2-1.7c0-1.4-0.7-2.2-2.3-2.2h-1c0,0-0.7,0-0.7-0.8
		c0-0.9,0.6-0.9,0.7-0.9h4.7c0.2-0.8,0.4-1.2,0.4-1.2c0.9-2.1,4.1-14,12.5-14c2,0,4,0.7,4.8,2.1C254.5,32.5,254.6,32.9,254.6,33.2z
		 M267.3,83.8c0.6,1-2.4,2-5.7,0.7c-6.1-2.4-8.1-12-3.5-25.4c-0.1,0-0.1,0-0.1,0c-1,2.5-4.9,7.1-8.7,7.1c-3.4,0-4.8-3.2-4.8-5.8
		c0-6.5,7-15.8,12.3-15.8c0.9,0,4.1,0.5,4.1,4.8c0,0.1,0,0.3,0,0.4c1.4-3.8,2.8-4.6,4.7-4.8c0,0,0.7,0,0.7,0.3c0,0,0,0.1-0.1,0.2
		c-1.2,1-2.3,4.6-2.3,4.6c-8,20.9-6.6,31-1.3,33.4C265,84.6,266.5,82.3,267.3,83.8z M251.2,63.7c5.4,0,8.6-10,8.6-13.4
		c0-2.6-0.9-4-2.5-4c-3.9,0-8,7.1-8.9,10.7c-0.2,1-0.4,1.9-0.4,2.8c0,1.8,0.6,3.4,2.2,3.8C250.5,63.7,250.9,63.7,251.2,63.7z
		 M279.8,46.8c0-0.3-0.2-0.8-1.5-0.8c-0.5,0-1.2,0.1-2,0.5c-5,2.6-7.5,10.2-7.5,12.6c0,2.7,1.5,4.8,4.3,4.8c2.8,0,5-2.5,6.5-5.3
		c0,0,0.2-0.5,0.5-0.5c0.2,0,0.3,0.2,0.3,0.4c0,2-4.6,7.9-9.3,7.9c-4.2,0-6-3.6-6-6.6c0-6.6,6.6-15,12.7-15c4,0,4.9,2.8,4.9,3.6
		c0,2.6-1.5,3.3-2.7,3.3c-2,0-2.7-1.5-2.7-2.2c0-0.9,0.7-1.6,1.2-1.8C279.6,47.4,279.8,47.1,279.8,46.8z M300.3,50.9
		c-2.6,4.4-9.2,7-14,9c0.1,1.8,0.8,3.3,2.5,3.8c3.3,0.8,6.6-2,8.5-5.2c0,0,0.3-0.6,0.7-0.5c0.4,0.2-0.2,1.2-0.2,1.2
		c-1.2,2.9-7.4,8.8-12,6.7c-7.6-3.5-0.5-16.7,6.4-20.3c1.3-0.7,3.1-1,4.2-1C299.8,45,302.2,47.5,300.3,50.9z M294.5,46.2
		c-4.2,2-7.1,7.8-7.9,10.9c-0.1,0.5-0.2,1.1-0.3,1.7c2.1-0.9,4.3-1.8,6.3-3.1c4-2.5,5.1-5.2,5.1-5.2
		C299.1,47.5,297.9,44.8,294.5,46.2z M351.5,28.8c-3.3,3.3-9,6.7-19.1,8.5c1.5,2.8,5.1,3.6,6.5,3c0.5-0.3,0.5,0.2,0.4,0.4
		c-0.5,0.5-1.4,0.8-1.7,0.8c-0.4,0-0.8,0.1-1.1,0.1c-3,0.5-16.8,2.2-17.9,16.3c-0.3,4.4,2.7,9.4,8.4,10.1c-0.3-2.4-0.1-5.3,1-8.7
		c1.4-4.8,8.7-14.7,15.3-11.6c5.9,3-1.2,20.6-14.3,21.7c0.7,3.1,2.5,6.2,6.4,9.1c0.3,0.2,0.5,1-0.6,0.8c-0.5-0.1-6.1-2.9-7.5-9.8
		c-6.2-0.2-11.6-2.5-12.5-9.7c-1-8.7,9.8-17.3,17.7-18.2c0.1,0,0.2,0,0.2,0c-2.4-0.5-3.8-1.8-4.3-3.5c-1,0.1-2,0.2-3.1,0.3
		c-18.3,1.4-35.3-4.9-35.6-18.6C290.1,3,313.8-3.7,331.2,2.9c1.8,0.8,1.6,1.9,1.3,2.4c-0.4,0.7-1.3,0.7-2.3,0.3
		c-1.5-0.8-1.7-2.5-8.3-3.6c-38.4-3.8-40.7,34.9,3.3,34.7c1-0.1,1.9-0.2,2.8-0.2c-0.2-3.7,2.6-8.7,7.7-12.5
		C347.4,14.8,359.8,18.9,351.5,28.8z M328.8,67.9c1.1,0,2.3-0.2,3.6-0.6c9.4-2.7,13.4-16.3,9.4-18c-3.7-1.6-8.4,3.1-10.5,7.1
		C330,58.8,328.2,63.2,328.8,67.9z M351.2,21.9c-1.8-2.5-5.8-1.8-9.1-0.2c-3,1.5-11.9,7.4-10.1,14.3
		C349.2,33.2,353.4,25.1,351.2,21.9z M359.5,63.3c0-2.3,1.3-5.2,1.6-6.1c1.8-4.9,3.1-6.4,3.1-8.7c0-0.9-0.3-1.8-1.6-1.8
		c-2.8,0-6.3,4.4-8.2,9.5c-2,5.3-3.4,8.8-3.4,8.8s-0.1,0.4-0.5,0.5c-0.5,0.2-2.9,0.8-2.9,0.8c0,0-0.3,0-0.3-0.3
		c0.1-0.3,6.1-15.8,6.1-15.8s0.5-1.2,0.5-2.3c0-0.7-0.3-1.3-1-1.3c-1.4,0-3.3,2.7-3.3,2.7s-0.2,0.3-0.5,0.3c-0.3,0-0.4-0.2-0.4-0.4
		c0-0.2,0.1-0.3,0.1-0.3s2.8-4.4,5.3-4.4c1.5,0,2.6,1.3,2.6,2.9c0,0.8-0.2,1.8-0.8,3.1h0.1c1.4-1.9,4.1-5.8,7.4-5.8
		c2.8,0,3.7,1.9,3.7,3.5c0,2.1-3.6,11.4-4.3,13c0,0-0.3,0.7-0.3,1.4c0,0.7,0.2,1.4,1.3,1.5c2.1,0,2.6-3.2,3.6-3.2
		c0.3,0,0.4,0.3,0.4,0.5c0,0.1,0,0.2,0,0.3c-0.7,1.9-2.8,4.8-5.7,4.8c-0.3,0-0.7,0-1-0.1C360,65.9,359.5,64.7,359.5,63.3z
		 M405.4,79.2c0,6.5-5.3,13-10.5,15c-0.3,0.2-0.8,0.3-1.2,0.3c-0.7,0-1.3-0.3-1.3-0.9c0-2.2,3.5-0.7,6.5-3.3c2.1-2,5-6.4,5-10.6
		c0-8.2-13.7-9.8-19.7-9.9c-4.6,14.3-13.1,27.7-28.5,32.1c-2.4,0.7-5.5,1.3-8.5,1.3c-5.8,0-11.8-2.7-11.8-9.7c0-2.1,0.7-4.4,2-6.4
		c5.9-8.8,17.9-13.7,28.2-16.4c5-1.3,10.4-2.2,15.7-2.3c0-0.1,0-0.2,0.1-0.3c0.6-2.1,2.3-7.9,2.7-8.9c-0.1,0-0.1,0-0.1,0
		c-1,2.5-4.9,7.1-8.6,7.1c-3.6,0-5.2-3.4-5.2-6.1c0-6.5,7.1-15.5,12.4-15.5c1,0,4.2,0.5,4.2,5.3c1.3-3.8,2.7-4.7,4.7-4.8
		c0,0,0.7,0,0.7,0.2c0,0,0,0.1-0.1,0.2c-2,1.8-2.9,7.4-4.5,12.2l-2.8,9.7c-0.1,0.3-0.3,1.1-0.3,1.1C390.1,68.5,405.4,70.3,405.4,79.2
		z M381.1,69.7c-7.4,0-14.9,1.7-21.8,4c-9.2,3-22.3,10.3-22.3,19.6c0,2.2,0.8,4.2,2.3,5.9c1.9,1.9,4.9,2.5,8.1,2.5
		c4.3,0,8.8-1.2,11.2-2.2C371.3,94,377.2,82.2,381.1,69.7z M377.2,63.7c5.3,0,8.5-9.9,8.5-13.3c0-2.9-1-4.1-2.7-4.1
		c-3.7,0.2-7.4,6.5-8.5,10.2c-0.2,0.4-0.5,2.4-0.5,3.2c0,1.9,0.6,3.5,2.2,3.9C376.6,63.7,376.9,63.7,377.2,63.7z M392.6,47.7
		c-0.5,0-0.5-0.3-0.5-0.4c0-0.8,2.7-2.6,4.6-2.6c2.6,0,3.5,1.6,3.5,3.1c0,1.3-0.5,2.8-1,4.1c-3,7.2-3.8,10.6-3.8,10.8
		c0,0.7,0.3,1.5,1.5,1.5c1.7,0,2.4-1.5,3.2-2.8c0,0,0.2-0.3,0.5-0.3c0.3,0,0.4,0.3,0.4,0.4c0,0.1,0,0.2,0,0.3
		c-0.9,2.3-3.4,4.8-6.1,4.8c-2.3,0-3-1.4-3-2.8c0-1.9,3.6-10.3,4.4-12.8c0,0,0.7-1.7,0.7-3c0-0.7-0.3-1.4-1-1.4c-0.8,0-1.7,0.5-2.6,1
		C393.1,47.6,392.8,47.7,392.6,47.7z M398,39c0-1.2,1.1-2.3,2.3-2.3c1.2,0,2.3,1.1,2.3,2.3c0,1.3-1.1,2.3-2.3,2.3
		C399.1,41.3,398,40.2,398,39z M414.4,63.3c0-2.3,1.3-5.2,1.6-6.1c1.8-4.9,3.1-6.4,3.1-8.7c0-0.9-0.3-1.8-1.6-1.8
		c-2.8,0-6.3,4.4-8.1,9.5c-2,5.3-3.4,8.8-3.4,8.8s-0.1,0.4-0.5,0.5c-0.5,0.2-2.9,0.8-2.9,0.8c0,0-0.3,0-0.3-0.3
		c0.1-0.3,6.1-15.8,6.1-15.8s0.5-1.2,0.5-2.3c0-0.7-0.2-1.3-1-1.3c-1.4,0-3.3,2.7-3.3,2.7s-0.2,0.3-0.5,0.3c-0.3,0-0.4-0.2-0.4-0.4
		c0-0.2,0.1-0.3,0.1-0.3s2.8-4.4,5.4-4.4c1.5,0,2.6,1.3,2.6,2.9c0,0.8-0.2,1.8-0.8,3.1h0.1c1.4-1.9,4.1-5.8,7.4-5.8
		c2.8,0,3.7,1.9,3.7,3.5c0,2.1-3.6,11.4-4.3,13c0,0-0.3,0.7-0.3,1.4c0,0.7,0.3,1.4,1.3,1.5c2.1,0,2.6-3.2,3.6-3.2
		c0.3,0,0.4,0.3,0.4,0.5c0,0.1,0,0.2,0,0.3c-0.7,1.9-2.8,4.8-5.7,4.8c-0.3,0-0.7,0-1-0.1C414.9,65.9,414.4,64.7,414.4,63.3z
		 M442.1,50.9c-2.6,4.4-9.2,7-14,9c0.1,1.8,0.8,3.3,2.5,3.8c3.3,0.8,6.6-2,8.5-5.2c0,0,0.3-0.6,0.7-0.5c0.4,0.2-0.2,1.2-0.2,1.2
		c-1.2,2.9-7.4,8.8-12,6.7c-7.6-3.5-0.5-16.7,6.4-20.3c1.3-0.7,3.1-1,4.2-1C441.7,45,444.1,47.5,442.1,50.9z M436.3,46.2
		c-4.2,2-7.1,7.8-7.9,10.9c-0.1,0.5-0.2,1.1-0.2,1.7c2.1-0.9,4.3-1.8,6.3-3.1c4-2.5,5.1-5.2,5.1-5.2
		C440.9,47.5,439.7,44.8,436.3,46.2z M460.1,50.9c-2.6,4.4-9.2,7-14,9c0.1,1.8,0.8,3.3,2.5,3.8c3.3,0.8,6.6-2,8.5-5.2
		c0,0,0.3-0.6,0.7-0.5c0.4,0.2-0.2,1.2-0.2,1.2c-1.2,2.9-7.4,8.8-12,6.7c-7.6-3.5-0.5-16.7,6.4-20.3c1.3-0.7,3.1-1,4.2-1
		C459.6,45,462,47.5,460.1,50.9z M454.2,46.2c-4.2,2-7.1,7.8-7.9,10.9c-0.1,0.5-0.2,1.1-0.2,1.7c2.1-0.9,4.3-1.8,6.3-3.1
		c4-2.5,5.1-5.2,5.1-5.2C458.8,47.5,457.6,44.8,454.2,46.2z M477.3,44.6c-1.4,0-3.3,0.4-5.1,1.5c-0.8,0.4-1.6,1-2.5,2h-0.2
		c0.1-1-0.4-2.6-1.7-3c-2.3-0.7-4.2,1-5.9,2.7c-0.1,0.1-0.5,0.5-0.2,0.8c0,0,0.4,0.4,0.8,0.1c1.3-1.3,2.3-2.3,3.4-1.8
		c0.5,0.2,0.8,0.7,0.3,2.3c-0.4,1-1,2.5-6,16.8c-0.1,0.3,0.2,0.3,0.2,0.3s2.3-0.5,2.7-0.7c0.5-0.2,0.6-0.5,0.6-0.5s1-2.9,2.5-6.7l0,0
		l1.6-4.5c0.2-0.6,0.3-0.7,0.3-0.8c1.5-4,3.2-5.5,4.6-6.1l0.6-0.3l0.4-0.2l0.7-0.3l0.5-0.2l0.5-0.2l0.4-0.1l0,0
		c0.4-0.1,0.7-0.1,0.9-0.1c0.9,0,1.8,0.2,2.2,0.8c0.3,0.4-0.1,0.7-0.3,0.9c-0.1,0-0.1,0.1-0.2,0.1c-0.5,0.4-1,1.1-1,1.8
		c0,0.6,0.2,1.2,0.7,1.6c1.5,1.3,3.4-0.3,3.8-1.8C482.8,44.7,478.2,44.6,477.3,44.6z"/>
	<path class="name-path" d="M32.1,159c-3,3.8-7.6,5.6-13.6,5.6c-3.2,0-5.9-0.6-8.1-1.7c-2.2-1.1-4-2.7-5.4-4.7
		c-1.4-2-2.4-4.4-3.1-7.1c-0.7-2.7-1.1-5.7-1.4-8.9l12.8-2.6c0.2,2.5,0.4,4.5,0.7,6.1c0.3,1.6,0.6,2.9,1,3.8c0.4,1,0.9,1.6,1.5,2
		c0.6,0.4,1.3,0.6,2.2,0.6c1.6,0,2.7-0.7,3.4-2.2c0.6-1.5,1-4.1,1-7.9V79.3h13.6v61.8C36.7,149.3,35.2,155.2,32.1,159z M85.8,121.1
		c0,7.4-0.3,13.8-1,19.2c-0.6,5.4-1.7,10-3.3,13.6s-3.6,6.3-6.2,8.1c-2.6,1.8-5.7,2.7-9.5,2.7c-3.7,0-6.8-0.9-9.2-2.6
		c-2.5-1.8-4.5-4.4-5.9-8c-1.5-3.6-2.5-8-3.2-13.4c-0.6-5.4-1-11.7-1-19c0-7.3,0.3-13.7,1-19.1c0.6-5.5,1.7-10,3.2-13.6
		c1.5-3.6,3.5-6.3,6-8.1c2.5-1.8,5.6-2.7,9.4-2.7c7.4,0,12.6,3.6,15.4,10.8C84.3,96,85.8,106.8,85.8,121.1z M72,121.6
		c0-6.4-0.1-11.6-0.3-15.7s-0.5-7.3-1-9.5c-0.5-2.3-1.1-3.8-1.9-4.7c-0.8-0.8-1.7-1.3-2.7-1.3c-1.1,0-2.1,0.4-2.8,1.2
		c-0.7,0.8-1.3,2.3-1.8,4.6c-0.4,2.3-0.7,5.4-0.9,9.4c-0.2,4-0.2,9.2-0.2,15.5c0,6.4,0.1,11.6,0.3,15.7c0.2,4.1,0.5,7.3,1,9.5
		c0.5,2.3,1.1,3.8,1.8,4.7c0.7,0.8,1.6,1.3,2.7,1.3c1.1,0,2-0.4,2.7-1.2c0.8-0.8,1.4-2.3,1.8-4.6c0.4-2.3,0.8-5.4,1-9.4
		C71.9,133.1,72,128,72,121.6z M120.3,163.3v-38.5h-11v38.5H95.8v-84h13.4v33h11v-33h13.4v84H120.3z M173.4,163.3l-8.2-25.8
		c-0.6-2.1-1.3-4.3-2-6.7c-0.7-2.4-1.4-4.8-2-7.2c-0.6-2.4-1.3-4.7-1.9-6.8c-0.6-2.1-1.1-4-1.5-5.6c0,1.5,0,3.3,0.1,5.4
		c0,2.1,0.1,4.3,0.1,6.5c0,2.3,0.1,4.6,0.1,6.8c0,2.3,0.1,4.3,0.1,6.2v27.1h-12.5v-84h12.1l6.6,20.5c0.6,1.7,1.2,3.6,1.9,5.8
		c0.7,2.2,1.3,4.3,2,6.5c0.6,2.2,1.2,4.3,1.8,6.4c0.6,2.1,1,3.9,1.4,5.5c0-1.4,0-3.2-0.1-5.2c0-2-0.1-4.2-0.1-6.4
		c0-2.2-0.1-4.3-0.1-6.4c0-2.1-0.1-3.9-0.1-5.5V79.3h12.5v84H173.4z M242.8,163.3l-7-37h-3.4v37h-13.3v-84h17.5
		c2.6,0,5.1,0.4,7.4,1.1c2.3,0.8,4.3,2,6,3.8c1.7,1.8,3.1,4.2,4.1,7.1c1,3,1.5,6.6,1.5,11c0,4.9-0.7,9-2,12.3
		c-1.3,3.3-3.1,5.9-5.5,7.7l8.3,40.8H242.8z M242.1,103.1c0-4.6-0.5-7.9-1.5-9.7c-1-1.8-2.7-2.7-5-2.7h-3.1v24.6h2.8
		c2.3,0,4-0.9,5.2-2.8C241.6,110.7,242.1,107.6,242.1,103.1z M303.7,121.1c0,7.4-0.3,13.8-1,19.2c-0.6,5.4-1.7,10-3.3,13.6
		s-3.6,6.3-6.2,8.1c-2.6,1.8-5.7,2.7-9.5,2.7c-3.7,0-6.8-0.9-9.2-2.6c-2.5-1.8-4.5-4.4-5.9-8c-1.5-3.6-2.5-8-3.2-13.4
		c-0.6-5.4-1-11.7-1-19c0-7.3,0.3-13.7,1-19.1c0.6-5.5,1.7-10,3.2-13.6c1.5-3.6,3.5-6.3,6-8.1c2.5-1.8,5.6-2.7,9.4-2.7
		c7.4,0,12.6,3.6,15.4,10.8C302.3,96,303.7,106.8,303.7,121.1z M289.9,121.6c0-6.4-0.1-11.6-0.3-15.7s-0.5-7.3-1-9.5
		c-0.5-2.3-1.1-3.8-1.9-4.7c-0.8-0.8-1.7-1.3-2.7-1.3c-1.1,0-2.1,0.4-2.8,1.2c-0.7,0.8-1.3,2.3-1.8,4.6c-0.4,2.3-0.7,5.4-0.9,9.4
		c-0.2,4-0.2,9.2-0.2,15.5c0,6.4,0.1,11.6,0.3,15.7c0.2,4.1,0.5,7.3,1,9.5s1.1,3.8,1.8,4.7c0.7,0.8,1.6,1.3,2.7,1.3
		c1,0,2-0.4,2.7-1.2c0.8-0.8,1.4-2.3,1.8-4.6c0.4-2.3,0.8-5.4,1-9.4C289.8,133.1,289.9,128,289.9,121.6z M351.2,120.7
		c0,14.5-1.8,25.2-5.3,32.2c-3.5,7-9.1,10.4-16.8,10.4h-15.4v-84h16.7c4.1,0,7.5,0.9,10.1,2.8c2.7,1.9,4.8,4.6,6.4,8.1
		c1.6,3.5,2.7,7.9,3.3,13C350.9,108.4,351.2,114.2,351.2,120.7z M337.4,120.9c0-6.1-0.2-11.2-0.5-15c-0.3-3.9-0.8-6.9-1.4-9
		c-0.6-2.2-1.5-3.6-2.5-4.4c-1-0.8-2.2-1.2-3.7-1.2h-2.3v60.5h2c1.4,0,2.6-0.4,3.6-1.3c1-0.8,1.9-2.4,2.6-4.6
		c0.7-2.2,1.2-5.3,1.6-9.3C337.2,132.5,337.4,127.3,337.4,120.9z M361.3,163.3v-84h13.4v71.5h16v12.5H361.3z M399.4,163.3v-84h31.4
		v12.5h-18v21h13.8v12.5h-13.8v25.6H432v12.5H399.4z M464.6,163.3l-7-37h-3.4v37H441v-84h17.5c2.6,0,5.1,0.4,7.4,1.1
		c2.3,0.8,4.3,2,6,3.8s3.1,4.2,4.1,7.1c1,3,1.5,6.6,1.5,11c0,4.9-0.7,9-2,12.3c-1.3,3.3-3.1,5.9-5.5,7.7l8.3,40.8H464.6z
		M463.9,103.1c0-4.6-0.5-7.9-1.5-9.7c-1-1.8-2.7-2.7-5-2.7h-3.1v24.6h2.8c2.3,0,4-0.9,5.2-2.8C463.3,110.7,463.9,107.6,463.9,103.1z"/>
</svg>
