<svg version="1.1" class="header-splash" xmlns="http://www.w3.org/2000/svg" xmlns:xlink="http://www.w3.org/1999/xlink" x="0px" y="0px"
	 viewBox="0 0 520 176" enable-background="new 0 0 520 176" xml:space="preserve">
	<title>John Rodler - User Interface Engineer</title>
	<filter id="title-shadow">
		<feGaussianBlur in="SourceAlpha" stdDeviation="2" />
		<feOffset dx="2" dy="2" />
		<feMerge>
			<feMergeNode />
			<feMergeNode in="SourceGraphic" />
		</feMerge>
	</filter>
	<filter id="name-shadow">
		<feGaussianBlur in="SourceAlpha" stdDeviation="1" />
		<feOffset dx="1" dy="1" />
		<feMerge>
			<feMergeNode />
			<feMergeNode in="SourceGraphic" />
		</feMerge>
	</filter>
	<defs>
		<linearGradient id="name-gradient" x1="0.5" y1="0" x2="0.5" y2="1">
			<stop offset="0" stop-color="#FFFFFF" />
			<stop offset="1" stop-color="#BBBBBB" />
		</linearGradient>
	</defs>
	<path class="title-path" filter="url(#title-shadow)" d="M47.7,48.9C47.7,48.9,47.7,48.9,47.7,48.9c-2.5,2.8-6.5,12.8-6.5,18.5 c0,1,0.4,1.8,1.4,1.9c1.9,0,2.9-2.7,3.3-3c0.1-0.3,0.4-0.5,0.7-0.5c0.3,0,0.4,0.2,0.4,0.4c0,1.8-3.2,5.5-5.7,5.5c-2.3,0-3-2-3-3.9 c0-2.6,1.1-5.6,1.7-6.8c0,0-0.1,0-0.1,0c-3.4,5.9-8.2,10.7-13.5,10.7c-4.3,0-5.7-2.4-5.7-5.4c0-4.2,2.7-9.8,4.2-13.4 c2.1-5.2,5.7-14.2,5.7-22.5c0-6-3.6-11-10.8-11c-5.7,0-13.8,4-15.7,14.4c-0.2,1.3-0.4,2.4-0.4,3.6c0,9.5,7.9,13.5,10.8,14.3 c0.7,0.2,1.2,0.3,1.6,0.3c2.3,0,2-1.7,3.3-1.7c0.7,0,1.4,0.5,1.4,1.4c0,1.5-2,1.6-3.4,1.6c-9.9,0-16.4-7.1-16.4-16.4 C0.8,26.2,9.2,18,19.3,18C29.9,18,33,24.5,33,31.6c0,8.9-4.7,19.3-5.6,21.9c-1.5,4.4-3.7,9.2-3.7,12.3c0,2,0.9,3.3,3.3,3.3 c3.7,0,9.8-2.6,15.1-15.8c1.4-3.5,2.8-4.5,4.8-4.7C46.9,48.6,47.7,48.7,47.7,48.9z M62.4,54.8c-0.5-0.5-0.8-1.1-0.8-1.8 c0-0.8,0.5-1.6,1-2c0.1,0,0.1-0.1,0.2-0.1c0.3-0.2,0.7-0.5,0.4-0.9c-0.4-0.7-1.4-0.9-2.3-0.9c-0.8,0-3,0.3-4.2,2.4 c-5.7,9.4,3.8,26.7-1.5,35.6c-1,1.7-3.7,5.5-8.9,5.5c-3.9,0-7.6-1.6-6.2-6.6c0.5-1.4,1.7-1.9,2.7-1.9c0.7,0,1.1,0.4,1.4,0.9 c0.9,1.3-1.9,3-0.7,4.8c0.7,1,1.5,1.4,2.9,1.3c1.8,0,3.8-1.4,5.1-3.7c5.5-8.9-3.1-26.6,0.8-34c2.3-4.6,6.5-5.3,9.1-5.3 c1,0,6,0.2,5,4.9C66.1,54.5,64.1,56.1,62.4,54.8z M84,55c-2.8,4.7-9.9,7.5-15.1,9.8c0.1,2,0.9,3.6,2.8,4.1c3.5,0.8,7.1-2.1,9.2-5.6 c0,0,0.3-0.7,0.8-0.5c0.4,0.2-0.2,1.3-0.2,1.3c-1.3,3.2-8,9.5-13,7.2c-8.2-3.8-0.6-18.1,7-21.9c1.4-0.8,3.4-1.1,4.5-1 C83.5,48.5,86.1,51.3,84,55z M77.7,49.9c-4.5,2.2-7.7,8.4-8.5,11.8c-0.1,0.6-0.2,1.2-0.3,1.8c2.3-0.9,4.7-2,6.8-3.3 c4.3-2.7,5.6-5.6,5.6-5.6C82.7,51.3,81.4,48.4,77.7,49.9z M103,48.1c-1.5,0-3.6,0.2-5.5,1.3c-0.8,0.5-1.7,0.9-2.7,1.9h-0.2 c0.1-1-0.5-2.5-1.9-2.9c-2.5-0.8-4.5,1.2-6.4,3.1c-0.1,0.1-0.5,0.6-0.2,0.9c0,0,0.4,0.5,0.9,0.1c1.4-1.4,2.5-2.5,3.7-2 c0.5,0.2,0.9,0.8,0.3,2.4c-0.4,1.1-1.1,2.7-6.5,18.2c-0.1,0.4,0.3,0.4,0.3,0.4s2.4-0.6,2.9-0.8c0.5-0.2,0.7-0.6,0.7-0.6 s1.1-3.2,2.7-7.3l0,0l1.7-4.9c0.2-0.6,0.3-0.7,0.3-0.8c1.6-4.3,3.5-6,5-6.6l0.7-0.3l0.5-0.2l0.7-0.3l0.6-0.2l0.6-0.2l0.4-0.1l0,0 c0.4-0.1,0.8-0.1,1-0.1c0.9,0,1.9,0.2,2.3,0.9c0.3,0.4-0.1,0.8-0.4,0.9c-0.1,0-0.1,0.1-0.2,0.1c-0.6,0.4-1,1.2-1,2 c0,0.7,0.2,1.3,0.8,1.8c1.6,1.4,3.7-0.3,4.1-1.9C109,48.3,104,48.1,103,48.1z M178.2,22.7c0.6,0,0.7,0.3,0.7,0.6 c0,0.3-0.1,0.6-0.4,0.6c-7,1.5-10.3,16.9-13.9,28.7c-3.8,12.1-12.7,21.4-24.2,21.4c-11.9,0-19.1-9.5-19.1-19.1 c0-7.5,4.3-14.5,12.2-17.7c0.3-0.1,0.6-0.2,0.8-0.2c0.8,0,1.1,0.6,1.1,1.2c0,0.5-0.4,1.2-1.2,1.2c-0.4,0-0.8-0.1-1.2-0.1 c-0.9,0-2.2,0.3-3.9,2.4c-3.6,4.6-4.3,9.1-4.3,12.5c0,0.8,0,1.5,0.1,2.1c0.2,3.6,3.8,16,16.4,16c17.2,0,20.7-22.5,23.4-31.6 c2.7-9.4,6.5-13.8,8.6-15.6c-0.3,0.1-0.6,0.1-1.1,0.1c-4,0-14.3-2.9-19.2-2.9c-5.6,0-12.6,3.3-12.9,10.1c0,7.9,7.3,9.9,11.2,9.9 c5.8,0,4.5-3.4,6.3-3.4c0.5,0,1.1,0.6,1.1,1.2c0,0.3-0.1,0.7-0.5,0.9c-3.3,1.9-6.5,2.7-9.2,2.7c-7.3,0-11.8-5.6-11.8-9.9 c0-6,6-12.6,15.6-12.6c7.5,0,13.6,2.5,19.5,2.5c1.7,0,3.4-0.2,5.1-0.8C177.7,22.7,178,22.7,178.2,22.7z M182.2,68.4 c0-2.5,1.4-5.6,1.7-6.6c2-5.3,3.3-6.9,3.3-9.4c0-1-0.4-1.9-1.8-1.9c-3.1,0-6.8,4.8-8.8,10.3c-2.1,5.7-3.7,9.5-3.7,9.5 s-0.1,0.4-0.5,0.6c-0.5,0.2-3.1,0.8-3.1,0.8c0,0-0.3,0-0.3-0.4c0.1-0.4,6.6-17.1,6.6-17.1s0.5-1.3,0.5-2.4c0-0.7-0.3-1.4-1-1.4 c-1.5,0-3.6,2.9-3.6,2.9s-0.2,0.3-0.5,0.3c-0.3,0-0.5-0.2-0.5-0.4s0.1-0.4,0.1-0.4s3-4.7,5.8-4.7c1.6,0,2.8,1.4,2.8,3.1 c0,0.9-0.2,2-0.8,3.4h0.1c1.5-2,4.4-6.3,8-6.3c3.1,0,4,2.1,4,3.8c0,2.3-3.9,12.3-4.6,14c0,0-0.3,0.8-0.3,1.5c0,0.8,0.3,1.5,1.4,1.6 c2.3,0,2.8-3.4,3.9-3.4c0.3,0,0.5,0.3,0.5,0.5c0,0.1,0,0.2,0,0.3c-0.7,2.1-3,5.2-6.1,5.2c-0.4,0-0.7,0-1.1-0.1 C182.7,71.2,182.2,69.9,182.2,68.4z M246.5,40.1c0,1.7-0.9,3.5-2.5,4.8c-0.5,0.4-2.3,1.2-3.2,1.2c-0.2,0-0.4,0-0.4-0.1 c0-0.1,0.3-0.3,0.8-0.6c1.6-1.2,2.7-3,2.7-4.7c0-0.6-0.2-1.3-0.5-1.9c-2.1-3.7-7.7-5-14.6-5c-6.9,0-15.7,1.4-22,4.1 c-0.3,0.9-0.6,1.8-0.6,1.8l-7.3,22.1c-0.8,2.4-1.4,4.4-1.3,5.8c0,1,0.3,1.7,0.9,1.7c1.9,0,2.6-1.7,3.5-3.1c0,0,0.2-0.3,0.5-0.3 c0.3,0,0.5,0.2,0.5,0.4c0,0.1,0,0.2,0,0.3c-0.9,2.3-3.4,5.1-6.2,5.1c-2.3,0-3-1.3-3-3c0-1.6,0.6-3.5,1.1-5c0.3-0.9,1.2-3.6,2.3-6.8 h0c0.3-0.9,0.5-2.2,0.5-3.4c0-3.7-0.7-5.2-0.7-6.2c0-4.7,4.5-7.9,6.7-9c1.5-3.3,3-4.9,4.9-5.1c0,0,0.8,0,0.8,0.3 c0-0.1-1.3,1.6-1.9,3.1c6.6-2.5,14.6-4.1,22-4.1c6,0,13.8,0.9,16.6,5.3C246.3,38.5,246.5,39.3,246.5,40.1z M203,39.7 c-2.1,1.4-4.9,3.7-5,7.2c0,1.2,0.5,2.2,0.6,5.4C200.4,47.1,202.5,41.4,203,39.7z M223.8,55c-2.8,4.7-9.9,7.5-15.1,9.8 c0.1,2,0.9,3.6,2.8,4.1c3.5,0.8,7.1-2.1,9.2-5.6c0,0,0.3-0.7,0.8-0.5c0.4,0.2-0.2,1.3-0.2,1.3c-1.3,3.2-8,9.5-13,7.2 c-8.2-3.8-0.6-18.1,7-21.9c1.4-0.8,3.4-1.1,4.5-1C223.3,48.5,225.9,51.3,223.8,55z M217.5,49.9c-4.5,2.2-7.7,8.4-8.5,11.8 c-0.1,0.6-0.2,1.2-0.3,1.8c2.3-0.9,4.7-2,6.8-3.3c4.3-2.7,5.6-5.6,5.6-5.6C222.5,51.3,221.2,48.4,217.5,49.9z M242.5,48.1 c-1.5,0-3.6,0.2-5.5,1.3c-0.8,0.5-1.7,0.9-2.7,1.9h-0.2c0.1-1-0.5-2.5-1.9-2.9c-2.5-0.8-4.5,1.2-6.4,3.1c-0.1,0.1-0.5,0.6-0.2,0.9 c0,0,0.4,0.5,0.9,0.1c1.4-1.4,2.5-2.5,3.7-2c0.5,0.2,0.9,0.8,0.3,2.4c-0.4,1.1-1.1,2.7-6.5,18.2c-0.1,0.4,0.3,0.4,0.3,0.4 s2.4-0.6,2.9-0.8c0.5-0.2,0.7-0.6,0.7-0.6s1.1-3.2,2.7-7.3l0,0l1.7-4.9c0.2-0.6,0.3-0.7,0.3-0.8c1.6-4.3,3.5-6,5-6.6l0.7-0.3 l0.5-0.2l0.7-0.3l0.6-0.2l0.6-0.2l0.4-0.1l0,0c0.4-0.1,0.8-0.1,1-0.1c0.9,0,1.9,0.2,2.3,0.9c0.3,0.4-0.1,0.8-0.4,0.9 c-0.1,0-0.1,0.1-0.2,0.1c-0.6,0.4-1,1.2-1,2c0,0.7,0.2,1.3,0.8,1.8c1.6,1.4,3.7-0.3,4.1-1.9C248.5,48.3,243.5,48.1,242.5,48.1z M273.8,35.8c0,0.9-0.6,1.4-0.6,1.4s-0.7,0.4-1.4,0.4c-0.6,0-1.2-0.3-1.5-1.3c-0.6-2.1-1.7-2.8-2.9-2.8c-0.5,0-0.9,0.1-1.4,0.2 c0,0-3.3,0.9-5.5,7.1c-0.5,1.4-1.3,3.9-2.5,7.8h6.6c0,0,0.5,0,0.5,0.8c0,1-0.7,1-0.7,1h-7c0,0,0.1-0.4-2.1,6.3c-1,3-1.9,6.2-2.9,9.2 c-5.2,16.7-15.8,36.5-33,42.3c-3.2,1.1-6.3,1.8-9.4,1.8c-5.5,0-14.2-2.4-14.2-10.2c0-10.4,16.3-15.9,20.6-15.9c0.6,0,1.6,0,1.6,0.9 c0,0.8-0.6,1.1-1,1.1c-0.4,0-0.7-0.2-0.7-0.2c-0.7-0.2-1.4-0.3-2-0.3c-5.1,0-15.2,5.9-15.2,13.4c0,7.1,7.1,9.7,12.9,9.7 c2.3,0,4.5-0.4,6.4-1c19.9-6.8,27.9-32.5,34-53c0.2-0.6,0.3-1.3,0.3-1.8c0-1.5-0.7-2.4-2.4-2.4h-1c0,0-0.7,0-0.7-0.9 c0-1,0.7-0.9,0.7-0.9h5.1c0.3-0.8,0.4-1.3,0.4-1.3c1-2.3,4.4-15.1,13.5-15.1c2.2,0,4.3,0.8,5.2,2.3 C273.7,35.1,273.8,35.5,273.8,35.8z M287.5,90.6c0.6,1.1-2.6,2.1-6.1,0.7c-6.6-2.6-8.8-13-3.8-27.5c-0.1,0-0.1,0-0.1,0 c-1.1,2.7-5.3,7.7-9.4,7.7c-3.7,0-5.2-3.4-5.2-6.2c0-7,7.5-17.1,13.3-17.1c1,0,4.5,0.5,4.5,5.2c0,0.1,0,0.3,0,0.5 c1.5-4.1,3-5,5.1-5.2c0,0,0.7,0,0.7,0.3c0,0,0,0.1-0.1,0.2c-1.3,1.1-2.4,5-2.4,5c-8.7,22.6-7.1,33.5-1.4,36.1 C285,91.4,286.6,88.9,287.5,90.6z M270.1,68.8c5.8,0,9.3-10.8,9.3-14.5c0-2.8-0.9-4.3-2.8-4.3c-4.2,0-8.7,7.7-9.6,11.6 c-0.2,1-0.4,2-0.4,3c0,2,0.7,3.7,2.3,4.1C269.4,68.7,269.7,68.8,270.1,68.8z M301,50.5c0-0.3-0.2-0.9-1.6-0.9 c-0.5,0-1.3,0.1-2.1,0.5c-5.4,2.8-8.1,11-8.1,13.6c0,2.9,1.6,5.2,4.7,5.2c3,0,5.4-2.7,7-5.7c0,0,0.2-0.5,0.6-0.5 c0.2,0,0.3,0.2,0.3,0.4c0,2.2-5,8.6-10,8.6c-4.6,0-6.5-3.9-6.5-7.1c0-7.2,7.2-16.3,13.7-16.3c4.3,0,5.3,3,5.3,3.9 c0,2.8-1.6,3.6-2.9,3.6c-2.2,0-2.9-1.6-2.9-2.4c0-0.9,0.7-1.8,1.3-1.9C300.8,51.1,301,50.8,301,50.5z M323.2,55 c-2.8,4.7-9.9,7.5-15.1,9.8c0.1,2,0.9,3.6,2.8,4.1c3.5,0.8,7.1-2.1,9.2-5.6c0,0,0.3-0.7,0.8-0.5c0.4,0.2-0.2,1.3-0.2,1.3 c-1.3,3.2-8,9.5-13,7.2c-8.2-3.8-0.6-18.1,7-21.9c1.4-0.8,3.4-1.1,4.5-1C322.7,48.5,325.3,51.3,323.2,55z M316.9,49.9 c-4.5,2.2-7.7,8.4-8.5,11.8c-0.1,0.6-0.2,1.2-0.3,1.8c2.3-0.9,4.7-2,6.8-3.3c4.3-2.7,5.6-5.6,5.6-5.6 C321.8,51.3,320.6,48.4,316.9,49.9z M378.6,31.1c-3.6,3.6-9.7,7.3-20.6,9.2c1.6,3,5.5,3.9,7,3.2c0.5-0.3,0.6,0.2,0.4,0.4 c-0.5,0.6-1.5,0.8-1.9,0.9c-0.4,0-0.8,0.1-1.2,0.1c-3.3,0.5-18.2,2.3-19.3,17.6c-0.4,4.8,2.9,10.2,9.1,10.9c-0.3-2.6-0.1-5.7,1-9.4 c1.5-5.2,9.4-15.9,16.6-12.6c6.4,3.2-1.3,22.3-15.5,23.4c0.8,3.3,2.8,6.7,6.9,9.9c0.3,0.2,0.6,1.1-0.7,0.8 c-0.5-0.1-6.6-3.1-8.1-10.6c-6.7-0.2-12.6-2.8-13.5-10.5c-1.1-9.4,10.6-18.8,19.1-19.7c0.1,0,0.2,0,0.3,0c-2.6-0.6-4.1-1.9-4.7-3.8 c-1,0.1-2.2,0.2-3.3,0.3c-19.8,1.5-38.1-5.3-38.5-20.1c0.3-17.9,26-25.2,44.8-18c2,0.8,1.8,2,1.4,2.6c-0.5,0.8-1.4,0.8-2.5,0.3 c-1.6-0.8-1.9-2.7-8.9-3.8c-41.5-4.1-44,37.7,3.6,37.6c1.1-0.1,2.1-0.2,3.1-0.3c-0.3-4,2.8-9.4,8.3-13.6 C374.2,15.9,387.5,20.4,378.6,31.1z M354,73.4c1.2,0,2.5-0.2,3.8-0.6c10.2-2.9,14.5-17.6,10.2-19.4c-4-1.7-9.1,3.4-11.3,7.6 C355.3,63.5,353.3,68.2,354,73.4z M378.2,23.6c-2-2.7-6.2-2-9.9-0.2c-3.3,1.6-12.9,8-10.9,15.5C376.1,35.8,380.6,27.1,378.2,23.6z M387.2,68.4c0-2.5,1.4-5.6,1.7-6.6c2-5.3,3.3-6.9,3.3-9.4c0-1-0.4-1.9-1.8-1.9c-3.1,0-6.8,4.8-8.8,10.3c-2.1,5.7-3.7,9.5-3.7,9.5 s-0.1,0.4-0.5,0.6c-0.5,0.2-3.1,0.8-3.1,0.8c0,0-0.3,0-0.3-0.4c0.1-0.4,6.6-17.1,6.6-17.1s0.5-1.3,0.5-2.4c0-0.7-0.3-1.4-1-1.4 c-1.5,0-3.6,2.9-3.6,2.9s-0.2,0.3-0.5,0.3c-0.3,0-0.5-0.2-0.5-0.4s0.1-0.4,0.1-0.4s3-4.7,5.8-4.7c1.6,0,2.8,1.4,2.8,3.1 c0,0.9-0.2,2-0.8,3.4h0.1c1.5-2,4.4-6.3,8-6.3c3.1,0,4,2.1,4,3.8c0,2.3-3.9,12.3-4.6,14c0,0-0.3,0.8-0.3,1.5c0,0.8,0.3,1.5,1.4,1.6 c2.3,0,2.8-3.4,3.9-3.4c0.3,0,0.5,0.3,0.5,0.5c0,0.1,0,0.2,0,0.3c-0.7,2.1-3,5.2-6.1,5.2c-0.4,0-0.7,0-1.1-0.1 C387.7,71.2,387.2,69.9,387.2,68.4z M436.8,85.6c0,7-5.7,14.1-11.3,16.2c-0.4,0.2-0.9,0.3-1.3,0.3c-0.7,0-1.4-0.3-1.4-1 c0-2.3,3.8-0.8,7-3.6c2.3-2.1,5.4-6.9,5.4-11.4c0-8.9-14.8-10.6-21.3-10.8c-4.9,15.5-14.1,30-30.8,34.7c-2.6,0.8-6,1.4-9.2,1.4 c-6.2,0-12.8-2.9-12.8-10.4c0-2.3,0.8-4.7,2.2-6.9c6.3-9.5,19.3-14.8,30.5-17.7c5.4-1.4,11.2-2.3,17-2.5c0-0.1,0-0.2,0.1-0.3 c0.7-2.3,2.5-8.5,2.9-9.7c-0.1,0-0.1,0-0.1,0c-1,2.7-5.3,7.7-9.3,7.7c-3.9,0-5.6-3.7-5.6-6.6c0-7,7.7-16.8,13.4-16.8 c1.1,0,4.6,0.5,4.6,5.7c1.4-4.1,2.9-5.1,5.1-5.2c0,0,0.7,0,0.7,0.2c0,0,0,0.1-0.1,0.2c-2.2,1.9-3.1,8-4.8,13.2l-3,10.4 c-0.1,0.4-0.3,1.2-0.3,1.2C420.3,73.9,436.8,75.9,436.8,85.6z M410.5,75.3c-8,0-16.1,1.9-23.6,4.3c-9.9,3.2-24.1,11.2-24.1,21.2 c0,2.3,0.9,4.6,2.5,6.4c2,2,5.3,2.8,8.8,2.8c4.6,0,9.5-1.3,12.1-2.4C400,101.6,406.4,88.8,410.5,75.3z M406.4,68.8 c5.7,0,9.2-10.7,9.2-14.4c0-3.1-1.1-4.4-2.9-4.4c-4,0.2-8,7-9.2,11c-0.2,0.4-0.5,2.6-0.5,3.5c0,2,0.6,3.8,2.3,4.2 C405.7,68.8,406,68.8,406.4,68.8z M423,51.5c-0.5,0-0.5-0.3-0.5-0.4c0-0.9,2.9-2.8,5-2.8c2.8,0,3.8,1.8,3.8,3.3c0,1.4-0.6,3-1.1,4.4 c-3.3,7.8-4.1,11.5-4.1,11.7c0,0.7,0.4,1.6,1.6,1.6c1.8,0,2.6-1.7,3.5-3.1c0,0,0.2-0.3,0.5-0.3c0.3,0,0.5,0.3,0.5,0.5 c0,0.1,0,0.2,0,0.3c-1,2.5-3.7,5.2-6.6,5.2c-2.5,0-3.2-1.5-3.2-3c0-2,3.9-11.1,4.7-13.9c0,0,0.8-1.9,0.8-3.3c0-0.7-0.3-1.5-1-1.5 c-0.9,0-1.9,0.5-2.8,1C423.5,51.4,423.2,51.5,423,51.5z M428.9,42c0-1.3,1.2-2.5,2.5-2.5c1.3,0,2.5,1.2,2.5,2.5 c0,1.4-1.2,2.5-2.5,2.5C430.1,44.5,428.9,43.4,428.9,42z M446.6,68.4c0-2.5,1.4-5.6,1.7-6.6c2-5.3,3.3-6.9,3.3-9.4 c0-1-0.4-1.9-1.8-1.9c-3.1,0-6.8,4.8-8.8,10.3c-2.1,5.7-3.7,9.5-3.7,9.5s-0.1,0.4-0.5,0.6c-0.5,0.2-3.1,0.8-3.1,0.8 c0,0-0.3,0-0.3-0.4c0.1-0.4,6.6-17.1,6.6-17.1s0.5-1.3,0.5-2.4c0-0.7-0.3-1.4-1-1.4c-1.5,0-3.6,2.9-3.6,2.9s-0.2,0.3-0.5,0.3 c-0.3,0-0.5-0.2-0.5-0.4s0.1-0.4,0.1-0.4s3-4.7,5.8-4.7c1.6,0,2.8,1.4,2.8,3.1c0,0.9-0.2,2-0.8,3.4h0.1c1.5-2,4.4-6.3,8-6.3 c3.1,0,4,2.1,4,3.8c0,2.3-3.9,12.3-4.6,14c0,0-0.3,0.8-0.3,1.5c0,0.8,0.3,1.5,1.4,1.6c2.3,0,2.8-3.4,3.9-3.4c0.3,0,0.5,0.3,0.5,0.5 c0,0.1,0,0.2,0,0.3c-0.7,2.1-3,5.2-6.1,5.2c-0.4,0-0.7,0-1.1-0.1C447.1,71.2,446.6,69.9,446.6,68.4z M476.6,55 c-2.8,4.7-9.9,7.5-15.1,9.8c0.1,2,0.9,3.6,2.8,4.1c3.5,0.8,7.1-2.1,9.2-5.6c0,0,0.3-0.7,0.8-0.5c0.4,0.2-0.2,1.3-0.2,1.3 c-1.3,3.2-8,9.5-13,7.2c-8.2-3.8-0.6-18.1,7-21.9c1.4-0.8,3.4-1.1,4.5-1C476.1,48.5,478.6,51.3,476.6,55z M470.2,49.9 c-4.5,2.2-7.7,8.4-8.5,11.8c-0.1,0.6-0.2,1.2-0.3,1.8c2.3-0.9,4.7-2,6.8-3.3c4.3-2.7,5.6-5.6,5.6-5.6 C475.2,51.3,473.9,48.4,470.2,49.9z M495.9,55c-2.8,4.7-9.9,7.5-15.1,9.8c0.1,2,0.9,3.6,2.8,4.1c3.5,0.8,7.1-2.1,9.2-5.6 c0,0,0.3-0.7,0.8-0.5c0.4,0.2-0.2,1.3-0.2,1.3c-1.3,3.2-8,9.5-13,7.2c-8.2-3.8-0.6-18.1,7-21.9c1.4-0.8,3.4-1.1,4.5-1 C495.4,48.5,498,51.3,495.9,55z M489.6,49.9c-4.5,2.2-7.7,8.4-8.5,11.8c-0.1,0.6-0.2,1.2-0.3,1.8c2.3-0.9,4.7-2,6.8-3.3 c4.3-2.7,5.6-5.6,5.6-5.6C494.6,51.3,493.3,48.4,489.6,49.9z M514.6,48.1c-1.5,0-3.6,0.2-5.5,1.3c-0.8,0.5-1.7,0.9-2.7,1.9h-0.2 c0.1-1-0.5-2.5-1.9-2.9c-2.5-0.8-4.5,1.2-6.4,3.1c-0.1,0.1-0.5,0.6-0.2,0.9c0,0,0.4,0.5,0.9,0.1c1.4-1.4,2.5-2.5,3.7-2 c0.5,0.2,0.9,0.8,0.3,2.4c-0.4,1.1-1.1,2.7-6.5,18.2c-0.1,0.4,0.3,0.4,0.3,0.4s2.4-0.6,2.9-0.8c0.5-0.2,0.7-0.6,0.7-0.6 s1.1-3.2,2.7-7.3l0,0l1.7-4.9c0.2-0.6,0.3-0.7,0.3-0.8c1.6-4.3,3.5-6,5-6.6l0.7-0.3l0.5-0.2l0.7-0.3l0.6-0.2l0.6-0.2l0.4-0.1l0,0 c0.4-0.1,0.8-0.1,1-0.1c0.9,0,1.9,0.2,2.3,0.9c0.3,0.4-0.1,0.8-0.4,0.9c-0.1,0-0.1,0.1-0.2,0.1c-0.6,0.4-1,1.2-1,2 c0,0.7,0.2,1.3,0.8,1.8c1.6,1.4,3.7-0.3,4.1-1.9C520.6,48.3,515.6,48.1,514.6,48.1z"/>
	<path class="name-path" fill="url(#name-gradient)" filter="url(#name-shadow)" d="M33.4,169.7c-3.2,3.9-7.9,5.9-14.2,5.9c-3.4,0-6.2-0.6-8.5-1.8c-2.3-1.2-4.2-2.8-5.7-4.9 c-1.5-2.1-2.6-4.6-3.3-7.4c-0.7-2.9-1.2-6-1.4-9.3l13.5-2.8c0.2,2.6,0.4,4.7,0.7,6.4c0.3,1.7,0.6,3,1.1,4c0.4,1,0.9,1.7,1.6,2.1 c0.6,0.4,1.4,0.6,2.3,0.6c1.7,0,2.9-0.8,3.5-2.3c0.7-1.6,1-4.3,1-8.3v-66h14.2V151C38.2,159.5,36.6,165.8,33.4,169.7z M89.8,129.9 c0,7.7-0.3,14.4-1,20.2c-0.7,5.7-1.8,10.5-3.5,14.2c-1.6,3.8-3.8,6.6-6.5,8.5c-2.7,1.9-6,2.8-10,2.8c-3.9,0-7.1-0.9-9.7-2.8 c-2.6-1.8-4.7-4.6-6.2-8.4c-1.6-3.7-2.7-8.4-3.3-14.1c-0.7-5.7-1-12.3-1-20c0-7.6,0.3-14.3,1-20.1c0.7-5.8,1.8-10.5,3.4-14.3 c1.6-3.8,3.7-6.6,6.3-8.5c2.6-1.9,5.9-2.8,9.8-2.8c7.8,0,13.2,3.8,16.2,11.3C88.3,103.6,89.8,114.9,89.8,129.9z M75.3,130.4 c0-6.7-0.1-12.2-0.3-16.5c-0.2-4.3-0.6-7.6-1.1-10c-0.5-2.4-1.2-4-2-4.9c-0.8-0.9-1.8-1.3-2.9-1.3c-1.2,0-2.2,0.4-2.9,1.3 c-0.8,0.8-1.4,2.5-1.8,4.9c-0.5,2.4-0.8,5.7-1,9.9c-0.2,4.2-0.3,9.6-0.3,16.3c0,6.7,0.1,12.2,0.3,16.5c0.2,4.3,0.6,7.6,1.1,10 c0.5,2.4,1.1,4,1.9,4.9c0.8,0.9,1.7,1.3,2.8,1.3c1.1,0,2.1-0.4,2.9-1.3c0.8-0.8,1.4-2.5,1.9-4.9c0.5-2.4,0.8-5.7,1-9.8 C75.2,142.6,75.3,137.2,75.3,130.4z M126,174.3v-40.4h-11.6v40.4h-14.1V86.1h14.1v34.7H126V86.1h14.1v88.2H126z M181.7,174.3 l-8.6-27.1c-0.7-2.2-1.4-4.5-2.1-7.1c-0.8-2.5-1.5-5-2.1-7.6c-0.7-2.5-1.3-4.9-2-7.1c-0.6-2.2-1.2-4.2-1.6-5.9c0,1.6,0,3.5,0.1,5.7 c0,2.2,0.1,4.5,0.1,6.9c0,2.4,0.1,4.8,0.1,7.2c0,2.4,0.1,4.6,0.1,6.5v28.5h-13.1V86.1h12.7l6.9,21.5c0.6,1.8,1.2,3.8,2,6 c0.7,2.3,1.4,4.5,2.1,6.8c0.7,2.3,1.3,4.5,1.9,6.7c0.6,2.2,1.1,4.1,1.5,5.8c0-1.5,0-3.3-0.1-5.5c0-2.1-0.1-4.4-0.1-6.7 c0-2.3-0.1-4.6-0.1-6.7c0-2.2-0.1-4.1-0.1-5.8V86.1h13.1v88.2H181.7z M254.7,174.3l-7.3-38.8h-3.5v38.8h-14V86.1h18.4 c2.8,0,5.4,0.4,7.7,1.2c2.4,0.8,4.5,2.1,6.3,4c1.8,1.9,3.2,4.4,4.3,7.5c1,3.1,1.6,7,1.6,11.6c0,5.1-0.7,9.4-2.1,12.9 c-1.4,3.5-3.3,6.2-5.7,8.1l8.7,42.8H254.7z M253.9,111c0-4.9-0.5-8.3-1.6-10.1c-1.1-1.9-2.8-2.8-5.2-2.8h-3.3v25.8h2.9 c2.4,0,4.2-1,5.4-2.9C253.3,119.1,253.9,115.7,253.9,111z M318.6,129.9c0,7.7-0.3,14.4-1,20.2c-0.7,5.7-1.8,10.5-3.5,14.2 c-1.6,3.8-3.8,6.6-6.5,8.5c-2.7,1.9-6,2.8-10,2.8c-3.9,0-7.1-0.9-9.7-2.8c-2.6-1.8-4.7-4.6-6.2-8.4c-1.6-3.7-2.7-8.4-3.3-14.1 c-0.7-5.7-1-12.3-1-20c0-7.6,0.3-14.3,1-20.1c0.7-5.8,1.8-10.5,3.4-14.3c1.6-3.8,3.7-6.6,6.3-8.5c2.6-1.9,5.9-2.8,9.8-2.8 c7.8,0,13.2,3.8,16.2,11.3C317.1,103.6,318.6,114.9,318.6,129.9z M304.1,130.4c0-6.7-0.1-12.2-0.3-16.5c-0.2-4.3-0.6-7.6-1.1-10 c-0.5-2.4-1.2-4-2-4.9c-0.8-0.9-1.8-1.3-2.9-1.3c-1.2,0-2.2,0.4-2.9,1.3c-0.8,0.8-1.4,2.5-1.8,4.9c-0.5,2.4-0.8,5.7-1,9.9 c-0.2,4.2-0.3,9.6-0.3,16.3c0,6.7,0.1,12.2,0.3,16.5c0.2,4.3,0.6,7.6,1.1,10c0.5,2.4,1.1,4,1.9,4.9s1.7,1.3,2.8,1.3 c1.1,0,2.1-0.4,2.9-1.3c0.8-0.8,1.4-2.5,1.9-4.9c0.5-2.4,0.8-5.7,1-9.8S304.1,137.2,304.1,130.4z M368.5,129.5 c0,15.2-1.8,26.5-5.5,33.8c-3.7,7.3-9.6,11-17.6,11h-16.1V86.1h17.5c4.3,0,7.8,1,10.6,3c2.8,2,5,4.8,6.7,8.5 c1.6,3.7,2.8,8.3,3.5,13.7C368.1,116.6,368.5,122.7,368.5,129.5z M354,129.7c0-6.5-0.2-11.7-0.5-15.8c-0.3-4.1-0.8-7.2-1.5-9.5 c-0.7-2.3-1.5-3.8-2.6-4.7c-1.1-0.8-2.3-1.3-3.8-1.3h-2.4v63.5h2.1c1.4,0,2.7-0.4,3.8-1.3c1.1-0.9,2-2.5,2.7-4.8 c0.7-2.3,1.3-5.6,1.6-9.8C353.8,141.9,354,136.4,354,129.7z M379,174.3V86.1h14.1v75.1h16.8v13.1H379z M419.1,174.3V86.1h33v13.1 h-18.9v22.1h14.5v13.1h-14.5v26.8h20v13.1H419.1z M487.5,174.3l-7.3-38.8h-3.5v38.8h-14V86.1h18.4c2.8,0,5.4,0.4,7.7,1.2 c2.4,0.8,4.5,2.1,6.3,4c1.8,1.9,3.2,4.4,4.3,7.5c1,3.1,1.6,7,1.6,11.6c0,5.1-0.7,9.4-2.1,12.9c-1.4,3.5-3.3,6.2-5.7,8.1l8.7,42.8 H487.5z M486.8,111c0-4.9-0.5-8.3-1.6-10.1c-1.1-1.9-2.8-2.8-5.2-2.8h-3.3v25.8h2.9c2.4,0,4.2-1,5.4-2.9 C486.2,119.1,486.8,115.7,486.8,111z"/>
</svg>
