<svg class="header-splash" xmlns="http://www.w3.org/2000/svg" viewBox="0 0 520 176" enable-background="new 0 0 520 176"><title>John Rodler - User Interface Engineer</title><filter id="a"><feGaussianBlur in="SourceAlpha" stdDeviation="2"/><feOffset dx="2" dy="2"/><feMerge><feMergeNode/><feMergeNode in="SourceGraphic"/></feMerge></filter><filter id="c"><feGaussianBlur in="SourceAlpha" stdDeviation="1"/><feOffset dx="1" dy="1"/><feMerge><feMergeNode/><feMergeNode in="SourceGraphic"/></feMerge></filter><defs><linearGradient id="b" x1=".5" x2=".5" y2="1"><stop offset="0" stop-color="#fff"/><stop offset="1" stop-color="#bbb"/></linearGradient></defs><path class="title-path" filter="url(#a)" d="M47.7 48.9c-2.5 2.8-6.5 12.8-6.5 18.5 0 1 .4 1.8 1.4 1.9 1.9 0 2.9-2.7 3.3-3 .1-.3.4-.5.7-.5.3 0 .4.2.4.4 0 1.8-3.2 5.5-5.7 5.5-2.3 0-3-2-3-3.9 0-2.6 1.1-5.6 1.7-6.8h-.1c-3.4 5.9-8.2 10.7-13.5 10.7-4.3 0-5.7-2.4-5.7-5.4 0-4.2 2.7-9.8 4.2-13.4 2.1-5.2 5.7-14.2 5.7-22.5 0-6-3.6-11-10.8-11-5.7 0-13.8 4-15.7 14.4-.2 1.3-.4 2.4-.4 3.6 0 9.5 7.9 13.5 10.8 14.3.7.2 1.2.3 1.6.3 2.3 0 2-1.7 3.3-1.7.7 0 1.4.5 1.4 1.4 0 1.5-2 1.6-3.4 1.6C7.5 53.3 1 46.2 1 36.9.8 26.2 9.2 18 19.3 18 29.9 18 33 24.5 33 31.6c0 8.9-4.7 19.3-5.6 21.9-1.5 4.4-3.7 9.2-3.7 12.3 0 2 .9 3.3 3.3 3.3 3.7 0 9.8-2.6 15.1-15.8 1.4-3.5 2.8-4.5 4.8-4.7 0 0 .8.1.8.3zm14.7 5.9c-.5-.5-.8-1.1-.8-1.8 0-.8.5-1.6 1-2 .1 0 .1-.1.2-.1.3-.2.7-.5.4-.9-.4-.7-1.4-.9-2.3-.9-.8 0-3 .3-4.2 2.4-5.7 9.4 3.8 26.7-1.5 35.6-1 1.7-3.7 5.5-8.9 5.5-3.9 0-7.6-1.6-6.2-6.6.5-1.4 1.7-1.9 2.7-1.9.7 0 1.1.4 1.4.9.9 1.3-1.9 3-.7 4.8.7 1 1.5 1.4 2.9 1.3 1.8 0 3.8-1.4 5.1-3.7 5.5-8.9-3.1-26.6.8-34 2.3-4.6 6.5-5.3 9.1-5.3 1 0 6 .2 5 4.9-.3 1.5-2.3 3.1-4 1.8zM84 55c-2.8 4.7-9.9 7.5-15.1 9.8.1 2 .9 3.6 2.8 4.1 3.5.8 7.1-2.1 9.2-5.6 0 0 .3-.7.8-.5.4.2-.2 1.3-.2 1.3-1.3 3.2-8 9.5-13 7.2-8.2-3.8-.6-18.1 7-21.9 1.4-.8 3.4-1.1 4.5-1 3.5.1 6.1 2.9 4 6.6zm-6.3-5.1c-4.5 2.2-7.7 8.4-8.5 11.8l-.3 1.8c2.3-.9 4.7-2 6.8-3.3 4.3-2.7 5.6-5.6 5.6-5.6 1.4-3.3.1-6.2-3.6-4.7zm25.3-1.8c-1.5 0-3.6.2-5.5 1.3-.8.5-1.7.9-2.7 1.9h-.2c.1-1-.5-2.5-1.9-2.9-2.5-.8-4.5 1.2-6.4 3.1-.1.1-.5.6-.2.9 0 0 .4.5.9.1 1.4-1.4 2.5-2.5 3.7-2 .5.2.9.8.3 2.4-.4 1.1-1.1 2.7-6.5 18.2-.1.4.3.4.3.4s2.4-.6 2.9-.8c.5-.2.7-.6.7-.6s1.1-3.2 2.7-7.3l1.7-4.9c.2-.6.3-.7.3-.8 1.6-4.3 3.5-6 5-6.6l.7-.3.5-.2.7-.3.6-.2.6-.2.4-.1c.4-.1.8-.1 1-.1.9 0 1.9.2 2.3.9.3.4-.1.8-.4.9-.1 0-.1.1-.2.1-.6.4-1 1.2-1 2 0 .7.2 1.3.8 1.8 1.6 1.4 3.7-.3 4.1-1.9.8-4.6-4.2-4.8-5.2-4.8zm75.2-25.4c.6 0 .7.3.7.6s-.1.6-.4.6c-7 1.5-10.3 16.9-13.9 28.7-3.8 12.1-12.7 21.4-24.2 21.4-11.9 0-19.1-9.5-19.1-19.1 0-7.5 4.3-14.5 12.2-17.7.3-.1.6-.2.8-.2.8 0 1.1.6 1.1 1.2 0 .5-.4 1.2-1.2 1.2-.4 0-.8-.1-1.2-.1-.9 0-2.2.3-3.9 2.4-3.6 4.6-4.3 9.1-4.3 12.5 0 .8 0 1.5.1 2.1.2 3.6 3.8 16 16.4 16 17.2 0 20.7-22.5 23.4-31.6 2.7-9.4 6.5-13.8 8.6-15.6-.3.1-.6.1-1.1.1-4 0-14.3-2.9-19.2-2.9-5.6 0-12.6 3.3-12.9 10.1 0 7.9 7.3 9.9 11.2 9.9 5.8 0 4.5-3.4 6.3-3.4.5 0 1.1.6 1.1 1.2 0 .3-.1.7-.5.9-3.3 1.9-6.5 2.7-9.2 2.7-7.3 0-11.8-5.6-11.8-9.9 0-6 6-12.6 15.6-12.6 7.5 0 13.6 2.5 19.5 2.5 1.7 0 3.4-.2 5.1-.8.3-.2.6-.2.8-.2zm4 45.7c0-2.5 1.4-5.6 1.7-6.6 2-5.3 3.3-6.9 3.3-9.4 0-1-.4-1.9-1.8-1.9-3.1 0-6.8 4.8-8.8 10.3-2.1 5.7-3.7 9.5-3.7 9.5s-.1.4-.5.6c-.5.2-3.1.8-3.1.8s-.3 0-.3-.4c.1-.4 6.6-17.1 6.6-17.1s.5-1.3.5-2.4c0-.7-.3-1.4-1-1.4-1.5 0-3.6 2.9-3.6 2.9s-.2.3-.5.3-.5-.2-.5-.4.1-.4.1-.4 3-4.7 5.8-4.7c1.6 0 2.8 1.4 2.8 3.1 0 .9-.2 2-.8 3.4h.1c1.5-2 4.4-6.3 8-6.3 3.1 0 4 2.1 4 3.8 0 2.3-3.9 12.3-4.6 14 0 0-.3.8-.3 1.5 0 .8.3 1.5 1.4 1.6 2.3 0 2.8-3.4 3.9-3.4.3 0 .5.3.5.5v.3c-.7 2.1-3 5.2-6.1 5.2-.4 0-.7 0-1.1-.1-1.5-.5-2-1.8-2-3.3zm64.3-28.3c0 1.7-.9 3.5-2.5 4.8-.5.4-2.3 1.2-3.2 1.2-.2 0-.4 0-.4-.1s.3-.3.8-.6c1.6-1.2 2.7-3 2.7-4.7 0-.6-.2-1.3-.5-1.9-2.1-3.7-7.7-5-14.6-5-6.9 0-15.7 1.4-22 4.1l-.6 1.8-7.3 22.1c-.8 2.4-1.4 4.4-1.3 5.8 0 1 .3 1.7.9 1.7 1.9 0 2.6-1.7 3.5-3.1 0 0 .2-.3.5-.3s.5.2.5.4v.3c-.9 2.3-3.4 5.1-6.2 5.1-2.3 0-3-1.3-3-3 0-1.6.6-3.5 1.1-5 .3-.9 1.2-3.6 2.3-6.8.3-.9.5-2.2.5-3.4 0-3.7-.7-5.2-.7-6.2 0-4.7 4.5-7.9 6.7-9 1.5-3.3 3-4.9 4.9-5.1 0 0 .8 0 .8.3 0-.1-1.3 1.6-1.9 3.1 6.6-2.5 14.6-4.1 22-4.1 6 0 13.8.9 16.6 5.3.2.7.4 1.5.4 2.3zm-43.5-.4c-2.1 1.4-4.9 3.7-5 7.2 0 1.2.5 2.2.6 5.4 1.8-5.2 3.9-10.9 4.4-12.6zM223.8 55c-2.8 4.7-9.9 7.5-15.1 9.8.1 2 .9 3.6 2.8 4.1 3.5.8 7.1-2.1 9.2-5.6 0 0 .3-.7.8-.5.4.2-.2 1.3-.2 1.3-1.3 3.2-8 9.5-13 7.2-8.2-3.8-.6-18.1 7-21.9 1.4-.8 3.4-1.1 4.5-1 3.5.1 6.1 2.9 4 6.6zm-6.3-5.1c-4.5 2.2-7.7 8.4-8.5 11.8l-.3 1.8c2.3-.9 4.7-2 6.8-3.3 4.3-2.7 5.6-5.6 5.6-5.6 1.4-3.3.1-6.2-3.6-4.7zm25-1.8c-1.5 0-3.6.2-5.5 1.3-.8.5-1.7.9-2.7 1.9h-.2c.1-1-.5-2.5-1.9-2.9-2.5-.8-4.5 1.2-6.4 3.1-.1.1-.5.6-.2.9 0 0 .4.5.9.1 1.4-1.4 2.5-2.5 3.7-2 .5.2.9.8.3 2.4-.4 1.1-1.1 2.7-6.5 18.2-.1.4.3.4.3.4s2.4-.6 2.9-.8c.5-.2.7-.6.7-.6s1.1-3.2 2.7-7.3l1.7-4.9c.2-.6.3-.7.3-.8 1.6-4.3 3.5-6 5-6.6l.7-.3.5-.2.7-.3.6-.2.6-.2.4-.1c.4-.1.8-.1 1-.1.9 0 1.9.2 2.3.9.3.4-.1.8-.4.9-.1 0-.1.1-.2.1-.6.4-1 1.2-1 2 0 .7.2 1.3.8 1.8 1.6 1.4 3.7-.3 4.1-1.9.8-4.6-4.2-4.8-5.2-4.8zm31.3-12.3c0 .9-.6 1.4-.6 1.4s-.7.4-1.4.4c-.6 0-1.2-.3-1.5-1.3-.6-2.1-1.7-2.8-2.9-2.8-.5 0-.9.1-1.4.2 0 0-3.3.9-5.5 7.1-.5 1.4-1.3 3.9-2.5 7.8h6.6s.5 0 .5.8c0 1-.7 1-.7 1h-7s.1-.4-2.1 6.3c-1 3-1.9 6.2-2.9 9.2-5.2 16.7-15.8 36.5-33 42.3-3.2 1.1-6.3 1.8-9.4 1.8-5.5 0-14.2-2.4-14.2-10.2 0-10.4 16.3-15.9 20.6-15.9.6 0 1.6 0 1.6.9 0 .8-.6 1.1-1 1.1s-.7-.2-.7-.2c-.7-.2-1.4-.3-2-.3-5.1 0-15.2 5.9-15.2 13.4 0 7.1 7.1 9.7 12.9 9.7 2.3 0 4.5-.4 6.4-1 19.9-6.8 27.9-32.5 34-53 .2-.6.3-1.3.3-1.8 0-1.5-.7-2.4-2.4-2.4h-1s-.7 0-.7-.9c0-1 .7-.9.7-.9h5.1c.3-.8.4-1.3.4-1.3 1-2.3 4.4-15.1 13.5-15.1 2.2 0 4.3.8 5.2 2.3.2.7.3 1.1.3 1.4zm13.7 54.8c.6 1.1-2.6 2.1-6.1.7-6.6-2.6-8.8-13-3.8-27.5h-.1c-1.1 2.7-5.3 7.7-9.4 7.7-3.7 0-5.2-3.4-5.2-6.2 0-7 7.5-17.1 13.3-17.1 1 0 4.5.5 4.5 5.2v.5c1.5-4.1 3-5 5.1-5.2 0 0 .7 0 .7.3 0 0 0 .1-.1.2-1.3 1.1-2.4 5-2.4 5-8.7 22.6-7.1 33.5-1.4 36.1 2.4 1.1 4-1.4 4.9.3zm-17.4-21.8c5.8 0 9.3-10.8 9.3-14.5 0-2.8-.9-4.3-2.8-4.3-4.2 0-8.7 7.7-9.6 11.6-.2 1-.4 2-.4 3 0 2 .7 3.7 2.3 4.1.5 0 .8.1 1.2.1zM301 50.5c0-.3-.2-.9-1.6-.9-.5 0-1.3.1-2.1.5-5.4 2.8-8.1 11-8.1 13.6 0 2.9 1.6 5.2 4.7 5.2 3 0 5.4-2.7 7-5.7 0 0 .2-.5.6-.5.2 0 .3.2.3.4 0 2.2-5 8.6-10 8.6-4.6 0-6.5-3.9-6.5-7.1 0-7.2 7.2-16.3 13.7-16.3 4.3 0 5.3 3 5.3 3.9 0 2.8-1.6 3.6-2.9 3.6-2.2 0-2.9-1.6-2.9-2.4 0-.9.7-1.8 1.3-1.9 1-.4 1.2-.7 1.2-1zm22.2 4.5c-2.8 4.7-9.9 7.5-15.1 9.8.1 2 .9 3.6 2.8 4.1 3.5.8 7.1-2.1 9.2-5.6 0 0 .3-.7.8-.5.4.2-.2 1.3-.2 1.3-1.3 3.2-8 9.5-13 7.2-8.2-3.8-.6-18.1 7-21.9 1.4-.8 3.4-1.1 4.5-1 3.5.1 6.1 2.9 4 6.6zm-6.3-5.1c-4.5 2.2-7.7 8.4-8.5 11.8l-.3 1.8c2.3-.9 4.7-2 6.8-3.3 4.3-2.7 5.6-5.6 5.6-5.6 1.3-3.3.1-6.2-3.6-4.7zm61.7-18.8c-3.6 3.6-9.7 7.3-20.6 9.2 1.6 3 5.5 3.9 7 3.2.5-.3.6.2.4.4-.5.6-1.5.8-1.9.9-.4 0-.8.1-1.2.1-3.3.5-18.2 2.3-19.3 17.6-.4 4.8 2.9 10.2 9.1 10.9-.3-2.6-.1-5.7 1-9.4 1.5-5.2 9.4-15.9 16.6-12.6 6.4 3.2-1.3 22.3-15.5 23.4.8 3.3 2.8 6.7 6.9 9.9.3.2.6 1.1-.7.8-.5-.1-6.6-3.1-8.1-10.6-6.7-.2-12.6-2.8-13.5-10.5-1.1-9.4 10.6-18.8 19.1-19.7h.3c-2.6-.6-4.1-1.9-4.7-3.8-1 .1-2.2.2-3.3.3-19.8 1.5-38.1-5.3-38.5-20.1.3-17.9 26-25.2 44.8-18 2 .8 1.8 2 1.4 2.6-.5.8-1.4.8-2.5.3-1.6-.8-1.9-2.7-8.9-3.8-41.5-4.1-44 37.7 3.6 37.6 1.1-.1 2.1-.2 3.1-.3-.3-4 2.8-9.4 8.3-13.6 12.7-10 26-5.5 17.1 5.2zM354 73.4c1.2 0 2.5-.2 3.8-.6 10.2-2.9 14.5-17.6 10.2-19.4-4-1.7-9.1 3.4-11.3 7.6-1.4 2.5-3.4 7.2-2.7 12.4zm24.2-49.8c-2-2.7-6.2-2-9.9-.2-3.3 1.6-12.9 8-10.9 15.5 18.7-3.1 23.2-11.8 20.8-15.3zm9 44.8c0-2.5 1.4-5.6 1.7-6.6 2-5.3 3.3-6.9 3.3-9.4 0-1-.4-1.9-1.8-1.9-3.1 0-6.8 4.8-8.8 10.3-2.1 5.7-3.7 9.5-3.7 9.5s-.1.4-.5.6c-.5.2-3.1.8-3.1.8s-.3 0-.3-.4c.1-.4 6.6-17.1 6.6-17.1s.5-1.3.5-2.4c0-.7-.3-1.4-1-1.4-1.5 0-3.6 2.9-3.6 2.9s-.2.3-.5.3-.5-.2-.5-.4.1-.4.1-.4 3-4.7 5.8-4.7c1.6 0 2.8 1.4 2.8 3.1 0 .9-.2 2-.8 3.4h.1c1.5-2 4.4-6.3 8-6.3 3.1 0 4 2.1 4 3.8 0 2.3-3.9 12.3-4.6 14 0 0-.3.8-.3 1.5 0 .8.3 1.5 1.4 1.6 2.3 0 2.8-3.4 3.9-3.4.3 0 .5.3.5.5v.3c-.7 2.1-3 5.2-6.1 5.2-.4 0-.7 0-1.1-.1-1.5-.5-2-1.8-2-3.3zm49.6 17.2c0 7-5.7 14.1-11.3 16.2-.4.2-.9.3-1.3.3-.7 0-1.4-.3-1.4-1 0-2.3 3.8-.8 7-3.6 2.3-2.1 5.4-6.9 5.4-11.4 0-8.9-14.8-10.6-21.3-10.8-4.9 15.5-14.1 30-30.8 34.7-2.6.8-6 1.4-9.2 1.4-6.2 0-12.8-2.9-12.8-10.4 0-2.3.8-4.7 2.2-6.9 6.3-9.5 19.3-14.8 30.5-17.7 5.4-1.4 11.2-2.3 17-2.5 0-.1 0-.2.1-.3.7-2.3 2.5-8.5 2.9-9.7h-.1c-1 2.7-5.3 7.7-9.3 7.7-3.9 0-5.6-3.7-5.6-6.6 0-7 7.7-16.8 13.4-16.8 1.1 0 4.6.5 4.6 5.7 1.4-4.1 2.9-5.1 5.1-5.2 0 0 .7 0 .7.2 0 0 0 .1-.1.2-2.2 1.9-3.1 8-4.8 13.2l-3 10.4-.3 1.2c5.9 0 22.4 2 22.4 11.7zm-26.3-10.3c-8 0-16.1 1.9-23.6 4.3-9.9 3.2-24.1 11.2-24.1 21.2 0 2.3.9 4.6 2.5 6.4 2 2 5.3 2.8 8.8 2.8 4.6 0 9.5-1.3 12.1-2.4 13.8-6 20.2-18.8 24.3-32.3zm-4.1-6.5c5.7 0 9.2-10.7 9.2-14.4 0-3.1-1.1-4.4-2.9-4.4-4 .2-8 7-9.2 11-.2.4-.5 2.6-.5 3.5 0 2 .6 3.8 2.3 4.2.4.1.7.1 1.1.1zM423 51.5c-.5 0-.5-.3-.5-.4 0-.9 2.9-2.8 5-2.8 2.8 0 3.8 1.8 3.8 3.3 0 1.4-.6 3-1.1 4.4-3.3 7.8-4.1 11.5-4.1 11.7 0 .7.4 1.6 1.6 1.6 1.8 0 2.6-1.7 3.5-3.1 0 0 .2-.3.5-.3s.5.3.5.5v.3c-1 2.5-3.7 5.2-6.6 5.2-2.5 0-3.2-1.5-3.2-3 0-2 3.9-11.1 4.7-13.9 0 0 .8-1.9.8-3.3 0-.7-.3-1.5-1-1.5-.9 0-1.9.5-2.8 1-.6.2-.9.3-1.1.3zm5.9-9.5c0-1.3 1.2-2.5 2.5-2.5s2.5 1.2 2.5 2.5c0 1.4-1.2 2.5-2.5 2.5s-2.5-1.1-2.5-2.5zm17.7 26.4c0-2.5 1.4-5.6 1.7-6.6 2-5.3 3.3-6.9 3.3-9.4 0-1-.4-1.9-1.8-1.9-3.1 0-6.8 4.8-8.8 10.3-2.1 5.7-3.7 9.5-3.7 9.5s-.1.4-.5.6c-.5.2-3.1.8-3.1.8s-.3 0-.3-.4c.1-.4 6.6-17.1 6.6-17.1s.5-1.3.5-2.4c0-.7-.3-1.4-1-1.4-1.5 0-3.6 2.9-3.6 2.9s-.2.3-.5.3-.5-.2-.5-.4.1-.4.1-.4 3-4.7 5.8-4.7c1.6 0 2.8 1.4 2.8 3.1 0 .9-.2 2-.8 3.4h.1c1.5-2 4.4-6.3 8-6.3 3.1 0 4 2.1 4 3.8 0 2.3-3.9 12.3-4.6 14 0 0-.3.8-.3 1.5 0 .8.3 1.5 1.4 1.6 2.3 0 2.8-3.4 3.9-3.4.3 0 .5.3.5.5v.3c-.7 2.1-3 5.2-6.1 5.2-.4 0-.7 0-1.1-.1-1.5-.5-2-1.8-2-3.3zm30-13.4c-2.8 4.7-9.9 7.5-15.1 9.8.1 2 .9 3.6 2.8 4.1 3.5.8 7.1-2.1 9.2-5.6 0 0 .3-.7.8-.5.4.2-.2 1.3-.2 1.3-1.3 3.2-8 9.5-13 7.2-8.2-3.8-.6-18.1 7-21.9 1.4-.8 3.4-1.1 4.5-1 3.5.1 6 2.9 4 6.6zm-6.4-5.1c-4.5 2.2-7.7 8.4-8.5 11.8l-.3 1.8c2.3-.9 4.7-2 6.8-3.3 4.3-2.7 5.6-5.6 5.6-5.6 1.4-3.3.1-6.2-3.6-4.7zm25.7 5.1c-2.8 4.7-9.9 7.5-15.1 9.8.1 2 .9 3.6 2.8 4.1 3.5.8 7.1-2.1 9.2-5.6 0 0 .3-.7.8-.5.4.2-.2 1.3-.2 1.3-1.3 3.2-8 9.5-13 7.2-8.2-3.8-.6-18.1 7-21.9 1.4-.8 3.4-1.1 4.5-1 3.5.1 6.1 2.9 4 6.6zm-6.3-5.1c-4.5 2.2-7.7 8.4-8.5 11.8l-.3 1.8c2.3-.9 4.7-2 6.8-3.3 4.3-2.7 5.6-5.6 5.6-5.6 1.4-3.3.1-6.2-3.6-4.7zm25-1.8c-1.5 0-3.6.2-5.5 1.3-.8.5-1.7.9-2.7 1.9h-.2c.1-1-.5-2.5-1.9-2.9-2.5-.8-4.5 1.2-6.4 3.1-.1.1-.5.6-.2.9 0 0 .4.5.9.1 1.4-1.4 2.5-2.5 3.7-2 .5.2.9.8.3 2.4-.4 1.1-1.1 2.7-6.5 18.2-.1.4.3.4.3.4s2.4-.6 2.9-.8c.5-.2.7-.6.7-.6s1.1-3.2 2.7-7.3l1.7-4.9c.2-.6.3-.7.3-.8 1.6-4.3 3.5-6 5-6.6l.7-.3.5-.2.7-.3.6-.2.6-.2.4-.1c.4-.1.8-.1 1-.1.9 0 1.9.2 2.3.9.3.4-.1.8-.4.9-.1 0-.1.1-.2.1-.6.4-1 1.2-1 2 0 .7.2 1.3.8 1.8 1.6 1.4 3.7-.3 4.1-1.9.8-4.6-4.2-4.8-5.2-4.8z"/><path class="name-path" fill="url(#b)" filter="url(#c)" d="M33.4 169.7c-3.2 3.9-7.9 5.9-14.2 5.9-3.4 0-6.2-.6-8.5-1.8-2.3-1.2-4.2-2.8-5.7-4.9-1.5-2.1-2.6-4.6-3.3-7.4-.7-2.9-1.2-6-1.4-9.3l13.5-2.8c.2 2.6.4 4.7.7 6.4.3 1.7.6 3 1.1 4 .4 1 .9 1.7 1.6 2.1.6.4 1.4.6 2.3.6 1.7 0 2.9-.8 3.5-2.3.7-1.6 1-4.3 1-8.3v-66h14.2V151c0 8.5-1.6 14.8-4.8 18.7zm56.4-39.8c0 7.7-.3 14.4-1 20.2-.7 5.7-1.8 10.5-3.5 14.2-1.6 3.8-3.8 6.6-6.5 8.5-2.7 1.9-6 2.8-10 2.8-3.9 0-7.1-.9-9.7-2.8-2.6-1.8-4.7-4.6-6.2-8.4-1.6-3.7-2.7-8.4-3.3-14.1-.7-5.7-1-12.3-1-20 0-7.6.3-14.3 1-20.1.7-5.8 1.8-10.5 3.4-14.3 1.6-3.8 3.7-6.6 6.3-8.5 2.6-1.9 5.9-2.8 9.8-2.8 7.8 0 13.2 3.8 16.2 11.3 3 7.7 4.5 19 4.5 34zm-14.5.5c0-6.7-.1-12.2-.3-16.5-.2-4.3-.6-7.6-1.1-10-.5-2.4-1.2-4-2-4.9-.8-.9-1.8-1.3-2.9-1.3-1.2 0-2.2.4-2.9 1.3-.8.8-1.4 2.5-1.8 4.9-.5 2.4-.8 5.7-1 9.9-.2 4.2-.3 9.6-.3 16.3 0 6.7.1 12.2.3 16.5.2 4.3.6 7.6 1.1 10 .5 2.4 1.1 4 1.9 4.9.8.9 1.7 1.3 2.8 1.3 1.1 0 2.1-.4 2.9-1.3.8-.8 1.4-2.5 1.9-4.9.5-2.4.8-5.7 1-9.8.3-4.2.4-9.6.4-16.4zm50.7 43.9v-40.4h-11.6v40.4h-14.1V86.1h14.1v34.7H126V86.1h14.1v88.2H126zm55.7 0l-8.6-27.1c-.7-2.2-1.4-4.5-2.1-7.1-.8-2.5-1.5-5-2.1-7.6-.7-2.5-1.3-4.9-2-7.1-.6-2.2-1.2-4.2-1.6-5.9 0 1.6 0 3.5.1 5.7 0 2.2.1 4.5.1 6.9 0 2.4.1 4.8.1 7.2 0 2.4.1 4.6.1 6.5v28.5h-13.1V86.1h12.7l6.9 21.5c.6 1.8 1.2 3.8 2 6 .7 2.3 1.4 4.5 2.1 6.8.7 2.3 1.3 4.5 1.9 6.7.6 2.2 1.1 4.1 1.5 5.8 0-1.5 0-3.3-.1-5.5 0-2.1-.1-4.4-.1-6.7s-.1-4.6-.1-6.7c0-2.2-.1-4.1-.1-5.8V86.1h13.1v88.2h-10.7zm73 0l-7.3-38.8h-3.5v38.8h-14V86.1h18.4c2.8 0 5.4.4 7.7 1.2 2.4.8 4.5 2.1 6.3 4 1.8 1.9 3.2 4.4 4.3 7.5 1 3.1 1.6 7 1.6 11.6 0 5.1-.7 9.4-2.1 12.9-1.4 3.5-3.3 6.2-5.7 8.1l8.7 42.8h-14.4zm-.8-63.3c0-4.9-.5-8.3-1.6-10.1-1.1-1.9-2.8-2.8-5.2-2.8h-3.3v25.8h2.9c2.4 0 4.2-1 5.4-2.9 1.2-1.9 1.8-5.3 1.8-10zm64.7 18.9c0 7.7-.3 14.4-1 20.2-.7 5.7-1.8 10.5-3.5 14.2-1.6 3.8-3.8 6.6-6.5 8.5-2.7 1.9-6 2.8-10 2.8-3.9 0-7.1-.9-9.7-2.8-2.6-1.8-4.7-4.6-6.2-8.4-1.6-3.7-2.7-8.4-3.3-14.1-.7-5.7-1-12.3-1-20 0-7.6.3-14.3 1-20.1.7-5.8 1.8-10.5 3.4-14.3 1.6-3.8 3.7-6.6 6.3-8.5 2.6-1.9 5.9-2.8 9.8-2.8 7.8 0 13.2 3.8 16.2 11.3 3 7.7 4.5 19 4.5 34zm-14.5.5c0-6.7-.1-12.2-.3-16.5-.2-4.3-.6-7.6-1.1-10-.5-2.4-1.2-4-2-4.9-.8-.9-1.8-1.3-2.9-1.3-1.2 0-2.2.4-2.9 1.3-.8.8-1.4 2.5-1.8 4.9-.5 2.4-.8 5.7-1 9.9-.2 4.2-.3 9.6-.3 16.3 0 6.7.1 12.2.3 16.5.2 4.3.6 7.6 1.1 10 .5 2.4 1.1 4 1.9 4.9s1.7 1.3 2.8 1.3c1.1 0 2.1-.4 2.9-1.3.8-.8 1.4-2.5 1.9-4.9.5-2.4.8-5.7 1-9.8s.4-9.6.4-16.4zm64.4-.9c0 15.2-1.8 26.5-5.5 33.8-3.7 7.3-9.6 11-17.6 11h-16.1V86.1h17.5c4.3 0 7.8 1 10.6 3s5 4.8 6.7 8.5c1.6 3.7 2.8 8.3 3.5 13.7.5 5.3.9 11.4.9 18.2zm-14.5.2c0-6.5-.2-11.7-.5-15.8-.3-4.1-.8-7.2-1.5-9.5s-1.5-3.8-2.6-4.7c-1.1-.8-2.3-1.3-3.8-1.3h-2.4v63.5h2.1c1.4 0 2.7-.4 3.8-1.3 1.1-.9 2-2.5 2.7-4.8.7-2.3 1.3-5.6 1.6-9.8.4-4.1.6-9.6.6-16.3zm25 44.6V86.1h14.1v75.1h16.8v13.1H379zm40.1 0V86.1h33v13.1h-18.9v22.1h14.5v13.1h-14.5v26.8h20v13.1h-34.1zm68.4 0l-7.3-38.8h-3.5v38.8h-14V86.1h18.4c2.8 0 5.4.4 7.7 1.2 2.4.8 4.5 2.1 6.3 4 1.8 1.9 3.2 4.4 4.3 7.5 1 3.1 1.6 7 1.6 11.6 0 5.1-.7 9.4-2.1 12.9-1.4 3.5-3.3 6.2-5.7 8.1l8.7 42.8h-14.4zm-.7-63.3c0-4.9-.5-8.3-1.6-10.1-1.1-1.9-2.8-2.8-5.2-2.8h-3.3v25.8h2.9c2.4 0 4.2-1 5.4-2.9 1.2-1.9 1.8-5.3 1.8-10z"/></svg>