<?xml version="1.0" encoding="utf-8"?>
<!-- Generator: Adobe Illustrator 18.1.0, SVG Export Plug-In . SVG Version: 6.00 Build 0)  -->
<svg version="1.1" id="Layer_1" xmlns="http://www.w3.org/2000/svg" xmlns:xlink="http://www.w3.org/1999/xlink" x="0px" y="0px"
	 viewBox="0 0 300 300" enable-background="new 0 0 300 300" xml:space="preserve">
<g>
	<path d="M150,20C78.2,20,20,78.2,20,150s58.2,130,130,130s130-58.2,130-130S221.8,20,150,20z M150,265c-63.5,0-115-51.5-115-115
		S86.5,35,150,35s115,51.5,115,115S213.5,265,150,265z"/>
</g>
<path d="M159.1,149l50.1-50.1c2.5-2.5,2.5-6.6,0-9.1s-6.6-2.5-9.1,0L150,139.9L99.9,89.9c-2.5-2.5-6.6-2.5-9.1,0s-2.5,6.6,0,9.1
	l50.1,50.1l-50.1,50.1c-2.5,2.5-2.5,6.6,0,9.1s6.6,2.5,9.1,0l50.1-50.1l50.1,50.1c2.5,2.5,6.6,2.5,9.1,0s2.5-6.6,0-9.1L159.1,149z"
	/>
</svg>
