<svg version="1.1" class="linkedin-icon" xmlns="http://www.w3.org/2000/svg" xmlns:xlink="http://www.w3.org/1999/xlink" x="0px" y="0px"
	 viewBox="0 0 28 28" enable-background="new 0 0 28 28" xml:space="preserve">
	<path id="LinkedIn__x28_alt_x29__1_" fill="#B3B3B3" d="M25.9,0H2.1C0.9,0,0,0.9,0,2v24c0,1.1,0.9,2,2.1,2h23.9c1.1,0,2.1-0.9,2.1-2
		V2C28,0.9,27.1,0,25.9,0z M8.5,23.4H4.3V10.8h4.2V23.4z M6.4,9.1L6.4,9.1C4.9,9.1,4,8.1,4,6.9C4,5.6,5,4.7,6.4,4.7
		c1.4,0,2.3,0.9,2.4,2.2C8.8,8.1,7.8,9.1,6.4,9.1z M23.7,23.4h-4.2v-6.8c0-1.7-0.6-2.9-2.1-2.9c-1.2,0-1.9,0.8-2.2,1.5
		c-0.1,0.3-0.1,0.6-0.1,1v7.1h-4.2c0,0,0.1-11.5,0-12.6h4.2v1.8c0.6-0.9,1.6-2.1,3.8-2.1c2.8,0,4.9,1.8,4.9,5.7V23.4z M15,12.6
		C15,12.6,15,12.6,15,12.6L15,12.6L15,12.6z"/>
</svg>