<svg version="1.1" class="pinterest-icon" xmlns="http://www.w3.org/2000/svg" xmlns:xlink="http://www.w3.org/1999/xlink" x="0px" y="0px"
	 viewBox="0 0 27.8 27.8" enable-background="new 0 0 27.8 27.8" xml:space="preserve">
	<path d="M8.2,26.6C1.6,23.9-1.7,15.7,0.9,9C3.6,1.9,11.5-1.7,18.6,0.8c7.2,2.6,10.9,10.4,8.4,17.7
		c-2.3,6.8-10.2,10.9-16.8,8.8c0.7-2.2,1.5-4.4,2.2-6.6c2.1,1.9,4.9,2,7.4,0.1c3-2.3,4.4-7.8,2.8-11.2C21.3,6.8,19,5.2,16,4.8
		c-4-0.5-7.5,0.5-9.9,3.9c-1.8,2.4-2.1,5.1-0.9,7.9c0.4,0.9,1.1,1.6,1.9,2c0.5,0.3,0.8,0.1,1-0.4c0.2-0.8,0.2-1.4-0.3-2.2
		c-1-1.6-0.8-3.3-0.1-5C9.4,7.1,15,5.7,18.2,8.4c1,0.9,1.5,2,1.6,3.4c0.1,2-0.2,3.9-1.1,5.7c-0.6,1.1-1.4,1.9-2.6,2.2
		c-1.9,0.4-3.2-0.9-2.8-2.7c0.3-1.2,0.7-2.5,1-3.7c0.1-0.3,0.1-0.7,0.1-1c0-0.9-0.4-1.7-1.1-2.1c-0.8-0.3-1.8-0.1-2.4,0.6
		c-1.2,1.3-1.2,2.8-0.9,4.4c0.1,0.5,0.1,1.1,0,1.6c-0.5,2.5-1.1,4.9-1.7,7.3C8.3,24.9,8.3,25.7,8.2,26.6z"/>
</svg>