<svg version="1.1" class="gchat-icon" xmlns="http://www.w3.org/2000/svg" xmlns:xlink="http://www.w3.org/1999/xlink" x="0px" y="0px"
	 viewBox="0 0 28 28" enable-background="new 0 0 28 28" xml:space="preserve">
	<path id="Google_Talk_3_" fill-rule="evenodd" clip-rule="evenodd" fill="#B3B3B3" d="M28,11.2C28,5,21.7,0,14,0C6.3,0,0,5,0,11.2
		c0,5.4,4.7,9.8,11,10.9c-0.1,1.8-0.5,3.8-1.3,5.9c3.1-0.8,5.8-3.6,7.7-6C23.5,20.8,28,16.4,28,11.2z M20,18c-0.2,0-0.4,0.1-0.6,0.1
		c-0.2,0-0.4,0-0.6,0c-0.2,0-0.4,0-0.5,0c2.2-1.6,3.6-4.1,3.6-7c0-3.1-1.7-5.9-4.3-7.4c0.4-0.1,0.8-0.1,1.2-0.1
		c3.7,0,6.7,3.2,6.7,7.3C25.6,14.5,23.2,17.4,20,18z"/>
</svg>
