<svg version="1.1" class="email-icon" xmlns="http://www.w3.org/2000/svg" xmlns:xlink="http://www.w3.org/1999/xlink" x="0px" y="0px"
	 viewBox="0 0 26.2 27.8" enable-background="new 0 0 26.2 27.8" xml:space="preserve">
	<path fill="#B3B3B3" d="M20,7.7c0-0.2-0.1-0.5-0.3-0.6c-1.2-0.5-2.8-0.9-4.3-0.9c-5.3,0-9.6,4.3-9.6,9.6c0,3.5,2.4,5.4,4.7,5.4
		c2.1,0,3.8-0.8,5.1-2.6c0.1,0.6,0.4,1.2,0.8,1.6c0.6,0.6,1.5,1,2.4,1c3.7,0,7.4-3.3,7.4-9.7C26.2,4.8,21.4,0,14.5,0
		C6.2,0,0,6.6,0,15.3c0,7.2,5.1,12.5,12.2,12.5c2.8,0,5-0.5,7.1-1.6c0.2-0.1,0.3-0.4,0.3-0.7l-0.6-1.6c-0.1-0.1-0.2-0.3-0.3-0.3
		c-0.1-0.1-0.3,0-0.4,0c-1.5,0.8-3.4,1.3-5.5,1.3c-5.6,0-9.3-3.9-9.3-9.8c0-7.1,4.6-12.2,11-12.2c5.4,0,8.7,3.5,8.7,9
		c0,4-1.9,6.5-3.6,6.5c-0.3,0-0.5-0.1-0.6-0.3c-0.2-0.3-0.5-1.1-0.1-3.4L20,7.7z M15,9.4c0.5,0,0.9,0,1.3,0.1l-0.7,3.8
		c-0.4,2.2-2.3,4.8-4.2,4.8c-1.8,0-2-1.7-2-2.4C9.4,12.3,11.9,9.4,15,9.4z"/>
</svg>
