<svg version="1.1" class="github-icon" xmlns="http://www.w3.org/2000/svg" xmlns:xlink="http://www.w3.org/1999/xlink" x="0px" y="0px"
	 viewBox="0 0 28 27.3" enable-background="new 0 0 28 27.3" xml:space="preserve">
	<path fill="#B3B3B3" d="M14,0C6.3,0,0,6.3,0,14c0,6.2,4,11.4,9.6,13.3c0.7,0.1,1-0.3,1-0.7c0-0.3,0-1.4,0-2.6
		c-3.9,0.8-4.7-1.7-4.7-1.7c-0.6-1.6-1.6-2-1.6-2c-1.3-0.9,0.1-0.9,0.1-0.9c1.4,0.1,2.1,1.4,2.1,1.4c1.2,2.1,3.3,1.5,4.1,1.2
		c0.1-0.9,0.5-1.5,0.9-1.9c-3.1-0.4-6.4-1.6-6.4-6.9c0-1.5,0.5-2.8,1.4-3.8C6.4,9.2,5.9,7.7,6.6,5.8c0,0,1.2-0.4,3.9,1.4
		c1.1-0.3,2.3-0.5,3.5-0.5c1.2,0,2.4,0.2,3.5,0.5c2.7-1.8,3.8-1.4,3.8-1.4c0.8,1.9,0.3,3.4,0.1,3.7c0.9,1,1.4,2.2,1.4,3.8
		c0,5.4-3.3,6.6-6.4,6.9c0.5,0.4,1,1.3,1,2.6c0,1.9,0,3.4,0,3.8c0,0.4,0.3,0.8,1,0.7C24,25.4,28,20.2,28,14C28,6.3,21.7,0,14,0z"/>
</svg>